<?xml version="1.0" encoding="utf-8"?>
<!-- Generator: Adobe Illustrator 23.0.0, SVG Export Plug-In . SVG Version: 6.00 Build 0)  -->
<svg version="1.1" id="Layer_1" xmlns="http://www.w3.org/2000/svg" xmlns:xlink="http://www.w3.org/1999/xlink" x="0px" y="0px"
	 viewBox="0 0 2400 820" style="enable-background:new 0 0 2400 820;" xml:space="preserve">
<style type="text/css">
	.st0{fill:#FBA919;}
	.st1{fill:#40C4E0;}
	.st2{fill:#FFFFFF;stroke:#000000;stroke-width:9.4474;stroke-linecap:round;stroke-linejoin:round;}
	.st3{fill:#027ABB;}
	.st4{fill:#FBAEFF;}
	.st5{fill:none;stroke:#000000;stroke-width:7.0856;stroke-linecap:round;stroke-linejoin:round;}
	.st6{fill:#EC0B00;stroke:#000000;stroke-width:7.0856;stroke-linecap:round;stroke-linejoin:round;}
	.st7{fill:#D41600;stroke:#000000;stroke-width:7.0856;stroke-miterlimit:10;}
	.st8{fill:#FF3FCF;stroke:#000000;stroke-width:7.0856;stroke-linecap:round;stroke-linejoin:round;}
	.st9{fill:#FF3FCF;stroke:#000000;stroke-width:7.0856;stroke-miterlimit:10;}
	.st10{fill:none;}
	.st11{fill:#FFFFFF;stroke:#000000;stroke-width:7.0856;stroke-linecap:round;stroke-linejoin:round;}
	.st12{fill:#FFCCCC;}
	.st13{fill:#8EDF43;}
	.st14{fill:#A500EC;}
	.st15{fill:#FFFF3E;}
	.st16{fill:none;stroke:#000000;stroke-width:7.0856;stroke-linecap:round;stroke-miterlimit:10;}
	.st17{fill:#EC008C;}
	.st18{fill:#42210B;stroke:#000000;stroke-width:7.3104;stroke-linecap:round;stroke-linejoin:round;}
	.st19{fill:none;stroke:#000000;stroke-width:6.8231;stroke-linecap:round;stroke-linejoin:round;}
	.st20{fill:#D9F1FD;}
	.st21{fill:#EC008C;stroke:#000000;stroke-width:7.0856;stroke-linecap:round;stroke-linejoin:round;}
	.st22{fill:#876B1D;}
	.st23{fill:#34658A;}
	.st24{fill:#A500EC;stroke:#000000;stroke-width:7.0856;stroke-linecap:round;stroke-linejoin:round;}
	.st25{fill:#FBA919;stroke:#000000;stroke-width:7.0856;stroke-linecap:round;stroke-linejoin:round;}
	.st26{fill:#FFC8B0;}
	.st27{fill:#FF7C00;}
	.st28{fill:#34658A;stroke:#000000;stroke-width:7.0856;stroke-linecap:round;stroke-linejoin:round;}
	.st29{fill:#8B6239;stroke:#000000;stroke-width:7.0856;stroke-linecap:round;stroke-linejoin:round;}
	.st30{fill:#FF0000;stroke:#000000;stroke-width:7.0856;stroke-linecap:round;stroke-linejoin:round;}
	.st31{fill:#F26524;stroke:#000000;stroke-width:7.0856;stroke-linecap:round;stroke-linejoin:round;}
	.st32{fill:#1C0D02;stroke:#000000;stroke-width:7.0856;stroke-linecap:round;stroke-linejoin:round;}
</style>
<title>Asset 3</title>
<g id="Layer_2_1_">
	<g id="Layer_3">
		<path class="st0" d="M2400,345.7c-7.2-1.9-14.4-3.4-21.6-4.1c-52.5-5.3-10.6-78.2-30.7-108.9c-9.8-15.4-34.1-22.1-46.3-8.6
			c-8.2,9.1-7.9,22.6-12.7,33.8c-9.8,23-40.8,31.9-63.6,22.1c-22.8-9.8-37.4-34.1-41.3-58.5c-4.6-27.4,1.9-55.7-4.1-82.8
			s-33.8-53.3-59-41.8c-12.5,5.5-19.7,18.2-27.1,29.3c-10.8,16.6-24.5,32.4-42.7,40.1c-18.2,7.7-42.2,5-54.2-10.6
			c-15.8-20.6-5-50.4-10.6-76.1c-8.2-37.4-54.5-58.3-90.7-46.1s-60,49.9-63.6,88.1c-2.6,28.8,4.3,58.1,4.1,87.1
			s-10.6,61.2-36.7,74.1c-11.8,5.8-25.7,7-38.9,6.2c-21.6-1.2-45.8-10.3-52.5-31c-5-15.8,2.2-32.4,6-48.5
			c4.1-16.8,4.3-39.4-4.1-54.5c-8.4-15.1-27.8-21.4-44.2-14.9c-23.8,9.4-25.4,41.8-23.5,67.2s-2.4,58.3-27.1,64.8
			c-60.7,15.8-37.9-92.6-71.3-95.7c-66-6.2-39.1,103.4-75.3,112.8c-10.6,2.6-21.4-3.1-29.8-9.6c-25.7-19.9-24.2-55.4-52.1-71.7
			c-9.1-5.3-32.4-6.2-39.6,1c-7.2,7.2-5.5,18.5-10.8,27.1c-7.2,12.2-27.1,14.6-40.3,7.7c-13.2-7-20.4-20.6-22.6-34.6
			s-0.2-27.6,0.5-41.3c1.2-28.8-8.2-63.3-38.4-72.2c-10.3-3.1-21.6-2.4-32.2-1.2c-15.8,1.7-31.7,4.8-45.4,12.5
			c-34.8,19.2-41,58.5-37.2,91.4c3.8,33.8,3.4,69.1-19.9,97.4c-2.2,2.9-4.8,5.3-7.9,7c-3.8,1.7-8.4,1.7-12.7,1.7
			c-37.7-0.5-59.5-1.2-62.9-39.4c-1.9-23,5.3-46.6,5.8-69.1c1-31.2-5.5-54.9-30.5-78c-26.2-24.2-36-2.4-59.7,7
			c-33.4,13.4-45.6-17.5-52.3-41c-2.4-8.9,0.2-18.2-0.5-27.4c-1.2-21.8-23.3-46.8-48-48.2c-21.8-1.2-45.4,9.1-58.1,24.7
			c-18.2,22.6-19.2,52.5-18,80.1s3.8,57.1-9.1,82.3s-47.8,44.2-75.1,31.4c-26.6-12.2-31.2-44.2-32.2-71.3
			c-1.2-28.1,6.7-72.5-6.7-98.1c-11.8-23.3-49.4-21.8-69.6-5.8c-16.6,13.2-15.4,36.5-13.4,56.1c1.9,19.7,0.7,43.7-17.8,54.5
			c-5.5,3.4-12.5,4.8-18.5,7.7c-41.5,20.2-39.8,111.1-105.6,78.7c-31.7-15.8-30.7-47.5-48.5-72.9c-8.2-11.8-23-23.8-37.7-19
			c-13,4.3-17,18.7-17.8,31.2c-1.9,30.7,4.3,62.4-6.7,91.7c-11,29-50.1,53-78.9,36.7c-40.1-22.8-15.4-82.3-12.7-116.6
			c3.1-42.2,4.8-93.1-21.1-130.1c-9.8-14.2-31-18.5-48.2-13.7C96,67.6,93.8,106.5,95,138.4c1.4,42.2,2.9,84.5,4.3,126.5
			c0.7,17.8,1,36.5-8.2,52.1c-9.1,15.6-31.7,26.4-49.2,18.2c-7.9-3.8-13.2-10.6-18.5-17.3C15.6,307.8,7.9,297.7,0,287.4v204.2
			h2399.5L2400,345.7z"/>
		<path class="st1" d="M2400,284c-11-15.1-32.6-20.6-51.8-19c-11.8,1.2-24.7,5.3-29.5,16.1c-2.9,6.2-2.4,13.4-3.1,20.2
			c-3.1,27.4-30.2,49.4-57.6,47.3s-50.4-28.6-49.2-55.9c0.5-10.8,4.3-21.1,7-31.7c7.7-30.5,4.6-65.3-16.8-88.3
			c-21.4-23-63.6-25.9-82.1-0.7c-11.5,15.8-11,37.2-13.2,56.6c-3.4,31.2-31,39.1-53.8,15.6c-3.4-3.4-6.2-7.2-10.3-9.1
			c-3.6-1.4-7.4-1.2-11-1c-14.2,1-28.8,2.2-41,9.4c-28.6,17-5.5,51.1-32.4,71.8c-18.7,14.2-49.4,10.6-61.7-9.4
			c-11.3-18.5-5.3-42.7-11-63.6c-6.7-24.5-31.7-42.7-57.1-41.8c-25.4,1-49,20.9-54,45.8c-4.1,19.9,2.6,40.8-0.7,61
			c-4.3,25.9-27.4,47.5-53.3,50.2c-26.2,2.6-53-13.7-62.6-37.9c-11.3-28.3-5.3-84.5-50.4-85.9c-29-1-29.3,26.2-33.1,46.6
			c-4.1,20.6-22.3,37.9-43.2,40.6c-33.4,4.1-51.8-21.4-54.7-50.9c-1.4-13.9-3.8-28.6-13.7-38.4c-12.5-12.5-33.6-13-48.5-3.8
			c-14.9,9.1-23.8,25.9-26.6,43.2c-3.8,21.8-3.6,37.4-25.2,47.5c-34.3,15.8-54.5-6.7-64.3-35.3c-8.4-24.2-30.2-43.9-55.4-46.1
			c-25.4-2.2-51.8,16.1-55.7,41c-4.6,30.5,2.6,67.4-36.2,79c-23,7-48.7-7.7-58.3-25.9c-9.6-18.2-7.7-38.9-6.7-58.8
			c1.2-25.2-4.1-65.5-25.2-83.3c-12.2-10.3-25-12.7-39.8-6.2c-24.2,10.6-14.6,34.6-32.6,48.5c-47.3,36.2-35-11.8-70.3-31.7
			c-9.6-5.3-22.3-5.3-31.4,0.5c-26.6,16.8-12,61-41,54.5c-11.3-2.6-13.7-12.7-14.6-22.6c-2.4-24-1.2-54.7-17-74.9
			c-13.4-17-27.8-24-49.9-18.5c-28.3,7.2-58.8,36.2-59.3,66.2c-0.2,10.6,1,21.6-2.6,31.4c-9.4,25.4-47.3,19.9-63.8,6.2
			c-28.6-23.3-3.6-61.7-25.9-84.7c-10.8-11-32.2-11.3-40.6,1.9c-4.1,6.5-4.3,14.6-4.3,22.6c-0.2,25.9,14.6,112.8-36.7,97.2
			c-34.8-10.6-23.8-33.1-19.7-57.6c2.2-13.2,4.1-27.4-0.5-40.1c-4.6-12.7-17-23.5-30.5-21.6c-36.5,5.5-32.4,63.4-31.2,88.6
			c1.2,22.8,7.4,68.6-14.9,86.4c-6.7,5.3-17,6.7-26.2,5c-24.7-4.3-30.7-15.1-33.1-33.6c-1.2-10.8,0.2-27.6-17.8-29.3
			c-7.4-0.7-15.8,12.7-29,5c-17.8-10.3-6.7-34.3-21.8-44.2c-12.7-8.2-25.9-6.7-37.2,0.7c-13.4,8.6-18.5,25.4-20.9,38.4
			c-2.2,10.8-0.5,22.1,0,33.1c1.2,25.2-13,64.3-52.1,63.8c-19.4-0.2-44.2-12.7-51.8-27.4c-7.7-14.4-6.2-24.2-7.7-39.8
			c-1.4-14.2,2.6-34.8,0.2-49c-3.6-18.5-15.1-41.5-37.9-40.1c-7.4,0.7-14.6,3.8-20.4,8.6c-19,15.4-21.1,39.4-19.2,61
			s6.7,43.9-1.9,64.6c-7.9,18.7-31,59.5-53.5,60.2v407.8h2400V491.4L2400,284z"/>
	</g>
	<g id="Layer_2-2">
		<circle class="st2" cx="2124.1" cy="378.5" r="81.6"/>
		<path d="M2331.9,638.9c0,1.4-0.2,2.9-0.5,4.1c-0.5,2.2-1,5-2.4,7c-6.2,8.6-12.2,18-20.2,25.7c0,0,0,0.2-0.2,0.2
			c-0.2,0.5-0.7,1-1.4,1.2c-1.4,1.2-2.9,2.4-4.3,3.6c-1.9,2.2-5.3,0.7-5.8-1.7c-0.2,0-0.5-0.2-0.7-0.5
			c-17.8-13.4-27.8-34.1-44.1-48.9c-1.9-1.4-3.6-3.1-5.3-4.6c-3.4-2.9-7.2-6-10.8-9.1c2.2-1.4,4.3-3.1,6-5
			c5.5,5.5,11,10.6,16.1,15.4c15.4,14.4,25,34.3,41.7,46.8c7.7-12.2,14.6-24.7,24.7-35c0.2-0.2,0.7-0.5,1-0.7
			C2327.8,634.8,2331.4,636.2,2331.9,638.9z"/>
		<path d="M2176.1,734.6c-0.2-0.2-0.5-0.5-1-0.7c-12.5-7.4-26.2-11.5-39.8-16.3c8.6-19.2,25.7-33.1,36.2-51.6
			c3.6-6,7.2-12.7,11.3-19.2c-2.4-1.2-4.6-2.9-6.5-4.8c-2.2,4.3-4.3,8.6-6.5,12.7c-1,1.9-2.2,3.8-3.1,6
			c-10.8,19.4-28.8,34.1-37.7,54.5c0,0.2-0.2,0.5-0.2,0.7c-2.2,1-2.9,4.6-0.2,6c1.4,1.2,2.9,2.4,4.3,3.4c0.5,0.5,1,1,1.4,1.2h0.2
			c9.4,6,19.7,9.6,29.8,13.7c2.2,1,5,0.7,7.4,0.7c1.4,0,2.9-0.2,4.1-0.5C2178.3,739.9,2179,735.8,2176.1,734.6z"/>
		<path d="M2271.9,507.6c-6.7,1.2-6,0.5-10.1,1.7c-9.4-29.3-46.3-24.7-64.8-44.1c-0.2-0.2-11.5-8.2-36.2,3.1
			c-3.4,1.7-0.7,6.7,2.6,5.3c7.4-3.6,15.8-3.1,23,1c1.9,8.6,32.4,62.4,60.7,90.9c-29.5,19-54.2,24.5-87.3,36.9
			c-0.2-5.3-31-71.7-33.8-78c-1.2-2.4-5.3-19.9,6-29c1.4-1.2,3.1-9.8,0.2-12.5c0,0-18.7,11.5-23.3,25.2c-4.8,14.4,0.5,34.8-8.2,58.1
			c-5,13.7-17.5,41.3-19,42c-6,2.9-7,3.8-12.5,7.4c-1.7,1.2,0,3.4,2.4,2.6c5.3-1.7,5.5-3.1,9.6-5.8c0.7,7.2,0,7.4-2.9,12.5
			c-0.7,1.2-0.5,6,1.9,3.1c4.8-5.8,5.5-8.2,5-14.2c2.2,2.4,7,6.7,10.1,8.2c3.4,1.7,3.8-3.1,1.7-3.8c-4.6-1.4-7.4-5.8-10.3-9.6
			c16.8-25.7,25.9-55.7,26.4-86.1c7.4,16.6,15.8,31.9,20.6,49.4c5.3,19.4,10.6,61.4,26.9,54.7c4.3-1.9,8.9-3.8,13.2-5.8
			c3.1-2.9,6.2-5.3,9.6-7.7c1.2-0.7,15.8-10.1,18.2-7.7c4.6-2.9,9.1-5.8,13.7-8.6c0.2,0.2,0.5,0.5,0.7,0.7c1.7-3.1,4.1-5.8,7-7.7
			c2.6-1.9,5.5-3.1,8.6-3.8c7.2-4.8,14.2-9.6,21.4-14.2c0.2-0.2,0.5-0.2,0.5-0.5c2.6-1,7-6.5,1.7-10.3c-29-25.4-39.6-57.6-60-89.3
			c18.2,17,57.3,17.5,61.2,40.8c-0.2,1-0.2,1.7-0.2,2.6c0.7,3.6,1.2,6.7-1.2,9.6c-1,1.2-1.4,2.4,0,3.1c1.4,1,2.9,0.2,3.8-1
			c2.2-2.9,3.4-6.5,3.1-10.1c1.9,1,3.6,2.4,5.3,3.8c1.2,1,3.8,1,4.6-0.2c1-1.4-0.5-2.6-1.7-3.8c-1.2-1-2.6-3.6-4.3-4.3
			c2.9-0.2,4.1-0.5,7.9-2.4C2277.4,509.3,2274,507.1,2271.9,507.6z"/>
		<path class="st3" d="M2182.6,621.1c-3.8,2.6-7.2,5.8-10.3,9.1c-1,1.2-9.1,6.2-8.2,8.4c1.9,5,8.2,2.4,10.1,7.4
			c1.4,3.6,18.2-2.4,19.4-3.4c3.8-2.6,7.2-5.8,10.3-9.1c1-1.2,3.6-3.8,2.9-5.8c-1.9-5,1.2-10.1-1-14.9
			C2204.5,609.1,2183.8,620.4,2182.6,621.1z M2246,602.6L2246,602.6c-0.7-0.2-1.2-0.2-1.7-0.5h-0.2c-0.5-0.2-1-0.7-1.4-1.2
			c-0.5-0.5-1-1-1.4-1.2l-0.2-0.5c-0.7-1.2-1.4-2.6-1.9-4.1c-3.1-7.7-13.9-3.1-18,0.5c-5.8,4.8-10.6,13.4-7.4,21.1
			c3.8,9.4,12,15.6,22.3,15.6c8.2,0.2,15.6-8.4,18-15.4C2255.8,610.3,2253.9,602.9,2246,602.6L2246,602.6z"/>
		<path class="st4" d="M2071.8,383.8c1,0,2.2,0.2,3.1,0.5c7.9,2.4,17.8,14.2,8.4,20.6c-6.2,4.3-23,2.9-26.9-4.1
			C2051.1,391.2,2063.1,383.8,2071.8,383.8z"/>
		<path class="st4" d="M2180,371.3c-7.7,1-12.7,5.8-4.3,15.8c7,8.2,17,7.4,22.3-1.9C2204,375.7,2190.1,370.1,2180,371.3z"/>
		<path class="st1" d="M2191.7,583.9c10.8-6.2,22.3-11.3,33.8-5.5c3.8,1.9,5.5,6.7,8.2,10.1c5.5,7.4,13,13.2,21.4,16.8l-10.6,30.7
			c-2.2,6-34.3-22.1-38.4-17.5c-2.2,2.4-2.4,6.2-2.4,9.6l-0.2,16.8c0,3.1-38.9-2.9-42.2-4.1c7-21.1-6.7-35.7,15.1-47.3
			C2181.2,590.6,2186.5,587,2191.7,583.9z"/>
		<path d="M2191.5,583.4c5.5-3.1,11.3-6,17.8-7.4c3.1-0.7,6.5-1,9.8-0.7c0.7,0,1.7,0.2,2.4,0.5c1,0.2,1.7,0.5,2.4,0.7l2.4,1
			c0.7,0.5,1.7,1,2.4,1.4c2.6,2.4,4.3,5.3,6.2,7.7s4.1,4.6,6.2,6.5c4.6,4.1,9.8,7.2,15.4,9.6c1.4,0.5,2.2,2.2,1.7,3.6v0.2l-5.5,17.5
			l-2.6,8.6l-1.4,4.3v0.2l0,0v0.2c0,0.2-0.2,0.2-0.2,0.5c-0.5,0.7-1,1.4-1.7,1.9c-0.5,0.5-1.2,0.7-1.9,1c-0.5,0-1,0.2-1.4,0.2
			c-0.7,0-1.4,0-1.9-0.2c-0.5-0.2-1-0.2-1.4-0.5c-1.7-0.7-3.1-1.4-4.8-2.2c-1.4-0.7-2.9-1.4-4.1-2.4c-2.6-1.7-5.3-3.1-7.9-4.8
			c-2.6-1.7-5-3.1-7.7-4.6c-1.2-0.7-2.4-1.4-3.8-1.9c-1-0.5-2.2-1-3.4-1.4c-0.2,0-0.2,0-0.5,0c0,0,0,0,0.5,0c0.2,0,0.7-0.2,1-0.5
			s0.5-0.2,0.5-0.5c0.2-0.2,0.2,0,0.2-0.2l-0.2,0.2c-0.5,0.7-0.5,1.7-0.7,2.4c-0.2,2.2,0,5.5,0,8.4l0.2,9.1v2.4v0.7
			c0,0.2,0,0.5,0,0.7c0,0.5-0.2,1-0.2,1.2c-0.2,0.2-0.2,0.7-0.5,1c-0.2,0.5-0.7,1-1.2,1.4c-0.2,0.2-0.7,0.5-1,0.7
			c-0.2,0.2-0.5,0.2-0.7,0.5c-0.5,0.2-1.2,0.5-1.7,0.7c-0.5,0-0.7,0.2-1,0.2c-1,0.2-1.9,0.2-3.1,0.2c-1,0-1.7,0-2.4,0
			c-3.4,0-6.5-0.2-9.6-0.5c-3.1-0.2-6.2-0.7-9.4-1c-3.1-0.5-6.2-1-9.1-1.4l-4.6-1l-2.4-0.5l-1.2-0.2l-0.7-0.2
			c-0.2,0-0.5-0.2-1.2-0.5h-0.2c-2.9-1.2-4.3-4.3-3.1-7.2c1.7-5,2.6-10.3,2.9-15.6c0.2-2.9,0.2-5.8,0.5-9.1c0.2-3.4,1-6.7,2.4-9.8
			c0.7-1.7,1.7-3.1,2.6-4.3s1.9-2.6,3.1-3.6c2.4-1.9,5.3-3.4,8.2-4.8C2181.2,589.4,2186.5,586.3,2191.5,583.4z M2192.2,584.4
			c-5,3.1-9.8,6.7-14.9,9.8c-2.4,1.4-4.6,3.4-6.5,5.3c-1.7,1.9-2.9,4.3-3.6,6.7c-0.5,2.6-0.5,5.3-0.2,7.7c0.2,2.6,0.7,5.8,1,8.6
			c1,6.5,0.5,13.2-1.4,19.4l-3.4-7.2c-0.2,0,0,0,0,0h0.5l1,0.2l2.2,0.5l4.3,0.7l8.9,1.2c6,0.7,12,1.7,17.5,1.9c0.7,0,1.4,0,1.9,0
			c0.7,0,1.2,0,1.4,0l0,0c-0.2,0-0.5,0.2-0.7,0.2c-0.2,0-0.2,0.2-0.5,0.2c-0.2,0.2-0.5,0.2-0.7,0.5c-0.2,0.2-0.7,0.7-1,1.2
			c-0.2,0.2-0.2,0.5-0.5,0.7c-0.2,0.2-0.2,0.7-0.2,1c0,0.2,0,0.5,0,0.5c0,0.2,0,0.2,0,0.2v-0.2v-0.2v-2.2l0.5-9.1l0.2-4.6
			c0-1.7,0.2-3.4,0.5-5.3c0.2-2.2,1.2-4.3,2.2-6.2c0.2-0.5,0.7-1,1.2-1.4c0.2-0.2,0.2-0.5,0.5-0.5c0.2-0.2,0.7-0.5,1-0.7
			c0.7-0.5,1.4-0.7,2.2-0.7c1-0.2,1.9-0.2,2.9,0c0.7,0,1.2,0.2,1.9,0.5c1.7,0.5,3.4,1.4,5,2.2c1.4,0.7,2.9,1.7,4.1,2.4
			c2.6,1.7,5.3,3.4,7.7,5c2.6,1.7,5,3.4,7.4,5c1.2,0.7,2.4,1.7,3.8,2.4c1.2,0.7,2.4,1.2,3.6,1.9l0.7,0.2c0.2,0,0.2,0,0.2,0
			c-0.5,0-1,0.2-1.2,0.5c-0.5,0.2-0.7,0.7-1,1v0.2l0,0l0,0l0,0v-0.2l1.7-4.3l3.1-8.6l6.5-17l1.7,3.8c-6-2.9-11.5-7-16.1-11.8
			c-2.4-2.4-4.3-5-6.2-7.9c-1.7-2.9-2.9-5.8-5-7.7c-0.5-0.5-1-1-1.7-1.2l-1.9-1c-0.7-0.2-1.4-0.5-2.2-0.7s-1.4-0.5-2.2-0.5
			c-3.1-0.5-6.2-0.5-9.1,0C2203.3,578.2,2197.5,581,2192.2,584.4L2192.2,584.4z"/>
		<path class="st5" d="M2097.7,417.9c23.8,32.4,80.9,6.5,75.1-20.9"/>
		<circle cx="2113.5" cy="372.5" r="8.2"/>
		<circle cx="2148.3" cy="372.8" r="8.2"/>
		<path class="st6" d="M2255.3,564.7c-0.2,3.6-3.8,6-7.2,7.7c-23.8,12.2-49.2,21.6-71.7,36.5c-12,7.9-18.2,20.4-27.6,4.1
			c-5.5-10.1-7.7-21.8-11.5-32.6c-6-16.3-12-32.9-18-49.2c-7-18.5-0.5-34.1,14.6-45.6c13-9.8,40.5-26.2,55.2-14.6
			c12.5,9.6,13.7,29.8,21.6,42.7C2222.7,532.8,2237.8,550.1,2255.3,564.7z"/>
		<path class="st5" d="M2113.8,313.3c-1.2-5.3-2.2-10.8-1.4-16.3c0.7-5.3,3.4-10.8,7.9-13.7c4.6-2.6,10.1-2.9,15.1-4.3
			c5-1.4,10.3-5.5,9.6-10.8"/>
		<path class="st5" d="M2151,314.5c-2.6-12,5-25.2,16.6-29c2.9-1,6.2-1.4,8.2-3.6c2.2-2.2,1.7-7-1.2-7.2"/>
		<path class="st5" d="M2095.1,319.8c-3.8-3.1-7-7-9.4-11.3c-2.4-4.3-2.6-9.6-1.4-14.4c1.2-3.4,3.4-6,5.3-8.9s3.6-6,3.8-9.6
			c0-3.4-2.2-7.2-5.5-7.9"/>
		<path class="st7" d="M1728,383.6c-5.3,7.7-11.3,14.9-17.8,21.4c-2.2,2.2,2.4,12,4.3,13.9c3.1,2.9,6.7,3.1,10.8,3.6
			c11.3,1.7,22.1,5,22.3,19.4c11.5-6.5,20.4-19,6.2-27.4c-21.4-12.5-43.2,13.7-38.4-12C1715.2,402,1721.5,393.6,1728,383.6z"/>
		<path d="M1753.4,510c-6.5-1.7-7.2-1.7-12.2-7.2c5.5-0.5,6.7,0.2,12.2-1.4c2.4-0.7,1.9-3.4-0.2-3.4c-7.2,0.5-8.6,0.5-15.6,1.9
			c-1.4,0.2-33.6-12.2-48.5-19.2c-7-3.1-13.4-7.2-19.7-11.8c-2.6-2.6-5.8-5.8-7.7-7.4c-5.8-6.7-12-14.2-32.4-21.6
			c-13.7-8.9-29.5-13.2-45.8-13c-8.2-1.2-19.9-1.9-27.8,1.2c-2.2,1-4.3,1.9-6.5,3.1c-4.1,2.4-16.6,6.2-16.8,6.2
			c-24,5-48.2,15.8-65.7,3.4c-0.5-1-1.2-1.7-2.2-2.4c-3.8-2.4-7-4.8-7.2-8.6c-0.2-1.7-1-2.9-2.6-2.6c-1.4,0-2.6,1.2-2.6,2.6
			c0,0.2,0,0.5,0,0.7c0.5,3.8,2.6,7.2,5.8,10.1c-2.6,0.2-5.3,0.5-7.9,0.2c-1.9,0-4.3,1.4-3.8,3.1c0.5,1.7,2.6,1.9,4.6,1.9
			c1.9,0,5.5,1.2,7.4,1c-2.4,1.9-3.1,2.9-5,7c-1.4,2.9,3.4,2.4,4.8,0.7c4.8-5,4.8-4.3,7.4-7.7c23.5,12.7,46.1,2.6,68.6-2.6
			c7-1.2,11.5-1,13.2-1.4c-5.8,14.4-10.6,28.8-19.2,42c-7.7,11.8-60.2,52.8-33.4,82.5c6.2,6.7,20.2,13.9,36.9,20.2
			c-2.6,4.8-5,9.6-7,14.2c-5.8,13.2-15.8,36.7-5.8,44.6c1,1.9,3.6,2.6,5.5,1.7c0.5-0.2,0.7-0.5,1.2-1c4.1-4.8,9.4-8.4,15.1-11
			c-3.8,11.3-6,23.3,0.7,28.3c1,1.9,3.6,2.6,5.5,1.7c0.5-0.2,0.7-0.5,1.2-1c14.4-16.8,42.7-18.2,63.1-19.9c5.5-0.5,11.3-0.7,17-1.2
			c1,0,4.8,15.6,5,17.3c0.7,3.1-1,7.4,2.6,9.1c1.7,1,3.8,0.2,4.8-1.4c0.2-0.5,0.5-1,0.5-1.4c0.5-8.6,2.4-17,5.5-25.2
			c2.4-0.2,4.8-0.5,7.2-1c-1.2,0.2-2.9,7.7-3.4,8.9c-0.7,3.4-1,6.7-0.7,10.1c0.5,4.6,2.9,8.6,4.3,12.7c1.4,4.3,1.4,7.4,1.2,11.8
			c-0.2,5,7.4,6,7.7,1c0.7-15.6,7.2-30,14.2-43.7c0.2-0.2,0.5-0.7,0.5-1.2c1.7-3.4,5-8.4-0.7-9.8c-5-1.2-7.9-0.5-12.7,0.7
			c-1.7,0.5-14.2,1.4-14.6,2.6c1.7-3.6,3.4-7.2,5-10.6c0.2-0.2,0.5-0.7,0.5-1.2c0.7-1.4,1.4-3.1,2.4-4.6c4.3-8.4-19.2-3.8-22.1-3.4
			c-7,1.2-13.9,2.2-20.9,2.6c-13.7,1.2-27.6,1.4-41,3.1c-2.2,0.2-4.3,0.5-6.7,1c4.3-7,9.1-13.9,13.7-20.6
			c17.8,3.4,33.4,4.6,42.5,1.9c32.2-8.6,23-37.7,23-37.7c-4.8-36.2,1-65.5,8.2-99.3l1.7,1l0,0c0,0,17.8,11,20.9,12.5
			c0.2,0,0.2,0.2,0.5,0.2c17.8,10.1,36.5,17.8,56.1,23c1,4.3,1.9,9.4-0.5,13c-1.2,1.7,3.1,5,4.3,1.7c1.2-2.9,1.4-8.9,1.4-11.8
			c4.6,4.6,7,6,15.4,7.2C1758.4,513.9,1754.8,510.5,1753.4,510z M1588.3,627.6c14.2-1.2,28.8-1.7,42.9-3.6
			c-2.2,4.1-3.4,8.6-3.8,13.2c-10.6,0.7-21.1,1.2-31.2,2.4c-16.1,1.9-34.3,4.8-47.5,14.9c3.8-7.4,8.4-15.6,13.4-24
			C1571,628.8,1580.4,628.3,1588.3,627.6L1588.3,627.6z M1546.8,620.4c-1,2.2-1.9,4.6-2.9,7c-6.2,1.9-12.2,4.8-17.5,8.6
			c7.4-14.4,15.8-28.3,24.7-41.7c2.6,0.7,5.5,1.4,8.2,2.2C1554.5,604.1,1550.4,612.2,1546.8,620.4z"/>
		<path class="st7" d="M1599.4,279.4c-3.6,1.9-7,4.1-10.1,6.7c5-3.8,10.3-6.7,16.3-8.6c-8.4,2.9-12-9.4-15.6-13.9
			c-5-6.5-14.4-14.2-20.9-19c-6-4.3-16.6-7-23-1.9c-6,4.8-5.3,15.8-6,23C1561,249.5,1579,277.5,1599.4,279.4z"/>
		<path class="st8" d="M1736.1,408.8c4.8-0.2,9.1-1.4,11.3-5c2.4-3.4,2.4-7.7,2.4-11.5c0.2-1.7-0.2-3.6-0.7-5.3
			c-6.5-13.7-32.4,16.8-33.1,16.3l-0.7-0.7c-2.4-2.2-5.8-2.4-7.4-0.7c-1,1.2-1.2,3.1-0.7,4.6c-1.2-3.1-8.6,11.8-8.6,13.2
			c-0.7,8.2,4.6,15.8,12.7,18c9.6,2.9,15.1-3.1,23.5-6.2c-11.5,2.4-19.7-9.6-24-18.7c0-0.7,0-1.2,0-1.9c2.4,1.7,5.3,1.9,6.7,0.2
			c1-1,1.2-2.4,1-3.8C1722.9,407.8,1729.9,409.2,1736.1,408.8z"/>
		<path class="st9" d="M1604.9,276.3c13.9-4.8,6.5-45.3-9.4-34.1c-12.2,8.6-5,22.3,0.5,29.5c-0.5,0.2-1,0.5-1.2,0.7
			c-0.7,0.7-1,1.7-1,2.4c-3.4-1.4-7-2.4-10.8-3.1c0,0-28.8-7.9-39.8,13.2c-11,21.1,36.7,7,51.1-0.7c1.4-0.7,2.6-1.4,3.6-2.6
			c2.4,1.7,5,1.7,6.7,0C1605.8,280.2,1606.1,278,1604.9,276.3z"/>
		<path class="st10" d="M1550.7,438.3c9.1-6.5,24.2-10.6,35-9.8"/>
		<path class="st0" d="M1639.2,453.4c11,7.9,3.6,16.8-0.5,27.1c-12.5,32.4-14.4,63.8-11.5,97.9c0.2,1.9,0.2,4.1-1.2,5.3
			c-0.7,0.7-1.7,1-2.6,1.2c-34.5,8.2-79.9-2.6-111.1-18.5c-6.2-3.1-12.7-7.4-13.9-14.2c-2.4-12.2,5.5-22.6,12.7-31.4
			c13.4-17,25.2-35.5,34.8-55.2c3.8-7.7,5.8-19.7,10.8-26.2c7.4-9.8,28.8-3.1,39.1-1.7C1610.9,440.4,1626.5,444.3,1639.2,453.4z"/>
		<path d="M1639.4,453.2c2.2,1.4,3.8,3.6,5,6c0.2,0.2,0.2,0.7,0.2,1l0.2,1c0,0.7,0.2,1.2,0.2,1.9c0,1.2-0.2,2.6-0.5,3.8
			c-1.4,5-3.8,9.4-5.8,14.2c-3.6,9.6-6.2,19.4-8.2,29.5c-3.6,19.9-3.8,40.5-2.4,60.7l0.7,7.7c0.2,1.4,0,3.1-0.5,4.6
			c-0.5,1-1,1.7-1.7,2.4c-0.7,0.5-1.4,1-2.4,1.2c-0.7,0.2-1.2,0.2-1.9,0.5l-1.9,0.5l-3.8,0.7c-2.6,0.2-5,0.7-7.7,1
			c-10.3,1-20.6,0.7-31-0.5c-10.3-1.2-20.4-3.1-30.5-6c-10.1-2.6-19.7-6.2-29.3-10.3c-2.4-1-4.8-2.2-7-3.1c-2.4-1.2-4.8-2.4-7-4.1
			c-2.4-1.7-4.6-3.6-6.2-6c-1-1.2-1.7-2.6-2.2-4.1c-0.2-0.7-0.5-1.4-0.7-2.2l-0.2-2.2c-0.7-5.8,0.5-11.5,3.1-16.6
			c2.4-4.8,5.3-9.4,8.6-13.4c12.5-15.8,23.5-32.9,33.1-50.6l1.9-3.4c0.5-1.2,1.2-2.4,1.7-3.4c1-2.2,1.9-4.6,2.6-6.7
			c1.7-5,3.6-9.8,5.8-14.6c0.2-0.7,0.7-1.2,1-1.9c0.5-0.7,0.7-1.2,1.2-1.7c1-1.2,2.2-2.4,3.4-3.4c2.4-1.7,5.3-2.6,8.4-2.9
			c5.3-0.5,10.8,0,15.8,1.2c5,1,10.1,2.4,15.1,3.4c5,1,10.1,2.2,15.1,3.4c5,1.4,9.8,3.1,14.6,5
			C1630.8,447.4,1635.3,450,1639.4,453.2z M1638.9,453.6c-4.1-2.9-8.6-5.3-13.4-7.2c-4.8-1.9-9.6-3.4-14.6-4.3
			c-5-1.2-10.1-1.9-15.1-2.4c-5.3-0.7-10.1-1.7-15.1-2.2c-4.8-0.7-9.8-0.7-14.6,0c-2.2,0.2-4.1,1.2-6,2.4c-0.7,0.7-1.4,1.4-1.9,2.2
			l-0.5,0.7l-0.5,0.7c-0.2,0.5-0.5,1-0.7,1.4c-1.9,4.3-3.1,9.1-4.8,14.2c-0.7,2.6-1.7,5-2.9,7.7c-0.5,1.4-1.2,2.4-1.7,3.6l-1.7,3.4
			c-4.8,9.1-9.8,18.2-15.6,26.9c-5.8,8.6-11.8,17-18.2,25c-3.1,3.6-6,7.7-8.2,12c-2.2,4.1-3.1,8.4-2.9,13l0.2,1.7
			c0,0.5,0.2,1,0.5,1.4c0.2,1,0.7,1.9,1.4,2.6c1.2,1.7,2.9,3.4,4.8,4.6c1.9,1.4,4.1,2.6,6.2,3.6c2.2,1.2,4.6,2.2,6.7,3.4
			c18.5,8.4,37.9,14.2,57.8,16.8c10.1,1.4,20.2,1.7,30.2,1c2.4-0.2,5-0.5,7.4-1l3.8-0.7c1.2-0.2,2.4-0.5,3.6-0.7
			c0.5,0,0.7-0.2,1.2-0.5c0.2-0.2,0.5-0.5,0.5-0.7c0.2-1,0.5-1.9,0.2-2.9l-0.5-7.7c-0.5-10.3-0.5-20.6,0-30.7
			c0.7-10.3,2.2-20.4,4.3-30.5c2.2-10.1,5.3-19.9,9.1-29.3c1-2.4,1.9-4.8,3.1-7c1.2-2.4,1.9-4.6,2.6-7.2c0.2-1.2,0.5-2.4,0.5-3.8
			c0-0.7,0-1.2-0.2-1.9l-0.2-1c0-0.2-0.2-0.5-0.2-1C1642.8,457,1641.1,455.1,1638.9,453.6L1638.9,453.6z"/>
		<circle class="st2" cx="1651.9" cy="346.6" r="83.5"/>
		<circle cx="1648.8" cy="320.2" r="8.2"/>
		<circle cx="1682.1" cy="347.1" r="8.2"/>
		<path class="st11" d="M1606.8,345.4c-9.8,23.5,20.6,53.3,59.5,40.1"/>
		<path class="st7" d="M1621,269.8c-0.2,1-0.5,1.9-0.7,2.6c-1.4,13,10.8,11.8,19,9.4c4.1-1.2,9.4-1,11.3,2.6c1,1.7,1,3.8,1.4,5.5
			c2.2,6,10.1,7.7,16.6,6.7c6.5-1,12.7-3.6,19-1.9c5.5,1.7,9.8,6.2,10.6,12c0.5,4.1-0.5,8.6,1.9,12.2c2.2,2.9,6,3.8,9.4,4.6
			c5,1,10.6,2.4,13.4,6.7c3.6,5.3,1.7,12.2,1,18.5c-0.5,6.2,2.2,14.4,8.4,14.4c4.1,0,1.4-30.5,0.2-34.1c-7.7-20.9-19.2-42-38.1-54.9
			c-10.3-7.2-23.3-9.1-35.5-11.8c-3.4-0.7-6.7-1.2-10.1-1.4c-2.2,0-4.3,0.2-6.5,0.7C1635.3,263.1,1624.1,262.4,1621,269.8z"/>
		<path class="st12" d="M1704.4,379c-10.3,32.4-26.2,5.3-23-6.2C1687.7,349.5,1709.5,362.7,1704.4,379z"/>
		<path class="st12" d="M1616.4,327.4c-33.8-1.9-11.5-26.9,0.2-26.6C1640.9,300.8,1633.7,328.4,1616.4,327.4z"/>
		<path d="M1703.5,354.5c-5.5,1.4-15.6-0.7-19.2-4.8L1703.5,354.5z"/>
		<path d="M1700.6,344.9c-4.8,3.1-13.2,3.4-18.5,1.2L1700.6,344.9z"/>
		<path d="M1697.3,340.1c-3.1,4.3-10.1,6-15.1,4.1L1697.3,340.1z"/>
		<path d="M1687.4,353.6c-3.4,2.6-8.4,1.9-11.3-1.7c-3.1-3.6-2.9-8.6,0.5-11.5c3.4-2.9,8.4-1.9,11.3,1.7
			C1691,345.7,1690.8,350.9,1687.4,353.6z"/>
		<path d="M1635.6,301.3c0.2,5.8,4.6,15.1,9.6,17.3L1635.6,301.3z"/>
		<path d="M1645.4,301.5c-1.9,5.5,0,13.7,3.6,18L1645.4,301.5z"/>
		<path d="M1650.9,303.4c-3.4,4.1-3.1,11.3-0.2,15.6L1650.9,303.4z"/>
		<path d="M1640.4,316.4c-1.9,3.8,0.2,8.6,4.3,10.6c4.1,1.9,9.1,0.5,11-3.4c1.9-3.8-0.2-8.6-4.3-10.6
			C1647.1,311.1,1642.3,312.6,1640.4,316.4z"/>
		<path class="st13" d="M1354.2,445c-15.4-3.6-33.1-2.2-45.6-0.2c-5.8,1-13.7,1.2-16.1,6.7c-2.9,7,0.7,14.9,1.2,21.8
			c0.5,7-1.2,13.4-1.4,20.2c-0.5,23.3,1.4,48.7-2.2,71.5c-0.7,4.1-8.2,20.2-2.9,21.6c1.4,0.2,2.9,0.2,4.3-0.2
			c12.7-2.6,25.9-1,38.4-2.9c10.1-1.4,20.4-3.1,30.2-5c7.4-1.4,29,0.7,33.6-7.4c0.7-1.4,1-3.1,1-4.6c0.7-17.8-4.6-33.8-5.5-51.1
			c-1-15.8-1.9-30.2-5.8-45.8C1379.6,455.5,1367.8,448.4,1354.2,445z"/>
		<path d="M1382,619.9c1,0,1.7,0,2.6-0.2c4.1-0.5,7.9-1.4,11.8-2.6c2.6,14.9,6.5,29.5,11.5,43.9c1.2-11,8.4-21.1,14.6-29.8
			c5.3-7.2,11-13.7,16.8-20.4c1.9-2.2,18.5-28.1,20.9-21.4l1.2,3.1c0.2,0.2,0.2,0.5,0.2,0.7c3.4,9.6,7.4,19.4,14.6,26.9
			c2.4,2.4-1.7,5.8-4.1,3.4c-4.3-4.3-9.4-4.8-14.2-8.4c-1.4-1-9.1-8.6-7.7-10.8c-5.5,7.7-12,15.1-18,22.6
			c-8.6,10.8-21.1,25-19.4,39.8c0.2,1.4-1,2.9-2.4,2.9c-0.2,0-0.7,0-1,0c-8.4,1.2-15.4-14.6-19-23.5
			C1387.3,638.4,1384.6,629,1382,619.9z"/>
		<path d="M1322.7,655.6c-3.4,8.9-9.8,25-18.2,24c-1.4,0.5-2.9-0.5-3.4-1.9c0-0.2-0.2-0.7,0-1c1.2-14.9-11.5-28.8-20.4-39.1
			c-6.2-7.2-12.7-14.4-18.7-21.8c1.4,1.9-5.8,9.6-7,10.8c-3.8,3.1-9.1,2.6-12.2,6.2c-1.4,1.4-1.9,4.1-4.3,3.6
			c-1.4-0.2-2.4-1.4-2.2-2.9c0-0.5,0.2-1,0.5-1.2c7-7.7,10.8-17.5,13.9-27.4c0-0.2,0.2-0.5,0.2-0.7c0.2-1,0.7-2.2,1-3.1
			c2.4-7.2,18.2,17,20.2,19.2c6,7.2,12.7,13.9,18.5,21.4c6.7,8.6,13.9,18.5,15.6,29.3c4.6-14.4,7.9-29.3,10.3-44.1
			c3.8,1.2,7.7,1.9,11.8,2.4c1,0,1.7,0.2,2.6,0.2C1328,638.4,1325.6,648,1322.7,655.6z"/>
		<path class="st14" d="M1359.4,585.6c10.8-1.2,43.7-8.2,48,7.9c1.9,7.2,3.6,14.2,5.5,21.4c1.4,5.3-24,5.8-25.9,5.8
			c-6.2,0-12.2-0.5-18.2-1.7c-2.2-0.5-7-1.2-7.7-4.1c-1.4-5.8-8.4-9.8-13-14.6c-0.7-0.7-1.2-1.4-1.9-2.2c-0.7,6.7,2.4,14.6,1,21.8
			c-1.9,8.6-6,17.8-13,23.5c-8.6,6.7-23,3.6-31.2-2.2c-7.7-5.3-11.8-15.4-3.4-22.1l0.2-0.2c0.5-0.5,1-1.2,1.2-1.9v-0.2
			c0.2-0.7,0.5-1.7,0.7-2.4c0.2-0.7,0.2-1.7,0.5-2.4c0-0.2,0-0.5,0-0.7c-0.2-5.8-6.2-13.2-2.4-17.8c5-6,20.4-2.6,27.1-2.9
			C1338.1,590.4,1348.6,586.8,1359.4,585.6z"/>
		<path d="M1359.4,585.4c6.2-0.7,12.5-1.7,19-2.2c6.5-0.5,12.7-0.7,19,1c1.7,0.5,3.1,1,4.6,1.7c1.4,0.7,2.9,1.7,4.1,3.1
			c1.2,1.2,1.9,2.9,2.4,4.6l1.4,4.6l2.6,9.1l1.2,4.6l0.7,2.4l0.2,0.5c0,0.2,0.2,0.7,0,1.2c0,0.5-0.2,0.7-0.2,1.2
			c0,0.2-0.2,0.2-0.2,0.5l-0.2,0.5c-0.7,0.7-1.7,1.2-2.4,1.7c-0.7,0.2-1.7,0.7-2.4,1c-1.7,0.5-3.1,0.7-4.8,1.2
			c-3.1,0.5-6.5,1-9.6,1.2c-1.7,0.2-3.1,0.2-4.8,0.2c-1.7,0-3.4,0-4.8,0c-3.1,0-6.5-0.2-9.6-0.5c-1.7-0.2-3.1-0.5-4.8-0.7
			c-1.7-0.2-3.1-0.5-4.8-1c-1-0.2-1.7-0.5-2.6-1c-1-0.5-1.9-1.2-2.6-1.9c-0.5-0.5-0.7-1.2-1-1.9l-0.2-1l-0.5-1l-0.5-0.7
			c-1.7-2.4-3.8-4.6-6.2-6.2c-2.6-2.2-5-4.3-7.2-7l4.6-1.2c-0.2,3.8,0.7,8.2,1.2,13c0.2,2.4,0.5,5,0,7.4c0,0.7-0.2,1.4-0.2,1.9
			l-0.5,1.7c-0.2,1.2-0.7,2.4-1,3.4c-1.4,4.6-3.4,9.1-6.2,13.2c-1.4,2.2-3.1,4.1-4.8,5.8c-0.5,0.5-1,0.7-1.4,1.2l-1.7,1.2
			c-1.2,0.7-2.4,1.4-3.6,1.9c-4.8,1.7-10.1,2.2-15.4,1.2c-5-1-9.6-2.6-13.9-5.5c-4.8-2.9-8.2-7.4-9.8-12.7c-0.7-2.9-0.7-6,0.5-8.9
			c1.2-2.6,2.9-5,5.3-7l-0.2,0.2l0.2-0.2l-0.2,0.5l0.5-0.7l0.2-0.5c0-0.2,0.2-0.2,0.2-0.2l-0.2,0.5l0.7-2.2l0.5-2.2v0.5
			c0-2.4-1.2-5.3-2.2-8.6c-0.7-1.9-1-3.8-1-5.8c0-1.2,0.2-2.4,0.7-3.6c0.2-0.2,0.2-0.5,0.5-1l0.5-0.7c0.5-0.5,0.7-1,1.2-1.2
			c1.7-1.4,3.6-2.2,5.5-2.6c1.7-0.2,3.6-0.5,5.5-0.5c3.4,0,7,0.2,10.3,0.7c1.7,0.2,3.4,0.5,4.8,0.5c1.7,0,3.1,0,4.8,0
			c3.4-0.2,6.5-0.5,9.8-1.2C1346.2,587.5,1352.7,585.8,1359.4,585.4z M1359.4,586.1c-6.5,1-13.2,2.4-19.4,4.1
			c-3.4,0.7-6.5,1.4-9.8,1.9c-1.7,0.2-3.4,0.5-5,0.5c-1.7,0-3.4,0-5,0c-3.4-0.2-6.5,0-9.8,0.2c-1.4,0.2-2.9,0.5-4.3,1
			c-1.2,0.2-2.4,1-3.1,1.9c-0.7,0.7-1,1.4-0.7,2.4c0.2,1.4,0.5,2.6,1,3.8c0.5,1.4,1.2,2.9,1.9,4.6c0.2,1,0.7,1.9,0.7,2.6
			c0.2,0.5,0.2,1,0.2,1.7v0.7v0.7c0,0.2,0,0.2,0,0.5l0,0l-0.5,2.9l-0.7,2.9v0.2v0.2c-0.2,0.2-0.2,0.5-0.5,0.7l-0.5,0.7l-0.7,1.2
			l-0.2,0.2l0,0l-0.2,0.2l0,0c0,0,0,0-0.2,0.2c-1.2,1-2.2,2.4-2.9,3.8c-0.5,1.4-0.5,3.1,0,4.6c1.2,3.6,3.6,6.5,6.7,8.4
			c3.4,2.2,7.2,3.8,11.3,4.6c1.9,0.5,4.1,0.5,6,0.5c1.9,0,3.8-0.2,5.8-1c1-0.2,1.7-0.7,2.4-1.2l1.2-0.7c0.5-0.2,0.7-0.7,1.2-1
			c1.4-1.4,2.9-2.9,4.1-4.6c2.4-3.4,4.3-7.2,5.8-11.3c0.2-1,0.7-2.2,1-3.1l0.5-1.7c0-0.5,0.2-1,0.2-1.4c0.2-1.9,0.2-4.1,0-6.2
			c-0.5-4.3-1.4-8.9-1-14.2c0-1.4,1.2-2.4,2.6-2.4c0.7,0,1.4,0.5,1.9,1.2l0,0c1.9,2.4,4.1,4.3,6.2,6.2c2.6,2.2,5,4.8,7,7.4
			c0.2,0.5,0.5,0.7,0.7,1.2c0.2,0.5,0.5,1,0.5,1.2l0.5,1.4c0,0,0,0.2,0.2,0.2c0.7,0.7,1.9,1.2,2.9,1.4c1.2,0.5,2.9,0.7,4.3,1
			c1.4,0.2,3.1,0.5,4.6,0.7c3.1,0.5,6.2,0.7,9.4,0.7c1.7,0,3.1,0,4.6,0s3.1,0,4.8-0.2c3.1-0.2,6.2-0.5,9.4-0.7
			c1.4-0.2,3.1-0.5,4.6-0.7c0.7-0.2,1.4-0.5,2.2-0.7c0.5-0.2,1-0.5,1.4-0.7l0,0l0,0l0,0l0,0l0,0l-0.2-0.5l-0.5-2.4l-1.2-4.6
			l-2.2-9.1l-1-4.6c-0.2-1.4-1-2.6-1.9-3.8c-1-1.2-2.2-2.2-3.4-2.9c-1.4-0.7-2.6-1.4-4.3-1.9c-3.1-1-6-1.4-9.1-1.4
			c-3.1-0.2-6.2-0.2-9.4,0C1372.1,584.2,1365.9,585.1,1359.4,586.1L1359.4,586.1z"/>
		<path d="M1491.6,498c-2.6-0.7-5.3-1.7-7.7-2.9c3.8-2.4,7-6.2,8.4-10.6c0.7-1.9,0.2-4.1-1.7-4.8c-1.7-0.7-2.6,0.5-3.4,2.4
			c-1.4,4.6-5,6.5-9.4,8.2c-1,0.5-1.9,1.4-2.6,2.2c-20.6,9.6-41.7-11.5-64.5-25.4l0,0c0,0-11.5-8.9-14.9-13.2
			c-1.7-2.2-3.6-4.1-5.5-5.8c-10.3-9.1-29.3-11-35.7-11.3c-1.2-0.5-2.4-0.7-3.6-0.7c-28.3-3.8-50.9,3.6-74.4,18.5
			c-2.4,1.7-6.2,4.3-9.6,6.7c-7.2,3.6-14.6,6.2-22.6,7.9c-16.6,3.6-51.6,8.6-53,7.9c-6.5-4.1-7.9-4.3-15.1-7.4
			c-2.2-1-3.4,2.2-1.2,3.8c5,4.1,6.5,3.4,11.8,5.8c-6.5,5.3-7.4,4.8-14.2,4.8c-1.7,0-6.2,3.1-1.7,3.8c8.6,1.2,11.5,0.5,17-3.8
			c-1,3.6-2.2,11-1.7,14.9c0.5,4.3,5.5,1.7,4.8-0.7c-1.4-5.3,0.7-11,2.9-16.1c20.9,0,41.7-3.4,61.7-9.8c0.2,0,0.2,0,0.5,0
			c3.4-0.7,24-8.6,24-8.6l0,0c0.7-0.2,1.2-0.5,1.9-0.7c-1.7,43.9,6.7,82.3-7.4,125c-3.1,7,4.3,10.1,7.7,9.4c0.2,0,0.5,0.2,0.7,0.2
			c12.7,0.2,25.4,0,37.9-0.2c12-0.2,25.7,0,38.1,0.2c13.2,0.2,26.4-1.7,39.6-0.2c9.6,1.2,16.3-0.5,18-10.6c3.4-19.2-9.4-42-14.4-60
			c-5.3-19-6.2-38.1-8.4-57.6c1.7,1,6.2,2.2,12.7,6c20.9,13.7,40.8,33.3,67.4,25.4c1.7,5,1.9,4.1,5.5,11.8c1.2,2.4,5.5,4.8,5,0.7
			c-0.7-5.5-1.2-7-3.1-10.1c1.9,1,5.5,0.7,7.7,1.2c2.2,0.7,4.3,1,5-1C1495.5,501.4,1493.8,498.5,1491.6,498z M1391.3,570.2
			c-2.2,2.9-5.8,4.8-11.8,5.8l-35.5,5.5c-9.1,1.4-18.2,2.9-27.4,3.6c-2.2,0.2-30.7,1-31,1.9c11.5-45.3,10.1-117.3,7-127.2
			c-6-18.2,36-15.6,44.6-15.1c19,1.2,42.7,6.5,45.3,29.8c1.7,15.6,3.1,31,5,46.5c1.2,10.6,4.6,21.1,5.8,31.7
			C1394.2,560.4,1394.2,566.2,1391.3,570.2z"/>
		
			<ellipse transform="matrix(0.7071 -0.7071 0.7071 0.7071 140.4538 1029.4965)" class="st2" cx="1312.9" cy="345.2" rx="83.5" ry="83.5"/>
		<ellipse transform="matrix(0.1735 -0.9848 0.9848 0.1735 731.9253 1522.8607)" cx="1273.3" cy="325.4" rx="8.2" ry="8.2"/>
		<circle cx="1359.9" cy="326.7" r="8.2"/>
		<path class="st11" d="M1282.9,362.9c5.5,29.8,51.3,42,70.8,4.8"/>
		<path class="st15" d="M1238.3,318.1c5.8,13.9-13.7,25.4-26.9,17.3c-11.8-7.2-4.8-33.3,1.9-41.7c10.1-13,18.5-11,31.9-16.6
			c11-4.6,20.2-16.6,24.2-27.6l0,0c0.7-1.7,1.2-3.8,2.9-4.8c1.2-0.7,2.6-1.2,4.1-1.4c18.7-3.4,37.4-5.8,56.4-7.2
			c6.7-0.5,13.9-0.7,19.9,2.2c7.7,3.6,12.5,11.8,14.4,19.9c1.9,8.4,1.2,17,0.5,25.4c-1.2,14.4-16.1,15.1-28.1,15.1
			c-3.6,0-7.2,0-10.3-1.7c-3.6-1.9-6.2-11.8-3.4-15.4c1-1,2.4-1.4,3.6-1.4l15.6-2.2c-13.7-8.9-31.2-8.9-47.5-8.6
			c-11.8,0.2-17.5,2.6-26.2,10.1c-1.4,1.2-20.6,15.4-20.2,11.5c-0.7,5.5-1.9,11-5.5,15.4c-2.6,3.1-7.2,5-11,6
			C1236.3,314.2,1237.5,315.9,1238.3,318.1z"/>
		<path class="st16" d="M1247.1,253.5c0.2-4.6-6-7.2-9.8-5c-3.8,2.2-5.3,7.2-5,11.8c0.7,8.6,6.2,16.3,14.2,19.4
			c-10.3-2.4-24.2,3.8-31.2,12.2c-10.3,12.5-14.4,39.6,4.8,46.5c9.4,3.4,21.1-2.9,22.6-12.5c0.7-6.5-4.3-10.8-10.3-9.8"/>
		<path class="st16" d="M1257,271c9.8-24.5,39.3-35.3,63.6-37.2c24.5-1.7,58.3,9.4,51.3,40.8c-3.1,13.4-14.4,23.5-28.3,25.4
			c-5.3,0.5-11.3-0.5-14.4-4.8c-1.2-1.7-2.2-3.8-2.2-6c-0.7-4.6,1.2-8.9,4.6-11.8c5-3.6,15.8-0.7,16.3,6.5"/>
		<path class="st5" d="M1236.8,315.7c8.9-4.8,13.4-14.9,11.3-24.7c7.2,1.4,14.6-7.2,20.6-11.3c12.5-8.4,26.9-13.4,41.7-14.6
			c6-0.5,13.4,0.5,16.1,6"/>
		<path class="st12" d="M1364.2,352.9c-20.9-22.8,8.4-12.5,16.1-4.8C1395.7,363.9,1374.8,364.1,1364.2,352.9z"/>
		<path class="st12" d="M1252.7,346.9c28.1-19,22.3,2.9,13,9.8C1246.2,370.4,1238.5,356.2,1252.7,346.9z"/>
		<path d="M862.3,732.9c-0.2-0.2-0.7-0.2-1-0.5c-13.4-2.6-27.1-1.7-40.5-1.4c1.4-19.9,12-37.9,15.4-57.3c1.2-6.5,2.4-13.7,3.8-20.6
			c-2.4-0.5-4.8-1.2-7.2-2.2c-0.7,4.6-1.2,9.1-1.7,13.4c-0.2,2.2-0.7,4.1-1,6.5c-3.1,20.9-14.4,39.6-15.8,60.5c0,0.2,0,0.5,0,0.7
			c-1.7,1.7-1,5,1.7,5.3c1.7,0.7,3.4,1.2,5,1.4c0.5,0.2,1.2,0.5,1.7,0.5h0.2c10.1,2.4,20.6,2.2,30.7,2.4c2.2,0,4.8-1,6.7-1.7
			c1.2-0.5,2.4-1.2,3.4-1.9C865.9,736.7,865.2,733.1,862.3,732.9z"/>
		<path d="M706.6,697.4c0.5,1.2,1,2.4,1.4,3.6c1.2,1.9,2.4,4.3,4.1,5.5c8.2,6.2,16.1,13,25.2,17.8l0.2,0.2c0.5,0.5,1,0.7,1.7,0.7
			c1.7,0.7,3.1,1.4,4.8,1.9c2.4,1.4,4.8-0.7,4.8-3.1c0.2-0.2,0.5-0.5,0.5-0.5c12.5-17,15.6-38.6,26.4-56.6c1.2-1.9,2.4-3.8,3.4-5.5
			c2.4-3.6,4.8-7.4,7.2-11.3c-2.4-0.7-4.8-1.7-7-2.9c-3.4,6.5-7,12.5-10.3,18.2c-9.8,17.3-13.2,37.9-24.7,54
			c-10.3-8.9-20.2-18.2-32.2-24.7c-0.2-0.2-0.7-0.2-1-0.2C709.2,692.4,706.3,695,706.6,697.4z"/>
		<path class="st17" d="M858.7,629.5c0-1.2,0.7-6.7,0-7.2c-1.2-1.7-6-1.4-8.2-1.7c-6.5-0.7-13-1-19.7-1.2c-2.9,0-16.6,1.4-18.5-0.7
			l0,0c-7.9-0.5-15.8-0.5-23.5,0c-6.2,0.5-12.5,1-18.7,1.9c-1.4,9.4-3.1,18.5-5.5,27.6c-1,4.1,19.4,3.8,21.1,3.8
			c5,0,9.8-0.7,14.6-1.7c1.7-0.5,5.5-1.2,6-3.4c1.2-4.6,1.4-8.4,5-11.8c1-1,1.9-1.7,3.1-2.2c4.3-1.4,4.8,6,5.3,8.9
			c0.7,4.6,0.7,9.4,1.9,13.9c3.1,12.7,20.6,11,30.5,9.6c1.4-0.2,3.1-0.7,4.3-1.4c2.9-2.4,2.2-11.8,2.2-15.1
			C858.5,642.2,858.9,635.7,858.7,629.5z"/>
		<path class="st1" d="M773.5,600.5c2.9-5,12.5-82.8,13.4-90c1.9-16.8,21.6-24,36-26.2c7.9-1.2,16.1-1,24,0.7
			c4.3,0.7,25.7,6.7,23,14.2c-3.1,8.9-6,75.1,3.6,117.1C836.4,616.8,810.7,607.7,773.5,600.5z"/>
		<path d="M817,621.1c3.1,0,6,0,9.1,0l4.6,0.2c5.8,0.5,11.5,1.2,17.5,1.4c5.5,0.5,10.3,1.9,15.8,2.9c6,1,23.3,2.4,19.9-8.4
			c-12-39.6-3.4-74.6-3.8-114.9c7,25.9,42,48.5,32.4,71.7c-0.7,0.7-1.2,1.4-1.7,2.2c-1.2,3.8-2.9,7-6.5,8.2
			c-1.7,0.5-2.6,1.4-1.9,2.9c0.7,1.7,2.4,1.9,4.1,1.2c3.6-1.4,6.7-4.1,8.6-7.4c1.2,1.9,1.9,4.3,2.6,6.5c0.5,1.7,2.9,3.1,4.3,2.4
			c1.7-0.7,1.2-2.6,0.7-4.3c-0.5-1.7-0.5-4.8-1.2-6.5c2.9,1.7,4.1,1.9,8.6,2.4c3.4,0.5,1.4-3.4-0.7-4.1c-6.7-2.6-5.8-2.9-10.1-4.3
			c8.2-31.9-28.1-48.7-33.8-76.8c-1.2-6-11-10.8-15.8-13c-17.3-7.2-37.7-8.6-56.1-7.7c-11,0.7-23.3,2.6-32.2,10.1
			c-12.5,10.3-19.4,31.9-40.3,48c-12.2,9.4-39.3,27.6-41,27.4c-7-1-8.4-0.5-15.4-0.2c-2.2,0-1.9,3.1,0.7,3.6c5.8,1.4,6.7,0.2,12,0.2
			c-3.4,7-4.1,7-9.8,9.6c-1.4,0.7-3.8,5,0,3.8c7.7-2.4,9.6-4.1,12.7-9.8c0.7,3.4,2.6,10.1,4.6,13.2c2.2,3.4,5.3-0.7,3.8-2.4
			c-3.4-3.8-3.6-9.4-3.8-14.4c29.8-13.9,54.9-35.7,72.7-63.3c-2.6,19.2-3.8,37.9-9.4,56.6c-4.3,14.2-11.5,27.8-13.7,42.9
			c-1.2,8.9-0.5,18.2,9.8,20.4c4.6,1,9.4,0.5,13.9,0.5c7.9-0.2,15.4-2.2,23.5-1.2C806.4,621.1,811.7,621.3,817,621.1z M773.5,600.5
			c2.9-5,12.5-82.8,13.4-90c1.9-16.8,21.6-24,36-26.2c7.9-1.2,16.1-1,24,0.7c4.3,0.7,25.7,6.7,23,14.2c-3.1,8.9-6,75.1,3.6,117.1
			C836.4,616.8,810.7,607.7,773.5,600.5L773.5,600.5z"/>
		<path d="M820.3,667.2c1.4,1,3.4,1.7,5.3,1.9c10.3,1.9,35.5,6.5,36.2-9.4c0.5-9.6-0.5-19,0.7-28.3c0.5-3.1,2.2-6.7-0.2-9.6
			c-4.6-6-19.4-3.4-26.2-4.3c-7.4-1-15.1-1.7-22.3-2.4c-0.2,0-0.5-0.2-0.7-0.2h-0.2h-0.2h-0.7h-1.4l-2.6-0.2
			c-1.9-0.2-3.6-0.2-5.5-0.2c-3.6-0.2-7.2-0.2-10.8-0.2c-7.2,0-14.6,0.7-21.8,1.7l-3.4,0.5l-0.5,3.6c-1,6.2-2.4,12.2-3.8,18.5
			c-1,4.1-4.1,10.1-1.4,14.2c1.7,2.4,5,3.6,7.9,4.3c4.1,0.7,8.2,1.2,12.2,1.4c2.9,0.2,5.5,0.5,8.4,0.5c4.8,0.2,9.8-0.2,14.6-1
			c1.9-0.5,4.1-0.7,5.5-1.7c0.2,0,0.2-0.2,0.5-0.5c1.4-1.2,1.9-3.1,2.4-4.8c0.5-1.4,0.7-2.6,1.4-3.8c1.9,2.6,2.6,5.8,3.6,8.9
			C817.9,659,817.2,664.5,820.3,667.2z M816,628.3c-0.5-0.2-1.2-0.5-1.7-0.5c-2.2-0.2-3.1,2.2-4.1,3.6c-2.6,3.6-5,8.4-5.5,12.7
			c0,1.4-0.5,2.9-1.7,3.6c-0.5,0.2-1,0.2-1.4,0.2c-8.4,0.2-16.8,0.5-25,0c-1.4,0-6-0.2-5.8-2.4c0-3.1,1.4-6.7,1.9-10.1
			c0.7-2.9,1.2-5.8,1.4-8.6c0-1.9-0.5-3.4-0.2-5.3c0.2-1.2,17.5-0.7,19.2-0.7c4.1,0,8.2-0.2,12.2,0c1.9,0,3.8,0.2,5.8,0.5
			c1.9,0.2,3.6,0.5,5.3,0.7c1.7,0.2,3.6,0,5.3,0h5c6,0.2,12.2,0,18.5,0c3.1,0,8.6-1,10.6,2.2c1.9,2.6,0.5,10.1,0.7,13.2
			c0.2,5.8,0.2,11.8,0.5,17.5c0,0.7,0,1.4,0,1.9c-1.2,11-16.3,6.2-24.5,5.3c-1,0-1.9-0.2-2.6-0.7c-0.5-0.5-1-1.4-1-2.2
			c-1.4-5.3-2.4-10.8-3.6-16.1c-0.5-2.6-1.2-5.3-2.6-7.4C821,633.6,818.6,629.7,816,628.3L816,628.3z"/>
		<circle class="st2" cx="825.6" cy="383.6" r="83.5"/>
		<path class="st18" d="M880.3,310.9c8.2,2.6,15.8,12.2,7.2,19.4c-9.1,7.4-23.3-9.4-23.8-9.1c-5.3,3.6-8.4,11.5-16.6,10.1
			c-7-1.2-8.6-7.9-7.4-13.7c-1.7,8.2-22.1,16.8-29.8,17c-21.6,0.7,0.2-25.7,10.8-28.3c-2.6-0.5-5.3-1.4-7.7-2.9
			c-2.4-1.4-4.3-4.1-4.3-6.7c0.5-10.1,15.8-9.4,22.8-8.9c11,0.7,35,3.8,31.9,19c-0.2,1.4-0.5,3.4,0.7,3.8c0.7,0.2,1.7,0,2.4-0.5
			C869.5,308.7,875.3,309.2,880.3,310.9z"/>
		<circle cx="795.6" cy="378.5" r="8.2"/>
		<circle cx="858.7" cy="369.2" r="8.2"/>
		<path class="st19" d="M875.5,394.8c-9.8,10.6-16.1,21.4-30,30.7c-4.8,3.4-10.8,6.5-17.3,6.7c-5.3,0.2-9.6-1.7-13.4-3.6
			c-6.7-3.1-13.2-6.7-19.4-10.6c-0.7-0.5-14.2-11.3-11-11C814.6,409.5,847.7,407.8,875.5,394.8z"/>
		<path class="st12" d="M750.5,402c12.5,33.1,27.4,3.8,23.5-7.7C766.3,370.4,744.3,385.3,750.5,402z"/>
		<path class="st12" d="M877.4,384.1c19.4,29.5,30.2-3.6,24-14.2C888.5,348.5,867.6,369.2,877.4,384.1z"/>
		<path d="M1135.8,721.4c-0.5,0-0.7-0.2-1.2,0c-14.9,1.7-28.8,7.4-42.7,12.2c-5.3-21.4-0.2-43.7-3.4-65.3c-1-7.2-2.2-15.1-3.1-22.8
			c-2.6,0.5-5.5,0.5-8.2,0.2c1,5,1.9,10.1,2.9,14.6c0.5,2.2,0.7,4.6,1.2,7c3.8,22.8-1.7,46.1,4.1,68.6c0,0.2,0.2,0.5,0.2,0.7
			c-1.2,2.2,0.7,5.5,3.6,5c1.9,0,3.8,0,5.8,0c0.7,0.2,1.2,0.2,1.9,0h0.2c11.5-1,22.1-4.8,32.9-7.7c2.4-0.7,4.6-2.6,6.5-4.1
			c0.5-0.2,3.4-3.1,3.1-3.1C1141.1,724.3,1139.2,720.7,1135.8,721.4z"/>
		<path d="M899.7,643.4c-0.2,1.4-0.2,2.9-0.2,4.3c0.2,2.4,0.2,5.3,1.4,7.4c5.3,9.8,9.8,20.4,16.8,29.5c0,0,0,0.2,0.2,0.2
			c0.2,0.5,0.7,1.2,1.2,1.4c1.2,1.4,2.4,2.9,3.8,4.3c1.7,2.4,5.3,1.4,6.2-0.7c0.2,0,0.5-0.2,0.7-0.2c20.4-11,33.8-31,53-43.7
			c2.2-1.2,4.1-2.4,6-3.8c4.1-2.4,8.2-5,12.5-7.9c-2.2-1.9-3.8-3.8-5.5-6.2c-6.5,4.8-13,9.1-19,13.2c-18,12.5-31,31.4-49.9,42
			c-6-13.7-11.3-27.6-20.2-39.6c-0.2-0.2-0.5-0.7-1-1C904.5,639.8,900.4,641,899.7,643.4z"/>
		<path class="st20" d="M1050.6,602.9c-1.2,3.4,1.4,7.2,4.6,8.6c8.9,3.8,43.9-1,46.1,12.5c3.4,21.6-23.5,37.2-28.8,32.9l0,0
			c-1.2,0.5-2.6,0.2-3.8-0.5c-3.4-1.9-3.8-5.5-3.8-9.6c0-4.6-7.9-1-9.6,0c-5.3,3.1-11,6.5-16.6,2.4c-4.8-3.6-7.9-11.3-14.6-11
			c-5.3,0.2-10.3,2.9-15.4,4.3c-4.1,1.2-10.1,2.2-12-2.9c-0.7-1.7-1.2-3.6-1.4-5.8c-0.2-3.1,0.5-6-2.4-4.1c-10.3,7.2-14.9-1.2-13-6
			c-0.5-5.3-0.5-14.9,7.2-15.6c23.3-2.2,47,2.4,70.1,4.3c1.7,0.2,4.8,0.2,8.6,0.5C1061,612,1055.9,602.1,1050.6,602.9z"/>
		<path d="M1051.1,603.3C1051.1,603.3,1051.1,603.6,1051.1,603.3L1051.1,603.3v0.5c0,0.2,0,0.5,0,0.7c0,0.5,0,1,0.2,1.4
			c0.2,1,1,1.9,1.7,2.6c0.7,0.7,1.4,1.4,2.4,1.7c1,0.5,1.9,0.7,3.1,0.7c4.6,0.5,9.1,0.7,13.7,0.7c4.6,0.2,9.1,0.2,13.9,0.7
			c2.4,0.2,4.8,0.7,7.2,1.4c2.6,0.7,5,1.7,7,3.4c1.2,1,2.2,2.2,2.9,3.4l0.5,1c0.2,0.5,0.2,0.7,0.2,1.2c0.2,0.7,0.2,1.4,0.5,1.9
			c0.2,2.6,0.2,5,0,7.7c-1,5-2.9,9.8-6,13.9c-2.9,4.1-6.7,7.4-10.8,10.3c-2.2,1.4-4.6,2.6-7,3.6c-1.4,0.5-2.9,1-4.3,1
			c-0.5,0-0.7,0-1.2,0h-0.7h-0.7c-1.2-0.2-2.4-0.7-3.6-1.4l-0.2-0.2c0.2,0.2,0.5,0.5,0.7,0.5l3.4,0.5c-1.2,0.5-2.4,0.5-3.6,0.5
			c-1.2-0.2-2.4-0.5-3.6-1.2c-1-0.5-1.7-1.2-2.4-1.9c-0.7-0.7-1.4-1.7-1.9-2.4c-1-1.7-1.4-3.4-1.7-5.3c0-0.7-0.2-1.7-0.2-2.4
			c0-0.5,0-0.7,0-1.2v0.2c0,0.2,0,0.2,0,0.5c0,0.2,0.2,0.5,0.2,0.5c0.2,0.2,0.2,0.5,0.5,0.7c0.2,0.2,0.5,0.5,1,0.5
			c0.2,0,0.2,0,0.2,0h-0.2c-1,0.2-1.7,0.5-2.6,1c-0.5,0.2-1,0.5-1.4,0.7l-1.4,1c-1.2,0.7-2.4,1.4-3.8,2.2c-1.4,0.7-3.1,1.4-4.6,1.7
			c-1.9,0.5-3.8,0.7-5.8,0.5c-1.9-0.2-4.1-1-5.8-2.2c-1.4-1-2.9-1.9-4.1-3.4c-2.2-2.2-3.8-4.1-5.3-5.5c-0.5-0.5-1.2-1-1.9-1.2
			c-0.5-0.2-1-0.2-1.4-0.2c-1.9,0.2-4.1,0.7-5.8,1.4c-2.2,0.7-4.6,1.9-7.4,2.9c-1.4,0.5-3.1,1-4.6,1.2c-1.9,0.2-3.8,0.5-5.8,0.2
			c-1.2-0.2-2.4-0.5-3.4-1c-0.7-0.2-1.2-0.5-1.7-1c-0.5-0.5-1.2-0.7-1.7-1.2c-0.5-0.5-1-1-1.4-1.4c-0.5-0.5-0.7-1-1-1.7l-0.5-1
			l-0.2-0.5c-0.2-0.5-0.2-0.7-0.5-1.2c-0.7-1.7-1-3.6-1.2-5.3c0-1-0.2-1.7-0.2-2.4c0-0.5,0-0.7,0-1.2l0,0v0.2v0.2c0,0.2,0,0.2,0,0.5
			c0.2,0.2,0.2,0.7,0.5,1c0.2,0.2,0.2,0.5,0.5,0.7l0.2,0.2c0.2,0.2,0.2,0.2,0.5,0.5c0.5,0.5,1.2,1,1.9,1.2c0.2,0.2,0.7,0.2,1,0.2
			h0.5h0.2c0.5,0,1,0,1.2,0s0.5,0,0.5-0.2h0.2l0,0h0.2l0,0l0,0l-0.5,0.2c-0.7,0.5-1.4,1-2.2,1.4c-0.7,0.5-1.7,1-2.6,1.2
			c-0.5,0.2-1,0.2-1.4,0.5l-0.7,0.2l-1,0.2c-0.5,0-1.2,0.2-1.7,0.2c-0.5,0-1.2,0-1.9,0c-2.9-0.2-5.8-1.2-7.9-3.1
			c-2.2-1.9-3.6-4.3-4.3-7c-0.7-2.6-0.5-5.5,0.5-8.2l-0.5,3.4c-0.2-2.4-0.5-5-0.2-7.7c0.2-1.4,0.5-2.9,0.7-4.3
			c0.2-0.7,0.5-1.4,0.7-2.2c0.2-0.7,0.7-1.7,1.2-2.4c0.2-0.5,0.5-0.7,0.7-1.2c0.2-0.5,0.7-0.7,1-1.2c0.7-0.7,1.4-1.4,2.4-2.2
			c1.7-1.2,3.6-1.9,5.8-2.4l1.4-0.2c0.5,0,0.5,0,1,0h1.7c1,0,2.2-0.2,3.1-0.2c8.4-0.2,17,0.2,25.4,1.4c8.4,1,16.6,2.4,24.5,4.1
			l12,2.2c4.1,0.7,8.2,1.2,12,1.9l-1,5.8c-1.9-0.7-3.6-1.9-5-3.4c-1.2-1.2-2.2-2.4-3.1-3.8c-1-1.2-1.9-2.4-2.9-3.4
			c-0.2-0.2-0.5-0.5-0.7-0.7c-0.2-0.2-0.5-0.5-0.7-0.5c-0.2-0.2-0.5-0.2-1-0.5C1051.6,603.6,1051.4,603.6,1051.1,603.3
			C1051.4,603.6,1051.1,603.3,1051.1,603.3z M1050.2,602.1c0.2,0,0.5-0.2,1-0.2c0.2,0,0.5,0,1,0c0.5,0,1,0,1.4,0.2
			c0.5,0,1,0.2,1.2,0.5c0.5,0.2,0.7,0.5,1.2,0.7c1.4,1,2.9,1.9,4.1,2.9c1.2,1,2.4,1.9,3.6,2.9c1,0.7,1.9,1.2,3.1,1.4
			c1.7,0,2.9,1.2,2.9,2.6c0,1.4-1.2,2.9-2.6,2.9h-1c-8.2,0.5-16.6,0.2-25,0c-8.2-0.5-16.3-1-24.5-1.2c-4.1-0.2-7.9-0.2-12-0.2
			c-4.1,0-7.9,0.2-11.8,0.5c-1,0-1.9,0.2-2.9,0.2l-1.4,0.2c-0.2,0-0.5,0-0.7,0l0,0c-0.2,0,0,0,0,0l0,0l0,0l0,0
			c-0.5,1-0.7,1.9-0.7,2.9c-0.2,1.4-0.2,3.1,0,4.8l-0.5,3.4c0.2-0.5,0-0.5,0-0.5c0-0.2-0.2-0.2-0.2-0.2c-0.2-0.2-0.7-0.5-0.7-0.2
			l0,0h0.2l0,0h0.2c0.2,0,0.2,0,0.5,0s0.7-0.2,1-0.5c0.2-0.2,0.7-0.5,1.2-0.7l0.2-0.2l0.7-0.5l0.5-0.2l0.5-0.2l0.2-0.2l0.5-0.2
			c0.2,0,0.7-0.2,1-0.2c0.5,0,1.2-0.2,1.7-0.2h0.5h0.7c0.5,0,1,0.2,1.2,0.5c1,0.2,1.7,0.7,2.4,1.4l0.5,0.5l0.2,0.5
			c0.2,0.2,0.5,0.5,0.5,0.7c0.2,0.5,0.5,1,0.7,1.4c0,0.2,0.2,0.5,0.2,0.7c0,0.2,0,0.2,0,0.5s0,0.5,0.2,0.7v0.5c0,1,0,1.7,0,2.6
			c0,0.7,0,1.2,0,1.4c0,0.7,0.2,1.4,0.5,2.4l0.2,0.7v0.2l0,0l0,0l0,0c0,0-0.2,0,0,0c0.7,0,1.4,0,1.9,0c1,0,1.9-0.2,2.9-0.5
			c2.2-0.7,4.6-1.4,7.2-2.4c3.1-1,6.2-1.7,9.4-1.7c2.2,0,4.3,0.5,6.2,1.4c1.7,1,3.1,1.9,4.6,3.4c2.4,2.4,3.8,4.6,5.3,6
			c0.5,0.7,1.2,1.2,1.9,1.9c0.5,0.2,1,0.5,1.7,0.7c1.7,0.2,3.4-0.2,4.8-1c1-0.5,1.9-1,3.1-1.7l0.7-0.5l0.5-0.2l0.7-0.2
			c0.7-0.5,1.4-0.7,2.2-1c1.7-0.7,3.1-1,4.8-1.2c0.5,0,1,0,1.7,0c0.7,0,1.4,0,2.2,0.2c1,0.2,1.9,0.7,2.6,1.4c0.5,0.5,1,1,1.2,1.4
			c0.2,0.5,0.5,1,0.7,1.4c0.2,0.5,0.2,1,0.2,1.4c0,0.5,0,0.7,0,1.2v0.7c0,0.5,0,1,0,1.4c0,0.7,0.2,1.4,0.5,2.2c0.2,0.5,0.5,1,1,1.2
			l0,0c0,0,0,0,0.2,0h0.5c1-0.2,1.9,0,2.9,0.5c0.2,0.2,0.7,0.5,1,0.7l-0.2-0.2c-0.2-0.2-0.5-0.2-0.2-0.2l0,0h0.2c0.2,0,0.2,0,0.5,0
			c0.7,0,1.7-0.2,2.4-0.5c1.9-0.7,3.8-1.4,5.5-2.4c3.6-2.2,6.7-4.8,9.4-8.2c2.6-3.1,4.6-7,5.5-10.8c0.5-1.9,0.5-4.1,0.5-6
			c0-0.5,0-1-0.2-1.4c0-0.2,0-0.5,0-0.5c0-0.2-0.2-0.2-0.2-0.5c-0.2-0.7-0.7-1.4-1.4-1.9c-1.4-1.2-3.4-2.2-5.3-2.9
			c-2.2-0.7-4.1-1.2-6.2-1.7c-4.3-0.7-8.9-1.2-13.4-1.7c-4.6-0.2-9.1-0.7-13.7-1.7c-1.2-0.2-2.4-0.7-3.6-1.2
			c-1.2-0.5-2.2-1.4-2.9-2.4c-0.7-1-1.4-2.2-1.7-3.4c-0.2-0.7-0.2-1.2-0.2-1.9c0-0.2,0-0.7,0.2-1v-0.2c0,0,0-0.2,0.2-0.2
			C1049.9,602.6,1050.2,602.4,1050.2,602.1z"/>
		<path d="M1199.9,541.4c-5.5-0.7-6.5-0.5-11.3-5.5c4.6-1.4,5.8-1,10.3-3.8c2.2-1.2,1.2-3.8-0.5-3.4c-6.2,1.9-7.4,1.9-13.2,4.8
			c-1.2,0.7-30-7-43.4-11.5c-6.2-2.2-12.5-5-18-8.6c-2.6-2.4-5.5-5-7.4-6.5c-5.5-6-11.8-13-30.7-17c-3.6-0.7-4.6,4.8-1,5.5
			c7.7,1.7,14.4,7,17.3,14.2c-3.6,7.9-11.5,67.9-6,107c-34.1-2.6-56.9-13-90-22.6c3.1-4.3,18-74.4,19.4-80.9
			c0.5-2.4,7.7-18.7,21.8-19c1.9,0,8.2-6,7.4-9.6c0,0-21.4-1.9-32.9,6c-1.9,1.2-3.6,2.9-5,4.3l0,0c-3.1,3.1-13.7,9.6-13.7,9.6l0,0
			c-20.2,9.4-40.1,25-56.1,15.1c-0.2,0-1.2-1.7-1.9-1.9c-3.6-1.9-6.5-3.8-7.2-7.7c-0.2-1.7-1-2.9-2.6-2.4c-1.7,0.5-2.2,2.2-1.9,3.8
			c0.7,3.8,2.9,7.2,6,9.6c-2.2,0.7-4.6,1.4-6.7,1.7c-1.7,0.2-3.6,2.4-3.1,3.8c0.5,1.7,2.4,1.7,4.1,1.2c1.7-0.2,4.8,0.2,6.5-0.2
			c-1.9,2.4-2.4,3.8-3.6,8.2c-1,3.4,3.1,1.9,4.3-0.2c3.6-6.2,3.8-5.3,5.8-9.4c21.6,9.1,39.8-5.3,58.5-14.9l0,0
			c5.8-2.6,9.8-3.1,11.3-3.8c-3.6,16.1-6.2,31.9-12.2,47.5c-7.4,18.2-28.1,54.2-11.3,58.5c2.4,0.7,60.5,17.3,104.4,11.8
			c0.2,0,0.5,0,0.7,0c2.6,1,9.1-1,7.2-7.2c-7.9-36.9,2.9-68.4,5.8-105.1l1.4,0.7l0,0c0,0,16.3,8.4,19.2,9.4c0.2,0,0.2,0,0.5,0
			c16.1,7.4,33.1,12.2,50.6,14.2c1.4,4.3,2.6,9.4,1,13.7c-0.7,1.9,3.1,4.6,4.1,1c0.7-3.1,0.5-9.4,0-12.7c4.3,4.1,6.5,5,13.9,4.8
			C1204.7,544.8,1201.3,541.7,1199.9,541.4z"/>
		<path class="st21" d="M1094.8,598.5c-1-11.5,1.2-23.5,1.7-35c0.2-6,1-12,2.2-17.8c0.7-4.1,1.9-7.9,2.2-12.2
			c0.2-3.4,1.4-7,1.7-10.3c0.2-2.6-0.2-3.4,2.6-3.6c1.9,0,3.8,1,5.5,1.7c2.9,1.2,4.8,3.4,7.2,5c1,1,2.4,1.4,3.6,1.9
			c0.7-0.2,1.7-0.7,2.2-1.4c2.4-2.6,5.3-5.3,7.7-7.9c2.2-2.4,2.4-3.8-0.5-6.5c-9.4-8.9-23-18.7-36.2-20.6c-7.9-1-15.8-2.6-23.5-5
			c-4.6-1.4-9.1-2.4-13.7-3.6c-0.7-0.2-1.7-0.5-2.4-0.5c-4.8-0.7-9.6-1-14.2-0.7c-7.4,0-14.9,1.4-22.1,4.1
			c-4.1,1.7-10.1,3.4-12.5,7.4c-2.9,4.8-0.7,16.3,0.5,21.4c3.1-1.9,6-3.8,8.6-6c2.6-1.4,5.3-2.6,8.2-3.6c-2.4,8.4-6,16.6-8.2,25
			c-2.4,9.1-5.8,17.8-8.2,26.9c-1.9,7.7-3.8,15.4-5.5,22.8c-1.2,5.3-4.3,12.7-3.1,18c1.9,8.2,13,10.3,19.7,12.5
			c21.6,7,43.2,8.2,65.5,8.4c5.3,0,10.8-1.2,11.5-7C1096,607.7,1095,603.1,1094.8,598.5z"/>
		<path class="st10" d="M1015.9,499.7c6.7-6.5,18.2-11.8,27.1-12.5"/>
		<circle class="st2" cx="1074.9" cy="389.6" r="83.5"/>
		<circle cx="1033.4" cy="376.9" r="8.2"/>
		<circle cx="1123.8" cy="375.4" r="8.2"/>
		<path class="st11" d="M1108.5,426.8c-23.8-13.2-65-5.3-57.6,6.7c10.6,16.8,16.3,21.4,31.4,22.3
			C1097.4,456.7,1108.5,426.8,1108.5,426.8z"/>
		<path class="st22" d="M1022.3,334.4c6.7,3.6-12.5,35.3-23.5,25.7c4.3,3.6,2.9,10.3,1.2,15.8c-0.7,2.4-1.7,5-4.1,6.2
			c-2.2,1.2-5.8-0.2-5.5-2.6c1,7.2-4.1,11.8-9.8,15.1c-4.1,2.2-8.9,3.4-13.4,3.6c-2.2,0.2-4.1,0.2-6.2-0.2
			c-15.8-3.8-21.6-30.7-10.1-41c1-0.7,1.7-1.4,1.9-2.4c0.5-1.4-0.5-3.1-1.2-4.3c-3.1-5-4.8-10.8-5-16.8c0-10.1,6.5-16.8,14.9-21.6
			c2.2-1.2,27.6-6.5,25.9-1.2c2.6-9.8,6-19.9,13.7-26.4c7.7-6.5,21.1-7.2,26.9,1c-5.8-8.6,12.7-23.3,19.2-25.2
			c13.2-4.1,29,0.5,36.2,13c11-5,22.8-10.1,34.8-8.4c12,1.9,23.3,13.7,19.4,25.2c13-3.8,26.6,3.4,30.5,16.3c1.9,6.2,1.2,13-1.9,18.5
			c11,1.2,19.9,11,22.1,22.1c1.9,11-2.2,22.3-8.9,31.2c-8.2,10.6-22.6-1.2-19-12.2c-6.7,2.6-14.2,1.2-19.7-3.4
			c-5.8-5-7.9-15.1-9.8-22.3c-1.9,1.9-4.6,3.1-7.4,3.1c-11.3,0.5-15.6-9.8-16.6-19c-9.8,5.5-23.8,5-30.2-5.8
			c-8.9,6.5-20.4,7.9-30.7,3.8C1043.2,328.9,1030,338.5,1022.3,334.4z"/>
		<path class="st5" d="M1186.2,371.6c6-12.5,4.3-27.6-4.3-38.4c-5-6-13-10.6-20.6-8.6c-1.4,0.2-2.9,1.2-3.8,2.4
			c-2.2,3.4,2.4,7.7,6,7c3.8-1,6.2-4.8,7.2-8.6c4.1-14.9-4.6-30.5-19.4-34.5c-6.2-1.7-13-1.2-18.7,1.2c-3.4,1.4-7,5.8-4.3,8.4
			c1.7,1.7,4.6,1.2,6.2-0.5c1.4-1.9,2.4-4.1,2.9-6.5c1-4.6,1.7-9.4,0.5-13.9c-2.9-9.4-13.7-13.9-23.5-14.2
			c-11.5-0.2-38.9,6.2-38.1,22.1c0,2.2,1.7,4.6,3.8,4.6c1,0,1.9-0.2,2.6-0.7c13.9-8.4-2.2-29.3-12.5-32.2c-17.5-5-36,5-41,22.6
			c-1.7,5.8-1.7,12-0.2,17.8c0.7,2.4,3.4,5.3,5.3,3.6c4.3-9.8-3.1-22.3-13.4-24.7c-10.6-2.4-21.8,3.6-27.1,13
			c-5.3,9.4-5.8,20.9-3.1,31.2c0.5,1.7,1,3.6,2.4,4.3c2.6,1.4,6.2-1.2,6.5-4.3c0.2-3.1-1.7-5.8-4.1-7.9c-8.6-7.9-22.3-9.1-32.4-3.6
			c-10.3,6-16.1,17.3-15.1,29.3c1.4,11.8,9.1,21.8,19.9,26.6c2.4,1,5.5,1.9,8.2,1c4.8-1.7,5.8-8.6,2.6-12.7
			c-3.1-4.1-8.6-5.3-13.7-4.3c-28.3,4.3-23,48.2,4.8,48.7c10.1,0.2,20.2-6.2,21.4-16.6c6.5,3.4,13-4.3,13.4-12.7
			c0.5-5.3-2.4-5-5.8-9.1c8.9,11.5,31.4-22.3,22.8-25.7c9.4,3.6,21.1-2.6,23.3-12.2c10.1,4.3,21.8,2.6,30.5-4.3
			c-1.9,1.7,13.2,7.7,14.6,7.9c6,0.7,11.8-1.4,16.6-4.8c-3.4,2.4,1.4,13.7,3.6,15.8c4.8,5.3,12.2,5.5,18.7,5
			c2.2-0.2,3.4-1.7,5.5-1.9c-5.5,0.5,3.8,16.6,6,18.5c6.7,5.5,15.6,7.7,23.8,4.6c-4.6,1.7-0.5,14.2,2.2,15.6
			C1172.8,383.6,1183.1,377.8,1186.2,371.6z"/>
		<path class="st4" d="M1144.2,403.5c-6.2,23.8-17.5,8.9-16.8-3.6C1128.1,383.6,1147.3,391.5,1144.2,403.5z"/>
		<path class="st4" d="M1027.6,400.4c-11.3,21.8-21.1-0.2-17.5-7.9C1017.3,376.4,1033.4,389.3,1027.6,400.4z"/>
		<path d="M1144,365.8c-3.1,4.8-11.8,10.3-17.3,9.6L1144,365.8z"/>
		<path d="M1135.3,361c-1.4,5.8-7.2,11.5-12.7,13.4L1135.3,361z"/>
		<path d="M1129.8,359.6c0.7,5.3-3.4,11.3-8.2,13.4L1129.8,359.6z"/>
		<path d="M1131.7,376.1c-0.5,4.3-4.8,7.2-9.4,6.7c-4.6-0.5-8.2-4.3-7.4-8.6c0.5-4.3,4.6-7.2,9.4-6.7
			C1129.1,368,1132.2,371.8,1131.7,376.1z"/>
		<path d="M1011.1,371.3c4.1,4.1,13.7,7.7,19,6L1011.1,371.3z"/>
		<path d="M1018.3,364.9c2.4,5.3,9.4,9.8,15.1,10.6L1018.3,364.9z"/>
		<path d="M1023.5,362.2c0.5,5.3,5.5,10.3,10.6,11.5L1023.5,362.2z"/>
		<path d="M1025,379c1.4,4.1,6,6.2,10.6,4.6s7-6,5.8-10.1c-1.4-4.1-6-6.2-10.6-4.6C1026.2,370.6,1023.5,374.9,1025,379z"/>
		<path d="M481.8,723.8c0.5,0,0.7-0.2,1.2,0c14.4,1.2,28.1,6.2,42,10.6c4.6-20.9-1.2-42.2,1.2-63.3c0.7-7,1.7-14.6,2.2-22.3
			c2.6,0.2,5.3,0.2,7.9,0c-0.7,5-1.7,9.6-2.4,14.2c-0.2,2.2-0.7,4.6-1,6.7c-2.9,22.3,3.1,44.6-1.7,66.7c0,0.2-0.2,0.5-0.2,0.7
			c1.2,2.2-0.5,5.5-3.4,5c-1.9,0.2-3.8,0.2-5.5,0c-0.7,0.2-1.2,0.2-1.9,0h-0.2c-11-0.7-21.6-3.8-32.2-6.5c-2.4-0.5-4.6-2.4-6.5-3.8
			c-0.5-0.2-3.4-2.9-3.1-2.9C476.7,726.7,478.7,723.1,481.8,723.8z"/>
		<path d="M708,640.3c0.2-0.2,0.5,3.6,0.2,4.1c-0.2,2.2-0.2,5.3-1.2,7.4c-4.8,9.8-8.6,20.2-15.4,29v0.2c-0.2,0.5-0.7,1.2-1.2,1.4
			c-1.2,1.4-2.4,2.9-3.6,4.3c-1.4,2.4-5,1.7-6-0.5c-0.2,0-0.5-0.2-0.7-0.2c-20.2-10.1-33.8-28.8-52.8-40.5c-2.2-1.2-4.1-2.4-6-3.6
			c-3.8-2.2-8.2-4.6-12.5-7.2c1.9-1.9,3.6-3.8,5-6.2c6.2,4.3,12.7,8.4,18.7,12.2c17.8,11.5,31,29.5,49.9,39.1
			c5.3-13.4,10.1-27.1,18.2-39.1c0.2-0.2,0.5-0.7,1-1C703.5,636.7,707.3,637.7,708,640.3z"/>
		<path class="st23" d="M557.1,610.8c22.3-3.8,47-5.3,52.8-3.4c4.3,1.4,7,5.3,9.6,8.6c6.5,7.7,14.9,13,24.5,15.8
			c-10.1,21.8-23.3,33.8-43.4,25.9c-10.6-4.1-13.9-20.6-28.3-13c-7.7,4.3-8.2,38.6-14.2,39.6c-17.5,2.4-35.5,1.7-52.8-1.9
			c2.9-18.7,10.6-36.9,12.2-55.4C518.2,619.9,536.7,614.1,557.1,610.8z"/>
		<path d="M557.1,610.1c7.9-1.2,15.8-2.2,23.8-3.1c4.1-0.5,7.9-1,12-1.2c4.1-0.2,7.9-0.7,12-0.5c1,0,2.2,0,3.1,0.2
			c0.5,0,1.2,0,1.7,0.2l1,0.2l0.7,0.2c2.2,1,4.1,2.2,5.5,3.8c1.7,1.4,2.9,3.1,4.3,4.6c1.2,1.4,2.6,2.6,4.1,4.1
			c2.9,2.4,6,4.6,9.4,6.2c3.4,1.7,6.7,3.1,10.3,4.1c1.9,0.5,2.9,2.4,2.4,4.1c0,0.2,0,0.2-0.2,0.5v0.2c-3.1,7.4-7,14.6-12.7,21.1
			c-3.1,3.4-6.7,6-10.6,7.9c-4.3,1.9-8.9,2.9-13.4,2.6c-1.2,0-2.2-0.2-3.4-0.2l-3.4-0.7c-1.2-0.2-2.2-0.7-3.1-1l-1.7-0.5
			c-0.7-0.2-1.2-0.5-1.9-0.7c-2.2-1.2-4.1-2.4-6-4.1c-1.7-1.4-3.1-3.1-4.3-4.3s-2.4-2.4-3.6-3.4c-1-0.7-1.9-1.2-2.9-1.4
			c-1,0-2.2,0-3.1,0.5c-0.7,0.2-1.2,0.5-1.9,1l-0.2,0.2l0,0l0,0l0,0c0,0,0,0.2-0.2,0.2c-0.2,0.5-0.5,1-0.7,1.7
			c-0.2,0.7-0.5,1.4-0.7,2.2c-0.5,1.7-1,3.4-1.2,5c-0.7,3.6-1.4,7.4-1.9,11.3c-0.2,1.9-0.7,3.8-1,6c-0.5,2.2-1,4.3-1.7,6.5
			c-0.5,1.4-1.2,2.9-1.9,4.1l-0.5,0.7c-0.2,0.2-0.5,0.5-0.7,0.7l-0.7,0.7c-0.2,0.2-0.7,0.5-1,0.7c-0.5,0.2-0.7,0.5-1.2,0.7
			c-0.5,0.2-1,0.5-1.7,0.5l-0.7,0.2h-0.2h-0.5c-1.9,0.2-4.1,0.7-6,1c-8.2,1-16.3,1.2-24.5,1c-8.2-0.5-16.3-1.7-24.2-3.4h-0.2
			c-3.6-1-6-4.3-5.3-8.2c1.7-8.6,3.8-17,7-25.2l4.1-11.8c1.2-3.8,2.6-7.9,3.6-11.8c0.2-1,0.5-1.9,0.7-2.9l0.7-3.1
			c0.2-1.7,1.2-3.1,2.2-4.3c1-1,1.9-1.9,3.1-2.4c1.9-1.2,4.1-2.2,6.2-2.9s4.1-1.4,6.2-1.9C540.3,612.7,548.7,611.3,557.1,610.1z
			 M557.4,611.3c-8.2,1.4-16.3,3.8-24,7c-1.9,0.7-3.8,1.7-5.5,2.6s-3.4,1.9-4.8,3.4c-0.5,0.5-1.2,1.2-1.4,1.9
			c-0.2,0.5-0.5,0.7-0.2,1.2v3.1c0,1.2-0.2,2.2-0.2,3.4c-0.2,4.3-0.7,8.6-1.4,13s-1.4,8.4-2.4,12.7c-1.7,8.2-3.6,16.3-4.6,24
			l-5.5-8.2c14.6,2.9,29.5,3.8,44.4,2.9c1.9,0,3.8-0.2,5.5-0.5h0.2h0.2c-0.2,0-0.2,0-0.5,0s-0.7,0.2-1,0.5c-0.2,0-0.5,0.2-0.5,0.2
			c-0.2,0-0.2,0.2-0.5,0.5c0,0-0.2,0-0.2,0.2c0,0,0,0,0,0.2l0,0c0.2-0.2,0.5-0.7,0.7-1.2c0.7-1.7,1.2-3.1,1.4-4.8
			c0.5-1.7,1-3.6,1.4-5.5c1-3.8,1.7-7.7,2.6-11.5c0.5-1.9,1.2-4.1,1.9-6c0.5-1.2,0.7-2.2,1.4-3.1c0.5-1.2,1.2-2.4,2.2-3.6l0.7-1
			c0.2-0.2,0.7-0.7,1-1c0.5-0.2,0.7-0.7,1.2-1l0.7-0.5l0.5-0.2c1.2-0.5,2.2-1,3.4-1.4c2.6-1,5.5-1.2,8.4-0.5
			c1.4,0.2,2.9,0.7,4.1,1.4c1.2,0.7,2.4,1.4,3.4,2.2c1.7,1.4,3.4,3.1,4.8,4.8c2.6,2.9,5,5.5,7.2,6.7c0.2,0.2,0.5,0.2,1,0.5l1.2,0.5
			c0.7,0.2,1.7,0.7,2.4,0.7l2.4,0.7c0.7,0.2,1.7,0.2,2.4,0.2c3.1,0.2,6.5,0,9.4-1.2c3.1-1.2,6-3.1,8.4-5.5c5-5,8.9-11.5,12.2-18.2
			l2.2,4.8c-8.2-2.6-15.6-7.2-21.4-13.2c-1.4-1.4-2.9-3.1-4.1-4.8c-1.2-1.7-2.4-3.4-3.6-4.6c-1.2-1.4-2.4-2.4-4.1-3.4
			c-1.7-0.7-3.4-1-5.3-1.2c-7.9-0.5-15.8-0.5-23.8,0.2C572.9,608.9,565,609.8,557.4,611.3L557.4,611.3z"/>
		<path d="M413.4,551.3c5.5-1,6.2-0.7,10.8-5.5c-4.6-1.2-5.8-0.7-10.1-3.4c-2.2-1.2-1.4-3.8,0.5-3.4c6,1.7,7.4,1.7,13,4.3
			c1.2,0.5,28.8-7.7,41.7-12.7c6-2.4,11.8-5.3,17.3-9.1c2.4-2.4,5-5,7-6.5c5.3-6,11-13,29-17.5c3.4-1,4.6,4.6,1.2,5.5
			c-7.4,1.9-13.7,7.2-16.3,14.4c3.8,7.4,13.4,65.5,9.6,103.4c33.1-3.6,54.7-14.4,86.6-24.7c-3.1-4.1-19.9-71.7-21.6-77.7
			c-0.7-2.4-8.2-18-21.8-17.8c-1.9,0-8.2-5.5-7.7-9.1c0,0,20.6-2.6,32.2,4.8c1.9,1.2,3.6,2.6,5,4.1l0,0c3.1,2.9,13.7,8.6,13.7,8.6
			l0,0c19.9,8.4,39.6,23,55.2,12.7c0.5-0.7,1.2-1.4,1.9-2.2c3.4-1.9,6-3.8,6.7-7.7c0.2-1.7,1-2.6,2.4-2.4c1.7,0.5,2.2,2.2,1.9,3.6
			c-0.7,3.6-2.6,7-5.5,9.6c2.2,0.7,4.3,1.2,6.7,1.4c1.7,0.2,3.6,2.2,3.1,3.6c-0.5,1.7-2.4,1.7-4.1,1.4c-1.7-0.2-4.6,0.5-6.2-0.2
			c1.9,2.4,2.4,3.6,3.8,7.9c1,3.1-2.9,1.9-4.1,0c-3.8-6-3.8-5-5.8-8.9c-20.6,9.6-38.9-3.8-57.3-12.5l0,0c-5.8-2.4-9.6-2.6-11-3.4
			c4.1,15.4,7,31,13.7,45.6c7.7,17.5,29,51.8,13,56.4c-2.4,0.7-58.1,18.7-101,15.1c-0.2,0-0.5,0-0.7,0c-2.4,1-8.9-0.7-7.2-6.7
			c6.2-36.2-5-66.2-9.1-101.7c-0.5,0.2-1,0.5-1.4,0.7l0,0c0,0-15.6,8.6-18.2,9.8c-0.2,0-0.2,0-0.5,0c-15.4,7.7-31.7,13-48.7,15.4
			c-1.2,4.3-2.2,9.1-0.5,13.2c0.7,1.9-2.9,4.6-3.8,1.2c-1-3.1-0.7-9.1-0.5-12.2c-4.1,4.1-6.2,5-13.2,5
			C408.8,554.6,412.2,551.5,413.4,551.3z"/>
		<path class="st10" d="M590.7,504.5c-6.7-6-18.2-10.8-26.6-11.3"/>
		<path class="st24" d="M513.9,606.7c1-11.5-1.2-23.5-1.7-35c-0.2-6-1-12-2.2-17.8c-0.7-4.1-1.9-7.9-2.2-12.2
			c-0.2-3.4-1.4-7-1.7-10.3c-0.2-2.6,0.2-3.4-2.6-3.6c-1.9,0-3.8,1-5.5,1.7c-2.6,1.2-4.6,3.4-7.2,5c-1,1-2.4,1.4-3.6,1.9
			c-0.7-0.2-1.7-0.7-2.2-1.4c-2.4-2.6-5.3-5-7.7-7.9c-2.2-2.4-2.4-3.8,0.5-6.5c9.4-8.9,23-18.7,36.2-20.6c7.9-1,15.8-2.6,23.5-5
			c4.6-1.4,9.1-2.4,13.7-3.6c0.7-0.2,1.7-0.5,2.4-0.5c4.8-0.7,9.6-1,14.2-0.7c7.4,0,14.9,1.4,22.1,4.1c4.1,1.7,10.1,3.4,12.5,7.2
			c2.9,4.8,0.7,16.3-0.5,21.4c-3.1-1.9-6-3.8-8.6-6c-2.6-1.4-5.3-2.6-8.2-3.6c2.4,8.4,6,16.6,8.2,25c2.4,9.1,5.8,17.8,8.2,26.9
			c1.9,7.7,3.8,15.4,5.5,22.8c1.2,5.3,4.3,12.7,3.1,18c-1.9,8.2-13,10.3-19.7,12.5c-21.4,7.2-43.2,8.2-65.5,8.6
			c-5.3,0-10.8-1.2-11.5-7C512.7,615.8,513.7,611.3,513.9,606.7z"/>
		<circle class="st2" cx="527.8" cy="396.5" r="83.5"/>
		<circle cx="481.3" cy="389.3" r="8.2"/>
		<circle cx="558.1" cy="387.6" r="8.2"/>
		<path class="st25" d="M440.3,437.6c1.9,1.7,4.1,3.4,6.2,5c-3.1-4.3-4.3-9.6-3.4-14.9c3.6,2.4,12.2,7.2,16.8,5.8
			c-4.3,1.4-9.8-37.9-9.6-41.5c0.7-12.7,4.6-26.9,12.2-37.2c13.2,9.8,30,25.9,48.2,18.5c-5-6.5-0.5-18.2,4.6-23.5
			c3.8,4.1,5,11.3,5.3,17c0-4.1,1.4-7.9,3.8-10.8c3.6-4.6,7.9-8.4,13.2-10.8c1.4,9.4,7,18.7,15.1,24c-2.6-1.7,2.9-10.8,2.2-12.5
			c2.6,5.8,5,11.8,7.4,17.5c2.9-7.7,3.8-15.8,5.3-23.5c19.2,12,45.6,48.9,41.5,72.7c2.2-13.2,7-26.6,1.7-39.3
			c6.7,5.8,11.8,13.2,14.6,21.6c7.9-27.6-9.4-66.2-31.7-82.3c-9.8-7.2-20.4-13.4-31.4-18.5l-0.7-0.2c-4.8-1.9-10.3-3.8-15.6-4.3
			c-0.5,0-11.8,1-10.6,2.4c-3.6-4.3-6.2-10.1-3.8-16.6c-3.4,5.8-6,11.8-7.9,18c-38.1-8.2-68.1,6.2-100,25.4c9.1-5.5,25-4.6,35.3-3.8
			c-24.5,7.9-36.7,30-38.6,54.5C418,405.4,423.2,422.2,440.3,437.6z"/>
		<path class="st26" d="M463.1,417.9c6.7,22.8,17.3,7.9,16.3-4.1C477.9,398,459.7,406.4,463.1,417.9z"/>
		<path class="st26" d="M562.4,411.6c11.5,20.9,20.4-1,16.8-8.4C571.7,388.1,556.6,401.1,562.4,411.6z"/>
		<path class="st16" d="M491.9,429.6c13.2,24.5,69.3,13,62.1-8.6"/>
		<path d="M1902.4,729.8c0.5-0.2,1-0.5,1.4-0.5c17-3.4,34.3-2.2,51.6-1.7c-2.9-25.4-17.5-48.5-22.8-73.7c-1.7-8.4-3.6-17.5-6-26.6
			c3.1-0.5,6.2-1.4,9.1-2.6c1,6,1.9,11.8,2.9,17.3c0.5,2.6,1,5.3,1.4,8.2c2.2,14.6,8.9,28.8,14.2,42.5c4.1,10.6,7.2,21.6,9.4,32.9
			c0.5,2.4,2.2,5.8,1,8.2c-1,1.9-3.1,2.2-5,2.6c-4.8,1.9-9.6,3.1-14.6,3.8c-10.3,1.4-20.6,0.7-31,1.2c-2.9,0.2-6.2-1.2-8.6-2.2
			c-0.5-0.2-4.8-2.2-4.6-2.4C1897.8,734.8,1898.6,730,1902.4,729.8z"/>
		<path d="M1771.6,666.2c0.7-0.7,3.4-10.1,16.6-7.2c11.3,8.6,23.3,16.6,35.7,23.5c-6-8.6-7.4-19.9-8.6-30.2
			c-1-9.4-0.7-18.7-1.4-28.1c-0.2-4.6-0.7-9.4-1.7-13.9c-0.5-2.4-2.4-8.4-1-10.8c1-1.4,2.6-1.9,4.1-1.2c1.9,0.7,3.8,2.6,5.8,3.8
			c2.6,1.4,5.3,2.6,7.9,3.8c5.3,2.4,11,3.8,17,4.6c3.1,0.2,2.4,5-0.7,4.8c-1.9-0.2-3.6-0.5-5.5-0.7c-0.2,0.7-1,1.2-1.7,1.4
			c-6.5,3.4-14.2,3.1-20.4-0.5c1,9.1,1,18.2,1.7,27.1c0.7,13,1.2,31,11.5,40.3c1,1,1.2,2.6,0.2,3.6c-0.2,0.2-0.5,0.5-0.7,0.5
			c-5.3,6.2-19.9-0.5-28.1-4.3C1795.1,679.9,1779.1,671,1771.6,666.2z"/>
		<path class="st27" d="M1926.4,598.5c25,0,46.1,1.2,47.7,5.5c6.7,23.5-21.1,44.6-27.6,40.5l0,0c-1.4,0.7-2.9,0.7-4.3,0
			c-3.8-1.7-5.3-5.8-5.8-10.1c-0.5-5-8.9,0-10.6,1.2c-5.5,4.1-11.5,8.6-18.2,4.8c-6-3.4-10.6-11.5-18-10.3c-5.8,1-11,4.6-16.6,7
			c-4.3,1.9-10.8,3.8-13.9-1.4c-1.2-1.9-1.9-4.1-2.4-6.2c-0.7-3.6-0.2-6.7-3.4-4.1c-10.6,9.4-16.6,0.7-15.4-4.8
			c-1.4-5.8-2.6-16.6,5.8-18.5C1849.8,601.2,1891.6,598.5,1926.4,598.5z"/>
		<path d="M1926.4,597.8c8.6,0.2,17.5,0.2,26.2,0.5c4.3,0.2,8.6,0.5,13.2,1c2.4,0.2,4.6,0.7,6.7,1.4c0.7,0.2,1.2,0.5,1.9,1
			c0.2,0.2,0.7,0.5,1,0.7c0.2,0.5,0.5,0.7,0.7,1.2c0.5,1.2,0.7,2.2,1,3.4c0.5,2.4,0.7,4.6,0.5,7c0,2.4-0.5,4.8-1,7
			c-1.2,4.6-3.4,8.9-6,12.7c-2.6,3.8-6,7.2-9.6,10.1c-1.9,1.4-4.1,2.9-6.2,3.8c-1.2,0.5-2.6,1-4.1,1.2l-1.2,0.2c-0.5,0-1,0-1.4,0
			c-0.5,0-1-0.2-1.7-0.2c-0.5-0.2-1.2-0.5-1.7-0.7l-1.2-1.2c0.2,0.5,0.7,1,1.2,1.2l3.6,0.2c-1.2,0.5-2.4,0.7-3.6,1
			c-1.4,0-2.6-0.2-3.8-0.7c-1-0.5-1.9-1-2.9-1.7c-1-0.7-1.7-1.4-2.4-2.4c-1.2-1.7-1.9-3.4-2.4-5.5c-0.2-1-0.5-1.7-0.5-2.4
			c0-0.5-0.2-0.7-0.2-1.2c0,0,0,0,0,0.5c0.2,0.5,0.5,0.7,1,1c0.2,0.2,0.5,0.2,1,0.5c0.2,0,0,0-0.5,0.2c-1,0.5-1.9,1-2.9,1.4
			c-0.5,0.2-1,0.7-1.4,1l-1.7,1.2c-1.2,1-2.4,1.9-3.8,2.9c-1.4,1-3.1,1.9-4.8,2.4c-1.9,0.7-4.1,1.2-6.2,1.2s-4.3-0.5-6.5-1.4
			c-1.7-0.7-3.4-1.9-4.8-3.1c-2.6-2.2-4.8-4.1-6.7-5.3c-0.7-0.5-1.7-1-2.4-1.2c-0.5-0.2-1.2-0.2-1.9,0c-2.2,0.5-4.6,1.4-6.5,2.4
			c-2.4,1.2-4.8,2.9-7.9,4.3c-1.7,0.7-3.4,1.4-5,1.9c-1.9,0.7-4.1,1-6.2,1c-1.2,0-2.6-0.2-3.8-0.5c-0.7-0.2-1.4-0.5-1.9-0.7
			c-0.7-0.2-1.4-0.7-1.9-1.2c-0.7-0.5-1.2-1-1.7-1.4c-0.5-0.5-1-1-1.4-1.7l-0.5-1c-0.2-0.2-0.2-0.5-0.5-0.7
			c-0.2-0.5-0.5-0.7-0.7-1.2c-1-1.7-1.7-3.6-2.2-5.8c-0.2-1-0.5-1.9-0.5-2.6l-0.2-1c0-0.2,0-0.2,0-0.5l0,0v0.2v0.2
			c0,0.2,0,0.2,0.2,0.2c0.2,0.2,0.2,0.5,0.5,1c0.2,0.2,0.2,0.5,0.5,0.7l0.2,0.2c0.2,0,0.2,0.2,0.5,0.5c0.7,0.5,1.4,0.7,2.2,1
			c0.5,0,0.7,0.2,1.2,0.2c0.2,0,0.5,0,0.5,0h0.5c0.5,0,1-0.2,1.2-0.2s0.5,0,0.5-0.2l0.2-0.2l0,0h0.2l0,0l0,0l-0.5,0.5
			c-0.7,0.7-1.4,1.2-2.2,1.9c-0.7,0.5-1.7,1.2-2.6,1.7l-1.4,0.7c-0.2,0-0.5,0.2-0.7,0.2l-1,0.2c-0.5,0.2-1.2,0.5-1.9,0.5
			c-0.7,0-1.4,0.2-2.2,0.2c-3.1,0.2-6.2-0.7-8.9-2.4c-2.4-1.7-4.3-4.1-5.3-7c-1-2.9-1.2-5.8-0.5-8.6v3.6c-0.7-2.6-1-5-1.2-7.7
			c-0.2-3.1,0.2-6.2,1.2-9.1c0.2-1,0.7-1.7,1.2-2.4c0.5-1,1-1.7,1.7-2.4c0.7-0.7,1.4-1.4,2.4-2.2c0.5-0.2,1-0.7,1.2-1
			c0.5-0.2,1-0.5,1.4-0.7c1-0.5,1.7-0.7,2.6-1c0.7-0.2,1.7-0.5,2.4-0.5c0.7-0.2,1.2,0,1.9-0.2c0.7,0,1.2,0,1.7,0
			c8.9-0.5,17.5-0.2,26.4,0.2l26.2,1.4C1908.9,597.3,1917.7,597.6,1926.4,597.8z M1926.4,599.3c-8.6,0.2-17.3,0.7-25.9,1.9
			c-8.6,1-17.3,2.4-25.9,3.6l-12.7,1.9l-12.7,1.9c-0.5,0-1,0.2-1.4,0.2s-1,0.2-1.4,0.2c-0.2,0-0.7,0.2-0.7,0.2s-0.2,0-0.2,0.2l0,0
			l0,0l0,0v0.2c0,0.2,0,0.2-0.2,0.5c-0.2,1.2-0.2,2.4-0.2,3.8c0.2,1.7,0.5,3.4,1,5v3.6c0-0.2,0-0.2,0,0c0,0.2,0.2,0,0,0
			s-0.5-0.2-0.5-0.2l0,0h0.2h0.2h0.2c0.2,0,0.2-0.2,0.5-0.2c0.2-0.2,0.7-0.5,1.2-0.7c0.5-0.2,0.7-0.7,1.2-1l0.2-0.2l0.7-0.7
			c0,0,0.2-0.2,0.5-0.5l0.7-0.5l0.2-0.2l0.5-0.2c0.2-0.2,0.7-0.2,1-0.5c0.5-0.2,1.2-0.2,1.9-0.5h0.5h0.7c0.5,0,1,0,1.4,0.2
			c1,0.2,1.9,0.7,2.6,1.2c0.2,0.2,0.5,0.2,0.5,0.5l0.5,0.5c0.7,0.7,1.2,1.4,1.7,2.2c0,0.2,0.2,0.5,0.2,0.7c0,0.2,0,0.2,0.2,0.5
			c0,0.2,0.2,0.5,0.2,0.7l0.2,0.5c0.2,1,0.2,1.9,0.5,2.9c0,0.7,0.2,1.2,0.2,1.7c0.2,1,0.5,1.9,0.7,2.6l0.2,0.7l0.2,0.2l0,0l0,0l0,0
			c0,0-0.2,0,0.5,0.2c1,0,1.7,0,2.4-0.2c1.2-0.2,2.2-0.7,3.4-1.2c2.4-1,5-2.4,7.9-3.8c3.1-1.7,6.7-2.6,10.1-3.1c2.4-0.2,4.8,0,7,0.7
			c1.9,0.7,3.6,1.7,5.3,2.9c2.9,2.2,4.8,4.3,6.7,6c0.7,0.7,1.7,1.4,2.4,1.9c0.7,0.2,1.4,0.5,2.2,0.7c1.9,0,3.8-0.7,5.5-1.9
			c1-0.7,2.2-1.4,3.4-2.2l1-0.7l0.5-0.2l0.7-0.5c0.7-0.5,1.4-1,2.2-1.4c1.7-1,3.4-1.7,5-2.2c1.2-0.2,2.6-0.5,3.8-0.2
			c1,0.2,2.2,0.5,2.9,1c1,0.7,1.7,1.7,2.4,2.6c0.5,0.7,0.5,1.7,0.7,2.4c0,0.2,0,0.7,0,1c0,0.7,0.2,1.2,0.2,1.7c0.2,1,0.5,1.9,1,2.6
			c0.5,0.7,1,1.2,1.7,1.4c0,0,0.2,0.2,0.5,0.2c0.2,0,0.5,0,0.7,0l1.9-0.7l1.7,1c0.5,0.2,1,0.7,1.2,1.2l-1.2-1.2
			c-0.5-0.2-0.2,0,0.5,0c0.7,0,1.4-0.2,2.2-0.7c1.7-0.7,3.4-1.7,5-2.6c3.4-2.2,6.2-5,8.9-8.2c5-6.2,8.6-13.9,7.7-22.1
			c0-1-0.2-1.9-0.5-2.9v-0.2l0,0l0,0l-0.2-0.2c-0.2-0.2-0.7-0.5-1-0.7c-1.9-0.7-3.8-1.4-6-1.9c-4.3-1-8.4-1.4-12.7-1.7
			C1943.7,599,1935,599,1926.4,599.3z"/>
		<path d="M2072.5,498c-6.5,0-7.2,0.5-13.4-4.6c5-2.4,6.2-1.9,11-5.8c2.2-1.7,1-4.6-1-3.6c-6.7,2.9-8.2,3.1-14.2,7.2
			c-1.2,1-34.5-3.6-50.1-6.7c-7.4-1.4-14.6-4.1-21.4-7.2c-3.4-2.2-6.7-4.8-9.1-6.2c-7.2-6-15.1-12.7-36.5-14.6
			c-4.1-0.5-4.6,6-0.2,6.5c9.4,1.2,16.1,5,21.4,13.4c-2.9,9.4-3.4,77.5,8.2,120.2c-38.4,1.9-65.3-6.5-103.6-12.5
			c2.9-5.3,9.8-85.7,10.6-92.9c0.2-2.9,6-22.1,21.6-24.2c2.2-0.2,8.4-7.7,7-11.8c0,0-24.2,0.7-36,11.3c-1.9,1.7-3.6,3.6-5,5.5l0,0
			c-3.1,3.8-13.9,12.5-13.9,12.5l0,0c-21.4,13.4-41,33.6-60.7,24.7c-0.7-0.7-1.7-1.4-2.4-1.9c-4.1-1.7-7.7-3.4-9.1-7.4
			c-0.5-1.9-1.7-2.9-3.1-2.2c-1.9,0.7-2.2,2.6-1.7,4.6c1.4,4.1,4.3,7.7,7.9,9.8c-2.4,1.2-4.8,2.2-7.4,2.9c-1.9,0.5-3.6,3.1-2.9,4.8
			c0.7,1.9,3.1,1.4,4.8,1c1.7-0.5,5.3-0.5,7.2-1.2c-1.9,3.1-2.2,4.6-2.9,9.6c-0.5,3.8,3.8,1.7,4.8-0.7c3.1-7.4,3.6-6.5,5-11.3
			c25.4,7.2,43.7-11.5,63.3-25l0,0c6-3.6,10.6-4.8,12-5.8c-1.7,18.5-2.4,36.7-7.2,54.7c-5.8,21.4-23.8,64.5-4.3,66.9
			c2.9,0.5,70.1,10.8,118.3-1.4c0.2,0,0.5,0,0.7-0.2c3.1,0.7,10.1-2.4,7.2-8.9c-13.9-40.3-6.5-76.8-8.4-118.3l1.7,0.7l0,0
			c0,0,19.4,7.2,22.8,7.9c0.2,0,0.2,0,0.5,0c19,6,38.6,8.9,58.5,8.6c2.2,4.8,4.3,10.1,2.9,15.1c-0.5,2.2,4.1,4.8,4.6,0.7
			c0.5-3.6-1-10.6-1.7-14.2c5.3,4.1,7.9,4.8,16.1,3.4C2078.3,500.9,2073.9,498,2072.5,498z"/>
		<path class="st10" d="M1861.1,477.1c6.5-8.2,18.7-15.6,28.6-17.8"/>
		<path class="st28" d="M1854.9,572.9c4.6-14.9,7.7-30,9.4-45.6c1.2-11.5,7.9-32.2,1.7-42.9c-6.5,2.9-12.2,8.2-17,13.2
			c2.4-2.4-12.5-14.6-9.8-21.4c3.6-8.9,21.4-15.4,29.5-18.5c14.2-5.3,28.1-1.4,43.2-3.4c5.3-0.7,10.6-0.5,16.1-0.7c1,0,1.9,0,2.9,0
			c5.3,0.2,10.8,1.2,16.1,2.4c8.4,1.9,16.3,5.3,23.3,9.8c4.1,2.9,10.3,6.2,12,11.3c2.2,6.2-3.1,18.5-5.8,24
			c-2.9-2.9-5.8-5.8-8.2-8.9c-2.6-2.2-5.3-4.1-8.2-6c0.7,10.1,2.6,19.9,3.1,30c0.5,10.8,1.9,21.4,2.4,32.2c0.2,9.1,0.5,18,0.5,27.1
			c0,6.2,1.9,15.4-0.7,21.1c-4.1,8.9-16.8,8.6-24.7,9.4c-23.8,2.6-46.3-3.4-69.8-4.3c-15.1-0.5-24.2-4.1-18.2-21.6
			C1853.2,577.4,1854.2,575.3,1854.9,572.9z"/>
		<circle class="st2" cx="1904.3" cy="360.1" r="77"/>
		<path class="st29" d="M1985.4,342.8c8.6-1.7,14.6-11.8,12.2-20.2c4.6,3.1,11,2.2,15.8-1c4.1-2.9,10.8-9.4,13.2-13.7
			c4.3-7.7-0.2-13,0.5-20.6c-1.2,12.5-16.6,1.7-17.3-6.2c-0.7-7,3.8-17.8-0.7-23.8c-3.6-4.8-11-3.1-15.1-6.7
			c-3.4-2.9-2.2-6.2-4.3-9.6c-6-9.1-19.4-9.8-28.3-5.3c-10.3,5.3-16.8,16.1-21.8,26.6c-3.8,8.6-10.1,16.1-10.3,25.4
			c6.7,1.7,13.2,3.8,19.7,6.5c4.1,1.7,8.4,3.8,11.5,7.2c2.6,2.9,4.1,6.5,5.5,10.1l12.2,29.5C1979.4,341.1,1984,342.3,1985.4,342.8z"
			/>
		<path class="st29" d="M1904.1,281.4c-11.5,1-24.5,3.6-34.8,8.4c-9.4,4.6-17.5,13.9-25,21.1c-3.1,3.1-6.2,7.9-3.6,11.3
			c1.9,2.2,5.5,1.9,8.2,1.2c8.2-2.4,12.2-8.9,17.5-15.1c2.4-2.9,5-6.7,8.6-8.4c4.1-1.9,9.1,0.2,12.5-4.1c-5.8,6-16.8,22.3-7,30
			c1.9,1.4,4.3,1.9,6.7,1.9c7.4,0,14.6-3.8,18.5-10.3c1.9-3.4,2.4-8.6-1.2-10.3c-0.5,2.9-1.9,5.8-4.6,7.2c-2.6,1.4-6.5,0.5-7.4-2.4
			c-0.5-1.4-0.5-3.1,0.2-4.6c7.4-22.3,34.3-4.8,43.7,4.6c7.7,7.7,26.2,24.5,37.9,21.1c-7-16.6-12-28.3-27.6-38.4
			C1934.5,286.2,1918.9,279.9,1904.1,281.4z"/>
		<circle cx="1880.3" cy="350" r="8.2"/>
		<path class="st11" d="M1863.8,381.7c34.5,40.8,64.3,25.9,82.5-12.7"/>
		<path class="st30" d="M1933.6,279.7c7.9-10.3,5-35-11.5-34.5c-6.2,0.2-13.9,6.2-15.6,12.5c-2.4,8.6,1.9,18.2,8.6,24.5
			c5.3,5,13,8.4,20.2,6.7c1.4,5.3,5.3,9.8,10.3,12.2c5,2.4,10.6,3.4,16.1,2.6c7.2-0.5,14.9-3.1,19.4-8.9c4.6-5.8,5.3-14.9,0-19.9
			c-12.2-12-28.1-2.4-35,9.8c-1.7-5.3-9.8-7.2-13.7-3.1"/>
		<path class="st26" d="M1835,378.1c11.8,31.2,25,9.4,22.1-7.4C1853.7,349,1829,362.5,1835,378.1z"/>
		<path class="st26" d="M1948.5,361.3c18.5,27.8,28.3-3.4,22.6-13.4C1958.8,327.4,1939.1,347.1,1948.5,361.3z"/>
		<path d="M1944.1,329.3c-2.6,5-10.6,11.5-16.3,11.5L1944.1,329.3z"/>
		<path d="M1935.3,325.3c-0.7,5.8-6,12.2-11,14.6L1935.3,325.3z"/>
		<path d="M1929.5,324.5c1.2,5.3-2.2,11.5-6.7,14.2L1929.5,324.5z"/>
		<path d="M1933.3,340.9c0,4.3-3.8,7.7-8.6,7.7c-4.8,0-8.4-3.6-8.4-7.9c0-4.3,3.8-7.7,8.6-7.7
			C1929.7,332.9,1933.3,336.5,1933.3,340.9z"/>
		<path d="M1858,348.1c4.6,3.6,14.4,6.2,19.4,3.8L1858,348.1z"/>
		<path d="M1864.5,340.9c2.9,5,10.3,8.6,16.1,9.1L1864.5,340.9z"/>
		<path d="M1869.5,337.7c1,5.3,6.5,9.8,11.8,10.3L1869.5,337.7z"/>
		<path d="M1872.6,354.1c1.7,3.8,6.7,5.5,11,3.6c4.3-1.9,6.2-6.7,4.6-10.6c-1.7-3.8-6.7-5.5-11-3.6
			C1872.9,345.4,1870.7,350.2,1872.6,354.1z"/>
		<path d="M260.3,609.3c-0.7,0.2-5,4.3-13.7,8.9c1,13,1,25.7,0,38.6c-3.4-8.6-11.3-15.6-18.5-21.4c-10.8-8.6-23.5-15.6-32.9-25.9
			c-0.7-0.7-1.9-1-2.9-0.5c-0.7-2.2-4.1-2.4-4.3,0c0,1-0.2,1.9-0.2,2.9c0,0.2,0,0.5,0,0.7c-0.7,8.6-1.9,17.5-6.2,25.2
			c-1.4,2.4,2.6,4.3,4.1,1.9c0.7-1.4,1.4-2.9,2.2-4.3c0.7,0,1.4,0,1.9-0.5c5.8-3.1,9.4-9.1,9.8-15.6c6.2,5.3,13.2,9.8,19.7,14.6
			c9.4,7,22.8,16.1,24.5,28.6c0.2,1.2,1.4,2.2,2.6,1.9c0.2,0,0.5-0.2,0.7-0.2c7.2-1,9.4-15.4,10.6-23.3
			C258.9,634.1,260.1,617.5,260.3,609.3z"/>
		<path d="M315.7,634.3c4.8,6.7,13.4,18.5,20.2,15.8c1.2,0,2.4-1,2.4-2.2c0-0.2,0-0.5-0.2-1c-4.1-12,3.4-26.2,8.6-36.7
			c3.6-7.2,7.4-14.6,10.6-22.1c3.4,5.5,9.4,9.1,15.8,9.4c0.7,0,1.4,0,1.9-0.5c1.2,1,2.6,1.9,3.8,2.9c2.4,1.4,5-1.9,2.6-3.6
			c-7.4-4.8-12.5-12.2-17.3-19.4c0-0.2-0.2-0.5-0.5-0.5c-0.5-0.7-1-1.7-1.4-2.4c-1.4-2.2-4.3-0.2-3.8,1.9c-1,0-1.9,0.7-2.2,1.7
			c-3.6,13.4-11.5,25.4-17,38.1c-3.6,8.4-7.4,18.2-6.5,27.6c-6-9.6-16.1-26.2-21.1-38.1c-2.9,1.7-12.5-0.5-13.2-0.2
			C302.5,611.7,311.7,628.5,315.7,634.3z"/>
		<path class="st13" d="M339.3,574.6c-0.2-0.5-98.6,19.2-113.7,26.6c-7,3.4-3.6,12.7-1.2,17.3c0,5,7.2,11.5,14.4,1
			c2.2-3.1,2.4-0.2,3.8,2.9c0.7,1.9,1.9,3.4,3.4,4.8c3.8,3.8,9.1,1,12.5-1.7c4.3-3.4,7.9-7.7,13-9.8c6.2-2.6,12,3.4,18,5
			c6.7,1.9,11-3.4,14.9-8.2c1.2-1.4,7.4-7.7,9.1-3.4c1.4,3.8,3.4,7,7.2,7.7c1.4,0.2,2.6,0,3.8-1l0,0
			C330.4,618,350.3,593.5,339.3,574.6z"/>
		<path d="M338.8,574.8C338.8,574.8,339,575,338.8,574.8C339.3,575,339,575,338.8,574.8L338.8,574.8L338.8,574.8l-0.7,0.2l-1,0.2
			l-2.2,0.2l-4.1,0.7c-2.9,0.5-5.5,1.2-8.4,1.7c-2.9,0.5-5.5,1.2-8.4,1.9s-5.5,1.2-8.4,1.9c-11,2.6-22.1,5.8-33.1,8.6
			c-11,2.9-22.1,5.8-32.9,8.9c-2.6,0.7-5.3,1.7-7.9,2.6c-1.2,0.5-2.6,1-3.8,1.4c-0.5,0.2-1.2,0.5-1.7,0.7l-0.5,0.2
			c-0.2,0.2-0.2,0.2-0.5,0.5c-0.5,0.5-1,1.4-1,2.2c-0.2,1,0,2.2,0,3.1c0.5,2.4,1.4,4.8,2.6,7c0.2,0.5,0.2,1,0.5,1.4v0.2
			c0,0.7,0.2,1.2,0.7,1.7c0.2,0.5,1,1,1.4,1.2c0.5,0.2,1,0.2,1.4,0c0.2,0,0.2-0.2,0.5-0.2l0.5-0.2c0.5-0.2,0.7-0.5,1-0.7
			c0.2-0.2,0.7-0.7,1-1.2c0.2-0.2,0.7-1,1-1.2l0.7-1c0.2-0.2,0.5-0.5,0.7-0.7l0.2-0.2l0.2-0.2c0.2-0.2,0.5-0.2,0.5-0.5
			c0.7-0.5,1.7-0.7,2.4-0.7c0.5,0,1.2,0,1.7,0.2c0.2,0,0.5,0.2,0.7,0.2c0.2,0,0.5,0.2,0.5,0.2c0.2,0.2,0.5,0.5,0.7,0.7
			c0.2,0.2,0.2,0.2,0.5,0.5l0.2,0.5l0.2,0.5c0.5,1,0.7,1.7,1,2.2c0.2,0.7,0.5,1.2,0.7,1.4c0.5,1,1,1.7,1.7,2.4l0.5,0.5l0.2,0.2
			l0.2,0.2c0.2,0.2,0.2,0.2,0.5,0.2c0.5,0.2,1,0.2,1.4,0c1.9-0.7,3.6-1.7,5-3.1c1.9-1.4,3.6-3.4,5.8-5.3c2.4-2.2,5-3.8,7.9-5.3
			c1.9-0.7,4.1-1.2,6-1c1.9,0.2,3.6,0.5,5.3,1.2c2.9,1.2,5.3,2.6,7.4,3.6c0.7,0.5,1.7,0.7,2.6,1c0.7,0.2,1.2,0.2,1.9,0
			c1.7-0.5,3.1-1.4,4.3-2.9c0.7-0.7,1.7-1.7,2.4-2.6l0.7-0.7l0.2-0.5l0.5-0.5c0.5-0.7,1.2-1.2,1.7-1.7c1.2-1.2,2.6-2.2,4.1-2.9
			c0.5-0.2,1-0.5,1.4-0.7c0.7-0.2,1.4-0.5,2.2-0.5c1,0,1.9,0,2.9,0.2c0.5,0.2,1,0.5,1.4,0.7c0.5,0.2,0.7,0.7,1.2,1.2
			c0.2,0.2,0.5,0.7,0.7,1.2c0.2,0.2,0.2,0.7,0.5,1l0.2,0.7c0.2,0.5,0.5,1,0.5,1.4c0.2,0.7,0.7,1.4,1.2,2.2c0.5,0.5,1,1,1.7,1
			c0.2,0,0.2,0,0.5,0.2c0.2,0,0.5,0,0.5-0.2h4.1c-0.2-0.2-0.5-0.2-0.5-0.2h-0.2l0,0l0,0l0,0h0.2h0.5c0.7-0.2,1.4-0.7,2.2-1
			c1.7-1,3.1-2.2,4.3-3.6c2.9-2.9,5-6.2,6.7-9.8c1.7-3.6,2.6-7.7,2.9-11.8c0-1.9-0.2-4.1-0.7-6C340.5,578.4,339.7,576.5,338.8,574.8
			z M339.5,574.3c2.2,3.8,3.6,7.9,3.8,12.2c0.2,4.3-0.5,8.6-1.7,12.7c-1.2,4.3-3.4,8.2-5.8,11.8c-1.2,1.9-2.9,3.6-4.6,5.3
			c-1,1-1.9,1.7-3.1,2.2l-1,0.5c-0.5,0.2-0.7,0.2-1.2,0.2s-1,0.2-1.4,0.2c-0.2,0-0.5,0-1,0h-0.5h-0.2l0,0l-0.2-0.2
			c-0.2,0-0.5-0.2-0.7-0.5h4.1c-1,0.7-1.9,1.2-2.9,1.7c-1.2,0.2-2.4,0.5-3.6,0.2c-1.9-0.2-3.8-1.2-5.5-2.4c-1.4-1.2-2.6-2.6-3.4-4.1
			c-0.5-0.7-0.7-1.4-1.2-2.2l-0.5-1c0,0,0,0,0,0.2l0.2,0.2c0,0.2,0.2,0.2,0.5,0.5c0.2,0.2,0.5,0.2,0.7,0.5c0.2,0,0.7,0.2,1,0.2
			c0.2,0,0.2,0,0.2,0l-0.2,0.2c-0.7,0.5-1.4,1.2-2.2,1.9c-0.5,0.5-0.7,0.7-1,1.2l-1.2,1.4c-0.7,1.2-1.7,2.2-2.9,3.4
			c-1.2,1.2-2.4,2.4-3.6,3.4c-1.7,1.2-3.4,1.9-5.3,2.4c-1.9,0.5-4.1,0.5-6,0c-1.7-0.2-3.4-1-4.8-1.7c-2.9-1.2-5-2.6-6.7-3.6
			c-0.7-0.2-1.7-0.5-2.4-0.7c-0.5,0-1.2,0-1.7,0.2c-1.9,1-3.8,1.9-5.5,3.4c-1.9,1.4-3.8,3.4-6.2,5c-2.6,2.2-5.5,3.6-8.6,4.3
			c-2.2,0.5-4.3,0.2-6.2-0.5c-1-0.5-1.9-1-2.9-1.9l-0.5-0.5c-0.2-0.2-0.2-0.2-0.5-0.5c-0.2-0.2-0.5-0.5-0.7-1
			c-1-1.2-1.9-2.6-2.6-4.1c-0.5-0.7-0.7-1.4-1-2.2c-0.2-0.7-0.5-1.2-0.5-1.4l0,0l0,0c0,0,0,0,0.2,0.2l0.2,0.2l0.2,0.2
			c0,0,0.2,0.2,0.5,0.2c0.5,0.2,0.7,0.2,1.2,0.2c0.2,0,0.5,0,0.5,0h0.5c0.2,0,0.5-0.2,0.5-0.2h0.2l0,0l0,0l0,0l-0.5,0.7
			c-0.5,0.7-1,1.2-1.4,1.9c-0.5,0.5-1.2,1.2-1.7,1.7c-0.7,0.5-1.4,1.2-2.2,1.4c-0.5,0.2-0.7,0.5-1.2,0.7c-0.5,0.2-1,0.2-1.4,0.5
			c-2.2,0.7-4.3,0.5-6.2-0.2c-1.9-0.7-3.6-2.2-4.6-3.8c-1.2-1.7-1.7-3.6-1.7-5.8l0.5,1.7c-1.4-2.9-2.4-6-3.1-9.1
			c-0.2-1.7-0.2-3.6,0-5.3c0.5-1.9,1.4-3.8,2.9-5.3l1.2-1c0.5-0.2,0.7-0.5,1.2-0.7c0.7-0.5,1.4-0.7,2.2-1c1.4-0.5,2.9-1,4.3-1.4
			c2.9-1,5.5-1.7,8.4-2.4c11-2.9,22.3-5.3,33.3-7.7s22.3-4.1,33.6-6c2.9-0.5,5.5-1,8.4-1.4c2.9-0.5,5.5-1,8.4-1.7
			c2.9-0.5,5.5-1,8.4-1.7l4.3-0.7l2.2-0.5l1-0.2h0.5h0.2h0.2C339.3,574.1,339.5,574.1,339.5,574.3L339.5,574.3z"/>
		<path d="M402.4,460.8c-5.5,1.4-6.2,1.9-12.7-1c3.8-3.1,5-2.9,8.4-7.4c1.4-1.9-0.2-4.1-1.7-2.9c-5.3,4.1-6.5,4.6-10.8,9.4
			c-1,1-31,4.3-45.3,4.8c-6.7,0.2-13.7-0.2-20.2-1.7c-3.4-1.2-7-2.6-9.4-3.6c-7.4-3.8-15.8-7.9-35-5c-3.8,0.5-2.6,6.2,1,5.8
			c8.4-1,15.1,1,21.6,7.2c-0.5,8.6,13.7,68.4,32.9,103.4c-33.1,9.8-58.5,8.4-93.3,11.5c1.2-5.3-9.8-77-10.8-83.5
			c-0.5-2.6,0.5-20.6,13.7-25.9c1.7-0.7,5.5-8.6,3.6-11.8c0,0-20.9,5.8-29,17.5c-1.2,1.9-2.4,3.8-3.4,6l0,0
			c-1.9,4.1-9.6,13.9-9.6,13.9l0,0c-15.6,16.3-28.8,38.1-47.7,34.8c-0.7-0.5-1.7-1-2.6-1.2c-4.1-0.5-7.4-1.2-9.6-4.6
			c-1-1.4-1.9-2.2-3.4-1.2c-1.4,1.2-1.2,2.9-0.5,4.3c2.2,3.4,5.3,5.8,9.1,7c-1.7,1.4-3.8,2.9-5.8,4.1c-1.4,1-2.4,3.6-1.4,4.8
			c1.2,1.4,2.9,0.7,4.3-0.2c1.4-1,4.6-1.4,6-2.6c-1,3.1-1,4.3-0.5,9.1c0.5,3.6,3.6,0.7,4.1-1.7c1.2-7.2,1.7-6.5,1.9-11
			c23.8,0.7,35.7-19.4,50.1-35.3l0,0c4.6-4.6,8.2-6.5,9.4-7.7c2.4,16.6,5.8,32.4,5.5,49.4c-0.2,19.9-6.7,61.7,10.6,59.5
			c2.6-0.2,63.6-5.8,103.2-26.6c0.2,0,0.5-0.2,0.7-0.2c2.9,0,8.4-4.3,4.3-9.4c-20.9-32.2-22.1-65.5-32.9-101.5l1.7,0.2l0,0
			c0,0,18.5,2.2,21.6,1.9h0.5c17.8,1.2,35.7-0.5,53-5c2.9,3.8,6,7.9,5.8,12.5c0,2.2,4.6,3.1,4.1-0.5c-0.5-3.4-3.1-9.1-4.6-12
			c5.5,2.4,7.9,2.4,14.9-0.5C408.1,462,403.8,460.6,402.4,460.8z"/>
		<path class="st10" d="M213.3,488.2c3.8-8.6,13-17.8,21.1-21.6"/>
		<path class="st31" d="M323.2,552.7c-5.5-10.1-8.2-22.1-12.7-32.6c-2.2-5.5-3.8-11.3-5-17.3c-1-4.1-1.4-7.9-2.9-12
			c-1.2-3.4-1.4-7-2.6-10.3c-1-2.4-1.7-2.9,1-4.3c1.7-0.7,4.1-0.7,5.8-0.7c3.1,0,5.5,1.2,8.6,1.7c1.4,0.5,2.6,0.5,4.1,0.2
			c0.7-0.5,1.2-1.2,1.4-2.2c1.2-3.4,2.6-6.7,3.8-10.3c1-3.1,0.5-4.6-2.9-5.8c-12.2-4.3-28.6-7.7-41.5-4.3
			c-7.7,2.4-15.6,3.8-23.5,4.8c-4.8,0.5-9.1,1.4-13.9,2.2c-0.7,0.2-1.7,0.2-2.4,0.5c-4.6,1.2-9.1,2.9-13.4,5
			c-7,3.1-13.2,7.4-18.5,12.7c-2.9,3.1-7.9,7.2-8.4,11.8c-0.7,5.5,6,15.1,9.1,19.4c2.2-2.9,3.8-6,5.5-9.1c1.9-2.4,3.8-4.6,6-6.7
			c1,8.6,1.2,17.5,2.6,26.2c1.4,9.4,1.9,18.7,3.6,27.8c1.2,7.7,2.6,15.4,4.1,23.3c1,5.3,1.2,13.4,4.3,17.8c5,6.7,16.1,4.3,23,3.6
			c22.6-2.2,42.7-10.1,63.3-18.7c5-2.2,9.4-5.5,7.7-11C328,560.6,325.3,556.8,323.2,552.7z"/>
		<circle class="st2" cx="228.7" cy="364.4" r="83.5"/>
		<path class="st32" d="M114.4,335.6c-1.2-0.2-2.6,0-3.6,0.7c-1.2,1-1.9,2.4-2.2,3.8c-1,2.6-1.9,5.5-1.2,8.4c0.7,2.9,3.8,5,6.5,4.1
			c-2.6,2.2-6.2,1.7-9.6,2.9c-7,2.2-10.1,12-5.5,17.8c0.5,0.5,0.7,1.2,1,1.7c0,1-0.2,2.2-0.7,2.9c-2.4,4.6-4.1,11,0,14.6
			c2.4,2.2,6.7,2.2,9.6,0.5c2.9-1.9,4.8-4.8,5.8-8.2c1.4,4.3,3.4,9.1,7.7,10.3c4.3,1.2,8.6-1.7,10.6-5.5c1.9-3.8,2.2-8.2,2.2-12.5
			c1.9,1.9,5.5,1,7.2-1.2c1.7-2.2,1.9-5,2.2-7.9c0.5-3.4,0.5-7,0-10.3C141.8,344.7,126.4,335.8,114.4,335.6z"/>
		<path class="st32" d="M297.5,317.1c-0.7-1.2-0.2-3.8-1.4-4.6c-1.7-1.4-2.4-3.6-1.9-5.8c0.5-1.9,1.4-3.8,2.9-5.5
			c1.4-2.2,3.1-4.3,5.5-5.8c2.4-1.2,5.5-1.2,7.4,0.7c1.9,1.9,1.7,4.6,3.1,6.7c1.4-1.4,1.2-3.8,1.9-5.5c1.2-2.9,4.1-4.6,7.2-4.6
			c3.1,0.2,6,1.4,7.9,3.8c2.6,2.6,4.6,7,2.4,10.1c3.1-2.2,7.4,1,9.4,4.1c1.4,2.4,1.9,5.3,1.4,7.9c-0.7,2.6-3.4,4.8-6.2,4.3
			c2.2,3.8,4.3,8.9,1.7,12.5c-2.2,3.1-7,3.6-10.3,1.9c-3.4-1.7-5.8-4.8-8.2-7.9c2.2,2.9-0.2,7.4-3.6,8.4c-3.4,1-7.2-0.7-9.6-3.4
			c-2.4-2.4-4.1-5.8-6-8.6"/>
		<path class="st32" d="M156,305.8c-4.3,4.3-7,10.1-7.2,16.3c0,1.9,1.7,5.3,0.7,7c-1,1.7-5.5,4.1-7.2,6c-5.5,6.5-7.7,14.2-1.2,20.2
			c1,1,2.4,1.7,3.8,2.2c6.2,1.4,11-6.5,7.4-11.8c2.4,2.2,7.4,1.2,10.1-1.2c2.6-2.4,3.4-5.8,4.1-8.9c0.5-1.9,0.7-4.3-1.2-5.5
			c2.4,1.7,6.5,1.7,9.6,0.2c2.9-1.4,5-3.8,6.2-6.7c1-1.7,1.2-3.8,0.7-5.8c-1-2.2-3.1-3.4-5.3-2.9c2.9,2.6,7,3.6,10.8,2.4
			c6.7-1.9,9.6-8.2,11.5-13.9c2.4,3.1,6.2,5.3,10.3,5.3c4.6,0.2,9.1-1.2,12.7-3.8c1.4-1.2,2.4-2.6,2.2-4.1c-0.5-1.4-3.4-2.2-4.1-0.7
			c-1.9,1.9-1,5,1.2,6.5c2.2,1.4,5.3,2.2,8.2,2.4c2.4,0.5,4.8,0.5,7.2,0c2.4-1,4.8-2.4,6.5-4.3c2.2-1.9,4.6-4.3,3.8-7
			c-0.5,4.1,2.9,8.2,7.2,9.8c4.6,1.7,10.1,1.4,14.9,0.5c1.4,0.2,2.9-0.2,3.6-1.4c-0.2,3.4,2.4,6.5,6,7.4c3.8,1,7.9-0.2,10.8-3.1
			c1.4-1.7,0.5-5-1.9-4.1c-0.7,3.8-0.2,7.7,1.4,11c1.2,2.4,3.8,4.8,7,4.3c4.8-0.7,5-6.5,2.9-10.1c-4.1-6.7-12.2-9.8-18-15.1
			c-6.2-6-11.5-9.8-21.4-10.6c-7-0.5-13.9-2.2-20.2-5.5c-15.6-7.7-33.3-0.7-48,7c-4.3,2.2-7.9,6.5-12,8.4c-3.6,1.7-8.4,1-12.7,2.4
			C162.2,300.6,158.8,302.7,156,305.8z"/>
		<circle cx="167.2" cy="362.7" r="7.9"/>
		<circle cx="260.1" cy="325" r="7.9"/>
		<path class="st5" d="M196.7,399.4c12.5,7.7,25.4,12.7,40.3,7.4c13-4.8,22.8-15.8,25.7-29.5"/>
		<path class="st4" d="M303,343.7c5.8,33.6-17,21.4-23.3,5C271.6,327.9,300.1,326.9,303,343.7z"/>
		<path class="st4" d="M185.2,390.5c-1.7,34.1-26.9,11.8-26.9,0C158.4,366.3,185.9,373.5,185.2,390.5z"/>
		<path d="M273.5,306.3c-0.5,5.8-5.3,14.6-10.3,17L273.5,306.3z"/>
		<path d="M263.7,306.3c1.7,5.5-0.7,13.4-4.3,18L263.7,306.3z"/>
		<path d="M258.2,307.8c3.1,4.3,2.6,11.5-0.5,15.6L258.2,307.8z"/>
		<path d="M268,321.2c1.7,3.8-0.5,8.6-4.8,10.3c-4.3,1.9-9.1,0-10.8-3.8c-1.7-3.8,0.5-8.6,4.8-10.3
			C261.5,315.7,266.3,317.4,268,321.2z"/>
		<path d="M146.1,368.5c5.5,1.7,15.6,0,19.4-4.1L146.1,368.5z"/>
		<path d="M149.2,359.3c4.8,3.4,13,4.1,18.5,1.9L149.2,359.3z"/>
		<path d="M152.8,354.5c2.9,4.3,9.8,6.5,14.9,4.8L152.8,354.5z"/>
		<path d="M162,368.5c3.1,2.9,8.2,2.4,11.5-1s3.1-8.6,0-11.5s-8.2-2.4-11.5,1C158.8,360.3,158.8,365.6,162,368.5z"/>
	</g>
</g>
</svg>
