<?xml version="1.0" encoding="utf-8"?>
<!-- Generator: Adobe Illustrator 25.2.1, SVG Export Plug-In . SVG Version: 6.00 Build 0)  -->
<svg version="1.1" id="Layer_1" xmlns="http://www.w3.org/2000/svg" xmlns:xlink="http://www.w3.org/1999/xlink" x="0px" y="0px"
	 viewBox="0 0 2400 820" style="enable-background:new 0 0 2400 820;" xml:space="preserve">
<style type="text/css">
	.st0{fill:#FBA919;}
	.st1{fill:#7EAED9;}
	.st2{fill:#BA7B3C;stroke:#000000;stroke-width:9.9999;stroke-linecap:round;stroke-linejoin:round;stroke-miterlimit:4;}
	.st3{fill:#50BECC;stroke:#000000;stroke-width:10;stroke-linecap:round;stroke-linejoin:round;stroke-miterlimit:10;}
	.st4{fill:#FBAEFF;}
	.st5{fill:none;stroke:#000000;stroke-width:10;stroke-linecap:round;stroke-linejoin:round;}
	.st6{fill:#D83939;stroke:#000000;stroke-width:10;stroke-linecap:round;stroke-linejoin:round;}
	.st7{fill:#D41600;stroke:#000000;stroke-width:10;stroke-linecap:round;stroke-linejoin:round;stroke-miterlimit:10;}
	.st8{fill:#FF3FCF;stroke:#000000;stroke-width:10;stroke-linecap:round;stroke-linejoin:round;}
	.st9{fill:#FF3FCF;stroke:#000000;stroke-width:10;stroke-linecap:round;stroke-linejoin:round;stroke-miterlimit:10;}
	.st10{fill:#FBA919;stroke:#000000;stroke-width:10;stroke-miterlimit:10;}
	.st11{fill:#FCE2D4;stroke:#000000;stroke-width:10;stroke-linecap:round;stroke-linejoin:round;}
	.st12{fill:#FFCCCC;}
	.st13{fill:#9348BC;stroke:#000000;stroke-width:10;stroke-linecap:round;stroke-linejoin:round;stroke-miterlimit:10;}
	.st14{fill:#7FA663;stroke:#000000;stroke-width:9.6965;stroke-miterlimit:10;}
	.st15{fill:#FFCC99;stroke:#000000;stroke-width:10;stroke-linecap:round;stroke-linejoin:round;}
	.st16{fill:#FFFF3E;}
	.st17{fill:none;stroke:#000000;stroke-width:10;stroke-linecap:round;stroke-linejoin:round;stroke-miterlimit:10;}
	.st18{fill:#F79A9A;}
	.st19{fill:#34658A;stroke:#000000;stroke-width:10;stroke-linecap:round;stroke-linejoin:round;stroke-miterlimit:10;}
	.st20{fill:#F7CFBA;stroke:#000000;stroke-width:10;stroke-linecap:round;stroke-linejoin:round;}
	.st21{fill:#734743;stroke:#000000;stroke-width:10;stroke-linecap:round;stroke-linejoin:round;}
	.st22{fill:#FFFFFF;stroke:#000000;stroke-width:10;stroke-linecap:round;stroke-linejoin:round;}
	.st23{fill:#FCA9A9;}
	.st24{fill:#D9F1FD;stroke:#000000;stroke-width:10;stroke-linecap:round;stroke-linejoin:round;stroke-miterlimit:10;}
	.st25{fill:#D63E9F;stroke:#000000;stroke-width:10;stroke-linecap:round;stroke-linejoin:round;}
	.st26{fill:#BF8C66;stroke:#000000;stroke-width:10;stroke-linecap:round;stroke-linejoin:round;}
	.st27{fill:#381909;stroke:#000000;stroke-width:10;stroke-linecap:round;stroke-linejoin:round;stroke-miterlimit:10;}
	.st28{fill:#9348BC;stroke:#000000;stroke-width:10;stroke-linecap:round;stroke-linejoin:round;}
	.st29{fill:#FFD0A9;stroke:#000000;stroke-width:10;stroke-linecap:round;stroke-linejoin:round;}
	.st30{fill:#FBA919;stroke:#000000;stroke-width:10;stroke-linecap:round;stroke-linejoin:round;}
	.st31{fill:#FCB197;}
	.st32{fill:#FF7C00;stroke:#000000;stroke-width:10;stroke-linecap:round;stroke-linejoin:round;stroke-miterlimit:10;}
	.st33{fill:#2F4858;stroke:#000000;stroke-width:10;stroke-linecap:round;stroke-linejoin:round;}
	.st34{fill:#E29B66;stroke:#000000;stroke-width:10;stroke-linecap:round;stroke-linejoin:round;}
	.st35{fill:#A66B49;stroke:#000000;stroke-width:10;stroke-linecap:round;stroke-linejoin:round;}
	.st36{fill:#FFC8B0;}
	.st37{fill:#7FA663;stroke:#000000;stroke-width:10;stroke-linecap:round;stroke-linejoin:round;stroke-miterlimit:10;}
	.st38{fill:#D68847;stroke:#000000;stroke-width:10;stroke-linecap:round;stroke-linejoin:round;}
	.st39{fill:#1C0D02;stroke:#000000;stroke-width:10;stroke-linecap:round;stroke-linejoin:round;}
	.st40{fill:#F26524;stroke:#000000;stroke-width:10;stroke-linecap:round;stroke-linejoin:round;}
</style>
<g id="Layer_3">
	<path class="st0" d="M2399.4,345.7c0-0.4,0-0.8,0-1.1c-18,11.7-41.6-8.7-45.5-29.8c-3.9-21.1,2.6-43-1.1-64.1
		c-3.7-21.1-26.6-42-45-31c-14.1,8.4-14.5,28.4-22.8,42.5c-12.7,21.8-44.8,26.7-66.6,14.1c-21.9-12.6-33.8-38.1-36-63.2
		c-2-22.1,2.4-44.5-0.4-66.5c-2.8-22-16.1-45.4-37.9-49.2c-26.7-4.7-48.1,20.6-65.1,41.7s-45.1,42.6-68.7,29.1
		c-25.9-14.8-17.6-53.3-23.9-82.5c-10.5-48.4-79.2-71.9-117.1-40c-28.9,24.3-34.3,66.3-34.7,104.1s1.6,78.2-18.4,110.3
		s-72.7,45.8-94.8,15.1c-15.7-21.8-7.8-51.7-5.7-78.5c2.1-26.8-10.8-61.4-37.7-60.3c-30.2,1.3-36.6,42.6-36,72.8
		s-14.5,71.7-43.8,64.4c-39.8-10-20.4-92.2-61.1-97.4c-24.3-3.1-37.5,27.6-40.5,52s-9.8,55.3-34.1,59.2
		c-24.9,3.9-40.7-24.7-51.5-47.5s-36.2-47.6-57-33.4c-12.9,8.8-14.6,28.2-27.2,37.3c-20.1,14.6-47.8-9.5-52.2-33.9
		c-4.4-24.4,2.8-50.4-4.8-74c-10.5-32.5-49.3-51.1-82.5-43.2s-58.4,38.3-65.1,71.8c-5.7,28.7,0.7,58.6-3.4,87.5s-25.4,59.9-54.6,58
		c-28.9-1.9-46-34.7-47.3-63.7s6.9-58.2,1.9-86.7c-5-28.6-32-57.2-59.5-48.2c-13.2,4.3-23.6,16.3-37.4,17.2
		c-17.5,1.2-31-16.1-35.5-33.1c-4.6-17-3.9-35.3-10.8-51.5C861.7,11.2,814.3-1.3,786,20.2c-35,26.6-29.8,78.9-31,122.7
		s-29.9,98.9-72.3,88c-27.8-7.1-40.5-39.9-41.6-68.5s5-58.3-3.7-85.6c-8.7-27.4-41.4-50.3-65.8-35.2c-35.4,22-6.6,84.7-34.9,115.3
		c-9.2,9.9-22.8,14.4-33.4,22.7c-30.2,23.8-40.4,79.9-78.8,77.2c-28.3-2-40-35.9-52-61.7s-48.3-49.2-65.2-26.4
		c-4.7,6.4-5.9,14.7-6.3,22.6c-1.1,23.8,3.8,47.6,1.8,71.3s-13.5,49-35.9,57.2c-37.3,13.7-72.9-30.3-74.5-70s15.8-78.2,15.4-117.9
		s-32.5-85.3-70.9-75C99,67,93.1,117.5,94.9,156.7c1.6,33.9,3.1,67.8,4.7,101.7c1.4,30.2-3,69-32.1,77.1
		c-28.8,8-52.6-22.2-67.2-48.3c-0.1,63.7-0.1,127.4-0.2,191c0,9.5-2.3,12.8,7.6,13.4c8.2,0.5,16.6,0,24.9,0c15.9,0,31.9,0,47.8,0
		c31.9,0,63.8,0,95.7,0c127.6,0,255.1,0,382.7,0s255.1,0,382.7,0s255.1,0,382.7,0s255.1,0,382.7,0s255.1,0,382.7,0
		c25.8,0,310,0,310,0C2399.4,443,2399.4,394.3,2399.4,345.7z"/>
	<path class="st1" d="M2393.1,287.3c-0.6-1.4-1.3-2.7-2.1-4.1c-10.2-17.9-33.9-29.9-52-20.1c-21.2,11.5-21,41.7-34.1,61.9
		c-20.4,31.7-77.8,25.5-91-9.9c-10.1-27,3.8-56.6,4.9-85.4c1-27-11.3-55.4-34.8-68.6c-23.5-13.2-57.9-6.3-70.5,17.5
		c-7.7,14.5-6.6,31.9-10.1,48s-15.3,33.2-31.7,32.1c-17.5-1.2-27.3-21.9-44-27.2c-25.1-8-45.4,21-55.4,45.4
		c-9.9,24.4-27.6,54.2-53.5,49.1c-35.1-6.9-25.9-59.9-40.6-92.5c-18.4-40.7-89.7-37.2-104.1,5c-8.3,24.4,0.9,52-6.5,76.7
		c-13.1,43.9-84.6,52.5-107.8,13.1c-11.5-19.5-10.9-43.9-19.3-64.9c-8.4-21.1-34.6-39.2-52.8-25.7c-14.7,10.9-12.4,33.2-18.6,50.4
		c-12.8,35.4-71.4,39.8-89.4,6.8c-13.7-25.1-8.7-64.7-35.5-74.5c-25.4-9.2-46.9,20.8-55.5,46.4s-21.8,57.6-48.8,57.7
		c-35.7,0.1-42.5-52.1-69.5-75.6c-23.9-20.9-67-11.9-80.6,16.7c-10.5,22.1-4.6,49.9-17.1,70.9c-13,21.9-45.9,28.7-66.4,13.7
		c-19.8-14.4-24.9-41.8-25-66.3c-0.1-24.5,2.9-50.2-6.8-72.7c-9.7-22.5-38.6-39.3-59.2-25.9c-24,15.6-28.4,63.2-56.6,57.9
		c-17.2-3.2-22.3-25.4-35-37.3c-18-16.8-53-5.6-57.9,18.5c-1.9,9.3-0.5,20.3-7.5,26.7c-9.8,8.9-26.5-1.4-30.2-14.2
		s0.2-26.4-0.3-39.7c-1.1-29.4-26.4-55.9-55.7-58.4s-58.7,19.4-64.7,48.2c-2.8,13.5-1,27.9-6,40.8c-12,31.2-65.9,30.6-77.3-0.8
		c-9.5-26.3,3.6-66.3-22.5-76.2c-18.9-7.1-37.6,14-39.9,34.1c-2.3,20.1,4.8,40.3,3,60.5s-19.4,42-38.7,36
		c-39.5-12.1,7-84.4-23.6-112.1c-22.3-20.1-58.1,9.7-60.9,39.7s10.5,59.9,6,89.6c-4.5,29.7-44.6,55.7-63.4,32.2
		c-10.1-12.6-7.6-30.8-17.6-43.3c-7.3-9.2-17-7.7-27.2-6c-28.4,4.9-23.3-27.2-37.1-42.1c-17-18.3-48.5,3.5-54.1,27.8
		s0.9,51.1-9.1,73.9c-17.1,39-84.4,38.3-100.7-1.1c-8.9-21.5-3.3-46-4-69.3s-12.8-50.7-36-52.6c-22-1.8-38.7,21.2-41.6,43.1
		s2.9,44,1.5,66c-2.3,35.8-25.3,69.6-57.8,84.9c0,127.5,0,255.1-0.1,382.6c0,4.5-2.5,19.3,0,22.8c2.9,4.1,13.7,2,19.2,2
		c15.9,0,31.9,0,47.8,0c31.9,0,63.8,0,95.7,0c63.8,0,127.6,0,191.4,0c127.6,0,255.2,0,382.7,0c127.6,0,255.2,0,382.7,0
		c127.6,0,255.2,0,382.7,0c127.6,0,255.2,0,382.7,0c127.6,0,255.2,0,382.7,0c11,0,132,0,132,0c0.3-158.8,0.6-317.7,0.9-476.5
		C2401.4,324.4,2401.2,304.4,2393.1,287.3z"/>
</g>
<ellipse transform="matrix(0.7071 -0.7071 0.7071 0.7071 354.4812 1612.8171)" class="st2" cx="2124.1" cy="378.5" rx="81.6" ry="81.6"/>
<g>
	<path d="M2331.9,638.9c0,1.4-0.2,2.9-0.5,4.1c-0.5,2.2-1,5-2.4,7c-6.2,8.6-12.2,18-20.2,25.7c0,0,0,0.2-0.2,0.2
		c-0.2,0.5-0.7,1-1.4,1.2c-1.4,1.2-2.9,2.4-4.3,3.6c-1.9,2.2-5.3,0.7-5.8-1.7c-0.2,0-0.5-0.2-0.7-0.5
		c-17.8-13.4-27.8-34.1-44.1-48.9c-1.9-1.4-3.6-3.1-5.3-4.6c-3.4-2.9-7.2-6-10.8-9.1c2.2-1.4,4.3-3.1,6-5c5.5,5.5,11,10.6,16.1,15.4
		c15.4,14.4,25,34.3,41.7,46.8c7.7-12.2,14.6-24.7,24.7-35c0.2-0.2,0.7-0.5,1-0.7C2327.8,634.8,2331.4,636.2,2331.9,638.9z"/>
</g>
<g>
	<path d="M2176.1,734.6c-0.2-0.2-0.5-0.5-1-0.7c-12.5-7.4-26.2-11.5-39.8-16.3c8.6-19.2,25.7-33.1,36.2-51.6
		c3.6-6,7.2-12.7,11.3-19.2c-2.4-1.2-4.6-2.9-6.5-4.8c-2.2,4.3-4.3,8.6-6.5,12.7c-1,1.9-2.2,3.8-3.1,6
		c-10.8,19.4-28.8,34.1-37.7,54.5c0,0.2-0.2,0.5-0.2,0.7c-2.2,1-2.9,4.6-0.2,6c1.4,1.2,2.9,2.4,4.3,3.4c0.5,0.5,1,1,1.4,1.2h0.2
		c9.4,6,19.7,9.6,29.8,13.7c2.2,1,5,0.7,7.4,0.7c1.4,0,2.9-0.2,4.1-0.5C2178.3,739.9,2179,735.8,2176.1,734.6z"/>
</g>
<path class="st3" d="M2191.5,583.4c5.5-3.1,11.3-6,17.8-7.4c3.1-0.7,6.5-1,9.8-0.7c0.7,0,1.7,0.2,2.4,0.5c1,0.2,1.7,0.5,2.4,0.7
	l2.4,1c0.7,0.5,1.7,1,2.4,1.4c2.6,2.4,4.3,5.3,6.2,7.7s4.1,4.6,6.2,6.5c4.6,4.1,9.8,7.2,15.4,9.6c1.4,0.5,2.2,2.2,1.7,3.6v0.2
	l-5.5,17.5l-2.6,8.6l-1.4,4.3v0.2l0,0v0.2c0,0.2-0.2,0.2-0.2,0.5c-0.5,0.7-1,1.4-1.7,1.9c-0.5,0.5-1.2,0.7-1.9,1
	c-0.5,0-1,0.2-1.4,0.2c-0.7,0-1.4,0-1.9-0.2s-1-0.2-1.4-0.5c-1.7-0.7-3.1-1.4-4.8-2.2c-1.4-0.7-2.9-1.4-4.1-2.4
	c-2.6-1.7-5.3-3.1-7.9-4.8c-2.6-1.7-5-3.1-7.7-4.6c-1.2-0.7-2.4-1.4-3.8-1.9c-1-0.5-2.2-1-3.4-1.4c-0.2,0-0.2,0-0.5,0c0,0,0,0,0.5,0
	c0.2,0,0.7-0.2,1-0.5s0.5-0.2,0.5-0.5c0.2-0.2,0.2,0,0.2-0.2l-0.2,0.2c-0.5,0.7-0.5,1.7-0.7,2.4c-0.2,2.2,0,5.5,0,8.4l0.2,9.1v2.4
	v0.7c0,0.2,0,0.5,0,0.7c0,0.5-0.2,1-0.2,1.2c-0.2,0.2-0.2,0.7-0.5,1c-0.2,0.5-0.7,1-1.2,1.4c-0.2,0.2-0.7,0.5-1,0.7
	c-0.2,0.2-0.5,0.2-0.7,0.5c-0.5,0.2-1.2,0.5-1.7,0.7c-0.5,0-0.7,0.2-1,0.2c-1,0.2-1.9,0.2-3.1,0.2c-1,0-1.7,0-2.4,0
	c-3.4,0-6.5-0.2-9.6-0.5c-3.1-0.2-6.2-0.7-9.4-1c-3.1-0.5-6.2-1-9.1-1.4l-4.6-1l-2.4-0.5l-1.2-0.2l-0.7-0.2c-0.2,0-0.5-0.2-1.2-0.5
	h-0.2c-2.9-1.2-4.3-4.3-3.1-7.2c1.7-5,2.6-10.3,2.9-15.6c0.2-2.9,0.2-5.8,0.5-9.1c0.2-3.4,1-6.7,2.4-9.8c0.7-1.7,1.7-3.1,2.6-4.3
	s1.9-2.6,3.1-3.6c2.4-1.9,5.3-3.4,8.2-4.8C2181.2,589.4,2186.5,586.3,2191.5,583.4z"/>
<g>
	<path d="M2132,495.4c1.4-1.2,3.1-9.8,0.2-12.5c0,0-18.7,11.5-23.3,25.2c-4.8,14.4,0.5,34.8-8.2,58.1c-5,13.7-17.5,41.3-19,42
		c-6,2.9-7,3.8-12.5,7.4c-1.7,1.2,0,3.4,2.4,2.6c5.3-1.7,5.5-3.1,9.6-5.8c0.7,7.2,0,7.4-2.9,12.5c-0.7,1.2-0.5,6,1.9,3.1
		c4.8-5.8,5.5-8.2,5-14.2c2.2,2.4,7,6.7,10.1,8.2c3.4,1.7,3.8-3.1,1.7-3.8c-4.6-1.4-7.4-5.8-10.3-9.6c-0.4-0.5,12.6-23.1,13.7-25.7
		c4-9.6,7.1-19.5,9.3-29.7c1.9-9,0.5-21.1,3.7-29.5c1.9-5,6.8-7.6,9.7-11.9C2126.9,506.3,2126.2,500.1,2132,495.4z"/>
</g>
<g>
	<path d="M2161.8,476.3c3.5,2.1,9.1,3.4,12.5,3.4c9.8,0,19.8-3.9,29.6-1.7c7,1.6,14.9,6.9,21.8,9.6c11.9,4.7,28.2,10.4,30.6,24.9
		c-0.2,1-0.2,1.7-0.2,2.6c0.7,3.6,1.2,6.7-1.2,9.6c-1,1.2-1.4,2.4,0,3.1c1.4,1,2.9,0.2,3.8-1c2.2-2.9,3.4-6.5,3.1-10.1
		c1.9,1,3.6,2.4,5.3,3.8c1.2,1,3.8,1,4.6-0.2c1-1.4-0.5-2.6-1.7-3.8c-1.2-1-2.6-3.6-4.3-4.3c2.9-0.2,4.1-0.5,7.9-2.4
		c3.7-0.5,0.3-2.7-1.8-2.2c-6.7,1.2-6,0.5-10.1,1.7c-9.4-29.3-46.3-24.7-64.8-44.1c-7-7.3-27.1-1.7-33.9,2.1
		C2156.7,470.8,2158.1,474,2161.8,476.3z"/>
</g>
<path class="st4" d="M2071.8,383.8c1,0,2.2,0.2,3.1,0.5c7.9,2.4,17.8,14.2,8.4,20.6c-6.2,4.3-23,2.9-26.9-4.1
	C2051.1,391.2,2063.1,383.8,2071.8,383.8z"/>
<path class="st4" d="M2180,371.3c-7.7,1-12.7,5.8-4.3,15.8c7,8.2,17,7.4,22.3-1.9C2204,375.7,2190.1,370.1,2180,371.3z"/>
<path class="st5" d="M2097.7,417.9c23.8,32.4,80.9,6.5,75.1-20.9"/>
<g>
	<circle cx="2113.5" cy="372.5" r="8.2"/>
</g>
<g>
	<circle cx="2148.3" cy="372.8" r="8.2"/>
</g>
<path class="st6" d="M2260.8,568c-0.2,3.9-4.1,6.5-7.8,8.3c-25.6,13.2-53,23.4-77.2,39.5c-12.9,8.6-19.6,22.1-29.7,4.4
	c-5.9-10.9-8.3-23.6-12.4-35.3c-6.5-17.6-12.9-35.6-19.4-53.3c-7.5-20-0.5-36.9,15.7-49.4c14-10.6,43.6-28.4,59.4-15.8
	c13.5,10.4,14.8,32.3,23.3,46.2C2225.7,533.5,2241.9,552.2,2260.8,568z"/>
<path class="st5" d="M2113.8,313.3c-1.2-5.3-2.2-10.8-1.4-16.3c0.7-5.3,3.4-10.8,7.9-13.7c4.6-2.6,10.1-2.9,15.1-4.3
	s10.3-5.5,9.6-10.8"/>
<path class="st5" d="M2151,314.5c-2.6-12,5-25.2,16.6-29c2.9-1,6.2-1.4,8.2-3.6c2.2-2.2,1.7-7-1.2-7.2"/>
<path class="st5" d="M2095.1,319.8c-3.8-3.1-7-7-9.4-11.3s-2.6-9.6-1.4-14.4c1.2-3.4,3.4-6,5.3-8.9s3.6-6,3.8-9.6
	c0-3.4-2.2-7.2-5.5-7.9"/>
<path class="st7" d="M1728,383.6c-5.3,7.7-11.3,14.9-17.8,21.4c-2.2,2.2,2.4,12,4.3,13.9c3.1,2.9,6.7,3.1,10.8,3.6
	c11.3,1.7,22.1,5,22.3,19.4c11.5-6.5,20.4-19,6.2-27.4c-21.4-12.5-43.2,13.7-38.4-12C1715.2,402,1721.5,393.6,1728,383.6z"/>
<g>
	<path d="M1753.4,510c-6.5-1.7-7.2-1.7-12.2-7.2c5.5-0.5,6.7,0.2,12.2-1.4c2.4-0.7,1.9-3.4-0.2-3.4c-7.2,0.5-8.6,0.5-15.6,1.9
		c-1.4,0.2-33.6-12.2-48.5-19.2c-7-3.1-13.4-7.2-19.7-11.8c-2.6-2.6-5.8-5.8-7.7-7.4c-5.8-6.7-12-14.2-32.4-21.6
		c-13.7-8.9-29.5-13.2-45.8-13c-8.2-1.2-19.9-1.9-27.8,1.2c-2.2,1-4.3,1.9-6.5,3.1c-4.1,2.4-16.6,6.2-16.8,6.2
		c-24,5-48.2,15.8-65.7,3.4c-0.5-1-1.2-1.7-2.2-2.4c-3.8-2.4-7-4.8-7.2-8.6c-0.2-1.7-1-2.9-2.6-2.6c-1.4,0-2.6,1.2-2.6,2.6
		c0,0.2,0,0.5,0,0.7c0.5,3.8,2.6,7.2,5.8,10.1c-2.6,0.2-5.3,0.5-7.9,0.2c-1.9,0-4.3,1.4-3.8,3.1s2.6,1.9,4.6,1.9
		c1.9,0,5.5,1.2,7.4,1c-2.4,1.9-3.1,2.9-5,7c-1.4,2.9,3.4,2.4,4.8,0.7c4.8-5,4.8-4.3,7.4-7.7c23.5,12.7,46.1,2.6,68.6-2.6
		c7-1.2,11.5-1,13.2-1.4c-5.8,14.4-10.6,28.8-19.2,42c-7.7,11.8-60.2,52.8-33.4,82.5c6.2,6.7,20.2,13.9,36.9,20.2
		c-2.6,4.8-5,9.6-7,14.2c-5.8,13.2-15.8,36.7-5.8,44.6c1,1.9,3.6,2.6,5.5,1.7c0.5-0.2,0.7-0.5,1.2-1c4.1-4.8,9.4-8.4,15.1-11
		c-3.8,11.3-6,23.3,0.7,28.3c1,1.9,3.6,2.6,5.5,1.7c0.5-0.2,0.7-0.5,1.2-1c14.4-16.8,42.7-18.2,63.1-19.9c5.5-0.5,11.3-0.7,17-1.2
		c1,0,4.8,15.6,5,17.3c0.7,3.1-1,7.4,2.6,9.1c1.7,1,3.8,0.2,4.8-1.4c0.2-0.5,0.5-1,0.5-1.4c0.5-8.6,2.4-17,5.5-25.2
		c2.4-0.2,4.8-0.5,7.2-1c-1.2,0.2-2.9,7.7-3.4,8.9c-0.7,3.4-1,6.7-0.7,10.1c0.5,4.6,2.9,8.6,4.3,12.7c1.4,4.3,1.4,7.4,1.2,11.8
		c-0.2,5,7.4,6,7.7,1c0.7-15.6,7.2-30,14.2-43.7c0.2-0.2,0.5-0.7,0.5-1.2c1.7-3.4,5-8.4-0.7-9.8c-5-1.2-7.9-0.5-12.7,0.7
		c-1.7,0.5-14.2,1.4-14.6,2.6c1.7-3.6,3.4-7.2,5-10.6c0.2-0.2,0.5-0.7,0.5-1.2c0.7-1.4,1.4-3.1,2.4-4.6c4.3-8.4-19.2-3.8-22.1-3.4
		c-7,1.2-13.9,2.2-20.9,2.6c-13.7,1.2-27.6,1.4-41,3.1c-2.2,0.2-4.3,0.5-6.7,1c4.3-7,9.1-13.9,13.7-20.6c17.8,3.4,33.4,4.6,42.5,1.9
		c32.2-8.6,23-37.7,23-37.7c-4.8-36.2,1-65.5,8.2-99.3l1.7,1l0,0c0,0,17.8,11,20.9,12.5c0.2,0,0.2,0.2,0.5,0.2
		c17.8,10.1,36.5,17.8,56.1,23c1,4.3,1.9,9.4-0.5,13c-1.2,1.7,3.1,5,4.3,1.7c1.2-2.9,1.4-8.9,1.4-11.8c4.6,4.6,7,6,15.4,7.2
		C1758.4,513.9,1754.8,510.5,1753.4,510z M1588.3,627.6c14.2-1.2,28.8-1.7,42.9-3.6c-2.2,4.1-3.4,8.6-3.8,13.2
		c-10.6,0.7-21.1,1.2-31.2,2.4c-16.1,1.9-34.3,4.8-47.5,14.9c3.8-7.4,8.4-15.6,13.4-24C1571,628.8,1580.4,628.3,1588.3,627.6
		L1588.3,627.6z M1546.8,620.4c-1,2.2-1.9,4.6-2.9,7c-6.2,1.9-12.2,4.8-17.5,8.6c7.4-14.4,15.8-28.3,24.7-41.7
		c2.6,0.7,5.5,1.4,8.2,2.2C1554.5,604.1,1550.4,612.2,1546.8,620.4z"/>
</g>
<path class="st7" d="M1599.4,279.4c-3.6,1.9-7,4.1-10.1,6.7c5-3.8,10.3-6.7,16.3-8.6c-8.4,2.9-12-9.4-15.6-13.9
	c-5-6.5-14.4-14.2-20.9-19c-6-4.3-16.6-7-23-1.9c-6,4.8-5.3,15.8-6,23C1561,249.5,1579,277.5,1599.4,279.4z"/>
<path class="st8" d="M1736.1,408.8c4.8-0.2,9.1-1.4,11.3-5c2.4-3.4,2.4-7.7,2.4-11.5c0.2-1.7-0.2-3.6-0.7-5.3
	c-6.5-13.7-32.4,16.8-33.1,16.3l-0.7-0.7c-2.4-2.2-5.8-2.4-7.4-0.7c-1,1.2-1.2,3.1-0.7,4.6c-1.2-3.1-8.6,11.8-8.6,13.2
	c-0.7,8.2,4.6,15.8,12.7,18c9.6,2.9,15.1-3.1,23.5-6.2c-11.5,2.4-19.7-9.6-24-18.7c0-0.7,0-1.2,0-1.9c2.4,1.7,5.3,1.9,6.7,0.2
	c1-1,1.2-2.4,1-3.8C1722.9,407.8,1729.9,409.2,1736.1,408.8z"/>
<path class="st9" d="M1604.9,276.3c13.9-4.8,6.5-45.3-9.4-34.1c-12.2,8.6-5,22.3,0.5,29.5c-0.5,0.2-1,0.5-1.2,0.7
	c-0.7,0.7-1,1.7-1,2.4c-3.4-1.4-7-2.4-10.8-3.1c0,0-28.8-7.9-39.8,13.2s36.7,7,51.1-0.7c1.4-0.7,2.6-1.4,3.6-2.6
	c2.4,1.7,5,1.7,6.7,0C1605.8,280.2,1606.1,278,1604.9,276.3z"/>
<path class="st10" d="M1652.7,451.7c13.5,9.9,5.2,19.5,0.9,31.1c-13.1,36.3-13.6,72.2-8.3,111.5c0.3,2.2,0.5,4.7-1.1,6
	c-0.8,0.8-2,1-3,1.2c-40.5,6.9-95.1-8.8-133-29.3c-7.5-4-15.5-9.4-17.3-17.3c-3.5-14.2,5.3-25.5,13.4-35.1
	c15-18.5,28-38.9,38.3-60.8c4.1-8.6,5.8-22.2,11.4-29.3c8.2-10.7,34-1.5,46.4,0.9C1618.4,434.7,1637.1,440.3,1652.7,451.7z"/>
<circle class="st11" cx="1651.9" cy="346.6" r="83.5"/>
<g>
	<circle cx="1648.8" cy="320.2" r="8.2"/>
</g>
<g>
	<circle cx="1682.1" cy="347.1" r="8.2"/>
</g>
<path class="st5" d="M1606.8,345.4c-9.8,23.5,20.6,53.3,59.5,40.1"/>
<path class="st7" d="M1621,269.8c-0.2,1-0.5,1.9-0.7,2.6c-1.4,13,10.8,11.8,19,9.4c4.1-1.2,9.4-1,11.3,2.6c1,1.7,1,3.8,1.4,5.5
	c2.2,6,10.1,7.7,16.6,6.7s12.7-3.6,19-1.9c5.5,1.7,9.8,6.2,10.6,12c0.5,4.1-0.5,8.6,1.9,12.2c2.2,2.9,6,3.8,9.4,4.6
	c5,1,10.6,2.4,13.4,6.7c3.6,5.3,1.7,12.2,1,18.5c-0.5,6.2,2.2,14.4,8.4,14.4c4.1,0,1.4-30.5,0.2-34.1c-7.7-20.9-19.2-42-38.1-54.9
	c-10.3-7.2-23.3-9.1-35.5-11.8c-3.4-0.7-6.7-1.2-10.1-1.4c-2.2,0-4.3,0.2-6.5,0.7C1635.3,263.1,1624.1,262.4,1621,269.8z"/>
<path class="st12" d="M1704.4,379c-10.3,32.4-26.2,5.3-23-6.2C1687.7,349.5,1709.5,362.7,1704.4,379z"/>
<path class="st12" d="M1616.4,327.4c-33.8-1.9-11.5-26.9,0.2-26.6C1640.9,300.8,1633.7,328.4,1616.4,327.4z"/>
<g>
	<path d="M1687.4,353.6c-3.4,2.6-8.4,1.9-11.3-1.7c-3.1-3.6-2.9-8.6,0.5-11.5s8.4-1.9,11.3,1.7
		C1691,345.7,1690.8,350.9,1687.4,353.6z"/>
</g>
<g>
	<path d="M1640.4,316.4c-1.9,3.8,0.2,8.6,4.3,10.6c4.1,1.9,9.1,0.5,11-3.4c1.9-3.8-0.2-8.6-4.3-10.6
		C1647.1,311.1,1642.3,312.6,1640.4,316.4z"/>
</g>
<g>
	<path d="M1382,619.9c1,0,1.7,0,2.6-0.2c4.1-0.5,7.9-1.4,11.8-2.6c2.6,14.9,6.5,29.5,11.5,43.9c1.2-11,8.4-21.1,14.6-29.8
		c5.3-7.2,11-13.7,16.8-20.4c1.9-2.2,18.5-28.1,20.9-21.4l1.2,3.1c0.2,0.2,0.2,0.5,0.2,0.7c3.4,9.6,7.4,19.4,14.6,26.9
		c2.4,2.4-1.7,5.8-4.1,3.4c-4.3-4.3-9.4-4.8-14.2-8.4c-1.4-1-9.1-8.6-7.7-10.8c-5.5,7.7-12,15.1-18,22.6
		c-8.6,10.8-21.1,25-19.4,39.8c0.2,1.4-1,2.9-2.4,2.9c-0.2,0-0.7,0-1,0c-8.4,1.2-15.4-14.6-19-23.5
		C1387.3,638.4,1384.6,629,1382,619.9z"/>
</g>
<g>
	<path d="M1322.7,655.6c-3.4,8.9-9.8,25-18.2,24c-1.4,0.5-2.9-0.5-3.4-1.9c0-0.2-0.2-0.7,0-1c1.2-14.9-11.5-28.8-20.4-39.1
		c-6.2-7.2-12.7-14.4-18.7-21.8c1.4,1.9-5.8,9.6-7,10.8c-3.8,3.1-9.1,2.6-12.2,6.2c-1.4,1.4-1.9,4.1-4.3,3.6
		c-1.4-0.2-2.4-1.4-2.2-2.9c0-0.5,0.2-1,0.5-1.2c7-7.7,10.8-17.5,13.9-27.4c0-0.2,0.2-0.5,0.2-0.7c0.2-1,0.7-2.2,1-3.1
		c2.4-7.2,18.2,17,20.2,19.2c6,7.2,12.7,13.9,18.5,21.4c6.7,8.6,13.9,18.5,15.6,29.3c4.6-14.4,7.9-29.3,10.3-44.1
		c3.8,1.2,7.7,1.9,11.8,2.4c1,0,1.7,0.2,2.6,0.2C1328,638.4,1325.6,648,1322.7,655.6z"/>
</g>
<path class="st13" d="M1359.4,585.6c10.8-1.2,43.7-8.2,48,7.9c1.9,7.2,3.6,14.2,5.5,21.4c1.4,5.3-24,5.8-25.9,5.8
	c-6.2,0-12.2-0.5-18.2-1.7c-2.2-0.5-7-1.2-7.7-4.1c-1.4-5.8-8.4-9.8-13-14.6c-0.7-0.7-1.2-1.4-1.9-2.2c-0.7,6.7,2.4,14.6,1,21.8
	c-1.9,8.6-6,17.8-13,23.5c-8.6,6.7-23,3.6-31.2-2.2c-7.7-5.3-11.8-15.4-3.4-22.1l0.2-0.2c0.5-0.5,1-1.2,1.2-1.9v-0.2
	c0.2-0.7,0.5-1.7,0.7-2.4s0.2-1.7,0.5-2.4c0-0.2,0-0.5,0-0.7c-0.2-5.8-6.2-13.2-2.4-17.8c5-6,20.4-2.6,27.1-2.9
	C1338.1,590.4,1348.6,586.8,1359.4,585.6z"/>
<g>
	<path d="M1491.6,498c-2.6-0.7-5.3-1.7-7.7-2.9c3.8-2.4,7-6.2,8.4-10.6c0.7-1.9,0.2-4.1-1.7-4.8c-1.7-0.7-2.6,0.5-3.4,2.4
		c-1.4,4.6-5,6.5-9.4,8.2c-1,0.5-1.9,1.4-2.6,2.2c-20.6,9.6-41.7-11.5-64.5-25.4l0,0c0,0-11.5-8.9-14.9-13.2
		c-1.7-2.2-3.6-4.1-5.5-5.8c-10.3-9.1-29.3-11-35.7-11.3c-1.2-0.5-2.4-0.7-3.6-0.7c-28.3-3.8-50.9,3.6-74.4,18.5
		c-2.4,1.7-6.2,4.3-9.6,6.7c-7.2,3.6-14.6,6.2-22.6,7.9c-16.6,3.6-51.6,8.6-53,7.9c-6.5-4.1-7.9-4.3-15.1-7.4
		c-2.2-1-3.4,2.2-1.2,3.8c5,4.1,6.5,3.4,11.8,5.8c-6.5,5.3-7.4,4.8-14.2,4.8c-1.7,0-6.2,3.1-1.7,3.8c8.6,1.2,11.5,0.5,17-3.8
		c-1,3.6-2.2,11-1.7,14.9c0.5,4.3,5.5,1.7,4.8-0.7c-1.4-5.3,0.7-11,2.9-16.1c20.9,0,41.7-3.4,61.7-9.8c0.2,0,0.2,0,0.5,0
		c3.4-0.7,24-8.6,24-8.6l0,0c0.7-0.2,1.2-0.5,1.9-0.7c-1.7,43.9,6.7,82.3-7.4,125c-3.1,7,4.3,10.1,7.7,9.4c0.2,0,0.5,0.2,0.7,0.2
		c12.7,0.2,25.4,0,37.9-0.2c12-0.2,25.7,0,38.1,0.2c13.2,0.2,26.4-1.7,39.6-0.2c9.6,1.2,16.3-0.5,18-10.6c3.4-19.2-9.4-42-14.4-60
		c-5.3-19-6.2-38.1-8.4-57.6c1.7,1,6.2,2.2,12.7,6c20.9,13.7,40.8,33.3,67.4,25.4c1.7,5,1.9,4.1,5.5,11.8c1.2,2.4,5.5,4.8,5,0.7
		c-0.7-5.5-1.2-7-3.1-10.1c1.9,1,5.5,0.7,7.7,1.2c2.2,0.7,4.3,1,5-1C1495.5,501.4,1493.8,498.5,1491.6,498z"/>
</g>
<path class="st14" d="M1399.9,515.7c-3-13.7-4-27.7-5.6-41.7c-1.2-10.5-0.5-23-12.5-27.9c-8.5-3.5-17.9-5.2-27.2-5.6
	c-1.2-0.5-2.4-0.7-3.6-0.7c-19.4,0-35.6-0.4-54,7c-7.1,2.9-12.7,4.6-14.5,12.1c-1.4,5.9-0.6,12.1-0.7,18c-0.2,12.1,0.6,24.2,1,36.3
	c0.6,22.1,1.6,48.7-8.1,69.4c-3.1,6.6,4.3,9.5,7.7,8.8c0.2,0,0.5,0.2,0.7,0.2c12.7,0.2,25.4,0,37.9-0.2c12-0.2,25.7,0,38.1,0.2
	c13.2,0.2,26.4-1.6,39.6-0.2c9.6,1.1,16.3-0.5,18-10c3.4-18.1-9.4-39.5-14.4-56.4C1401.4,522.1,1400.6,518.9,1399.9,515.7z"/>
<ellipse class="st15" cx="1312.9" cy="345.2" rx="83.5" ry="83.5"/>
<g>
	<ellipse transform="matrix(0.1735 -0.9848 0.9848 0.1735 731.9031 1522.9469)" cx="1273.3" cy="325.4" rx="8.2" ry="8.2"/>
</g>
<g>
	<circle cx="1359.9" cy="326.7" r="8.2"/>
</g>
<path class="st5" d="M1282.9,362.9c5.5,29.8,51.3,42,70.8,4.8"/>
<g>
	<path class="st16" d="M1240.4,318.5c6.7,10.4-5.5,25.5-23.2,19.2c-11.8-7.2-10.5-35.6-3.8-44c10.1-13,25.3-15.1,33.2-14
		c5.1-3.7,9.4-8.9,12.9-13.9c6.1-8.9,13.2-15.4,22.6-20.6c11.9-6.7,25-10.4,38.6-11.4c6.7-0.5,26.1,1.6,32.1,4.5
		c7.7,3.6,10.4,5.3,16.1,13.8c1.9,8.4,4.5,10.2,3.8,18.6c-1.2,14.4-17,29.4-29,29.4c-3.7,0-8.3-0.1-11.7-1.8
		c-3.3-1.7-4.4-7.4-4.6-10.8c-0.1-2.1,0-4.5,0.8-6.4c0.6-1.3,2-2.1,2.5-3.4c0.9-2.6-3.6-7.4-5.4-9c-4-3.4-9.7-3.7-14.7-3.6
		c-11.8,0.2-30.4,6.9-39.1,14.4c-1.4,1.2-20.6,15.4-20.2,11.5c-0.7,5.5-0.8,9.5-4.4,13.9c-2.6,3.1-3.4,8.6-7.2,9.6
		C1241.2,316.3,1239.6,316.3,1240.4,318.5z"/>
</g>
<path class="st17" d="M1247.1,253.5c0.2-4.6-6-7.2-9.8-5s-5.3,7.2-5,11.8c0.7,8.6,6.2,16.3,14.2,19.4c-10.3-2.4-24.2,3.8-31.2,12.2
	c-10.3,12.5-14.4,39.6,4.8,46.5c9.4,3.4,21.1-2.9,22.6-12.5c0.7-6.5-4.3-10.8-10.3-9.8"/>
<path class="st17" d="M1257,271c9.8-24.5,39.3-35.3,63.6-37.2c24.5-1.7,58.3,9.4,51.3,40.8c-3.1,13.4-14.4,23.5-28.3,25.4
	c-5.3,0.5-11.3-0.5-14.4-4.8c-1.2-1.7-2.2-3.8-2.2-6c-0.7-4.6,1.2-8.9,4.6-11.8c5-3.6,15.8-0.7,16.3,6.5"/>
<path class="st5" d="M1236.8,315.7c8.9-4.8,13.4-14.9,11.3-24.7c7.2,1.4,14.6-7.2,20.6-11.3c12.5-8.4,26.9-13.4,41.7-14.6
	c6-0.5,13.4,0.5,16.1,6"/>
<path class="st18" d="M1364.2,352.9c-20.9-22.8,8.4-12.5,16.1-4.8C1395.7,363.9,1374.8,364.1,1364.2,352.9z"/>
<path class="st18" d="M1252.7,346.9c28.1-19,22.3,2.9,13,9.8C1246.2,370.4,1238.5,356.2,1252.7,346.9z"/>
<g>
	<path d="M862.3,732.9c-0.2-0.2-0.7-0.2-1-0.5c-13.4-2.6-27.1-1.7-40.5-1.4c1.4-19.9,12-37.9,15.4-57.3c1.2-6.5,2.4-13.7,3.8-20.6
		c-2.4-0.5-4.8-1.2-7.2-2.2c-0.7,4.6-1.2,9.1-1.7,13.4c-0.2,2.2-0.7,4.1-1,6.5c-3.1,20.9-14.4,39.6-15.8,60.5c0,0.2,0,0.5,0,0.7
		c-1.7,1.7-1,5,1.7,5.3c1.7,0.7,3.4,1.2,5,1.4c0.5,0.2,1.2,0.5,1.7,0.5h0.2c10.1,2.4,20.6,2.2,30.7,2.4c2.2,0,4.8-1,6.7-1.7
		c1.2-0.5,2.4-1.2,3.4-1.9C865.9,736.7,865.2,733.1,862.3,732.9z"/>
</g>
<g>
	<path d="M706.6,697.4c0.5,1.2,1,2.4,1.4,3.6c1.2,1.9,2.4,4.3,4.1,5.5c8.2,6.2,16.1,13,25.2,17.8l0.2,0.2c0.5,0.5,1,0.7,1.7,0.7
		c1.7,0.7,3.1,1.4,4.8,1.9c2.4,1.4,4.8-0.7,4.8-3.1c0.2-0.2,0.5-0.5,0.5-0.5c12.5-17,15.6-38.6,26.4-56.6c1.2-1.9,2.4-3.8,3.4-5.5
		c2.4-3.6,4.8-7.4,7.2-11.3c-2.4-0.7-4.8-1.7-7-2.9c-3.4,6.5-7,12.5-10.3,18.2c-9.8,17.3-13.2,37.9-24.7,54
		c-10.3-8.9-20.2-18.2-32.2-24.7c-0.2-0.2-0.7-0.2-1-0.2C709.2,692.4,706.3,695,706.6,697.4z"/>
</g>
<path class="st19" d="M858.7,629.5c0-1.2,0.7-6.7,0-7.2c-1.2-1.7-6-1.4-8.2-1.7c-6.5-0.7-13-1-19.7-1.2c-2.9,0-16.6,1.4-18.5-0.7
	l0,0c-7.9-0.5-15.8-0.5-23.5,0c-6.2,0.5-12.5,1-18.7,1.9c-1.4,9.4-3.1,18.5-5.5,27.6c-1,4.1,19.4,3.8,21.1,3.8c5,0,9.8-0.7,14.6-1.7
	c1.7-0.5,5.5-1.2,6-3.4c1.2-4.6,1.4-8.4,5-11.8c1-1,1.9-1.7,3.1-2.2c4.3-1.4,4.8,6,5.3,8.9c0.7,4.6,0.7,9.4,1.9,13.9
	c3.1,12.7,20.6,11,30.5,9.6c1.4-0.2,3.1-0.7,4.3-1.4c2.9-2.4,2.2-11.8,2.2-15.1C858.5,642.2,858.9,635.7,858.7,629.5z"/>
<g>
	<path d="M818.5,499.6c10.6,0.1,21.3,0.6,31.9,1.4c6.2,0.5,12.7,2,18.9,1.8c2.7-0.1,9.1-3.6,10.7-0.5c0.5,0.9,0.8,2,1.1,2.9
		c1.1,3.6,3,7,4.8,10.2c4.1,7.1,9.2,13.5,14,20.1c7.8,10.6,18.4,24.6,12.6,38.5c-0.7,0.7-1.2,1.4-1.7,2.2c-1.2,3.8-2.9,7-6.5,8.2
		c-1.7,0.5-2.6,1.4-1.9,2.9c0.7,1.7,2.4,1.9,4.1,1.2c3.6-1.4,6.7-4.1,8.6-7.4c1.2,1.9,1.9,4.3,2.6,6.5c0.5,1.7,2.9,3.1,4.3,2.4
		c1.7-0.7,1.2-2.6,0.7-4.3s-0.5-4.8-1.2-6.5c2.9,1.7,4.1,1.9,8.6,2.4c3.4,0.5,1.4-3.4-0.7-4.1c-6.7-2.6-5.8-2.9-10.1-4.3
		c8.2-31.9-28.1-48.7-33.8-76.8c-1.2-6-11-10.8-15.8-13c-17.3-7.2-37.7-8.6-56.1-7.7c-11,0.7-23.3,2.6-32.2,10.1
		c-12.5,10.3-19.4,31.9-40.3,48c-12.2,9.4-39.3,27.6-41,27.4c-7-1-8.4-0.5-15.4-0.2c-2.2,0-1.9,3.1,0.7,3.6c5.8,1.4,6.7,0.2,12,0.2
		c-3.4,7-4.1,7-9.8,9.6c-1.4,0.7-3.8,5,0,3.8c7.7-2.4,9.6-4.1,12.7-9.8c0.7,3.4,2.6,10.1,4.6,13.2c2.2,3.4,5.3-0.7,3.8-2.4
		c-3.4-3.8-3.6-9.4-3.8-14.4c0-0.8,13.2-6.8,14.6-7.7c4.9-2.9,9.7-6,14.3-9.4c9.2-6.7,17.7-14.3,25.4-22.6c3.9-4.2,7.5-8.6,11-13.1
		c4.5-6,6.8-9.9,14.5-11.2c8.6-1.5,17.6-1.3,26.3-1.3C813.5,499.5,816,499.5,818.5,499.6z"/>
</g>
<circle class="st20" cx="825.6" cy="383.6" r="83.5"/>
<path class="st21" d="M880.3,310.9c8.2,2.6,15.8,12.2,7.2,19.4c-9.1,7.4-23.3-9.4-23.8-9.1c-5.3,3.6-8.4,11.5-16.6,10.1
	c-7-1.2-8.6-7.9-7.4-13.7c-1.7,8.2-22.1,16.8-29.8,17c-21.6,0.7,0.2-25.7,10.8-28.3c-2.6-0.5-5.3-1.4-7.7-2.9
	c-2.4-1.4-4.3-4.1-4.3-6.7c0.5-10.1,15.8-9.4,22.8-8.9c11,0.7,35,3.8,31.9,19c-0.2,1.4-0.5,3.4,0.7,3.8c0.7,0.2,1.7,0,2.4-0.5
	C869.5,308.7,875.3,309.2,880.3,310.9z"/>
<g>
	<circle cx="795.6" cy="378.5" r="8.2"/>
</g>
<g>
	<circle cx="858.7" cy="369.2" r="8.2"/>
</g>
<path class="st22" d="M875.5,394.8c-9.8,10.6-16.1,21.4-30,30.7c-4.8,3.4-10.8,6.5-17.3,6.7c-5.3,0.2-9.6-1.7-13.4-3.6
	c-6.7-3.1-13.2-6.7-19.4-10.6c-0.7-0.5-14.2-11.3-11-11C814.6,409.5,847.7,407.8,875.5,394.8z"/>
<path class="st23" d="M750.5,402c12.5,33.1,27.4,3.8,23.5-7.7C766.3,370.4,744.3,385.3,750.5,402z"/>
<path class="st23" d="M877.4,384.1c19.4,29.5,30.2-3.6,24-14.2C888.5,348.5,867.6,369.2,877.4,384.1z"/>
<g>
	<path d="M1135.8,721.4c-0.5,0-0.7-0.2-1.2,0c-14.9,1.7-28.8,7.4-42.7,12.2c-5.3-21.4-0.2-43.7-3.4-65.3c-1-7.2-2.2-15.1-3.1-22.8
		c-2.6,0.5-5.5,0.5-8.2,0.2c1,5,1.9,10.1,2.9,14.6c0.5,2.2,0.7,4.6,1.2,7c3.8,22.8-1.7,46.1,4.1,68.6c0,0.2,0.2,0.5,0.2,0.7
		c-1.2,2.2,0.7,5.5,3.6,5c1.9,0,3.8,0,5.8,0c0.7,0.2,1.2,0.2,1.9,0h0.2c11.5-1,22.1-4.8,32.9-7.7c2.4-0.7,4.6-2.6,6.5-4.1
		c0.5-0.2,3.4-3.1,3.1-3.1C1141.1,724.3,1139.2,720.7,1135.8,721.4z"/>
</g>
<g>
	<path d="M899.7,643.4c-0.2,1.4-0.2,2.9-0.2,4.3c0.2,2.4,0.2,5.3,1.4,7.4c5.3,9.8,9.8,20.4,16.8,29.5c0,0,0,0.2,0.2,0.2
		c0.2,0.5,0.7,1.2,1.2,1.4c1.2,1.4,2.4,2.9,3.8,4.3c1.7,2.4,5.3,1.4,6.2-0.7c0.2,0,0.5-0.2,0.7-0.2c20.4-11,33.8-31,53-43.7
		c2.2-1.2,4.1-2.4,6-3.8c4.1-2.4,8.2-5,12.5-7.9c-2.2-1.9-3.8-3.8-5.5-6.2c-6.5,4.8-13,9.1-19,13.2c-18,12.5-31,31.4-49.9,42
		c-6-13.7-11.3-27.6-20.2-39.6c-0.2-0.2-0.5-0.7-1-1C904.5,639.8,900.4,641,899.7,643.4z"/>
</g>
<path class="st24" d="M1050.6,602.9c-1.2,3.4,1.4,7.2,4.6,8.6c8.9,3.8,43.9-1,46.1,12.5c3.4,21.6-23.5,37.2-28.8,32.9l0,0
	c-1.2,0.5-2.6,0.2-3.8-0.5c-3.4-1.9-3.8-5.5-3.8-9.6c0-4.6-7.9-1-9.6,0c-5.3,3.1-11,6.5-16.6,2.4c-4.8-3.6-7.9-11.3-14.6-11
	c-5.3,0.2-10.3,2.9-15.4,4.3c-4.1,1.2-10.1,2.2-12-2.9c-0.7-1.7-1.2-3.6-1.4-5.8c-0.2-3.1,0.5-6-2.4-4.1c-10.3,7.2-14.9-1.2-13-6
	c-0.5-5.3-0.5-14.9,7.2-15.6c23.3-2.2,47,2.4,70.1,4.3c1.7,0.2,4.8,0.2,8.6,0.5C1061,612,1055.9,602.1,1050.6,602.9z"/>
<g>
	<path d="M1199.9,541.4c-5.5-0.7-6.5-0.5-11.3-5.5c4.6-1.4,5.8-1,10.3-3.8c2.2-1.2,1.2-3.8-0.5-3.4c-6.2,1.9-7.4,1.9-13.2,4.8
		c-1.2,0.7-30-7-43.4-11.5c-6.2-2.2-12.5-5-18-8.6c-2.6-2.4-5.5-5-7.4-6.5c-5.5-6-11.8-13-30.7-17c-3.6-0.7-4.6,4.8-1,5.5
		c7.7,1.7,14.4,7,17.3,14.2c-3.6,7.9-11.5,67.9-6,107c-34.1-2.6-56.9-13-90-22.6c3.1-4.3,18-74.4,19.4-80.9
		c0.5-2.4,7.7-18.7,21.8-19c1.9,0,8.2-6,7.4-9.6c0,0-21.4-1.9-32.9,6c-1.9,1.2-3.6,2.9-5,4.3l0,0c-3.1,3.1-13.7,9.6-13.7,9.6l0,0
		c-20.2,9.4-40.1,25-56.1,15.1c-0.2,0-1.2-1.7-1.9-1.9c-3.6-1.9-6.5-3.8-7.2-7.7c-0.2-1.7-1-2.9-2.6-2.4c-1.7,0.5-2.2,2.2-1.9,3.8
		c0.7,3.8,2.9,7.2,6,9.6c-2.2,0.7-4.6,1.4-6.7,1.7c-1.7,0.2-3.6,2.4-3.1,3.8c0.5,1.7,2.4,1.7,4.1,1.2c1.7-0.2,4.8,0.2,6.5-0.2
		c-1.9,2.4-2.4,3.8-3.6,8.2c-1,3.4,3.1,1.9,4.3-0.2c3.6-6.2,3.8-5.3,5.8-9.4c21.6,9.1,39.8-5.3,58.5-14.9l0,0
		c5.8-2.6,9.8-3.1,11.3-3.8c-3.6,16.1-6.2,31.9-12.2,47.5c-7.4,18.2-28.1,54.2-11.3,58.5c2.4,0.7,60.5,17.3,104.4,11.8
		c0.2,0,0.5,0,0.7,0c2.6,1,9.1-1,7.2-7.2c-7.9-36.9,2.9-68.4,5.8-105.1l1.4,0.7l0,0c0,0,16.3,8.4,19.2,9.4c0.2,0,0.2,0,0.5,0
		c16.1,7.4,33.1,12.2,50.6,14.2c1.4,4.3,2.6,9.4,1,13.7c-0.7,1.9,3.1,4.6,4.1,1c0.7-3.1,0.5-9.4,0-12.7c4.3,4.1,6.5,5,13.9,4.8
		C1204.7,544.8,1201.3,541.7,1199.9,541.4z"/>
</g>
<path class="st25" d="M1094.8,598.5c-1-11.5,1.2-23.5,1.7-35c0.2-6,1-12,2.2-17.8c0.7-4.1,1.9-7.9,2.2-12.2c0.2-3.4,1.4-7,1.7-10.3
	c0.2-2.6-0.2-3.4,2.6-3.6c1.9,0,3.8,1,5.5,1.7c2.9,1.2,4.8,3.4,7.2,5c1,1,2.4,1.4,3.6,1.9c0.7-0.2,1.7-0.7,2.2-1.4
	c2.4-2.6,5.3-5.3,7.7-7.9c2.2-2.4,2.4-3.8-0.5-6.5c-9.4-8.9-23-18.7-36.2-20.6c-7.9-1-15.8-2.6-23.5-5c-4.6-1.4-9.1-2.4-13.7-3.6
	c-0.7-0.2-1.7-0.5-2.4-0.5c-4.8-0.7-9.6-1-14.2-0.7c-7.4,0-14.9,1.4-22.1,4.1c-4.1,1.7-10.1,3.4-12.5,7.4
	c-2.9,4.8-0.7,16.3,0.5,21.4c3.1-1.9,6-3.8,8.6-6c2.6-1.4,5.3-2.6,8.2-3.6c-2.4,8.4-6,16.6-8.2,25c-2.4,9.1-5.8,17.8-8.2,26.9
	c-1.9,7.7-3.8,15.4-5.5,22.8c-1.2,5.3-4.3,12.7-3.1,18c1.9,8.2,13,10.3,19.7,12.5c21.6,7,43.2,8.2,65.5,8.4c5.3,0,10.8-1.2,11.5-7
	C1096,607.7,1095,603.1,1094.8,598.5z"/>
<circle class="st26" cx="1074.9" cy="389.6" r="83.5"/>
<g>
	<circle cx="1033.4" cy="376.9" r="8.2"/>
</g>
<g>
	<circle cx="1123.8" cy="375.4" r="8.2"/>
</g>
<path class="st22" d="M1108.5,426.8c-23.8-13.2-65-5.3-57.6,6.7c10.6,16.8,16.3,21.4,31.4,22.3
	C1097.4,456.7,1108.5,426.8,1108.5,426.8z"/>
<path class="st27" d="M1022.3,334.4c6.7,3.6-12.5,35.3-23.5,25.7c4.3,3.6,2.9,10.3,1.2,15.8c-0.7,2.4-1.7,5-4.1,6.2
	c-2.2,1.2-5.8-0.2-5.5-2.6c1,7.2-4.1,11.8-9.8,15.1c-4.1,2.2-8.9,3.4-13.4,3.6c-2.2,0.2-4.1,0.2-6.2-0.2
	c-15.8-3.8-21.6-30.7-10.1-41c1-0.7,1.7-1.4,1.9-2.4c0.5-1.4-0.5-3.1-1.2-4.3c-3.1-5-4.8-10.8-5-16.8c0-10.1,6.5-16.8,14.9-21.6
	c2.2-1.2,27.6-6.5,25.9-1.2c2.6-9.8,6-19.9,13.7-26.4s21.1-7.2,26.9,1c-5.8-8.6,12.7-23.3,19.2-25.2c13.2-4.1,29,0.5,36.2,13
	c11-5,22.8-10.1,34.8-8.4c12,1.9,23.3,13.7,19.4,25.2c13-3.8,26.6,3.4,30.5,16.3c1.9,6.2,1.2,13-1.9,18.5c11,1.2,19.9,11,22.1,22.1
	c1.9,11-2.2,22.3-8.9,31.2c-8.2,10.6-22.6-1.2-19-12.2c-6.7,2.6-14.2,1.2-19.7-3.4c-5.8-5-7.9-15.1-9.8-22.3
	c-1.9,1.9-4.6,3.1-7.4,3.1c-11.3,0.5-15.6-9.8-16.6-19c-9.8,5.5-23.8,5-30.2-5.8c-8.9,6.5-20.4,7.9-30.7,3.8
	C1043.2,328.9,1030,338.5,1022.3,334.4z"/>
<path class="st5" d="M1186.2,371.6c6-12.5,4.3-27.6-4.3-38.4c-5-6-13-10.6-20.6-8.6c-1.4,0.2-2.9,1.2-3.8,2.4c-2.2,3.4,2.4,7.7,6,7
	c3.8-1,6.2-4.8,7.2-8.6c4.1-14.9-4.6-30.5-19.4-34.5c-6.2-1.7-13-1.2-18.7,1.2c-3.4,1.4-7,5.8-4.3,8.4c1.7,1.7,4.6,1.2,6.2-0.5
	c1.4-1.9,2.4-4.1,2.9-6.5c1-4.6,1.7-9.4,0.5-13.9c-2.9-9.4-13.7-13.9-23.5-14.2c-11.5-0.2-38.9,6.2-38.1,22.1c0,2.2,1.7,4.6,3.8,4.6
	c1,0,1.9-0.2,2.6-0.7c13.9-8.4-2.2-29.3-12.5-32.2c-17.5-5-36,5-41,22.6c-1.7,5.8-1.7,12-0.2,17.8c0.7,2.4,3.4,5.3,5.3,3.6
	c4.3-9.8-3.1-22.3-13.4-24.7c-10.6-2.4-21.8,3.6-27.1,13s-5.8,20.9-3.1,31.2c0.5,1.7,1,3.6,2.4,4.3c2.6,1.4,6.2-1.2,6.5-4.3
	c0.2-3.1-1.7-5.8-4.1-7.9c-8.6-7.9-22.3-9.1-32.4-3.6c-10.3,6-16.1,17.3-15.1,29.3c1.4,11.8,9.1,21.8,19.9,26.6c2.4,1,5.5,1.9,8.2,1
	c4.8-1.7,5.8-8.6,2.6-12.7c-3.1-4.1-8.6-5.3-13.7-4.3c-28.3,4.3-23,48.2,4.8,48.7c10.1,0.2,20.2-6.2,21.4-16.6
	c6.5,3.4,13-4.3,13.4-12.7c0.5-5.3-2.4-5-5.8-9.1c8.9,11.5,31.4-22.3,22.8-25.7c9.4,3.6,21.1-2.6,23.3-12.2
	c10.1,4.3,21.8,2.6,30.5-4.3c-1.9,1.7,13.2,7.7,14.6,7.9c6,0.7,11.8-1.4,16.6-4.8c-3.4,2.4,1.4,13.7,3.6,15.8
	c4.8,5.3,12.2,5.5,18.7,5c2.2-0.2,3.4-1.7,5.5-1.9c-5.5,0.5,3.8,16.6,6,18.5c6.7,5.5,15.6,7.7,23.8,4.6c-4.6,1.7-0.5,14.2,2.2,15.6
	C1172.8,383.6,1183.1,377.8,1186.2,371.6z"/>
<path class="st4" d="M1144.2,403.5c-6.2,23.8-17.5,8.9-16.8-3.6C1128.1,383.6,1147.3,391.5,1144.2,403.5z"/>
<path class="st4" d="M1027.6,400.4c-11.3,21.8-21.1-0.2-17.5-7.9C1017.3,376.4,1033.4,389.3,1027.6,400.4z"/>
<g>
	<path d="M1131.7,376.1c-0.5,4.3-4.8,7.2-9.4,6.7s-8.2-4.3-7.4-8.6c0.5-4.3,4.6-7.2,9.4-6.7S1132.2,371.8,1131.7,376.1z"/>
</g>
<g>
	<path d="M1025,379c1.4,4.1,6,6.2,10.6,4.6s7-6,5.8-10.1c-1.4-4.1-6-6.2-10.6-4.6C1026.2,370.6,1023.5,374.9,1025,379z"/>
</g>
<g>
	<path d="M481.8,723.8c0.5,0,0.7-0.2,1.2,0c14.4,1.2,28.1,6.2,42,10.6c4.6-20.9-1.2-42.2,1.2-63.3c0.7-7,1.7-14.6,2.2-22.3
		c2.6,0.2,5.3,0.2,7.9,0c-0.7,5-1.7,9.6-2.4,14.2c-0.2,2.2-0.7,4.6-1,6.7c-2.9,22.3,3.1,44.6-1.7,66.7c0,0.2-0.2,0.5-0.2,0.7
		c1.2,2.2-0.5,5.5-3.4,5c-1.9,0.2-3.8,0.2-5.5,0c-0.7,0.2-1.2,0.2-1.9,0H520c-11-0.7-21.6-3.8-32.2-6.5c-2.4-0.5-4.6-2.4-6.5-3.8
		c-0.5-0.2-3.4-2.9-3.1-2.9C476.7,726.7,478.7,723.1,481.8,723.8z"/>
</g>
<g>
	<path d="M708,640.3c0.2-0.2,0.5,3.6,0.2,4.1c-0.2,2.2-0.2,5.3-1.2,7.4c-4.8,9.8-8.6,20.2-15.4,29v0.2c-0.2,0.5-0.7,1.2-1.2,1.4
		c-1.2,1.4-2.4,2.9-3.6,4.3c-1.4,2.4-5,1.7-6-0.5c-0.2,0-0.5-0.2-0.7-0.2c-20.2-10.1-33.8-28.8-52.8-40.5c-2.2-1.2-4.1-2.4-6-3.6
		c-3.8-2.2-8.2-4.6-12.5-7.2c1.9-1.9,3.6-3.8,5-6.2c6.2,4.3,12.7,8.4,18.7,12.2c17.8,11.5,31,29.5,49.9,39.1
		c5.3-13.4,10.1-27.1,18.2-39.1c0.2-0.2,0.5-0.7,1-1C703.5,636.7,707.3,637.7,708,640.3z"/>
</g>
<path class="st6" d="M557.1,610.8c22.3-3.8,47-5.3,52.8-3.4c4.3,1.4,7,5.3,9.6,8.6c6.5,7.7,14.9,13,24.5,15.8
	c-10.1,21.8-23.3,33.8-43.4,25.9c-10.6-4.1-13.9-20.6-28.3-13c-7.7,4.3-8.2,38.6-14.2,39.6c-17.5,2.4-35.5,1.7-52.8-1.9
	c2.9-18.7,10.6-36.9,12.2-55.4C518.2,619.9,536.7,614.1,557.1,610.8z"/>
<g>
	<path d="M413.4,551.3c5.5-1,6.2-0.7,10.8-5.5c-4.6-1.2-5.8-0.7-10.1-3.4c-2.2-1.2-1.4-3.8,0.5-3.4c6,1.7,7.4,1.7,13,4.3
		c1.2,0.5,28.8-7.7,41.7-12.7c6-2.4,11.8-5.3,17.3-9.1c2.4-2.4,5-5,7-6.5c5.3-6,11-13,29-17.5c3.4-1,4.6,4.6,1.2,5.5
		c-7.4,1.9-13.7,7.2-16.3,14.4c3.8,7.4,13.4,65.5,9.6,103.4c33.1-3.6,54.7-14.4,86.6-24.7c-3.1-4.1-19.9-71.7-21.6-77.7
		c-0.7-2.4-8.2-18-21.8-17.8c-1.9,0-8.2-5.5-7.7-9.1c0,0,20.6-2.6,32.2,4.8c1.9,1.2,3.6,2.6,5,4.1l0,0c3.1,2.9,13.7,8.6,13.7,8.6
		l0,0c19.9,8.4,39.6,23,55.2,12.7c0.5-0.7,1.2-1.4,1.9-2.2c3.4-1.9,6-3.8,6.7-7.7c0.2-1.7,1-2.6,2.4-2.4c1.7,0.5,2.2,2.2,1.9,3.6
		c-0.7,3.6-2.6,7-5.5,9.6c2.2,0.7,4.3,1.2,6.7,1.4c1.7,0.2,3.6,2.2,3.1,3.6c-0.5,1.7-2.4,1.7-4.1,1.4c-1.7-0.2-4.6,0.5-6.2-0.2
		c1.9,2.4,2.4,3.6,3.8,7.9c1,3.1-2.9,1.9-4.1,0c-3.8-6-3.8-5-5.8-8.9c-20.6,9.6-38.9-3.8-57.3-12.5l0,0c-5.8-2.4-9.6-2.6-11-3.4
		c4.1,15.4,7,31,13.7,45.6c7.7,17.5,29,51.8,13,56.4c-2.4,0.7-58.1,18.7-101,15.1c-0.2,0-0.5,0-0.7,0c-2.4,1-8.9-0.7-7.2-6.7
		c6.2-36.2-5-66.2-9.1-101.7c-0.5,0.2-1,0.5-1.4,0.7l0,0c0,0-15.6,8.6-18.2,9.8c-0.2,0-0.2,0-0.5,0c-15.4,7.7-31.7,13-48.7,15.4
		c-1.2,4.3-2.2,9.1-0.5,13.2c0.7,1.9-2.9,4.6-3.8,1.2c-1-3.1-0.7-9.1-0.5-12.2c-4.1,4.1-6.2,5-13.2,5
		C408.8,554.6,412.2,551.5,413.4,551.3z"/>
</g>
<path class="st17" d="M590.7,504.5c-6.7-6-18.2-10.8-26.6-11.3"/>
<path class="st28" d="M513.9,606.7c1-11.5-1.2-23.5-1.7-35c-0.2-6-1-12-2.2-17.8c-0.7-4.1-1.9-7.9-2.2-12.2c-0.2-3.4-1.4-7-1.7-10.3
	c-0.2-2.6,0.2-3.4-2.6-3.6c-1.9,0-3.8,1-5.5,1.7c-2.6,1.2-4.6,3.4-7.2,5c-1,1-2.4,1.4-3.6,1.9c-0.7-0.2-1.7-0.7-2.2-1.4
	c-2.4-2.6-5.3-5-7.7-7.9c-2.2-2.4-2.4-3.8,0.5-6.5c9.4-8.9,23-18.7,36.2-20.6c7.9-1,15.8-2.6,23.5-5c4.6-1.4,9.1-2.4,13.7-3.6
	c0.7-0.2,1.7-0.5,2.4-0.5c4.8-0.7,9.6-1,14.2-0.7c7.4,0,14.9,1.4,22.1,4.1c4.1,1.7,10.1,3.4,12.5,7.2c2.9,4.8,0.7,16.3-0.5,21.4
	c-3.1-1.9-6-3.8-8.6-6c-2.6-1.4-5.3-2.6-8.2-3.6c2.4,8.4,6,16.6,8.2,25c2.4,9.1,5.8,17.8,8.2,26.9c1.9,7.7,3.8,15.4,5.5,22.8
	c1.2,5.3,4.3,12.7,3.1,18c-1.9,8.2-13,10.3-19.7,12.5c-21.4,7.2-43.2,8.2-65.5,8.6c-5.3,0-10.8-1.2-11.5-7
	C512.7,615.8,513.7,611.3,513.9,606.7z"/>
<circle class="st29" cx="527.8" cy="396.5" r="83.5"/>
<g>
	<circle cx="481.3" cy="389.3" r="8.2"/>
</g>
<g>
	<circle cx="558.1" cy="387.6" r="8.2"/>
</g>
<path class="st30" d="M440.3,437.6c1.9,1.7,4.1,3.4,6.2,5c-3.1-4.3-4.3-9.6-3.4-14.9c3.6,2.4,12.2,7.2,16.8,5.8
	c-4.3,1.4-9.8-37.9-9.6-41.5c0.7-12.7,4.6-26.9,12.2-37.2c13.2,9.8,30,25.9,48.2,18.5c-5-6.5-0.5-18.2,4.6-23.5
	c3.8,4.1,5,11.3,5.3,17c0-4.1,1.4-7.9,3.8-10.8c3.6-4.6,7.9-8.4,13.2-10.8c1.4,9.4,7,18.7,15.1,24c-2.6-1.7,2.9-10.8,2.2-12.5
	c2.6,5.8,5,11.8,7.4,17.5c2.9-7.7,3.8-15.8,5.3-23.5c19.2,12,45.6,48.9,41.5,72.7c2.2-13.2,7-26.6,1.7-39.3
	c6.7,5.8,11.8,13.2,14.6,21.6c7.9-27.6-9.4-66.2-31.7-82.3c-9.8-7.2-20.4-13.4-31.4-18.5l-0.7-0.2c-4.8-1.9-10.3-3.8-15.6-4.3
	c-0.5,0-11.8,1-10.6,2.4c-3.6-4.3-6.2-10.1-3.8-16.6c-3.4,5.8-6,11.8-7.9,18c-38.1-8.2-68.1,6.2-100,25.4c9.1-5.5,25-4.6,35.3-3.8
	c-24.5,7.9-36.7,30-38.6,54.5C418,405.4,423.2,422.2,440.3,437.6z"/>
<path class="st31" d="M463.1,417.9c6.7,22.8,17.3,7.9,16.3-4.1C477.9,398,459.7,406.4,463.1,417.9z"/>
<path class="st31" d="M562.4,411.6c11.5,20.9,20.4-1,16.8-8.4C571.7,388.1,556.6,401.1,562.4,411.6z"/>
<path class="st17" d="M491.9,429.6c13.2,24.5,69.3,13,62.1-8.6"/>
<g>
	<path d="M1902.4,729.8c0.5-0.2,1-0.5,1.4-0.5c17-3.4,34.3-2.2,51.6-1.7c-2.9-25.4-17.5-48.5-22.8-73.7c-1.7-8.4-3.6-17.5-6-26.6
		c3.1-0.5,6.2-1.4,9.1-2.6c1,6,1.9,11.8,2.9,17.3c0.5,2.6,1,5.3,1.4,8.2c2.2,14.6,8.9,28.8,14.2,42.5c4.1,10.6,7.2,21.6,9.4,32.9
		c0.5,2.4,2.2,5.8,1,8.2c-1,1.9-3.1,2.2-5,2.6c-4.8,1.9-9.6,3.1-14.6,3.8c-10.3,1.4-20.6,0.7-31,1.2c-2.9,0.2-6.2-1.2-8.6-2.2
		c-0.5-0.2-4.8-2.2-4.6-2.4C1897.8,734.8,1898.6,730,1902.4,729.8z"/>
</g>
<g>
	<path d="M1771.6,666.2c0.7-0.7,3.4-10.1,16.6-7.2c11.3,8.6,23.3,16.6,35.7,23.5c-6-8.6-7.4-19.9-8.6-30.2c-1-9.4-0.7-18.7-1.4-28.1
		c-0.2-4.6-0.7-9.4-1.7-13.9c-0.5-2.4-2.4-8.4-1-10.8c1-1.4,2.6-1.9,4.1-1.2c1.9,0.7,3.8,2.6,5.8,3.8c2.6,1.4,5.3,2.6,7.9,3.8
		c5.3,2.4,11,3.8,17,4.6c3.1,0.2,2.4,5-0.7,4.8c-1.9-0.2-3.6-0.5-5.5-0.7c-0.2,0.7-1,1.2-1.7,1.4c-6.5,3.4-14.2,3.1-20.4-0.5
		c1,9.1,1,18.2,1.7,27.1c0.7,13,1.2,31,11.5,40.3c1,1,1.2,2.6,0.2,3.6c-0.2,0.2-0.5,0.5-0.7,0.5c-5.3,6.2-19.9-0.5-28.1-4.3
		C1795.1,679.9,1779.1,671,1771.6,666.2z"/>
</g>
<path class="st32" d="M1926.4,598.5c25,0,46.1,1.2,47.7,5.5c6.7,23.5-21.1,44.6-27.6,40.5l0,0c-1.4,0.7-2.9,0.7-4.3,0
	c-3.8-1.7-5.3-5.8-5.8-10.1c-0.5-5-8.9,0-10.6,1.2c-5.5,4.1-11.5,8.6-18.2,4.8c-6-3.4-10.6-11.5-18-10.3c-5.8,1-11,4.6-16.6,7
	c-4.3,1.9-10.8,3.8-13.9-1.4c-1.2-1.9-1.9-4.1-2.4-6.2c-0.7-3.6-0.2-6.7-3.4-4.1c-10.6,9.4-16.6,0.7-15.4-4.8
	c-1.4-5.8-2.6-16.6,5.8-18.5C1849.8,601.2,1891.6,598.5,1926.4,598.5z"/>
<g>
	<path d="M1874.2,491.2c0.2-2.9,6-22.1,21.6-24.2c2.2-0.2,8.4-7.7,7-11.8c0,0-24.2,0.7-36,11.3c-1.9,1.7-3.6,3.6-5,5.5l0,0
		c-3.1,3.8-13.9,12.5-13.9,12.5l0,0c-21.4,13.4-41,33.6-60.7,24.7c-0.7-0.7-1.7-1.4-2.4-1.9c-4.1-1.7-7.7-3.4-9.1-7.4
		c-0.5-1.9-1.7-2.9-3.1-2.2c-1.9,0.7-2.2,2.6-1.7,4.6c1.4,4.1,4.3,7.7,7.9,9.8c-2.4,1.2-4.8,2.2-7.4,2.9c-1.9,0.5-3.6,3.1-2.9,4.8
		c0.7,1.9,3.1,1.4,4.8,1c1.7-0.5,5.3-0.5,7.2-1.2c-1.9,3.1-2.2,4.6-2.9,9.6c-0.5,3.8,3.8,1.7,4.8-0.7c3.1-7.4,3.6-6.5,5-11.3
		c25.4,7.2,43.7-11.5,63.3-25l0,0c6-3.6,10.6-4.8,12-5.8c-1.7,18.5-2.4,36.7-7.2,54.7"/>
</g>
<g>
	<path d="M1969,479.2l1.7,0.7l0,0c0,0,19.4,7.2,22.8,7.9c0.2,0,0.2,0,0.5,0c19,6,38.6,8.9,58.5,8.6c2.2,4.8,4.3,10.1,2.9,15.1
		c-0.5,2.2,4.1,4.8,4.6,0.7c0.5-3.6-1-10.6-1.7-14.2c5.3,4.1,7.9,4.8,16.1,3.4c3.9-0.5-0.5-3.4-1.9-3.4c-6.5,0-7.2,0.5-13.4-4.6
		c5-2.4,6.2-1.9,11-5.8c2.2-1.7,1-4.6-1-3.6c-6.7,2.9-8.2,3.1-14.2,7.2c-1.2,1-34.5-3.6-50.1-6.7c-7.4-1.4-14.6-4.1-21.4-7.2
		c-3.4-2.2-6.7-4.8-9.1-6.2c-7.2-6-15.1-12.7-36.5-14.6c-4.1-0.5-4.6,6-0.2,6.5c9.4,1.2,16.1,5,21.4,13.4
		c-2.9,9.4-3.4,77.5,8.2,120.2"/>
</g>
<g>
	<path d="M1969.5,606.6"/>
</g>
<path class="st17" d="M1861.1,477.1c6.5-8.2,18.7-15.6,28.6-17.8"/>
<path class="st33" d="M1850.8,578.9c5-15.7,8.5-31.6,10.5-48c1.4-12.1,8.7-33.9,2.3-45.3c-7,3-12.8,8.4-18.1,13.7
	c1.6-1.6-3.6-7.4-4.5-8.5c-2.3-3.1-5-6.6-5.9-10.5c-0.3-1.2-0.3-2.5,0.2-3.7c3.9-9.4,22.8-16,31.5-19.2c15.1-5.4,29.8-1.2,45.8-3.1
	c5.6-0.7,11.2-0.4,17.1-0.6c1.1,0,2,0,3.1,0c5.6,0.3,11.4,1.4,17,2.7c8.9,2.1,17.2,5.8,24.6,10.6c4.3,3.1,10.8,6.7,12.6,12.1
	c2.3,6.6-3.5,19.5-6.4,25.3c-3-3.1-6.1-6.2-8.6-9.5c-2.7-2.4-5.6-4.4-8.6-6.4c0.6,10.7,2.5,21,3,31.7c0.4,11.4,1.8,22.6,2.2,34
	c0.1,9.6,0.3,19,0.2,28.6c-0.1,6.5,1.8,16.3-1,22.3c-4.4,9.3-17.9,8.9-26.3,9.6c-25.2,2.5-49-4.1-73.9-5.3c-16-0.7-25.6-4.6-19-23
	C1849,583.6,1850,581.4,1850.8,578.9z"/>
<circle class="st34" cx="1904.3" cy="360.1" r="77"/>
<path class="st35" d="M1985.4,342.8c8.6-1.7,14.6-11.8,12.2-20.2c4.6,3.1,11,2.2,15.8-1c4.1-2.9,10.8-9.4,13.2-13.7
	c4.3-7.7-0.2-13,0.5-20.6c-1.2,12.5-16.6,1.7-17.3-6.2c-0.7-7,3.8-17.8-0.7-23.8c-3.6-4.8-11-3.1-15.1-6.7c-3.4-2.9-2.2-6.2-4.3-9.6
	c-6-9.1-19.4-9.8-28.3-5.3c-10.3,5.3-16.8,16.1-21.8,26.6c-3.8,8.6-10.1,16.1-10.3,25.4c6.7,1.7,13.2,3.8,19.7,6.5
	c4.1,1.7,8.4,3.8,11.5,7.2c2.6,2.9,4.1,6.5,5.5,10.1l12.2,29.5C1979.4,341.1,1984,342.3,1985.4,342.8z"/>
<path class="st35" d="M1904.1,281.4c-11.5,1-24.5,3.6-34.8,8.4c-9.4,4.6-17.5,13.9-25,21.1c-3.1,3.1-6.2,7.9-3.6,11.3
	c1.9,2.2,5.5,1.9,8.2,1.2c8.2-2.4,12.2-8.9,17.5-15.1c2.4-2.9,5-6.7,8.6-8.4c4.1-1.9,9.1,0.2,12.5-4.1c-5.8,6-16.8,22.3-7,30
	c1.9,1.4,4.3,1.9,6.7,1.9c7.4,0,14.6-3.8,18.5-10.3c1.9-3.4,2.4-8.6-1.2-10.3c-0.5,2.9-1.9,5.8-4.6,7.2c-2.6,1.4-6.5,0.5-7.4-2.4
	c-0.5-1.4-0.5-3.1,0.2-4.6c7.4-22.3,34.3-4.8,43.7,4.6c7.7,7.7,26.2,24.5,37.9,21.1c-7-16.6-12-28.3-27.6-38.4
	C1934.5,286.2,1918.9,279.9,1904.1,281.4z"/>
<g>
	<circle cx="1880.3" cy="350" r="8.2"/>
</g>
<path class="st5" d="M1863.8,381.7c34.5,40.8,64.3,25.9,82.5-12.7"/>
<path class="st6" d="M1933.6,279.7c7.9-10.3,5-35-11.5-34.5c-6.2,0.2-13.9,6.2-15.6,12.5c-2.4,8.6,1.9,18.2,8.6,24.5
	c5.3,5,13,8.4,20.2,6.7c1.4,5.3,5.3,9.8,10.3,12.2c5,2.4,10.6,3.4,16.1,2.6c7.2-0.5,14.9-3.1,19.4-8.9c4.6-5.8,5.3-14.9,0-19.9
	c-12.2-12-28.1-2.4-35,9.8c-1.7-5.3-9.8-7.2-13.7-3.1"/>
<path class="st36" d="M1835,378.1c11.8,31.2,25,9.4,22.1-7.4C1853.7,349,1829,362.5,1835,378.1z"/>
<path class="st36" d="M1948.5,361.3c18.5,27.8,28.3-3.4,22.6-13.4C1958.8,327.4,1939.1,347.1,1948.5,361.3z"/>
<g>
	<path d="M1933.3,340.9c0,4.3-3.8,7.7-8.6,7.7c-4.8,0-8.4-3.6-8.4-7.9s3.8-7.7,8.6-7.7C1929.7,332.9,1933.3,336.5,1933.3,340.9z"/>
</g>
<g>
	<path d="M1872.6,354.1c1.7,3.8,6.7,5.5,11,3.6s6.2-6.7,4.6-10.6c-1.7-3.8-6.7-5.5-11-3.6C1872.9,345.4,1870.7,350.2,1872.6,354.1z"
		/>
</g>
<g>
	<path d="M260.3,609.3c-0.7,0.2-5,4.3-13.7,8.9c1,13,1,25.7,0,38.6c-3.4-8.6-11.3-15.6-18.5-21.4c-10.8-8.6-23.5-15.6-32.9-25.9
		c-0.7-0.7-1.9-1-2.9-0.5c-0.7-2.2-4.1-2.4-4.3,0c0,1-0.2,1.9-0.2,2.9c0,0.2,0,0.5,0,0.7c-0.7,8.6-1.9,17.5-6.2,25.2
		c-1.4,2.4,2.6,4.3,4.1,1.9c0.7-1.4,1.4-2.9,2.2-4.3c0.7,0,1.4,0,1.9-0.5c5.8-3.1,9.4-9.1,9.8-15.6c6.2,5.3,13.2,9.8,19.7,14.6
		c9.4,7,22.8,16.1,24.5,28.6c0.2,1.2,1.4,2.2,2.6,1.9c0.2,0,0.5-0.2,0.7-0.2c7.2-1,9.4-15.4,10.6-23.3
		C258.9,634.1,260.1,617.5,260.3,609.3z"/>
</g>
<g>
	<path d="M315.7,634.3c4.8,6.7,13.4,18.5,20.2,15.8c1.2,0,2.4-1,2.4-2.2c0-0.2,0-0.5-0.2-1c-4.1-12,3.4-26.2,8.6-36.7
		c3.6-7.2,7.4-14.6,10.6-22.1c3.4,5.5,9.4,9.1,15.8,9.4c0.7,0,1.4,0,1.9-0.5c1.2,1,2.6,1.9,3.8,2.9c2.4,1.4,5-1.9,2.6-3.6
		c-7.4-4.8-12.5-12.2-17.3-19.4c0-0.2-0.2-0.5-0.5-0.5c-0.5-0.7-1-1.7-1.4-2.4c-1.4-2.2-4.3-0.2-3.8,1.9c-1,0-1.9,0.7-2.2,1.7
		c-3.6,13.4-11.5,25.4-17,38.1c-3.6,8.4-7.4,18.2-6.5,27.6c-6-9.6-16.1-26.2-21.1-38.1c-2.9,1.7-12.5-0.5-13.2-0.2
		C302.5,611.7,311.7,628.5,315.7,634.3z"/>
</g>
<path class="st37" d="M339.3,574.6c-0.2-0.5-98.6,19.2-113.7,26.6c-7,3.4-3.6,12.7-1.2,17.3c0,5,7.2,11.5,14.4,1
	c2.2-3.1,2.4-0.2,3.8,2.9c0.7,1.9,1.9,3.4,3.4,4.8c3.8,3.8,9.1,1,12.5-1.7c4.3-3.4,7.9-7.7,13-9.8c6.2-2.6,12,3.4,18,5
	c6.7,1.9,11-3.4,14.9-8.2c1.2-1.4,7.4-7.7,9.1-3.4c1.4,3.8,3.4,7,7.2,7.7c1.4,0.2,2.6,0,3.8-1l0,0
	C330.4,618,350.3,593.5,339.3,574.6z"/>
<g>
	<path d="M276.7,459.2c9.5-1.1,16.9,3.5,25.6,6.5c8.9,3,18.8,4.6,28.2,3.7h0.5c17.8,1.2,35.7-0.5,53-5c2.9,3.8,6,7.9,5.8,12.5
		c0,2.2,4.6,3.1,4.1-0.5c-0.5-3.4-3.1-9.1-4.6-12c5.5,2.4,7.9,2.4,14.9-0.5c3.9-1.9-0.4-3.3-1.8-3.1c-5.5,1.4-6.2,1.9-12.7-1
		c3.8-3.1,5-2.9,8.4-7.4c1.4-1.9-0.2-4.1-1.7-2.9c-5.3,4.1-6.5,4.6-10.8,9.4c-1,1-31,4.3-45.3,4.8c-6.7,0.2-13.7-0.2-20.2-1.7
		c-3.4-1.2-7-2.6-9.4-3.6c-7.4-3.8-15.8-7.9-35-5C271.9,453.9,273.1,459.6,276.7,459.2z"/>
</g>
<g>
	<path d="M245.9,477.4c0.8-1.1,1.6-2.2,2-3.5c0.6-1.7-2.3-14.2-3.5-13.8c-0.1,0-20.9,5.8-29,17.5c-1.2,1.9-2.4,3.8-3.4,6
		c-1.9,4.1-9.6,13.9-9.6,13.9c-15.6,16.3-28.8,38.1-47.7,34.8c-0.7-0.5-1.7-1-2.6-1.2c-4.1-0.5-7.4-1.2-9.6-4.6
		c-1-1.4-1.9-2.2-3.4-1.2c-1.4,1.2-1.2,2.9-0.5,4.3c2.2,3.4,5.3,5.8,9.1,7c-1.7,1.4-3.8,2.9-5.8,4.1c-1.4,1-2.4,3.6-1.4,4.8
		c1.2,1.4,2.9,0.7,4.3-0.2c1.4-1,4.6-1.4,6-2.6c-1,3.1-1,4.3-0.5,9.1c0.5,3.6,3.6,0.7,4.1-1.7c1.2-7.2,1.7-6.5,1.9-11
		c23.8,0.7,35.7-19.4,50.1-35.3c4.6-4.6,8.2-6.5,9.4-7.7c1.5,1.2,2-0.9,3.7-1.6c3.4-1.4,6.5-3.5,10.1-4.9
		C236,487.2,242,483.1,245.9,477.4z"/>
</g>
<path class="st17" d="M213.3,488.2c3.8-8.6,13-17.8,21.1-21.6"/>
<circle class="st38" cx="228.7" cy="364.4" r="83.5"/>
<path class="st39" d="M114.4,335.6c-1.2-0.2-2.6,0-3.6,0.7c-1.2,1-1.9,2.4-2.2,3.8c-1,2.6-1.9,5.5-1.2,8.4c0.7,2.9,3.8,5,6.5,4.1
	c-2.6,2.2-6.2,1.7-9.6,2.9c-7,2.2-10.1,12-5.5,17.8c0.5,0.5,0.7,1.2,1,1.7c0,1-0.2,2.2-0.7,2.9c-2.4,4.6-4.1,11,0,14.6
	c2.4,2.2,6.7,2.2,9.6,0.5c2.9-1.9,4.8-4.8,5.8-8.2c1.4,4.3,3.4,9.1,7.7,10.3c4.3,1.2,8.6-1.7,10.6-5.5c1.9-3.8,2.2-8.2,2.2-12.5
	c1.9,1.9,5.5,1,7.2-1.2s1.9-5,2.2-7.9c0.5-3.4,0.5-7,0-10.3C141.8,344.7,126.4,335.8,114.4,335.6z"/>
<path class="st39" d="M297.5,317.1c-0.7-1.2-0.2-3.8-1.4-4.6c-1.7-1.4-2.4-3.6-1.9-5.8c0.5-1.9,1.4-3.8,2.9-5.5
	c1.4-2.2,3.1-4.3,5.5-5.8c2.4-1.2,5.5-1.2,7.4,0.7c1.9,1.9,1.7,4.6,3.1,6.7c1.4-1.4,1.2-3.8,1.9-5.5c1.2-2.9,4.1-4.6,7.2-4.6
	c3.1,0.2,6,1.4,7.9,3.8c2.6,2.6,4.6,7,2.4,10.1c3.1-2.2,7.4,1,9.4,4.1c1.4,2.4,1.9,5.3,1.4,7.9c-0.7,2.6-3.4,4.8-6.2,4.3
	c2.2,3.8,4.3,8.9,1.7,12.5c-2.2,3.1-7,3.6-10.3,1.9c-3.4-1.7-5.8-4.8-8.2-7.9c2.2,2.9-0.2,7.4-3.6,8.4s-7.2-0.7-9.6-3.4
	c-2.4-2.4-4.1-5.8-6-8.6"/>
<path class="st39" d="M156,299.8c-4.3,4.3-7,10.1-7.2,16.3c0,1.9,1.7,5.3,0.7,7s-5.5,4.1-7.2,6c-5.5,6.5-7.7,14.2-1.2,20.2
	c1,1,2.4,1.7,3.8,2.2c6.2,1.4,11-6.5,7.4-11.8c2.4,2.2,7.4,1.2,10.1-1.2c2.6-2.4,3.4-5.8,4.1-8.9c0.5-1.9,0.7-4.3-1.2-5.5
	c2.4,1.7,6.5,1.7,9.6,0.2c2.9-1.4,5-3.8,6.2-6.7c1-1.7,1.2-3.8,0.7-5.8c-1-2.2-3.1-3.4-5.3-2.9c2.9,2.6,7,3.6,10.8,2.4
	c6.7-1.9,9.6-8.2,11.5-13.9c2.4,3.1,6.2,5.3,10.3,5.3c4.6,0.2,9.1-1.2,12.7-3.8c1.4-1.2,2.4-2.6,2.2-4.1c-0.5-1.4-3.4-2.2-4.1-0.7
	c-1.9,1.9-1,5,1.2,6.5c2.2,1.4,5.3,2.2,8.2,2.4c2.4,0.5,4.8,0.5,7.2,0c2.4-1,4.8-2.4,6.5-4.3c2.2-1.9,4.6-4.3,3.8-7
	c-0.5,4.1,2.9,8.2,7.2,9.8c4.6,1.7,10.1,1.4,14.9,0.5c1.4,0.2,2.9-0.2,3.6-1.4c-0.2,3.4,2.4,6.5,6,7.4c3.8,1,7.9-0.2,10.8-3.1
	c1.4-1.7,0.5-5-1.9-4.1c-0.7,3.8-0.2,7.7,1.4,11c1.2,2.4,3.8,4.8,7,4.3c4.8-0.7,5-6.5,2.9-10.1c-4.1-6.7-12.2-9.8-18-15.1
	c-6.2-6-11.5-9.8-21.4-10.6c-7-0.5-13.9-2.2-20.2-5.5c-15.6-7.7-33.3-0.7-48,7c-4.3,2.2-7.9,6.5-12,8.4c-3.6,1.7-8.4,1-12.7,2.4
	C162.2,294.6,158.8,296.7,156,299.8z"/>
<g>
	<circle cx="190.6" cy="352.6" r="7.9"/>
</g>
<g>
	<ellipse transform="matrix(0.1602 -0.9871 0.9871 0.1602 -117.2929 528.9387)" cx="252.2" cy="333.4" rx="7.9" ry="7.9"/>
</g>
<path class="st5" d="M196.7,399.4c12.5,7.7,25.4,12.7,40.3,7.4c13-4.8,22.8-15.8,25.7-29.5"/>
<path class="st4" d="M303,343.7c5.8,33.6-17,21.4-23.3,5C271.6,327.9,300.1,326.9,303,343.7z"/>
<path class="st4" d="M185.2,390.5c-1.7,34.1-26.9,11.8-26.9,0C158.4,366.3,185.9,373.5,185.2,390.5z"/>
<path class="st40" d="M327.2,552.7c-8.1-15.7-10.7-32.8-15.5-49.7c-1.2-4.4-10.3-24.1-5.4-27.4c1.5-1,7.5,1.1,9.1,1.6
	c1.4,0.5,2.6,0.5,4.1,0.2c0.7-0.5,1.2-1.2,1.4-2.2c1.2-3.4,2.6-6.7,3.8-10.3c1-3.1,0.5-4.6-2.9-5.8c-12.2-4.3-28.6-7.7-41.5-4.3
	c-17.2,4.5-36.8,4.5-53.2,12.5c-7,3.1-13.2,7.4-18.5,12.7c-2.9,3.1-7.9,7.2-8.4,11.8c-0.6,5.1,2.4,10.3,5.3,14.3
	c5.1,7.1,5.8,0.5,9.3-4c1.9-2.4,3.8-4.6,6-6.7c0.9,7.8,2.7,16.8,2,24.6c-0.6,7.2-0.7,14.1-0.3,21.4c0.4,8.6,0.6,17.1,1.3,25.7
	c0.6,7.5-0.9,17.6,1.3,24.8c3.4,11.2,12.9,9.2,22.2,7.6c10.4-1.8,20.8-3.1,31.1-5.6c14.8-3.6,31.5-8.1,45.4-14.3
	c5-2.2,15.4-4.5,13.7-10C336,565.6,329.3,556.8,327.2,552.7z"/>
<path class="st3" d="M866.9,622.9c-3.1-0.5-5.9-1.2-7.8-1.4c-14.5-1.6-29-2.8-43.5-4.2c-16.4-1.5-32.5-0.1-49,0.3
	c-18.2,0.5-6.2-27.5-2.3-36c5-11.1,8.3-22.8,12.2-34.2c2.1-6.1,2.1-13.4,3-19.7c0.9-6.6,1.8-13.3,2.7-19.9
	c2.1-17.5,24.3-25,40.5-27.3c8.9-1.2,18.1-1,27,0.7c10.2,1.5,26.2,3.4,25.6,16.4c-0.8,16.3,1.1,32.6,1.3,48.9
	c0.2,14.1,0.1,28.3,0.7,42.4c0.3,6.4-0.1,12.9,2.6,18.8c1.7,3.8,5.4,10.7,1.4,14.3C878.5,624.4,872.3,623.8,866.9,622.9z"/>
</svg>
