<?xml version="1.0" encoding="utf-8"?>
<!-- Generator: Adobe Illustrator 22.1.0, SVG Export Plug-In . SVG Version: 6.00 Build 0)  -->
<svg version="1.1" id="Layer_1" xmlns="http://www.w3.org/2000/svg" xmlns:xlink="http://www.w3.org/1999/xlink" x="0px" y="0px"
	 viewBox="0 0 245 102.3" style="enable-background:new 0 0 245 102.3;" xml:space="preserve">
<style type="text/css">
	.st0{stroke:#000000;stroke-miterlimit:10;}
	.st1{enable-background:new    ;}
</style>
<g id="Layer_2_1_">
	<g id="Layer_1-2">
		<path d="M107.7,29.8c-1.4,0-2.5-1.1-2.5-2.5v0v-0.4c-0.1-1.4,0.9-2.6,2.3-2.7c1.4-0.1,2.6,0.9,2.7,2.3c0,0.1,0,0.3,0,0.4v0.4
			C110.2,28.6,109.1,29.8,107.7,29.8z"/>
		<path d="M99.7,31.5c-1.3,0-2.4-1.1-2.4-2.4c0,0,0,0,0,0v-0.3c0-1.3,1.1-2.4,2.4-2.4s2.4,1.1,2.4,2.4l0,0v0.3
			C102.1,30.4,101.1,31.5,99.7,31.5L99.7,31.5z"/>
		<path d="M103.6,40.9c-2.6,0.1-5.1-1.2-6.5-3.4c-0.6-0.9-0.3-2,0.5-2.5s2-0.3,2.5,0.5c1.1,1.5,3,2.1,4.7,1.6c1.6-0.4,2.9-1.5,3-2.5
			c0.1-1,1-1.7,2-1.7c1,0.1,1.7,1,1.7,2c-0.2,2.7-2.5,5-5.7,5.8C105.1,40.8,104.3,40.9,103.6,40.9z"/>
		<path class="st0" d="M103.4,12.4c-0.2,0-0.4,0-0.6-0.1c-0.7-0.1-1.2-0.8-1.1-1.6c0.1-0.7,0.8-1.2,1.6-1.1c0.2,0.1,0.4,0,0.5-0.2
			c0.3-0.4,0.4-1,0.3-1.5c-0.3-0.5-0.7-0.9-1.1-1.2c-0.9-0.6-1.6-1.5-1.9-2.6c-0.2-0.7,0.3-1.5,1-1.7c0.7-0.2,1.5,0.3,1.7,1
			c0,0.1,0,0.1,0,0.2c0,0.2,0.5,0.6,0.9,0.9c0.9,0.6,1.6,1.5,2,2.6c0.4,1.4,0.1,3-0.8,4.1C105.2,12,104.3,12.4,103.4,12.4z"/>
		<path class="st0" d="M97.1,13h-0.1c-0.7-0.1-1.3-0.7-1.2-1.5c0,0,0,0,0,0c0-0.4,0-0.5-1.4-0.9c-1.2-0.2-2.3-0.9-3-1.9
			c-0.4-1-0.4-2.2,0.1-3.2c0.3-0.7,1.1-1.1,1.8-0.8s1.1,1.1,0.8,1.8l0,0c-0.3,0.8-0.2,1-0.2,1C93.8,7.6,94.7,7.9,95,8
			c1.3,0.4,3.6,1.1,3.3,3.8C98.3,12.5,97.7,13,97.1,13z"/>
		<path class="st0" d="M90.2,16H90c-0.7-0.1-1.2-0.8-1.1-1.6c0.1-0.5,0.1-1-0.1-1.4c-0.4-0.5-1.9-0.5-3-0.5c-1.7,0-3.4,0-4.5-1.1
			c-0.5-0.5-0.5-1.4,0-1.9c0.5-0.5,1.4-0.5,1.9,0c0,0,0,0,0.1,0.1c0.8,0.2,1.6,0.3,2.5,0.2c1.8,0,3.9,0,5.2,1.4c0.8,1,1,2.4,0.7,3.6
			C91.5,15.5,90.9,16,90.2,16z"/>
		<path d="M92.4,48.1c-2.7-1.5-4.9-3.7-6.4-6.4c-1.6-2.8-2.4-6-2.3-9.2c0-3.2,0.8-6.4,2.3-9.2c1.5-2.7,3.7-4.9,6.4-6.4
			c2.8-1.6,6-2.4,9.2-2.3c3.2-0.1,6.4,0.7,9.2,2.3c2.7,1.5,4.9,3.7,6.4,6.4c1.6,2.8,2.4,6,2.3,9.2c0,3.2-0.8,6.4-2.3,9.2
			c-1.5,2.7-3.7,4.9-6.4,6.4C105,51.2,98.1,51.2,92.4,48.1L92.4,48.1z M108.3,44.2c2-1.1,3.6-2.8,4.7-4.8c1.1-2.1,1.7-4.5,1.7-6.9
			c0-2.4-0.5-4.8-1.7-6.9c-1.1-2-2.7-3.7-4.6-4.8c-4.2-2.3-9.2-2.3-13.4,0c-2,1.1-3.6,2.8-4.7,4.8c-1.2,2.1-1.7,4.5-1.7,6.9
			c0,2.4,0.5,4.8,1.7,6.9c1.1,2,2.7,3.7,4.7,4.8C99.2,46.5,104.2,46.5,108.3,44.2L108.3,44.2z"/>
		<path class="st0" d="M162.1,25.1c-0.2,0-0.4,0-0.6,0c-0.7-0.1-1.3-0.8-1.2-1.6c0,0,0,0,0,0c0.1-0.7,0.8-1.3,1.5-1.2c0,0,0,0,0,0
			c0.2,0.1,0.4,0.1,0.6,0c0-0.1,0-0.3,0-0.4c-0.1-0.2-0.4-0.4-0.9-0.7c-1.1-0.5-1.8-1.5-1.9-2.7c0-0.8,0.4-1.6,0.9-2.2l0,0h-0.3
			c-0.5,0.1-1,0-1.5-0.1c-0.7-0.2-1.2-0.9-1.1-1.6c0-0.1,0-0.1,0.1-0.2c0.2-0.4,0.3-0.9,0.4-1.4c0-0.1,0-0.1,0-0.2
			c-0.4,0-0.9,0.1-1.3,0.2c-1.1,0.4-2.3,0.3-3.3-0.2c-0.7-0.5-1.2-1.2-1.4-2.1c-0.1-0.4-0.2-0.6-0.3-0.7c-0.9-0.5-1.6-0.3-3,0.6
			c-1.1,0.8-2.5,1.2-3.9,1.2c-1.5-0.1-2.8-1.3-2.9-2.9c0-0.3-0.1-0.6-0.3-0.9c-0.3-0.3-0.8-0.4-1.2-0.3c-0.3,0.1-0.3,0.1-0.6,0.6
			c-0.2,0.5-0.6,0.9-1,1.3c-1.6,1.4-3.4,0.6-4.6,0.1s-1.6-0.6-2-0.3c-0.6,0.5-0.9,2.3-1,2.9c0,0.4-0.1,0.8-0.3,1.1
			c-1.1,1.7-3,0.7-4.1,0.2c-0.4-0.2-0.8-0.4-1.2-0.5c-0.5,0.7-1.2,2.2,0.8,4.3c0.5,0.6,0.5,1.4-0.1,1.9s-1.4,0.5-1.9-0.1l0,0
			c-3.1-3.2-2.3-6.4-0.7-8.2c1.3-1.4,3.2-0.5,4.3,0.1c0.2,0.1,0.4,0.2,0.5,0.3c0.1-1.5,0.8-3,1.8-4.1c1.7-1.5,3.6-0.7,4.8-0.2
			c1.1,0.5,1.5,0.6,1.8,0.3c0.2-0.2,0.3-0.4,0.4-0.6c0.4-0.9,1.2-1.6,2.2-1.8c1.6-0.5,3.3,0.1,4.2,1.4c0.3,0.5,0.5,1.1,0.6,1.8
			c0,0.2,0.1,0.5,0.2,0.7c0.1,0,0.1,0,0.2,0c0.8-0.1,1.6-0.4,2.3-0.9c1.4-0.9,3.4-2.1,5.8-0.7c0.8,0.5,1.4,1.3,1.6,2.2
			c0.1,0.2,0.1,0.4,0.3,0.6c0.5,0,0.9,0,1.4-0.1c0.8-0.2,1.7-0.3,2.6-0.1c2,0.5,2.1,1.6,2,3c0,0.1,0,0.2,0,0.3
			c0.9-0.1,1.8,0.4,2.3,1.1c0.6,1.1,0.4,2.4-0.5,3.3c-0.1,0.1-0.2,0.3-0.3,0.5c0.1,0.1,0.4,0.3,0.6,0.4c1,0.5,1.7,1.3,2.1,2.3
			c0.4,1,0.2,2.2-0.5,3C163.9,24.8,163,25.1,162.1,25.1z"/>
		<path d="M139.6,39.8c-0.6,0-1.1,0-1.7-0.2c-3.7-0.7-6.3-3.3-6.5-6.6c-0.1-1,0.7-1.9,1.7-2c1-0.1,1.9,0.7,1.9,1.7
			c0.1,2,2,3,3.5,3.3c2.1,0.5,4.4-0.5,5.4-2.5c0.4-0.9,1.5-1.3,2.4-0.9s1.3,1.5,0.9,2.4l0,0C145.8,38.1,142.8,39.9,139.6,39.8z"/>
		<path d="M144,30.4c-1.4,0-2.5-1.1-2.5-2.4c0,0,0,0,0,0v-0.3c0.1-1.4,1.3-2.4,2.7-2.3c1.2,0.1,2.2,1.1,2.3,2.3v0.3
			C146.5,29.3,145.4,30.4,144,30.4z"/>
		<path d="M136.5,28.8c-1.4,0-2.5-1-2.5-2.4c0,0,0,0,0,0V26c0.1-1.4,1.3-2.4,2.7-2.3c1.2,0.1,2.2,1.1,2.3,2.3v0.3
			C139,27.7,137.9,28.8,136.5,28.8z"/>
		<path d="M132.8,48.1c-2.7-1.5-4.9-3.7-6.4-6.4c-1.6-2.8-2.4-6-2.3-9.2c0-3.2,0.8-6.4,2.3-9.2c1.5-2.7,3.7-4.9,6.4-6.4
			c2.8-1.6,6-2.4,9.2-2.3c3.2-0.1,6.4,0.7,9.1,2.3c2.7,1.5,4.9,3.7,6.4,6.4c1.6,2.8,2.4,6,2.4,9.2c0,3.2-0.8,6.4-2.3,9.2
			c-1.5,2.7-3.7,4.9-6.4,6.4C145.5,51.2,138.5,51.2,132.8,48.1L132.8,48.1z M148.7,44.2c2-1.1,3.6-2.8,4.6-4.8
			c1.1-2.1,1.7-4.5,1.6-6.9c0-2.4-0.5-4.8-1.7-6.9c-1.1-2-2.7-3.7-4.6-4.8c-4.2-2.3-9.2-2.3-13.4,0c-2,1.1-3.6,2.8-4.7,4.8
			c-1.2,2.1-1.7,4.5-1.7,6.9c0,2.4,0.5,4.8,1.7,6.9c1.1,2,2.7,3.7,4.7,4.8C139.5,46.5,144.5,46.5,148.7,44.2L148.7,44.2z"/>
		<g class="st1">
			<path d="M2.8,82.6c0-6,4.6-10.2,11.1-10.2c4.2,0,7.5,1.8,8.9,5.1l-4.5,2.4c-1.1-1.9-2.7-2.7-4.5-2.7c-2.9,0-5.2,2-5.2,5.5
				c0,3.5,2.3,5.5,5.2,5.5c1.8,0,3.4-0.8,4.5-2.7l4.5,2.4c-1.4,3.2-4.7,5-8.9,5C7.5,92.8,2.8,88.6,2.8,82.6z"/>
		</g>
		<g class="st1">
			<path d="M24,82.6c0-6,4.6-10.2,11-10.2c6.3,0,10.9,4.3,10.9,10.2c0,6-4.6,10.3-10.9,10.3C28.7,92.8,24,88.6,24,82.6z M40.1,82.6
				c0-3.4-2.2-5.5-5.1-5.5s-5.1,2.1-5.1,5.5c0,3.4,2.2,5.5,5.1,5.5S40.1,86,40.1,82.6z"/>
			<path d="M70.3,72.6v16.6c0,7.4-4,10.8-11.2,10.8c-3.8,0-7.4-0.9-9.8-2.7l2.3-4.1c1.7,1.4,4.5,2.3,7,2.3c4.1,0,5.8-1.9,5.8-5.4
				v-0.9c-1.5,1.7-3.7,2.5-6.3,2.5c-5.5,0-10-3.8-10-9.6s4.4-9.6,10-9.6c2.8,0,5.1,0.9,6.6,2.8v-2.6H70.3z M64.6,81.9
				c0-2.9-2.2-4.9-5.2-4.9s-5.3,2-5.3,4.9c0,2.9,2.2,4.9,5.3,4.9S64.6,84.9,64.6,81.9z"/>
			<path d="M96,81.1v11.4h-5.8V82c0-3.2-1.5-4.7-4-4.7c-2.8,0-4.8,1.7-4.8,5.4v9.8h-5.8V72.6h5.5v2.3c1.6-1.7,3.9-2.6,6.6-2.6
				C92.5,72.3,96,75.1,96,81.1z"/>
			<path d="M100.5,66.6c0-1.8,1.4-3.2,3.6-3.2c2.1,0,3.6,1.3,3.6,3.1c0,1.9-1.4,3.3-3.6,3.3C102,69.8,100.5,68.4,100.5,66.6z
				 M101.2,72.6h5.8v19.9h-5.8V72.6z"/>
		</g>
		<g class="st1">
			<path d="M131.3,73.7v8.7c0,1.9-0.5,3.7-1.4,5.3c-0.9,1.6-2.1,2.8-3.7,3.7s-3.3,1.3-5.2,1.3s-3.7-0.4-5.2-1.3
				c-1.6-0.9-2.8-2.1-3.7-3.7c-0.9-1.6-1.4-3.3-1.4-5.3s0.4-3.7,1.3-5.2s2.1-2.8,3.6-3.7c1.5-0.9,3.2-1.4,5.1-1.4
				c1.6,0,3.1,0.3,4.4,1s2.4,1.6,3.3,2.8V65.1c0-0.4,0.1-0.8,0.4-1c0.3-0.3,0.6-0.4,1-0.4c0.4,0,0.8,0.1,1,0.4
				c0.3,0.3,0.4,0.6,0.4,1v8.3C131.3,73.4,131.3,73.5,131.3,73.7z M124.8,89.1c1.1-0.7,2-1.6,2.7-2.8s1-2.5,1-3.9c0-0.4,0-0.7,0-0.9
				c0,0,0-0.1,0-0.2c-0.2-1.9-1.1-3.5-2.4-4.7c-1.4-1.2-3-1.8-5-1.8c-1.4,0-2.7,0.3-3.8,1s-2,1.6-2.7,2.8c-0.7,1.2-1,2.5-1,3.9
				s0.3,2.8,1,3.9c0.7,1.2,1.6,2.1,2.7,2.8c1.1,0.7,2.4,1,3.8,1C122.4,90.1,123.7,89.8,124.8,89.1z"/>
			<path d="M141.9,91.4c-1.6-0.9-2.8-2.1-3.7-3.7c-0.9-1.6-1.3-3.3-1.3-5.3s0.4-3.7,1.3-5.3c0.9-1.6,2.1-2.8,3.7-3.7
				c1.6-0.9,3.3-1.3,5.3-1.3s3.7,0.4,5.3,1.3c1.6,0.9,2.8,2.1,3.7,3.7c0.9,1.6,1.4,3.3,1.4,5.3s-0.4,3.7-1.3,5.3s-2.1,2.8-3.7,3.7
				c-1.6,0.9-3.3,1.3-5.3,1.3S143.4,92.3,141.9,91.4z M151,89.1c1.1-0.7,2-1.6,2.7-2.8c0.6-1.2,1-2.5,1-3.9c0-1.5-0.3-2.8-1-4
				c-0.6-1.2-1.5-2.1-2.7-2.8c-1.1-0.7-2.4-1-3.8-1c-1.4,0-2.7,0.3-3.8,1c-1.1,0.7-2,1.6-2.7,2.8c-0.7,1.2-1,2.5-1,4
				c0,1.5,0.3,2.8,1,3.9c0.7,1.2,1.6,2.1,2.7,2.8c1.1,0.7,2.4,1,3.8,1C148.6,90.1,149.9,89.8,151,89.1z"/>
			<path d="M166.9,91.4c-1.6-0.9-2.8-2.1-3.7-3.7s-1.3-3.3-1.3-5.3s0.4-3.7,1.3-5.3c0.9-1.6,2.1-2.8,3.7-3.7
				c1.6-0.9,3.3-1.3,5.3-1.3c1.9,0,3.7,0.4,5.3,1.3c1.6,0.9,2.8,2.1,3.7,3.7c0.9,1.6,1.4,3.3,1.4,5.3s-0.4,3.7-1.3,5.3
				s-2.1,2.8-3.7,3.7c-1.6,0.9-3.3,1.3-5.3,1.3C170.2,92.7,168.5,92.3,166.9,91.4z M176,89.1c1.1-0.7,2-1.6,2.7-2.8s1-2.5,1-3.9
				c0-1.5-0.3-2.8-1-4s-1.5-2.1-2.7-2.8s-2.4-1-3.8-1c-1.4,0-2.7,0.3-3.8,1c-1.1,0.7-2,1.6-2.7,2.8c-0.7,1.2-1,2.5-1,4
				c0,1.5,0.3,2.8,1,3.9c0.7,1.2,1.6,2.1,2.7,2.8c1.1,0.7,2.4,1,3.8,1C173.6,90.1,174.9,89.8,176,89.1z"/>
			<path d="M207.5,73.7v8.7c0,1.9-0.5,3.7-1.4,5.3c-0.9,1.6-2.1,2.8-3.7,3.7s-3.3,1.3-5.2,1.3s-3.7-0.4-5.2-1.3s-2.8-2.1-3.7-3.7
				c-0.9-1.6-1.4-3.3-1.4-5.3s0.4-3.7,1.3-5.2c0.9-1.6,2.1-2.8,3.6-3.7c1.5-0.9,3.2-1.4,5.1-1.4c1.6,0,3.1,0.3,4.4,1
				s2.4,1.6,3.3,2.8V65.1c0-0.4,0.1-0.8,0.4-1c0.3-0.3,0.6-0.4,1-0.4c0.4,0,0.8,0.1,1,0.4c0.3,0.3,0.4,0.6,0.4,1v8.3
				C207.5,73.4,207.5,73.5,207.5,73.7z M201,89.1c1.1-0.7,2-1.6,2.7-2.8s1-2.5,1-3.9c0-0.4,0-0.7,0-0.9c0,0,0-0.1,0-0.2
				c-0.2-1.9-1.1-3.5-2.4-4.7c-1.4-1.2-3-1.8-5-1.8c-1.4,0-2.7,0.3-3.8,1c-1.1,0.7-2,1.6-2.7,2.8c-0.7,1.2-1,2.5-1,3.9
				s0.3,2.8,1,3.9c0.7,1.2,1.6,2.1,2.7,2.8c1.1,0.7,2.4,1,3.8,1S199.9,89.8,201,89.1z"/>
		</g>
		<g class="st1">
			<path d="M214.9,90.7c-1-1.2-1.4-2.7-1.4-4.6V65c0-0.4,0.1-0.8,0.4-1c0.3-0.3,0.6-0.4,1-0.4c0.4,0,0.8,0.1,1,0.4
				c0.3,0.3,0.4,0.6,0.4,1v21.1c0,1.1,0.2,1.9,0.6,2.6s1,1,1.6,1h0.9c0.4,0,0.7,0.1,0.9,0.4c0.2,0.3,0.3,0.6,0.3,1
				c0,0.4-0.2,0.8-0.5,1c-0.3,0.3-0.7,0.4-1.2,0.4h-0.5C217,92.5,215.8,91.9,214.9,90.7z"/>
		</g>
		<g class="st1">
			<path d="M237.4,73.4c1.4,0.9,2.5,2,3.3,3.5c0.8,1.5,1.2,3.2,1.2,5.1c0,0.4-0.1,0.7-0.4,0.9c-0.2,0.2-0.6,0.4-1,0.4h-14.9
				c0.2,2,1,3.7,2.4,4.9c1.4,1.3,3.1,1.9,5.2,1.9c0.9,0,1.8-0.2,2.7-0.5c0.9-0.3,1.6-0.7,2.2-1.2c0.3-0.2,0.7-0.4,1-0.4
				c0.3,0,0.5,0.1,0.8,0.3c0.3,0.3,0.5,0.6,0.5,1c0,0.3-0.1,0.6-0.4,0.9c-0.8,0.7-1.9,1.3-3.1,1.7c-1.3,0.5-2.5,0.7-3.6,0.7
				c-2,0-3.7-0.4-5.3-1.3c-1.6-0.9-2.8-2.1-3.6-3.7c-0.9-1.6-1.3-3.3-1.3-5.3c0-2,0.4-3.8,1.2-5.3s2-2.8,3.4-3.7
				c1.5-0.9,3.1-1.3,5-1.3C234.4,72.1,236,72.5,237.4,73.4z M227.9,76.4c-1.2,1.2-2,2.7-2.3,4.6h13.5c-0.2-1.9-0.9-3.4-2.1-4.6
				c-1.2-1.2-2.7-1.7-4.6-1.7C230.7,74.6,229.1,75.2,227.9,76.4z"/>
		</g>
	</g>
</g>
</svg>
