<?xml version="1.0" encoding="utf-8"?>
<!-- Generator: Adobe Illustrator 23.0.0, SVG Export Plug-In . SVG Version: 6.00 Build 0)  -->
<svg version="1.1" id="Layer_1" xmlns="http://www.w3.org/2000/svg" xmlns:xlink="http://www.w3.org/1999/xlink" x="0px" y="0px"
	 viewBox="0 0 124 23" style="enable-background:new 0 0 124 23;" xml:space="preserve">
<style type="text/css">
	.st0{fill:#F26524;}
	.st1{fill:#2F4858;}
	.st2{fill:#FBA919;}
</style>
<path class="st0" d="M1,12c0-3.2,2.4-5.5,5.9-5.5c2.1,0,3.8,0.9,4.6,2.5l-2,1.1c-0.6-1-1.6-1.5-2.7-1.5c-1.9,0-3.3,1.3-3.3,3.4
	s1.4,3.4,3.3,3.4c1.1,0,2-0.5,2.7-1.5l1.9,1.1c-0.8,1.6-2.5,2.5-4.6,2.5C3.4,17.6,1,15.3,1,12z"/>
<path class="st0" d="M12.4,11.9c0-3.2,2.4-5.5,5.8-5.5S24,8.7,24,11.9s-2.4,5.6-5.8,5.6C14.9,17.5,12.4,15.2,12.4,11.9z M21.4,11.9
	c0-2.1-1.4-3.4-3.2-3.4c-1.8,0-3.2,1.3-3.2,3.4s1.4,3.4,3.2,3.4C20,15.3,21.4,14,21.4,11.9z"/>
<path class="st0" d="M36.8,6.6v9.2c0,3.9-2,5.7-5.8,5.7c-2,0-4-0.5-5.3-1.5l1.1-1.9c1,0.8,2.5,1.3,4,1.3c2.4,0,3.4-1.1,3.4-3.3v-0.6
	c-0.9,1-2.2,1.4-3.6,1.4c-3.1,0-5.5-2.1-5.5-5.3s2.4-5.2,5.5-5.2c1.5,0,2.9,0.5,3.8,1.6V6.6H36.8z M34.3,11.7c0-1.8-1.4-3.1-3.3-3.1
	c-1.9,0-3.3,1.2-3.3,3.1c0,1.8,1.4,3.1,3.3,3.1C32.9,14.8,34.3,13.6,34.3,11.7z"/>
<path class="st0" d="M49.8,11.3v6.2h-2.5v-5.9c0-1.9-1-2.9-2.6-2.9c-1.8,0-3,1.1-3,3.3v5.5h-2.5V6.7h2.4v1.4c0.8-1,2.2-1.5,3.7-1.5
	C47.9,6.6,49.8,8.1,49.8,11.3z"/>
<path class="st0" d="M52,6.7h2.5v10.8H52V6.7z"/>
<path class="st1" d="M78.3,5.9c-0.1,0-0.2,0-0.3,0c-0.2,0-0.4-0.2-0.4-0.5C77.6,5.2,77.8,5,78,5c0.3,0,0.4,0,0.4,0
	c0-0.1,0-0.5-0.1-0.7c-0.1-0.4-0.2-0.8-0.1-1.2c0.1-0.2,0.3-0.4,0.5-0.3c0.3,0,0.5,0.2,0.4,0.5c-0.1,0.2,0,0.5,0.1,0.8
	c0.1,0.5,0.2,1.1-0.1,1.5C78.9,5.8,78.6,5.9,78.3,5.9z"/>
<path class="st1" d="M77.3,10.9c-0.4,0-0.8-0.4-0.8-0.8V10c0-0.4,0.4-0.8,0.8-0.8s0.8,0.4,0.8,0.8v0.1
	C78.1,10.6,77.8,10.9,77.3,10.9z"/>
<path class="st1" d="M74.8,11.5c-0.4,0-0.8-0.3-0.8-0.8v-0.1c0-0.4,0.3-0.8,0.8-0.8c0.4,0,0.8,0.3,0.8,0.8v0.1
	C75.6,11.1,75.2,11.5,74.8,11.5z"/>
<path class="st1" d="M76,14.4c-0.8,0-1.6-0.4-2-1.1c-0.2-0.3-0.1-0.6,0.2-0.8c0.3-0.2,0.6-0.1,0.8,0.2c0.4,0.6,1,0.6,1.5,0.5
	s0.9-0.5,0.9-0.8s0.3-0.6,0.6-0.5c0.3,0,0.6,0.3,0.5,0.6c-0.1,0.8-0.8,1.6-1.8,1.8C76.5,14.4,76.2,14.4,76,14.4z"/>
<path class="st1" d="M75.9,5.5c-0.1,0-0.1,0-0.2,0c-0.2,0-0.4-0.3-0.4-0.5s0.3-0.4,0.5-0.4c0.1,0,0.1,0,0.2,0
	c0.1-0.1,0.1-0.3,0.1-0.5c0-0.1-0.2-0.3-0.4-0.4c-0.2-0.2-0.5-0.4-0.6-0.8c0-0.2,0.1-0.5,0.3-0.5c0.2,0,0.5,0.1,0.5,0.3
	c0,0.1,0.2,0.2,0.3,0.3c0.2,0.2,0.5,0.4,0.6,0.8c0.1,0.5,0,1-0.3,1.3C76.5,5.3,76.2,5.5,75.9,5.5z"/>
<path class="st1" d="M74,5.7C73.9,5.7,73.9,5.7,74,5.7c-0.3,0-0.5-0.2-0.4-0.5c0-0.1,0-0.2-0.4-0.3c-0.3-0.1-0.7-0.2-0.9-0.6
	c-0.1-0.3-0.1-0.6,0-1c0.1-0.2,0.3-0.3,0.6-0.2c0.1,0,0.2,0.3,0.1,0.5s-0.1,0.3-0.1,0.3C73,4,73.2,4,73.3,4.1c0.4,0.1,1.1,0.3,1,1.2
	C74.4,5.5,74.2,5.7,74,5.7z"/>
<path class="st1" d="M71.8,6.6L71.8,6.6c-0.3,0-0.5-0.3-0.4-0.5c0-0.2,0-0.4,0-0.4c-0.1-0.1-0.6-0.1-1-0.1c-0.5,0-1.1,0-1.4-0.3
	c-0.2-0.2-0.2-0.4,0-0.6s0.4-0.2,0.6,0c0.1,0.1,0.5,0.1,0.8,0.1c0.6,0,1.2,0,1.6,0.4c0.2,0.3,0.3,0.7,0.2,1.1
	C72.2,6.4,72,6.6,71.8,6.6z"/>
<path class="st1" d="M94.1,9.2c-0.1,0-0.1,0-0.2,0c-0.2,0-0.4-0.3-0.4-0.5s0.3-0.4,0.5-0.4c0.1,0,0.2,0,0.2,0s0,0,0-0.1
	S94.1,8.1,93.9,8c-0.2-0.1-0.6-0.4-0.6-0.8c0-0.3,0.2-0.5,0.3-0.7l0,0h-0.1c-0.2,0-0.3,0-0.5,0c-0.1,0-0.2-0.1-0.3-0.2
	c-0.1-0.1-0.1-0.2,0-0.3c0.1-0.1,0.1-0.3,0.1-0.4c0,0,0,0,0-0.1c-0.1,0-0.3,0-0.4,0.1c-0.3,0.1-0.7,0.1-1-0.1
	C91.1,5.1,91,4.8,91,4.6c0-0.1-0.1-0.2-0.1-0.2c-0.3-0.2-0.5-0.1-1,0.2C89.6,4.8,89.2,5,88.7,5c-0.7,0-0.9-0.6-0.9-0.9
	c0-0.1,0-0.2-0.1-0.3s-0.2-0.1-0.4-0.1c-0.1,0-0.1,0-0.2,0.2c0,0.1-0.1,0.3-0.3,0.4c-0.5,0.4-1.1,0.2-1.5,0s-0.5-0.2-0.6-0.1
	c-0.2,0.2-0.3,0.7-0.3,0.9c0,0.2,0,0.3-0.1,0.3c-0.3,0.5-1,0.2-1.3,0.1c-0.1-0.1-0.3-0.1-0.4-0.2c-0.2,0.2-0.4,0.7,0.2,1.4
	c0.2,0.2,0.2,0.4,0,0.6s-0.4,0.2-0.6,0c-1-1-0.7-2-0.2-2.6c0.4-0.5,1-0.2,1.4,0c0,0,0.1,0.1,0.2,0.1c0.1-0.4,0.2-1,0.6-1.3
	c0.5-0.5,1.1-0.2,1.5,0c0.3,0.1,0.5,0.2,0.6,0.1c0,0,0.1-0.1,0.1-0.2c0.1-0.2,0.3-0.5,0.7-0.6c0.5-0.1,1.1,0.1,1.3,0.5
	c0.1,0.2,0.2,0.4,0.2,0.6c0,0.1,0,0.2,0.1,0.2c0,0,0,0,0.1,0c0.2,0,0.4-0.1,0.7-0.3c0.5-0.3,1.1-0.7,1.8-0.2
	c0.3,0.2,0.4,0.5,0.5,0.7c0,0.1,0.1,0.2,0.1,0.2c0.1,0,0.3,0,0.4,0c0.3,0,0.5-0.1,0.8,0c0.6,0.2,0.7,0.5,0.6,0.9v0.1
	c0.3,0,0.5,0.1,0.7,0.4c0.3,0.5,0,0.8-0.2,1L94.1,7c0,0,0.1,0.1,0.2,0.1c0.2,0.1,0.5,0.3,0.7,0.7c0.1,0.4,0.1,0.7-0.2,0.9
	C94.7,9,94.4,9.2,94.1,9.2z"/>
<path class="st1" d="M87.4,14.1c-0.2,0-0.4,0-0.5,0c-1.2-0.2-2-1-2-2.1c0-0.3,0.2-0.6,0.5-0.6s0.6,0.2,0.6,0.5c0,0.6,0.6,0.9,1.1,1
	c0.6,0.1,1.3,0,1.7-0.8c0.1-0.3,0.5-0.4,0.8-0.3c0.3,0.1,0.4,0.5,0.3,0.8C89.3,13.7,88.3,14.1,87.4,14.1z"/>
<path class="st1" d="M88.7,11.1c-0.4,0-0.8-0.3-0.8-0.8v-0.1c0-0.4,0.4-0.8,0.8-0.8s0.8,0.3,0.8,0.8v0.1
	C89.5,10.8,89.2,11.1,88.7,11.1z"/>
<path class="st1" d="M86.4,10.6c-0.4,0-0.8-0.3-0.8-0.8V9.7C85.6,9.3,86,9,86.4,9s0.8,0.3,0.8,0.8v0.1
	C87.2,10.3,86.8,10.6,86.4,10.6z"/>
<path class="st2" d="M120.8,7c0.8,0.5,1.4,1.1,1.8,1.9s0.6,1.8,0.6,2.8c0,0.2-0.1,0.4-0.2,0.5s-0.3,0.2-0.5,0.2h-8.2
	c0.1,1.1,0.5,2,1.3,2.7s1.7,1,2.8,1c0.5,0,1-0.1,1.5-0.3s0.9-0.4,1.2-0.6c0.2-0.1,0.4-0.2,0.5-0.2s0.3,0.1,0.4,0.2
	c0.2,0.2,0.3,0.3,0.3,0.5s-0.1,0.3-0.2,0.5c-0.4,0.4-1,0.7-1.7,0.9c-0.7,0.3-1.4,0.4-2,0.4c-1.1,0-2-0.2-2.9-0.7s-1.5-1.1-2-2
	s-0.7-1.8-0.7-2.9s0.2-2.1,0.7-2.9c0.5-0.9,1.1-1.5,1.9-2s1.7-0.7,2.7-0.7C119.2,6.3,120.1,6.5,120.8,7z M115.6,8.6
	c-0.7,0.6-1.1,1.5-1.2,2.5h7.4c-0.1-1-0.5-1.9-1.1-2.5s-1.5-1-2.5-1C117.2,7.7,116.3,8,115.6,8.6z"/>
<path class="st2" d="M75.4,6.3c-3.1,0-5.6,2.5-5.6,5.6c0,3.1,2.5,5.6,5.6,5.6S81,15,81,11.9C81,8.8,78.5,6.3,75.4,6.3z M75.4,16.1
	c-2.3,0-4.2-1.9-4.2-4.2c0-2.3,1.9-4.2,4.2-4.2s4.2,1.9,4.2,4.2C79.6,14.2,77.7,16.1,75.4,16.1z"/>
<path class="st2" d="M88.1,6.3c-3.1,0-5.6,2.5-5.6,5.6c0,3.1,2.5,5.6,5.6,5.6s5.6-2.5,5.6-5.6C93.7,8.8,91.2,6.3,88.1,6.3z
	 M88.1,16.1c-2.3,0-4.2-1.9-4.2-4.2c0-2.3,1.9-4.2,4.2-4.2s4.2,1.9,4.2,4.2C92.3,14.2,90.4,16.1,88.1,16.1z"/>
<circle class="st0" cx="53.3" cy="3.4" r="1.6"/>
<path class="st2" d="M106.7,11.7V7.9V2.6c0-0.4-0.4-0.8-0.8-0.8s-0.8,0.4-0.8,0.8V8c-1-1-2.4-1.7-4-1.7c-3.1,0-5.6,2.5-5.6,5.6
	c0,3.1,2.5,5.6,5.6,5.6s5.6-2.5,5.6-5.6C106.7,11.8,106.7,11.8,106.7,11.7z M101.1,16.1c-2.3,0-4.2-1.9-4.2-4.2
	c0-2.3,1.9-4.2,4.2-4.2s4.2,1.9,4.2,4.2C105.3,14.2,103.4,16.1,101.1,16.1z"/>
<path class="st2" d="M67.9,11.7V7.9V2.6c0,0,0,0,0-0.1c0,0,0,0,0-0.1c0-0.4-0.4-0.8-0.8-0.8s-0.8,0.4-0.8,0.8c0,0,0,0,0,0.1
	c0,0,0,0,0,0.1V8c-1-1-2.4-1.7-4-1.7c-3.1,0-5.6,2.5-5.6,5.6c0,3.1,2.5,5.6,5.6,5.6s5.6-2.5,5.6-5.6C67.9,11.8,67.9,11.8,67.9,11.7z
	 M62.3,16.1c-2.3,0-4.2-1.9-4.2-4.2c0-2.3,1.9-4.2,4.2-4.2s4.2,1.9,4.2,4.2C66.5,14.2,64.6,16.1,62.3,16.1z"/>
<path class="st2" d="M112.5,16.1c-0.1-0.1-0.3-0.2-0.5-0.2h-0.5c-0.2,0-0.4,0-0.6-0.2c-0.2-0.1-0.3-0.4-0.4-0.5
	c-0.1-0.1-0.1-0.2-0.1-0.3c-0.1-0.3-0.1-0.6-0.1-0.9c0,0,0-11.6,0-11.6c0,0,0,0,0,0c0-0.4-0.3-0.7-0.7-0.7c-0.4,0-0.7,0.3-0.7,0.7
	c0,0,0,0,0,0c0,0,0,11.6,0,11.6c0,1,0.3,1.8,0.8,2.5c0.5,0.6,1.2,1,1.9,1h0.3c0.3,0,0.5-0.1,0.7-0.2c0.2-0.2,0.3-0.4,0.3-0.6
	C112.7,16.4,112.6,16.2,112.5,16.1z"/>
</svg>
