<?xml version="1.0" encoding="utf-8"?>
<!-- Generator: Adobe Illustrator 23.0.0, SVG Export Plug-In . SVG Version: 6.00 Build 0)  -->
<svg version="1.1" id="Layer_2" xmlns="http://www.w3.org/2000/svg" xmlns:xlink="http://www.w3.org/1999/xlink" x="0px" y="0px"
	 viewBox="0 0 124 23" style="enable-background:new 0 0 124 23;" xml:space="preserve">
<style type="text/css">
	.st0{fill:#F26524;}
	.st1{fill:#FBA919;}
</style>
<g>
	<path class="st0" d="M2,11.9c0-3.2,2.4-5.4,5.8-5.4c2.1,0,3.7,0.9,4.5,2.5l-2,1.1c-0.6-1-1.6-1.5-2.7-1.5c-1.9,0-3.2,1.3-3.2,3.4
		s1.4,3.4,3.2,3.4c1.1,0,2-0.5,2.7-1.5l1.9,1.1c-0.8,1.6-2.5,2.5-4.5,2.5C4.4,17.5,2,15.2,2,11.9z"/>
	<path class="st0" d="M13.2,11.8c0-3.2,2.4-5.4,5.7-5.4s5.7,2.3,5.7,5.4s-2.4,5.5-5.7,5.5C15.6,17.4,13.2,15.1,13.2,11.8z M22,11.8
		c0-2.1-1.4-3.4-3.1-3.4c-1.8,0-3.1,1.3-3.1,3.4s1.4,3.4,3.1,3.4C20.7,15.2,22,13.9,22,11.8z"/>
	<path class="st0" d="M37.2,6.6v9.1c0,3.9-2,5.6-5.7,5.6c-2,0-3.9-0.5-5.2-1.5l1.1-1.9c1,0.8,2.5,1.3,3.9,1.3c2.4,0,3.3-1.1,3.3-3.3
		v-0.6c-0.9,1-2.2,1.4-3.5,1.4c-3,0-5.4-2.1-5.4-5.2s2.4-5.1,5.4-5.1c1.5,0,2.8,0.5,3.7,1.6V6.6H37.2z M34.7,11.6
		c0-1.8-1.4-3.1-3.2-3.1c-1.9,0-3.2,1.2-3.2,3.1c0,1.8,1.4,3.1,3.2,3.1C33.3,14.7,34.7,13.5,34.7,11.6z"/>
	<path class="st0" d="M49.9,11.2v6.1h-2.5v-5.8c0-1.9-1-2.9-2.6-2.9c-1.8,0-2.9,1.1-2.9,3.3v5.4h-2.5V6.7h2.4v1.4
		c0.8-1,2.2-1.5,3.6-1.5C48.1,6.6,49.9,8.1,49.9,11.2z"/>
	<path class="st0" d="M52.1,6.7h2.5v10.7h-2.5V6.7z"/>
	<path class="st1" d="M119.6,7c0.8,0.5,1.4,1.1,1.8,1.9s0.6,1.8,0.6,2.8c0,0.2-0.1,0.4-0.2,0.5s-0.3,0.2-0.5,0.2h-8.1
		c0.1,1.1,0.5,2,1.3,2.7c0.8,0.7,1.7,1,2.7,1c0.5,0,1-0.1,1.5-0.3s0.9-0.4,1.2-0.6c0.2-0.1,0.4-0.2,0.5-0.2s0.3,0.1,0.4,0.2
		c0.2,0.2,0.3,0.3,0.3,0.5s-0.1,0.3-0.2,0.5c-0.4,0.4-1,0.7-1.7,0.9c-0.7,0.3-1.4,0.4-2,0.4c-1.1,0-2-0.2-2.8-0.7s-1.5-1.1-2-2
		s-0.7-1.8-0.7-2.9s0.2-2.1,0.7-2.9c0.5-0.9,1.1-1.5,1.9-2s1.7-0.7,2.7-0.7C118.1,6.3,119,6.5,119.6,7z M114.5,8.6
		c-0.7,0.6-1.1,1.5-1.2,2.5h7.3c-0.1-1-0.5-1.9-1.1-2.5s-1.5-1-2.5-1C116.1,7.7,115.2,8,114.5,8.6z"/>
	<path class="st1" d="M75.1,6.3c-3,0-5.5,2.5-5.5,5.5c0,3.1,2.5,5.5,5.5,5.5c3,0,5.5-2.5,5.5-5.5C80.6,8.8,78.1,6.3,75.1,6.3z
		 M75.1,16c-2.3,0-4.1-1.9-4.1-4.2c0-2.3,1.8-4.2,4.1-4.2c2.3,0,4.1,1.9,4.1,4.2C79.2,14.1,77.3,16,75.1,16z"/>
	<path class="st1" d="M87.5,6.3c-3,0-5.5,2.5-5.5,5.5c0,3.1,2.5,5.5,5.5,5.5c3,0,5.5-2.5,5.5-5.5C93,8.8,90.6,6.3,87.5,6.3z
		 M87.5,16c-2.3,0-4.1-1.9-4.1-4.2c0-2.3,1.8-4.2,4.1-4.2c2.3,0,4.1,1.9,4.1,4.2C91.7,14.1,89.8,16,87.5,16z"/>
	<ellipse class="st0" cx="53.4" cy="3.4" rx="1.6" ry="1.6"/>
	<path class="st1" d="M105.8,11.6V7.9V2.6c0-0.4-0.4-0.8-0.8-0.8c-0.4,0-0.8,0.4-0.8,0.8v5.3c-1-1-2.4-1.7-3.9-1.7
		c-3,0-5.5,2.5-5.5,5.5c0,3.1,2.5,5.5,5.5,5.5s5.5-2.5,5.5-5.5C105.8,11.8,105.8,11.7,105.8,11.6z M100.3,16c-2.3,0-4.1-1.9-4.1-4.2
		c0-2.3,1.8-4.2,4.1-4.2s4.1,1.9,4.1,4.2C104.4,14.1,102.6,16,100.3,16z"/>
	<path class="st1" d="M67.7,11.6V7.9V2.6c0,0,0,0,0-0.1c0,0,0,0,0-0.1c0-0.4-0.4-0.8-0.8-0.8s-0.8,0.4-0.8,0.8c0,0,0,0,0,0.1
		c0,0,0,0,0,0.1v5.3c-1-1-2.4-1.7-3.9-1.7c-3,0-5.5,2.5-5.5,5.5c0,3.1,2.5,5.5,5.5,5.5c3,0,5.5-2.5,5.5-5.5
		C67.7,11.8,67.7,11.7,67.7,11.6z M62.2,16c-2.3,0-4.1-1.9-4.1-4.2c0-2.3,1.8-4.2,4.1-4.2s4.1,1.9,4.1,4.2
		C66.3,14.1,64.5,16,62.2,16z"/>
	<path class="st1" d="M111.5,16c-0.1-0.1-0.3-0.2-0.5-0.2h-0.5c-0.2,0-0.4,0-0.6-0.2c-0.2-0.1-0.3-0.4-0.4-0.5
		c-0.1-0.1-0.1-0.2-0.1-0.3c-0.1-0.3-0.1-0.6-0.1-0.9c0,0,0-11.5,0-11.5c0,0,0,0,0,0c0-0.4-0.3-0.7-0.7-0.7c-0.4,0-0.7,0.3-0.7,0.7
		c0,0,0,0,0,0c0,0,0,11.5,0,11.5c0,1,0.3,1.8,0.8,2.5c0.5,0.6,1.2,1,1.9,1h0.3c0.3,0,0.5-0.1,0.7-0.2c0.2-0.2,0.3-0.4,0.3-0.6
		C111.7,16.3,111.6,16.1,111.5,16z"/>
</g>
</svg>
