<?xml version="1.0" encoding="utf-8"?>
<!-- Generator: Adobe Illustrator 22.1.0, SVG Export Plug-In . SVG Version: 6.00 Build 0)  -->
<svg version="1.1" id="Layer_1" xmlns="http://www.w3.org/2000/svg" xmlns:xlink="http://www.w3.org/1999/xlink" x="0px" y="0px"
	 viewBox="0 0 332 202.8" style="enable-background:new 0 0 332 202.8;" xml:space="preserve">
<style type="text/css">
	.st0{fill:#2F4858;}
	.st1{fill:#FBA919;}
	.st2{enable-background:new    ;}
	.st3{fill:none;stroke:#2F4858;stroke-width:3;stroke-linecap:round;stroke-miterlimit:10;}
	.st4{fill:none;stroke:#2F4858;stroke-width:3;stroke-linecap:round;stroke-miterlimit:10;stroke-dasharray:4.96,9.92;}
	.st5{fill:none;}
</style>
<g id="Layer_2_1_">
	<g id="Layer_2-2">
		<path class="st0" d="M88.5,43.8c-2.2,0-4-1.8-4-4v-0.6c0-2.2,1.8-4,4-4c2.2,0,4,1.8,4,4v0.6C92.6,42,90.8,43.8,88.5,43.8
			C88.5,43.8,88.5,43.8,88.5,43.8z"/>
		<path class="st0" d="M75.7,46.6c-2.1,0-3.9-1.7-3.9-3.8c0,0,0,0,0,0v-0.5c0.1-2.1,1.9-3.8,4.1-3.7c2,0.1,3.6,1.7,3.7,3.7v0.5
			C79.5,44.8,77.8,46.6,75.7,46.6z"/>
		<path class="st0" d="M81.5,15.8c-0.3,0-0.7,0-1-0.1c-1.2-0.2-2-1.3-1.8-2.5s1.3-2,2.5-1.8c0.3,0.1,0.6,0,0.8-0.3
			c0.5-0.7,0.7-1.6,0.4-2.4c-0.4-0.8-1.1-1.5-1.8-2c-1.2-1-2.7-2.1-3-4.1c-0.2-1.2,0.6-2.3,1.7-2.6s2.3,0.6,2.6,1.7c0,0,0,0,0,0.1
			c0.1,0.3,0.8,1,1.4,1.5c1.5,1,2.7,2.5,3.3,4.2c0.7,2.3,0.2,4.8-1.3,6.6C84.4,15.2,83,15.8,81.5,15.8z"/>
		<path class="st0" d="M71.3,16.9h-0.2c-1.2-0.1-2.1-1.2-2-2.4c0,0,0,0,0,0c0.1-0.6,0.1-0.8-2.2-1.5c-1.7-0.5-3.8-1.1-4.7-3.1
			c-0.7-1.6-0.6-3.5,0.1-5.1C62.7,3.6,64,3,65.1,3.5c1.1,0.4,1.7,1.7,1.3,2.8c-0.5,1.2-0.3,1.6-0.3,1.6c0.1,0.3,1.4,0.7,2.1,0.9
			c2,0.6,5.7,1.7,5.3,6.1C73.4,16,72.5,16.9,71.3,16.9z"/>
		<path class="st0" d="M60.3,21.6H60c-1.2-0.2-2-1.3-1.8-2.5c0.2-0.7,0.2-1.5-0.2-2.2c-0.6-0.8-3.1-0.8-4.9-0.7
			c-2.7,0-5.5,0-7.2-1.8c-0.9-0.8-0.9-2.2-0.1-3.1c0.8-0.9,2.2-0.9,3.1-0.1c0.1,0.1,0.1,0.1,0.2,0.2c0.4,0.4,2.7,0.4,4,0.4
			c3,0,6.3,0,8.3,2.3c1.2,1.4,1.6,3.3,1.2,5.8C62.4,20.9,61.4,21.7,60.3,21.6z"/>
		<path class="st1" d="M64,73.3c-4.3-2.4-7.9-6-10.3-10.3c-2.5-4.5-3.8-9.6-3.7-14.8c-0.1-5.2,1.2-10.3,3.7-14.8
			c2.4-4.3,6-7.9,10.3-10.3c4.5-2.5,9.6-3.8,14.7-3.7c5.1-0.1,10.2,1.2,14.7,3.7c4.3,2.5,7.9,6,10.3,10.4c2.5,4.5,3.9,9.6,3.8,14.8
			c0.1,5.1-1.2,10.2-3.7,14.7c-2.4,4.3-6,7.9-10.3,10.3c-4.5,2.5-9.6,3.8-14.8,3.7C73.6,77.1,68.5,75.8,64,73.3z M89.5,67
			c3.1-1.8,5.7-4.5,7.4-7.7c1.8-3.4,2.7-7.2,2.7-11c0.1-3.9-0.9-7.7-2.7-11.1c-1.7-3.2-4.3-5.9-7.4-7.7c-6.7-3.7-14.8-3.7-21.5,0
			c-3.2,1.8-5.8,4.5-7.6,7.7c-1.9,3.4-2.8,7.2-2.7,11.1c-0.1,3.8,0.9,7.6,2.7,11c1.8,3.2,4.4,5.9,7.6,7.7
			C74.7,70.7,82.8,70.7,89.5,67L89.5,67z"/>
		<path class="st0" d="M307.2,117.7c-0.3,0-0.7,0-1-0.1c-1.2-0.1-2.1-1.2-1.9-2.4s1.2-2.1,2.4-1.9c0.1,0,0.1,0,0.2,0
			c0.3,0.1,0.6,0.1,0.9-0.1c0-0.2,0-0.4-0.1-0.6c-0.1-0.4-0.6-0.7-1.4-1.2c-1.2-0.8-3.1-1.9-3.1-4.3c0.1-1.3,0.6-2.5,1.5-3.5l0-0.1
			h-0.4c-0.8,0.1-1.6,0.1-2.3-0.1c-1.2-0.3-1.9-1.5-1.6-2.7c0-0.1,0-0.1,0.1-0.2c0.3-0.7,0.5-1.4,0.6-2.2c0-0.1,0-0.2,0-0.3
			c-0.7,0-1.4,0.1-2.1,0.3c-1.6,0.3-3.6,0.7-5.4-0.3c-1.2-0.8-2-2-2.3-3.4c-0.2-0.6-0.4-1-0.5-1.1c-1.5-0.9-2.5-0.4-4.9,1
			c-1.8,1.1-3.7,2.3-6.2,2.1c-3.7-0.3-4.3-3.2-4.6-4.6c-0.1-0.5-0.2-1-0.4-1.4c-0.5-0.5-1.3-0.7-2-0.5c-0.4,0.1-0.5,0.2-0.9,0.9
			c-0.4,0.8-1,1.5-1.6,2.1c-2.6,2.2-5.5,1-7.5,0.2s-2.6-1-3.2-0.5c-1,0.9-1.4,3.7-1.6,4.7c0,0.6-0.2,1.2-0.5,1.8
			c-1.7,2.7-4.9,1.2-6.5,0.3c-0.6-0.3-1.3-0.6-1.9-0.8c-0.9,1.1-2,3.5,1.2,6.9c0.9,0.8,1,2.2,0.2,3.1c-0.8,0.9-2.2,1-3.1,0.2
			c-0.1-0.1-0.2-0.2-0.3-0.3c-4.9-5.2-3.7-10.3-1.1-13.2c2.1-2.3,5.1-0.8,6.9,0.1l0.9,0.4c0.3-2,1-4.9,3-6.6
			c2.7-2.3,5.7-1.1,7.8-0.2c1.8,0.7,2.5,0.9,2.9,0.6c0.3-0.3,0.5-0.6,0.7-1c0.7-1.5,2-2.6,3.5-3c2.5-0.8,5.3,0.2,6.8,2.4
			c0.5,0.9,0.8,1.8,1,2.8c0.1,0.4,0.2,0.7,0.3,1.1c0.1,0,0.2,0,0.3,0c1.1,0.1,2.3-0.6,3.6-1.5c2.3-1.4,5.5-3.3,9.4-1.1
			c1.3,0.8,2.2,2.1,2.5,3.6c0.1,0.3,0.2,0.7,0.4,1c0.8,0,1.5,0,2.2-0.2c1.3-0.4,2.8-0.4,4.1-0.2c3.2,0.8,3.3,2.6,3.2,4.8
			c0,0.2,0,0.3,0,0.4c1.5-0.1,2.9,0.6,3.7,1.8c1.4,2.3-0.1,4.3-0.9,5.3c-0.2,0.2-0.4,0.5-0.5,0.7c0.3,0.3,0.6,0.5,1,0.7
			c1.5,0.7,2.7,2.1,3.3,3.7c0.6,1.6,0.3,3.4-0.8,4.8C310.2,117,308.8,117.7,307.2,117.7z"/>
		<path class="st0" d="M279.7,127.8c-2.2,0-3.9-1.7-4-3.9v-0.6c0-2.2,1.8-4,4-4s4,1.8,4,4v0.6C283.7,126.1,281.9,127.8,279.7,127.8z
			"/>
		<path class="st0" d="M267.8,125.2c-2.2,0-3.9-1.7-4-3.9v-0.5c0-2.2,1.8-4,4-4s4,1.8,4,4v0.5C271.8,123.5,270,125.2,267.8,125.2z"
			/>
		<path class="st1" d="M261.9,156.3c-4.3-2.4-7.9-6-10.3-10.3c-5-9.2-5-20.3,0-29.6c2.4-4.3,6-7.9,10.3-10.4
			c4.5-2.5,9.6-3.8,14.8-3.7c5.1-0.1,10.2,1.2,14.7,3.7c4.3,2.5,7.9,6,10.3,10.4c5,9.2,5,20.3,0,29.6c-2.4,4.3-6,7.9-10.3,10.3
			C282.2,161.3,271.1,161.3,261.9,156.3z M287.4,150c3.1-1.8,5.7-4.5,7.5-7.7c3.6-6.9,3.6-15.2,0-22.2c-1.7-3.2-4.3-5.9-7.5-7.7
			c-6.7-3.7-14.8-3.7-21.5,0c-3.2,1.8-5.8,4.5-7.6,7.7c-3.7,6.9-3.7,15.2,0,22.2c1.8,3.2,4.4,5.9,7.6,7.7
			C272.6,153.7,280.7,153.7,287.4,150z"/>
		<path class="st0" d="M72.2,54.5c2.3,5.8,8,13,14.7,8.8c4.9-3,8.8-10.8,6.8-16.5c-0.4-1.2-1.7-1.9-2.9-1.5
			c-0.5,0.2-0.9,0.5-1.2,0.9c-1.9,2.5-4.6,4.2-7.6,5.1c-1.8,0.6-4.8,1.5-6.6,0.6c-2.6-1.3-4.8,2.5-2.3,3.9c6.7,3.4,16.4-2,20.3-7.3
			L89.4,48c1.2,3.5-1,7.9-3.5,10.4c-1.6,1.6-3.3,2.4-5.3,0.9c-1.9-1.6-3.3-3.6-4.2-5.9C75.4,50.7,71.1,51.9,72.2,54.5z"/>
		<path class="st0" d="M261.4,133.4c-0.5,5.3,1.8,12.5,7.8,13.4c6.4,1,12.5-5,15.2-10.2c0.6-1.1,0.2-2.5-0.9-3.1
			c-0.3-0.2-0.7-0.3-1-0.3c-4-0.2-7.9-1.3-11.8-1.9c-2.4-0.4-5.9-1-8.1,0.1c-2.6,1.3-0.3,5.2,2.3,3.9c1.1-0.6,5.5,0.5,7.2,0.8
			c3.4,0.8,6.9,1.3,10.5,1.6l-2-3.4c-1.7,3.4-5.4,7.7-9.5,8c-4.5,0.4-5.4-5.6-5.1-8.9C266.2,130.6,261.7,130.6,261.4,133.4z"/>
		<g class="st2">
			<path class="st0" d="M25.9,91.7c-4.9-3.3-8.6-7.6-11.3-12.8c-2.7-5.5-3.9-11.2-3.6-17.3c0.1-0.4,0.2-0.8,0.5-1.1
				c0.3-0.3,0.6-0.5,1-0.5l7.6-1.2c0.4-0.1,0.8-0.1,1.2,0.2c0.4,0.2,0.6,0.5,0.7,1l3,8.3c0.1,0.3,0.1,0.7,0,1.1
				c-0.1,0.4-0.3,0.7-0.6,1l-4.7,3.3c1.2,2.9,2.8,5.5,4.9,7.9c2.1,2.4,4.5,4.3,7.1,5.8l3.9-4.2c0.3-0.3,0.7-0.4,1-0.5
				c0.4-0.1,0.7,0,1.1,0.1l7.9,4c0.4,0.2,0.7,0.5,0.9,0.8c0.2,0.4,0.2,0.8,0,1.2l-2.2,7.3c-0.1,0.4-0.3,0.7-0.6,1
				c-0.3,0.2-0.7,0.3-1.2,0.4C36.5,97.1,30.9,95.2,25.9,91.7z M29.4,57.9c0.8,0.9,1.3,1.9,1.5,3.1c0.1,0.4,0,0.7-0.3,1
				c-0.3,0.3-0.6,0.4-1,0.4l-0.9-0.1c-0.2,0-0.4-0.1-0.6-0.3c-0.2-0.2-0.4-0.4-0.5-0.7c-0.3-1.1-0.9-1.9-2-2.3
				c-0.3-0.1-0.5-0.3-0.6-0.5s-0.2-0.5-0.2-0.7l0.1-0.9c0.1-0.4,0.3-0.8,0.6-1c0.3-0.2,0.6-0.3,1-0.1C27.6,56.4,28.6,57.1,29.4,57.9
				z M34.2,53.6c2,2.2,3,4.9,3.2,7.8c0,0.3-0.1,0.6-0.3,0.9c-0.3,0.3-0.6,0.4-1,0.4l-0.9-0.1c-0.3,0-0.5-0.1-0.8-0.3
				c-0.2-0.2-0.3-0.5-0.3-0.7c-0.1-2.2-1-4.2-2.4-5.8c-1.5-1.7-3.3-2.7-5.5-3.2c-0.3,0-0.5-0.2-0.7-0.4c-0.2-0.3-0.3-0.5-0.2-0.8
				l0.1-0.9c0-0.4,0.2-0.7,0.5-0.9c0.3-0.2,0.6-0.3,1-0.2C29.8,50,32.3,51.4,34.2,53.6z M35.8,46.3c2.5,1.8,4.4,4,5.9,6.7
				c1.5,2.7,2.2,5.6,2.3,8.8c0,0.3-0.1,0.6-0.4,0.9c-0.3,0.2-0.6,0.4-0.9,0.4L41.9,63c-0.3,0-0.6-0.1-0.8-0.3
				c-0.2-0.3-0.3-0.5-0.3-0.8c-0.1-3.9-1.5-7.4-4.1-10.3c-2.6-3-5.8-4.7-9.7-5.4c-0.3,0-0.5-0.2-0.8-0.4c-0.2-0.3-0.3-0.5-0.2-0.9
				l0-0.8c0.1-0.3,0.2-0.6,0.5-0.9c0.3-0.2,0.6-0.3,0.9-0.3C30.5,43.4,33.3,44.5,35.8,46.3z"/>
		</g>
		<g class="st2">
			<path class="st0" d="M327,134.2c0.4,0,0.8,0.2,1.1,0.5s0.4,0.7,0.5,1.1c0.6,6.2-0.3,12.1-2.9,17.8c-2.5,5.5-6.2,10-11.1,13.6
				c-5,3.6-10.6,5.8-16.8,6.4c-0.4,0-0.8,0-1.1-0.3c-0.4-0.2-0.6-0.5-0.7-1l-2.6-7.5c-0.1-0.4-0.1-0.8,0-1.2
				c0.2-0.4,0.4-0.7,0.8-0.9l7.9-4.4c0.3-0.2,0.7-0.3,1.1-0.2s0.7,0.2,1,0.5l4.1,4.1c2.8-1.6,5.2-3.7,7.2-6.2c2-2.5,3.5-5.2,4.6-8.2
				l-4.8-3.2c-0.3-0.2-0.5-0.5-0.7-0.9c-0.1-0.4-0.1-0.7,0-1.2l2.7-8.6c0.1-0.4,0.4-0.7,0.7-0.9s0.8-0.3,1.2-0.3L327,134.2z"/>
		</g>
		<path class="st3" d="M51.2,99.1c0.5,0.7,1,1.4,1.6,2"/>
		<path class="st4" d="M60.6,107c11.4,5.8,27.5,5.6,38,2.1c25.8-8.5,28.7-40.3,56.4-44.7c15.4-2.6,30.5,6.2,35.9,20.8
			c13.4,35.3-22.1,96.9,26.7,114.2c21.1,7.5,49-9.4,62.4-20.1"/>
		<path class="st3" d="M283.8,176.2c0.7-0.6,1.3-1.2,1.8-1.7"/>
		<rect x="295" y="159" class="st5" width="19" height="1"/>
	</g>
</g>
</svg>
