<?xml version="1.0" encoding="utf-8"?>
<!-- Generator: Adobe Illustrator 23.0.1, SVG Export Plug-In . SVG Version: 6.00 Build 0)  -->
<svg version="1.1" id="Layer_1" xmlns="http://www.w3.org/2000/svg" xmlns:xlink="http://www.w3.org/1999/xlink" x="0px" y="0px"
	 viewBox="0 0 90 100" style="enable-background:new 0 0 90 100;" xml:space="preserve">
<style type="text/css">
	.st0{fill:none;}
</style>
<g>
	<path class="st0" d="M87.4,46.9c-0.2-0.4-0.6-0.5-1.1-0.6c-1.3-0.1-2.6,0.2-3.7,1c0.8-0.5,0-7.7,0-8.9c0-2.7,0.1-5.3,0.3-8
		c0.3-5.2,0.3-10.5,0.3-15.7c0-3.9,0.3-9.1-3.4-11.5c-2.1-1.3-4.7-1.6-7.2-1.8c-9-0.7-18-0.8-27-0.4c-5.2-0.1-10.9-1-16.1-0.4
		c-4.8,0.5-12.7,0-18,2.5c-1.9,1-3.4,2.3-4.4,4.3c-2.5,5.3-1.5,10.9-0.7,16.4c0.6,4.5,1,10.1,0.3,14.6c-0.3,1.8-2.8,8.7,0.1,9.4
		c-1.1-0.2-2.1-0.5-3.2-0.7c-0.2,0-0.4-0.1-0.5,0s-0.2,0.3-0.2,0.4c-0.8,5.8,4.1,10.3,8.6,13c2.7,1.6,6.3,2,8.4,4.3
		C18.8,70.9,18,78.9,19.1,85c1,6.2,6.2,9.2,11.5,11.4c2.3,0.9,4.9,1.5,7.1,0.4c0.7-0.4,1.3-0.9,1.8-1.4c1-0.9,2-1.8,3-2.7
		c0.5-0.4,1-0.9,1.2-1.4c0.3-0.6,0.3-1.5,1-1.7c3.1,1.4,3.3,5.6,6.4,7.4c2.2,1.3,4.9,1.5,7.3,0.7c1.2-0.4,2.3-1,3.4-1.7
		c1.7-1,3.4-2.1,4.5-3.7c2.7-4,4.2-9.8,4.2-14.6c0-4.1-1.2-7.7-2.3-11.7c-0.1-0.3-0.2-0.7,0-1c0.1-0.2,0.4-0.3,0.6-0.4
		c6.7-3,12.1-4.6,16.1-11.2c1.1-1.9,2.3-3.8,2.5-6C87.4,47.3,87.4,47.1,87.4,46.9z M47.9,57.7c-0.6,0.4-1,1-1.5,1.5
		s-1.2,0.8-1.9,0.6c-0.5-0.2-0.9-0.6-1.3-0.9c-1.9-1.7-4.7-1.5-6.9-2.7c-0.2-0.1-0.4-0.2-0.5-0.4s0.1-0.5,0.2-0.7
		c1-1.6,2.7-2.3,3.8-3.6c1-1.2,0.9-3,2-4.2c1.2-1.2,3.4-1.2,4.6,0.1c0.6,0.7,0.8,1.6,1.2,2.4c0.7,1.6,4.2,3.9,4.3,5.1
		C52.2,57,49.2,56.9,47.9,57.7z M78.3,46.3c0,3.1,0.4,4.7-2.4,6.4c-1.7,1.1-3.8,1.5-5.7,2.3c-1.3,0.5-8.1,2.7-9.1,0.9
		c-1-1.7,4-5.6,4-7.4c0-1.9,0-3.8,0-5.7c0-0.6,0-1.2-0.2-1.7c-0.3-0.7-1-1.2-1.6-1.7c-1.1-0.9-2.1-2-3.2-3c-2.3-1.9-5.1-2.2-7.8-1.4
		c-1.5,0.4-3,1.3-3.7,2.6c-0.4,0.7-0.6,1.5-0.8,2.2c-0.4,1.2-1,2.3-1.8,3.3c-0.3,0.3-0.6,0.6-1,0.7c-0.6,0.1-1.1-0.6-1.4-1.1
		c-2.1-3.4-6.7-8.2-11.1-8.2c-4,0-7.8,4.4-8.9,8c-0.7,2.3-0.7,4.8,0.3,7s5.4,4,4,6.3c-2.2,0.7-4.7,0.2-6.9-0.7
		c-2.4-1-7.6-2.4-8.9-4.9c-1.3-2.4-0.8-7.2-0.8-9.8c0-4.4,0-8.9,0-13.3c-0.1-4,0.6-8.1,0.4-12.2c-0.1-1.4-0.2-2.8,0.1-4.2
		s1-2.7,2.1-3.6c1.6-1.1,3.6-1,5.6-0.8C32.6,7.4,46,7.2,59.2,6.8c4.8-0.1,16.4-2.7,18.7,3.3c0.3,0.8,0.4,1.6,0.4,2.4
		C78.8,24,78.2,35.2,78.3,46.3z"/>
</g>
<g>
	<title>host-cd</title>
	<g>
		<path d="M34.6,100c-0.6,0-1.3-0.1-1.9-0.2c-3.5-0.5-6.8-2.3-9.4-5c-3-3.3-5.1-7.6-5.8-12.1c-0.8-5.1-0.5-10.8,0.9-17.1
			c-3.5-1.6-7-3.7-10.2-6C5.5,57.5,3,55,0.9,52.2l-0.1-0.1c-0.7-1-1-2.3-0.8-3.6c0.1-1.5,1.1-2.9,2.6-3.4h0.1c0.6-0.1,1.2-0.2,1.7,0
			V11.4c0.1-3.1,1.1-5.8,2.9-7.9c1.8-2.3,4.5-3.5,7.2-3.4h60.9c2.7,0,5.3,1.3,7.1,3.4c1.8,2.2,2.8,5.1,2.7,7.9V45
			c0.4-0.1,0.9-0.1,1.4,0h0.2l0.2,0.1c1.4,0.4,2.4,1.7,2.5,3.1v0.1c0.1,1.3-0.1,2.5-0.8,3.6l-0.1,0.2c-2.1,2.8-4.4,5.2-7.1,7.4l0,0
			c-3.2,2.4-6.7,4.5-10.2,6.1c1.5,6.3,1.8,12,1,17.1c-0.8,4.6-2.7,8.8-5.7,12.1c-2.6,2.8-5.9,4.5-9.5,5.1c-3.3,0.6-6.8-0.3-9.3-2.6
			c-1.3-1.1-2.2-2.5-2.8-4c-0.6,1.6-1.6,3-2.8,4.1C39.9,99,37.3,100,34.6,100z M4.3,49.9c1.8,2.4,4,4.6,6.3,6.4
			c3.5,2.5,7.2,4.6,11,6.3l1.6,0.7L22.7,65c-1.6,6.4-2.1,12-1.2,17c0.6,3.7,2.3,7.3,4.8,10c1.9,2,4.4,3.4,7.1,3.8
			c2.1,0.4,4.3-0.2,6-1.7c1.6-1.4,2.3-3.5,2.2-6.5V67l6.5,1.5v19c-0.1,2.9,0.6,5.1,2.3,6.5c1.6,1.4,3.8,2,6,1.6
			c2.7-0.4,5.2-1.7,7.1-3.8c2.4-2.7,4.1-6.1,4.7-10c0.8-5,0.4-10.7-1.3-17.1L66.4,63l1.7-0.7c3.8-1.5,7.5-3.6,10.9-6.2
			c2.4-1.9,4.5-4.1,6.3-6.5c0.1-0.1,0.1-0.2,0.1-0.3l-4.2,3.1V11.2c0.1-1.8-0.6-3.8-1.8-5.3C78.4,4.7,77,4,75.5,4H14.4
			c-1.4,0-2.8,0.7-3.9,2l0,0c-1.2,1.4-1.9,3.3-1.9,5.4v40.8l-4.4-2.8C4.2,49.6,4.2,49.8,4.3,49.9z M47.6,65.2l-2.9-2.1
			c-1.5-1.1-2.9-2.5-3.8-3.5l-0.1-0.1c-0.4-0.4-1.4-0.7-3-0.6h-0.1h-1.3c-3.5,0.3-7.2,0.2-11-0.2h-0.1c-5.2-0.8-10.3-2.6-15-5.3
			l-1-0.6V15.5c0-3.9,0.6-6.3,1.9-7.9C12.7,5.8,15,5,18.3,5h53.2c3.2,0,5.5,0.9,7,2.7l0.1,0.1c1.3,1.7,1.9,4.2,1.9,7.8v36.9l-1,0.6
			c-4.6,2.9-10,4.9-15.6,5.7h-0.1c-3.9,0.4-7.7,0.5-11.2,0.2h-1.2c-2.8-0.2-3.4,0.8-3.5,2.6L47.6,65.2z M43.9,57
			c0.3,0.3,0.6,0.6,0.9,0.9c1-1.7,3-3.2,6.8-3h1.3c3.3,0.3,6.9,0.2,10.5-0.2c4.6-0.7,9.1-2.3,13-4.6V15.6c0-3.5-0.7-4.9-1-5.3
			c-0.8-0.9-2.5-1.1-3.8-1.1H18.3c-2,0-3.3,0.4-3.9,1.1c-0.7,0.8-1,2.6-1,5.3v35c4,2.2,8.2,3.6,12.5,4.3c3.6,0.4,7,0.4,10.3,0.2h0.2
			h1.3C39.6,54.9,42.3,55,43.9,57z"/>
		<path d="M32.5,57c-6.6,0-11.9-5.5-11.9-12.2s5.3-12.2,11.9-12.2s11.9,5.5,11.9,12.2S39,57,32.5,57z M32.5,36.7
			c-4.3,0-7.8,3.6-7.8,8.1s3.5,8.1,7.8,8.1s7.8-3.6,7.8-8.1S36.8,36.7,32.5,36.7z"/>
		<path d="M55.5,57c-6.6,0-11.9-5.5-11.9-12.2s5.3-12.2,11.9-12.2s11.9,5.5,11.9,12.2S62,57,55.5,57z M55.5,36.7
			c-4.3,0-7.8,3.6-7.8,8.1s3.5,8.1,7.8,8.1s7.8-3.6,7.8-8.1S59.8,36.7,55.5,36.7z"/>
	</g>
	<title>individual</title>
	<title>peer-connect</title>
</g>
</svg>
