<?xml version="1.0" encoding="utf-8"?>
<!-- Generator: Adobe Illustrator 24.2.3, SVG Export Plug-In . SVG Version: 6.00 Build 0)  -->
<svg version="1.1" id="Layer_1" xmlns="http://www.w3.org/2000/svg" xmlns:xlink="http://www.w3.org/1999/xlink" x="0px" y="0px"
	 viewBox="0 0 190.2 190.2" style="enable-background:new 0 0 190.2 190.2;" xml:space="preserve">
<g>
	<g>
		<g>
			<path d="M138,45.2c-1.9-2.2-4.7-3.3-8.6-3.3H61.2c-4.2,0-6.9,1-8.7,3.2c-1.6,2-2.3,5-2.3,9.8v47.5l1,0.6c6,3.4,12.4,5.7,19,6.7
				h0.1c5.1,0.5,9.8,0.6,14,0.3h1.8c0.3,0,0.5,0,0.8,0c1.6,0,2.8,0.3,3.4,0.9l0.1,0.1c0.7,0.8,2.6,2.8,4.8,4.4l3,2.2l0.3-3.7
				c0.1-1,0.2-2.2,1.1-3c0.8-0.7,2-1,3.9-0.8h1.5c4.3,0.4,9.1,0.3,14.3-0.3h0.2c7-1,13.8-3.5,19.7-7.2l1-0.6V55
				C140.4,50.4,139.7,47.4,138,45.2L138,45.2z M136.2,99.4l-0.2,0.1c-5.1,3-10.9,5.1-16.8,6c-4.9,0.5-9.5,0.6-13.6,0.3H104
				c-3.9-0.2-6.8,1-8.3,3.6l-0.3,0.6l-1.6-1.7c-1.5-1.9-4-2.6-7.5-2.2h-2c-4.7,0.3-9.1,0.2-13.2-0.3c-5.7-0.9-11.2-2.8-16.2-5.6
				l-0.3-0.1V55c0-3.8,0.4-6,1.4-7.1c0.9-1,2.7-1.6,5.4-1.6h68.3c1.8,0,4.1,0.3,5.2,1.6c0.3,0.5,1.4,2.3,1.4,7.1v44.4H136.2z"/>
			<path d="M150.9,101.4l0.1-0.2c0.8-1.3,1.1-2.6,1-4.4v-0.2c-0.1-1.6-1.3-3-2.8-3.5L149,93h-0.1c-0.7-0.1-1.2-0.1-1.7,0l-0.6,0.2
				V49.6c0.1-3.5-1.1-7.1-3.3-9.8c-2.3-2.6-5.4-4.2-8.7-4.2h-78c-3.4-0.1-6.7,1.4-8.8,4.2c-2.2,2.6-3.5,6-3.6,9.8v43.9l-0.7-0.3
				c-0.5-0.2-1.2-0.1-1.9,0h-0.1c-1.6,0.6-2.8,2.1-2.9,3.9c-0.2,1.6,0.1,3.1,0.9,4.3l0.1,0.1c2.7,3.5,5.8,6.7,9.3,9.4
				c4.2,3,8.7,5.7,13,7.6l0.4,0.2l-0.1,0.4c-1.8,8-2.2,15.3-1.1,21.7c0.9,5.6,3.5,11,7.3,15.2c3.3,3.4,7.5,5.6,11.7,6.2
				c0.7,0.1,1.6,0.3,2.4,0.3c3.1,0,6.4-1.1,9.4-3.2c1.5-1.4,2.7-3.1,3.4-5l0.5-1.2l0.5,1.2c0.8,2,2,3.7,3.4,4.9
				c3,2.8,7.3,4,11.5,3.2c4.6-0.8,8.7-3,11.9-6.4c3.7-4,6.1-9.3,7.2-15.2c1-6.5,0.6-13.8-1.3-21.7l-0.1-0.4l0.4-0.2
				c4.4-2,8.9-4.7,13-7.8C145.3,108,148.2,105,150.9,101.4z M139.3,107.2c-4.4,3.4-9.1,6.1-14.1,8l-1.8,0.7l0.5,1.7
				c2.2,8.1,2.7,15.6,1.7,22.1c-0.7,4.9-2.9,9.4-6.1,13.1c-2.5,2.7-5.7,4.5-9.4,5c-2.9,0.5-5.9-0.3-8.1-2.2
				c-2.2-1.8-3.3-4.7-3.1-8.7V123l-7.3-1.7v25.8c0.1,4-0.8,6.8-3,8.7c-1.8,1.6-4.1,2.5-6.4,2.5c-0.6,0-1.2-0.1-1.7-0.2
				c-3.4-0.5-6.8-2.3-9.4-5c-3.3-3.5-5.5-8.2-6.3-13.1c-1.1-6.2-0.6-13.4,1.5-22l0.5-1.8l-1.6-0.7c-5-2.2-9.8-5-14.2-8.1
				c-3.1-2.4-5.9-5.3-8.2-8.3c-0.2-0.3-0.2-0.7-0.2-1v-0.9l5.6,3.6V49.6c0-2.7,0.9-5.3,2.6-7.2c1.5-1.8,3.4-2.7,5.4-2.7h78.3
				c2,0,4,1,5.4,2.6c1.7,2.1,2.6,4.7,2.4,7.1v51.8l5.4-4v1c0,0.2,0,0.5-0.3,0.7C145.1,102,142.3,104.9,139.3,107.2z"/>
		</g>
		<path d="M79.4,77.2c-8.1,0-14.7,6.8-14.7,15.1s6.6,15.1,14.7,15.1s14.7-6.8,14.7-15.1S87.6,77.2,79.4,77.2z M79.4,103.2
			c-5.8,0-10.5-4.9-10.5-10.9s4.7-10.9,10.5-10.9s10.5,4.9,10.5,10.9S85.2,103.2,79.4,103.2z"/>
		<path d="M108.9,77.2c-8.1,0-14.7,6.8-14.7,15.1s6.6,15.1,14.7,15.1s14.7-6.8,14.7-15.1S117,77.2,108.9,77.2z M108.9,103.2
			c-5.8,0-10.5-4.9-10.5-10.9s4.7-10.9,10.5-10.9s10.5,4.9,10.5,10.9S114.7,103.2,108.9,103.2z"/>
	</g>
</g>
</svg>
