<?xml version="1.0" encoding="utf-8"?>
<!-- Generator: Adobe Illustrator 22.1.0, SVG Export Plug-In . SVG Version: 6.00 Build 0)  -->
<svg version="1.1" id="Layer_1" xmlns="http://www.w3.org/2000/svg" xmlns:xlink="http://www.w3.org/1999/xlink" x="0px" y="0px"
	 viewBox="0 0 20.3 20.3" style="enable-background:new 0 0 20.3 20.3;" xml:space="preserve">
<style type="text/css">
	.st0{fill:#FBA919;}
	.st1{fill:#EC008C;}
</style>
<title>info-icon</title>
<g id="Layer_2_1_">
	<g id="Layer_1-2">
		<path class="st0" d="M10.1,20.3c-1.7,0-3.4-0.5-5.1-1.4c-1.5-0.9-2.8-2.2-3.7-3.7C0.5,13.6,0,11.9,0,10.1S0.5,6.7,1.4,5
			c0.9-1.5,2.2-2.8,3.7-3.7C6.6,0.5,8.4,0,10.1,0s3.4,0.5,5.1,1.4c1.5,0.9,2.8,2.2,3.7,3.7c0.9,1.5,1.4,3.3,1.4,5.1
			c0,1.7-0.5,3.4-1.4,5.1c-0.8,1.5-2.1,2.7-3.7,3.7C13.7,19.8,11.9,20.3,10.1,20.3z M10.1,1.8C8.7,1.8,7.2,2.2,6,3
			C4.8,3.7,3.7,4.8,3,6c-0.8,1.3-1.1,2.7-1.1,4.2S2.2,13,3,14.3c0.7,1.2,1.8,2.3,3,3c1.3,0.8,2.7,1.1,4.2,1.1s2.9-0.4,4.2-1.1
			c1.3-0.8,2.4-1.8,3-3c0.8-1.4,1.2-2.8,1.2-4.2c0-1.5-0.4-2.9-1.1-4.2c-0.7-1.2-1.8-2.3-3-3C13,2.2,11.6,1.8,10.1,1.8z"/>
	</g>
</g>
<circle class="st1" cx="10.1" cy="6.5" r="1.5"/>
<path class="st1" d="M11.8,13h-0.6V9.3c0-0.2-0.1-0.3-0.3-0.3H8.4C8.2,9,8.1,9.1,8.1,9.3v1.1c0,0.2,0.1,0.3,0.3,0.3H9V13H8.4
	C8.2,13,8,13.2,8,13.3v1.2c0,0.2,0.2,0.4,0.4,0.4H9h2.2h0.6c0.2,0,0.4-0.2,0.4-0.4v-1.2C12.2,13.2,12,13,11.8,13z"/>
</svg>
