<?xml version="1.0" encoding="utf-8"?>
<!-- Generator: Adobe Illustrator 22.1.0, SVG Export Plug-In . SVG Version: 6.00 Build 0)  -->
<svg version="1.1" id="Layer_1" xmlns="http://www.w3.org/2000/svg" xmlns:xlink="http://www.w3.org/1999/xlink" x="0px" y="0px"
	 viewBox="0 0 18.4 21" style="enable-background:new 0 0 18.4 21;" xml:space="preserve">
<style type="text/css">
	.st0{fill:#EC008C;}
	.st1{fill:#FBA919;}
</style>
<title>calendar-icon</title>
<path class="st0" d="M6,11.8H4.4c-0.3,0-0.5-0.2-0.5-0.5V9.7c0-0.3,0.2-0.5,0.5-0.5H6c0.3,0,0.5,0.2,0.5,0.5v1.6
	C6.5,11.6,6.3,11.8,6,11.8z"/>
<path class="st0" d="M6,15.7H4.4c-0.3,0-0.5-0.2-0.5-0.5v-1.6c0-0.3,0.2-0.5,0.5-0.5H6c0.3,0,0.5,0.2,0.5,0.5v1.6
	C6.5,15.5,6.3,15.7,6,15.7z"/>
<path class="st0" d="M10,15.7H8.4c-0.3,0-0.5-0.2-0.5-0.5v-1.6c0-0.3,0.2-0.5,0.5-0.5H10c0.3,0,0.5,0.2,0.5,0.5v1.6
	C10.5,15.5,10.3,15.7,10,15.7z"/>
<path class="st0" d="M10,11.8H8.4c-0.3,0-0.5-0.2-0.5-0.5V9.7c0-0.3,0.2-0.5,0.5-0.5H10c0.3,0,0.5,0.2,0.5,0.5v1.6
	C10.5,11.6,10.3,11.8,10,11.8z"/>
<path class="st0" d="M14,11.8h-1.6c-0.3,0-0.5-0.2-0.5-0.5V9.7c0-0.3,0.2-0.5,0.5-0.5H14c0.3,0,0.5,0.2,0.5,0.5v1.6
	C14.5,11.6,14.3,11.8,14,11.8z"/>
<path class="st0" d="M14,15.7h-1.6c-0.3,0-0.5-0.2-0.5-0.5v-1.6c0-0.3,0.2-0.5,0.5-0.5H14c0.3,0,0.5,0.2,0.5,0.5v1.6
	C14.5,15.5,14.3,15.7,14,15.7z"/>
<path class="st1" d="M16.4,2.6h-2V1.3V0.5V0.4C14.4,0.2,14.2,0,14,0h0h-1.7H12c-0.2,0-0.4,0.2-0.4,0.4v0.1v0.8v1.3H6.4V1.4V0.5V0.4
	C6.4,0.2,6.2,0,6,0h0H4.4h0C4.2,0,4,0.2,4,0.4v0.1v0.9v1.2H2c-0.5,0-1.1,0.2-1.4,0.6C0.2,3.6,0,4.1,0,4.6V19c0,0,0,0,0,0.1
	C0,20.2,0.9,21,2,21h14.4c0.5,0,1-0.2,1.4-0.6c0.4-0.4,0.6-0.9,0.6-1.4V4.6C18.4,3.5,17.5,2.6,16.4,2.6z M16,7.2v11.1
	c0,0.1-0.1,0.2-0.2,0.2H2.7c-0.1,0-0.2-0.1-0.2-0.2V7.2C2.5,7.1,2.6,7,2.7,7h13.1C15.9,7,16,7.1,16,7.2z"/>
</svg>
