<?xml version="1.0" encoding="utf-8"?>
<!-- Generator: Adobe Illustrator 22.1.0, SVG Export Plug-In . SVG Version: 6.00 Build 0)  -->
<svg version="1.1" id="Layer_1" xmlns="http://www.w3.org/2000/svg" xmlns:xlink="http://www.w3.org/1999/xlink" x="0px" y="0px"
	 viewBox="0 0 21 15.8" style="enable-background:new 0 0 21 15.8;" xml:space="preserve">
<style type="text/css">
	.st0{fill:none;}
	.st1{fill:#34658A;}
	.st2{fill:#EC008C;}
</style>
<title>email-icon</title>
<g id="Layer_2_1_">
	<g id="Layer_2-2">
		<path class="st0" d="M10,9.1c0.2,0,0.4-0.1,0.6-0.2c0.2-0.1,0.4-0.3,0.5-0.5c0.1-0.3,0.2-0.5,0.2-0.8c0-0.2-0.1-0.5-0.2-0.7
			c-0.1-0.2-0.3-0.3-0.6-0.2c-0.3,0-0.6,0.2-0.9,0.4C9.4,7.4,9.2,7.8,9.2,8.2c0,0.2,0.1,0.5,0.2,0.6C9.6,9,9.8,9.1,10,9.1z"/>
		<path class="st0" d="M13.7,10.4c-0.4,0.3-0.7,0.5-1.1,0.8c-0.6,0.4-1.3,0.6-2.1,0.6c-0.8,0-1.5-0.3-2.1-0.6L8,10.9
			c0.7,0.6,1.6,1,2.5,0.9c0.8,0,1.5-0.2,2.1-0.6c0.1-0.1,0.2-0.1,0.4-0.1c0.1,0,0.2,0.1,0.3,0.2l0.2,0.3c0.1,0.1,0.1,0.3,0.1,0.4
			c0,0.1-0.1,0.3-0.2,0.4c-0.9,0.6-1.9,0.9-2.9,0.9c-0.9,0-1.9-0.2-2.7-0.7c-0.8-0.5-1.5-1.1-2-1.9C5.5,10,5.3,9.4,5.2,8.8L2,6.2
			v7.6h17V6.2l-3.5,2.8c-0.1,0.2-0.2,0.4-0.4,0.6C14.7,10,14.2,10.3,13.7,10.4z"/>
		<path class="st0" d="M7.8,6.7C8,6.2,8.4,5.8,8.9,5.5c0.4-0.3,1-0.4,1.5-0.4c0.5,0,1,0.1,1.3,0.5c0-0.1,0-0.1,0.1-0.2
			c0.1-0.1,0.1-0.1,0.2-0.1h1c0.2,0,0.3,0.1,0.4,0.2c0.1,0.1,0.1,0.3,0.1,0.4L13,8.5l0.2-0.1L13.5,8l1-0.8c0-0.6-0.2-1.2-0.5-1.8
			c-0.4-0.5-0.9-0.9-1.4-1.2c-0.6-0.3-1.3-0.4-2-0.4c-0.7,0-1.4,0.2-2,0.5C7.9,4.8,7.4,5.3,7.1,5.9C6.8,6.3,6.6,6.8,6.6,7.3l0.9,0.7
			C7.5,7.5,7.6,7.1,7.8,6.7z"/>
		<path class="st0" d="M2,3.7c0.7,0.6,1.8,1.4,3.4,2.7c0.1-0.4,0.3-0.8,0.5-1.1c0.5-0.8,1.2-1.5,2-2c0.8-0.5,1.7-0.7,2.7-0.7
			c0.9,0,1.9,0.2,2.7,0.6c0.8,0.4,1.4,0.9,1.9,1.7c0.3,0.5,0.5,1,0.6,1.5c1.4-1.2,2.6-2.1,3.2-2.6V2H2V3.7z"/>
		<path class="st1" d="M20.4,0.6C20.1,0.2,19.5,0,19,0H2C0.9,0,0,0.8,0,1.9C0,1.9,0,2,0,2v11.8c0,1.1,0.8,2,1.9,2c0,0,0.1,0,0.1,0
			h17c1.1,0,2-0.8,2-1.9c0,0,0-0.1,0-0.1V2C21,1.5,20.8,0.9,20.4,0.6z M19,3.7c-0.7,0.6-1.8,1.4-3.3,2.6c0.1,0.4,0.1,0.7,0.1,1.1
			c0,0.5-0.1,1.1-0.3,1.6L19,6.2v7.6H2V6.2l3.2,2.6c0-0.3-0.1-0.6-0.1-0.9c0-0.5,0.1-1,0.2-1.6C3.8,5.1,2.7,4.2,2,3.7V2h17V3.7z"/>
		<path class="st2" d="M13.2,3.1c-0.8-0.4-1.8-0.6-2.7-0.6c-0.9,0-1.9,0.2-2.7,0.7c-0.8,0.5-1.5,1.2-2,2C5.6,5.6,5.5,6,5.3,6.4
			c-0.2,0.5-0.2,1-0.2,1.5c0,0.3,0,0.6,0.1,0.9c0.1,0.6,0.3,1.2,0.7,1.8c0.5,0.8,1.2,1.5,2,1.9c0.8,0.5,1.7,0.7,2.7,0.7
			c1,0,2.1-0.3,2.9-0.9c0.1-0.1,0.2-0.2,0.2-0.4c0-0.1,0-0.3-0.1-0.4l-0.2-0.3c-0.1-0.1-0.2-0.2-0.3-0.2c-0.1,0-0.3,0-0.4,0.1
			c-1.3,0.8-2.8,0.8-4.1,0.1c-0.2-0.1-0.4-0.3-0.5-0.4c-0.4-0.3-0.7-0.7-0.9-1.1c-0.4-0.6-0.5-1.3-0.5-2c0-0.2,0-0.4,0.1-0.6
			c0.1-0.5,0.2-1,0.5-1.4c0.4-0.6,0.9-1.1,1.4-1.4c0.6-0.4,1.3-0.5,2-0.5c0.7,0,1.4,0.1,2,0.4c0.6,0.2,1.1,0.6,1.4,1.2
			c0.3,0.5,0.5,1.1,0.5,1.8c0,0,0,0.1,0,0.1c0,0.4-0.1,0.8-0.3,1.2c-0.2,0.3-0.5,0.6-0.9,0.6c-0.1,0-0.3-0.1-0.3-0.2
			c0-0.2,0-0.3,0-0.5l0,0L13.4,6c0-0.2,0-0.3-0.1-0.4c-0.1-0.1-0.3-0.2-0.4-0.2H12c-0.1,0-0.1,0-0.2,0.1c-0.1,0-0.1,0.1-0.1,0.2
			c-0.3-0.4-0.8-0.5-1.3-0.5c-0.5,0-1,0.1-1.5,0.4C8.5,5.8,8.1,6.2,7.8,6.7C7.6,7.1,7.5,7.5,7.4,7.9c0,0.1,0,0.3,0,0.4
			C7.4,9,7.6,9.5,8,10c0.4,0.4,0.9,0.6,1.5,0.6c0.3,0,0.6-0.1,0.9-0.2c0.3-0.1,0.5-0.4,0.7-0.6c0.1,0.3,0.3,0.6,0.6,0.6
			c0.3,0.1,0.6,0.1,0.9,0.1c0.4,0,0.7-0.1,1.1-0.1c0.6-0.1,1-0.4,1.4-0.8c0.2-0.2,0.3-0.4,0.4-0.6c0.2-0.5,0.3-1,0.3-1.6
			c0-0.4,0-0.7-0.1-1.1c-0.1-0.5-0.3-1-0.6-1.5C14.7,4,14,3.5,13.2,3.1z M9.7,7.1c0.2-0.3,0.5-0.4,0.9-0.4c0.2,0,0.4,0.1,0.6,0.2
			c0.1,0.2,0.2,0.4,0.2,0.7c0,0.3-0.1,0.6-0.2,0.8c-0.1,0.2-0.3,0.4-0.5,0.5C10.4,9,10.2,9.1,10,9.1C9.8,9.1,9.6,9,9.5,8.9
			C9.3,8.7,9.2,8.5,9.3,8.2C9.2,7.8,9.4,7.4,9.7,7.1z"/>
	</g>
</g>
</svg>
