<?xml version="1.0" encoding="utf-8"?>
<!-- Generator: Adobe Illustrator 22.1.0, SVG Export Plug-In . SVG Version: 6.00 Build 0)  -->
<svg version="1.1" id="Layer_1" xmlns="http://www.w3.org/2000/svg" xmlns:xlink="http://www.w3.org/1999/xlink" x="0px" y="0px"
	 viewBox="0 0 23.6 18.4" style="enable-background:new 0 0 23.6 18.4;" xml:space="preserve">
<style type="text/css">
	.st0{fill:#FBA919;}
	.st1{fill:#EC008C;}
</style>
<title>contact-icon</title>
<g id="Layer_2_1_">
	<g id="Layer_1-2">
		<path class="st0" d="M21.7,0c0.5,0,1,0.2,1.4,0.6s0.6,0.9,0.6,1.4v14.4c0,1.1-0.9,2-2,2H2c-0.5,0-1-0.2-1.4-0.6
			C0.2,17.5,0,16.9,0,16.4V2c0-1.1,0.8-2,1.9-2H2H21.7z M21.7,16.4V2H2v14.4H21.7z"/>
		<path class="st1" d="M4.8,14.4c-0.2,0-0.5-0.1-0.6-0.2c-0.2-0.1-0.3-0.3-0.3-0.6v-0.8c0-0.7,0.3-1.3,0.8-1.7
			c0.6-0.5,1.3-0.7,2-0.7c0.2,0,0.4,0.1,0.5,0.1c0.4,0.1,0.9,0.2,1.3,0.2s0.9-0.1,1.3-0.2c0.2-0.1,0.4-0.1,0.5-0.1
			c0.7,0,1.4,0.2,1.9,0.7c0.5,0.4,0.8,1,0.8,1.7v0.8c0,0.2-0.1,0.4-0.3,0.6c-0.2,0.1-0.4,0.2-0.6,0.2H4.8z"/>
		<path class="st1" d="M8.5,9.2c-0.7,0-1.4-0.3-1.8-0.8c-1-1-1-2.6-0.1-3.6c0,0,0,0,0.1-0.1c1-1,2.6-1,3.6-0.1c0,0,0,0,0.1,0.1
			c1,1,1,2.6,0.1,3.6c0,0,0,0-0.1,0.1C9.9,8.9,9.2,9.2,8.5,9.2z"/>
	</g>
	<path class="st1" d="M19.4,9.2h-4.6c-0.2,0-0.3-0.1-0.3-0.3V8.2c0-0.2,0.1-0.3,0.3-0.3h4.6c0.2,0,0.3,0.1,0.3,0.3v0.6
		C19.7,9,19.6,9.2,19.4,9.2z"/>
	<path class="st1" d="M19.4,11.8h-4.6c-0.2,0-0.3-0.1-0.3-0.3v-0.6c0-0.2,0.1-0.3,0.3-0.3h4.6c0.2,0,0.3,0.1,0.3,0.3v0.6
		C19.7,11.7,19.6,11.8,19.4,11.8z"/>
	<path class="st1" d="M19.4,6.6h-4.6c-0.2,0-0.3-0.1-0.3-0.3V5.6c0-0.2,0.1-0.3,0.3-0.3h4.6c0.2,0,0.3,0.1,0.3,0.3v0.6
		C19.7,6.4,19.6,6.6,19.4,6.6z"/>
</g>
</svg>
