<?xml version="1.0" encoding="utf-8"?>
<!-- Generator: Adobe Illustrator 22.1.0, SVG Export Plug-In . SVG Version: 6.00 Build 0)  -->
<svg version="1.1" id="Layer_1" xmlns="http://www.w3.org/2000/svg" xmlns:xlink="http://www.w3.org/1999/xlink" x="0px" y="0px"
	 viewBox="0 0 23.6 18.4" style="enable-background:new 0 0 23.6 18.4;" xml:space="preserve">
<style type="text/css">
	.st0{fill:#FBA919;}
	.st1{fill:#EC008C;}
</style>
<title>gallery-icon</title>
<g id="Layer_2_1_">
	<g id="Layer_1-2">
		<path class="st0" d="M19.7,16.4c0,0.5-0.2,1-0.6,1.4s-0.9,0.6-1.4,0.6H2c-0.5,0-1-0.2-1.4-0.6S0,16.9,0,16.4V5.9
			c0-0.5,0.2-1,0.6-1.4C0.9,4.1,1.5,3.9,2,3.9h0.7v2H2.2C2.2,5.9,2.1,6,2,6c0,0,0,0.1,0,0.2v10c0,0.1,0,0.1,0.1,0.2
			c0,0.1,0.1,0.1,0.2,0.1h15.2c0.1,0,0.1,0,0.2-0.1c0,0,0.1-0.1,0.1-0.2v-0.4h2L19.7,16.4z M23,0.6C23.4,1,23.6,1.5,23.6,2v10.5
			c0,0.5-0.2,1-0.6,1.4s-0.9,0.6-1.4,0.6H5.9c-1.1,0-2-0.9-2-2V2c0-0.5,0.2-1.1,0.6-1.4C4.9,0.2,5.4,0,5.9,0h15.8
			C22.2,0,22.7,0.2,23,0.6z M6.2,2C6.1,2,6,2,6,2S5.9,2.1,5.9,2.2v10c0,0.1,0,0.1,0.1,0.2c0,0,0.1,0.1,0.2,0.1h15.3
			c0.1,0,0.1,0,0.2-0.1c0.1,0,0.1-0.1,0.1-0.2v-10c0-0.1,0-0.1-0.1-0.2c0,0-0.1-0.1-0.2,0C21.5,2,6.2,2,6.2,2z"/>
		<path class="st1" d="M10.4,5.8c-0.3,0.3-0.7,0.5-1.2,0.5c-0.9,0-1.6-0.7-1.6-1.6c0,0,0,0,0-0.1C7.6,3.7,8.3,3,9.2,3l0,0
			c0.9,0,1.6,0.7,1.6,1.6c0,0,0,0,0,0.1C10.8,5.1,10.7,5.5,10.4,5.8z"/>
		<path class="st1" d="M9.5,6.9c0.1-0.1,0.2-0.1,0.3-0.1s0.2,0,0.3,0.1l1.6,1.6L16,4.2c0.1-0.1,0.2-0.1,0.3-0.1c0.1,0,0.2,0,0.3,0.1
			l3,3v3.2H7.9v-2L9.5,6.9z"/>
	</g>
</g>
</svg>
