<?xml version="1.0" encoding="utf-8"?>
<!-- Generator: Adobe Illustrator 22.1.0, SVG Export Plug-In . SVG Version: 6.00 Build 0)  -->
<svg version="1.1" id="Layer_1" xmlns="http://www.w3.org/2000/svg" xmlns:xlink="http://www.w3.org/1999/xlink" x="0px" y="0px"
	 viewBox="0 0 21 21" style="enable-background:new 0 0 21 21;" xml:space="preserve">
<style type="text/css">
	.st0{fill:#FBA919;}
	.st1{fill:#EC008C;}
</style>
<title>mission-icon</title>
<g id="Layer_2_1_">
	<g id="Layer_1-2">
		<path class="st0" d="M10.3,21.1c-0.4,0-0.7-0.1-1.1-0.3c-0.5-0.4-0.9-0.9-0.9-1.5V17c0,0-0.1,0-0.1,0.1L8,17.2H7.5
			c-0.4,0-0.8-0.2-1-0.6l-2.3-2.3c-0.1-0.1-0.5-0.5-0.5-1v-0.6l0.1-0.2c0,0,0-0.1,0.1-0.1H1.8c-0.6,0-1.3-0.3-1.6-1
			c-0.3-0.5-0.3-1.2,0-1.8l1.7-3.4c0.3-0.5,0.7-0.8,1.1-1c0.4-0.3,1-0.4,1.4-0.4h3.3C8.6,3.5,9.6,2.5,11,1.5c1.5-1,3.4-1.5,5.3-1.5
			h1.5c0.6,0,1.2,0.1,1.8,0.3c0.6,0.1,1.1,0.6,1.2,1.2S21,2.7,21,3.3v1.5c0,1.8-0.5,3.7-1.5,5.2c-0.9,1.2-2,2.3-3.2,3.2v3.4
			c0,0.5-0.1,1-0.4,1.4c-0.1,0.2-0.5,0.7-1.1,1l-3.6,1.8C10.9,21,10.6,21.1,10.3,21.1z M10.2,19.1C10.2,19.2,10.2,19.2,10.2,19.1
			C10.3,19.2,10.3,19.2,10.2,19.1l3.8-1.8c0,0,0.1-0.1,0.3-0.3c0.1-0.1,0.1-0.2,0.1-0.4v-4.4l0.4-0.3c1.2-0.8,2.3-1.8,3.1-3
			s1.2-2.7,1.2-4.2V3.3c0-0.4-0.1-0.8-0.2-1.3c-0.4-0.1-0.8-0.2-1.3-0.2h-1.5c-1.5,0-3.1,0.4-4.3,1.2c-1.1,0.9-2,2-2.7,3.1L8.8,6.6
			H4.4c-0.1,0-0.3,0-0.4,0.1C3.9,6.8,3.6,7,3.6,7.1l-1.7,3.5h4.7l-0.4,1.2c-0.2,0.5-0.4,1-0.6,1.4l2.2,2.2c0.2-0.1,0.5-0.2,0.7-0.3
			l1.8-0.8L10.2,19.1L10.2,19.1z"/>
		<circle class="st1" cx="16.4" cy="4.6" r="2"/>
	</g>
</g>
</svg>
