<?xml version="1.0" encoding="utf-8"?>
<!-- Generator: Adobe Illustrator 23.0.1, SVG Export Plug-In . SVG Version: 6.00 Build 0)  -->
<svg version="1.1" id="Layer_1" xmlns="http://www.w3.org/2000/svg" xmlns:xlink="http://www.w3.org/1999/xlink" x="0px" y="0px"
	 viewBox="0 0 124 100" style="enable-background:new 0 0 124 100;" xml:space="preserve">
<style type="text/css">
	.st0{fill:none;}
</style>
<g>
	<circle class="st0" cx="61.6" cy="17.8" r="16.4"/>
	<path class="st0" d="M113.3,57.4c-1.3-1.3-3.1-2.3-4.9-3c-5.2-2.1-10-4.1-14.9-6.8c-9.3-5-20-7.3-30.5-6.8
		c-11.3,0.5-20.8,2.7-31.4,6.3c-5,1.7-9.6,4.3-14.5,6c-3.4,1.2-8,3.8-8.4,7.8c-0.3,3.4,5.6,12,9.3,11.9c2.8-0.1,6.6-2.9,9.5-3.7
		c4.9-1.2,8.5-5.8,13.5-6.9c-0.8,5.6-0.4,11.4,0.4,17c14,0,28.1,0.4,42.1,0.4V63.4c0-1.3,11.4,3.6,12.3,4.2c2.5,1.6,5.2,2.6,7.7,4.2
		c0.7,0.5,1.5,0.9,2.4,1c2.4,0.2,6.6-5.4,8-7.2C116.3,62.2,115.5,59.5,113.3,57.4z"/>
	<path class="st0" d="M119,98.5H4.1c-1.1,0-2-0.9-2-2v-9.3c0-1.1,0.9-2,2-2H119c1.1,0,2,0.9,2,2v9.3C120.9,97.6,120,98.5,119,98.5z"
		/>
</g>
<g>
	<g id="Layer_2_2_">
		<g id="Layer_1-2_1_">
			<path d="M5,100c-1.3,0-2.5-0.5-3.4-1.3c-1-0.9-1.5-2.2-1.5-3.6v-6.3c-0.1-1.3,0.4-2.7,1.3-3.6c0.9-1,2.2-1.5,3.6-1.5h113.7
				c1.3-0.1,2.7,0.4,3.6,1.3c1,0.9,1.5,2.2,1.5,3.6v6.3c0.1,1.3-0.4,2.7-1.3,3.6c-0.9,1-2.2,1.5-3.6,1.5H5.2C5.1,100,5,100,5,100z
				 M4.9,87.9c-0.2,0-0.4,0.1-0.5,0.2s-0.2,0.2-0.2,0.5v0.1V95c0,0.2,0.1,0.4,0.2,0.5s0.3,0.2,0.5,0.2H5h113.8
				c0.2,0,0.4-0.1,0.5-0.2s0.2-0.2,0.2-0.5v-0.1v-6.3c0-0.2-0.1-0.4-0.2-0.5s-0.3-0.2-0.5-0.2h-0.1H4.9z M85,82H38.8V65.9
				c-5.8,2.1-11.2,4.8-16.3,8h-0.1c-1.7,1-3.8,1.3-5.9,0.9h-0.1c-2.1-0.5-3.8-1.7-4.9-3.5l-3.3-5.1c-1.1-1.6-1.6-3.8-1.2-6
				c0.4-2.3,1.8-4.3,3.7-5.5h0.1c6.6-3.7,13.5-7,20.4-9.8h0.1c11-4.1,21.3-6.2,30.7-6.2c8.3,0.1,16.6,1.5,24.7,4.2
				c7.7,2.2,23.2,9.8,26.4,11.8c2.1,1.2,3.5,3.2,3.8,5.6c0.4,2-0.1,4.2-1.3,5.9l-3.3,5c-1.1,1.8-2.9,3.1-5.1,3.5
				c-2.1,0.4-4.1,0.1-5.9-0.9c-5.1-3-10.6-5.7-16.3-7.9V82z M43.1,77.7h37.6V59.8l2.9,1c7,2.5,13.7,5.6,19.9,9.3
				c1,0.6,2.1,0.5,2.9,0.4c1-0.2,1.7-0.7,2.2-1.4l0.1-0.1l3.3-5.1c0.6-0.8,0.8-1.9,0.6-2.8v-0.2c-0.1-1-0.7-1.8-1.7-2.4h-0.1
				c-2.8-1.8-18.1-9.2-25.4-11.3h-0.1c-7.7-2.6-15.6-3.9-23.4-4c-8.8,0-18.6,2-29.1,5.9C26,51.8,19.3,55,12.9,58.6
				C12.1,59,11.5,60,11.3,61s0,2.1,0.5,2.8l3.4,5.1c0.5,0.8,1.3,1.4,2.3,1.6c0.7,0.1,1.8,0.2,2.8-0.4c6.2-3.8,12.9-7,20-9.4l2.8-0.9
				V77.7z M61.9,37.2c-5,0-9.6-2-13.1-5.5c-3.6-3.5-5.5-8.1-5.5-13.1c-0.1-4.9,1.9-9.6,5.5-13.1C52.3,2,56.9,0,61.9,0c0,0,0,0,0.1,0
				c4.9,0,9.4,1.9,12.9,5.3L75,5.5c3.5,3.4,5.5,8.1,5.5,13.1s-2,9.6-5.5,13.1S66.9,37.2,61.9,37.2z M62,4.3
				C61.9,4.3,61.9,4.3,62,4.3c-3.9,0-7.4,1.5-10.1,4.2c-2.8,2.8-4.3,6.3-4.3,10c0,3.9,1.5,7.4,4.2,10.1l0,0c2.6,2.7,6.2,4.2,10,4.2
				c3.8,0,7.4-1.5,10-4.2l0,0c2.7-2.6,4.2-6.2,4.2-10s-1.5-7.4-4.2-10l-0.2-0.2C69.2,5.8,65.7,4.3,62,4.3z"/>
		</g>
	</g>
</g>
</svg>
