<?xml version="1.0" encoding="utf-8"?>
<!-- Generator: Adobe Illustrator 23.0.0, SVG Export Plug-In . SVG Version: 6.00 Build 0)  -->
<svg version="1.1" id="Layer_1" xmlns="http://www.w3.org/2000/svg" xmlns:xlink="http://www.w3.org/1999/xlink" x="0px" y="0px"
	 viewBox="0 0 1200 691.9" style="enable-background:new 0 0 1200 691.9;" xml:space="preserve">
<style type="text/css">
	.st0{fill:#D9F1FD;}
	.st1{fill:#FFFFFF;}
	.st2{fill:#EAA568;}
	.st3{fill:#CBCBCB;}
	.st4{fill:#C18D5D;}
	.st5{fill:#FFFFFF;stroke:#000000;stroke-width:6.55;stroke-linecap:round;stroke-linejoin:round;}
	.st6{fill:#6D2A16;}
	.st7{fill:#6D2A16;stroke:#000000;stroke-width:4.91;stroke-linecap:round;stroke-linejoin:round;}
	.st8{fill:#34658A;}
	.st9{fill:none;stroke:#000000;stroke-width:4.91;stroke-linecap:round;stroke-miterlimit:10;}
	.st10{fill:#FFCCCC;}
	.st11{fill:#FBA919;}
	.st12{enable-background:new    ;}
	.st13{fill:#FFFFFF;stroke:#000000;stroke-width:4.91;stroke-linecap:round;stroke-linejoin:round;}
	.st14{fill:#6C3248;stroke:#000000;stroke-width:4.91;stroke-linecap:round;stroke-linejoin:round;}
	.st15{fill:#FFC8B0;}
	.st16{fill:#8EDF43;}
	.st17{fill:#2F4858;}
	.st18{fill:#F26524;}
</style>
<path class="st0" d="M1200,35.6H0v308.5c22.1,5,40.7,27,45.8,51.7c8.2,40.1-15.1,95.8,8.4,131.9c6.3,9.7,18.7,16.6,29.6,12.9
	c12.2-4.2,17.1-18.7,19.1-31.4c9.5-60.5-20.3-137.4,12.4-194.7c5.3-9.4,14.3-17.2,25-18.8c13.4-2,26.5,6.5,34.1,17.9
	c0.7,1,1.3,2,1.9,3c16.9,30.3,14.2,81.2,13.8,114.9c-0.6,46.4-46.6,187.8,12.8,208.8c21.7,7.7,48.3-4.2,57.1-25.4
	c4.3-10.3,4.6-21.7,4.9-32.8c0.6-23.3-4.1-44.4-8.1-67.4c-9.4-53.3-22.8-121.3,5.7-171.2c21.8-38.2,65.1-33,74.2,9.3
	c6.3,29.2-11.2,59-3.1,87.3c6.8,23.6,34.8,31.8,52.4,13c6.9-7.4,10-17.7,10-27.8c0-7.6-1.6-15.4,0.2-22.8c7.5-30.3,29.9,0.2,42,20.9
	c2.8,4.6,5.3,9.4,7.5,14.3c13,30.6,21.5,66.3,46.3,90.2c32.7,31.7,76.5,49.4,122,49.3h586V35.6z"/>
<g>
	<path class="st1" d="M990.4,306.4c-4.2,51.2,2.1,122-54.4,144.7c-22.5,9-47.3,9.9-71.6,10.4c-67.2,1.5-134.4,1.2-201.6-0.9
		c-33.5-1-67-3.9-100.5-4.4c-23.2-0.3-49.7,4-67.3-15.4c-22.8-25.5-17.7-71.5-17.7-103.2c-0.1-51.7,15.4-107,23.4-158.1
		c7.2-46.5,29.8-88.5,82.5-90c117.1-3.4,238.6,9.5,350,47.5c24.8,8.5,61.8,25.7,67.8,54.4C1007.7,223.3,993.2,272.8,990.4,306.4z"/>
	<path d="M990.4,306.4c-1.3,16.3-1.6,32.8-2.8,49.1c-1.3,16.3-3.3,32.7-8.6,48.3c-2.6,7.8-6.2,15.3-10.8,22.1
		c-4.6,6.8-10.5,12.8-17.2,17.6c-6.7,4.8-14.4,8.2-22.2,10.8c-1,0.3-2,0.6-3,0.9s-2,0.6-3,0.9c-2,0.5-4,1.1-6,1.5
		c-4,0.9-8.1,1.6-12.2,2.2c-16.3,2.3-32.8,2.6-49.2,3.2c-16.4,0.5-32.8,0.9-49.2,1.2c-32.8,0.6-65.6,0.8-98.4,0.6
		c-16.4-0.1-32.8-0.3-49.2-0.6c-16.5-0.4-32.9-1.1-49.2-1.8c-16.4-0.7-32.7-1.3-48.9-1.3c-8,0-16.3,0.5-24.7,0.4
		c-4.2-0.1-8.5-0.3-12.9-1l-1.6-0.2c-0.5-0.1-1.1-0.2-1.6-0.3l-3.3-0.7c-2.2-0.6-4.3-1.1-6.4-2l-1.6-0.6c-0.5-0.2-1.1-0.4-1.6-0.7
		l-3.1-1.5c-0.5-0.2-1-0.5-1.5-0.8l-1.5-0.9c-1-0.6-2-1.2-2.9-1.9l-2.7-2.1c-0.9-0.7-1.7-1.6-2.5-2.4c-1.7-1.6-3.2-3.3-4.5-5.1
		c-5.5-7.2-9.3-15.4-11.7-23.7c-2.5-8.3-3.8-16.8-4.6-25.2c-0.8-8.4-1-16.8-0.9-25.1c0-8.3,0.3-16.5,0.3-24.6v-6.1l0.1-6.3
		c0-2.1,0.1-4.2,0.2-6.3l0.3-6.3c1.1-16.6,3.4-33.1,6.1-49.4c2.8-16.3,6.1-32.4,9.2-48.5c1.6-8,3.1-16,4.6-24.1c0.7-4,1.5-8,2.1-12
		l1-6.1c0.3-2.1,0.7-4.2,1.1-6.2c0.8-4.1,1.7-8.3,2.9-12.4c1.1-4.1,2.4-8.2,3.8-12.2c2.9-8,6.5-15.9,11.1-23.2
		c2.3-3.7,4.9-7.2,7.7-10.6c1.4-1.7,2.9-3.3,4.4-4.9c1.6-1.5,3.1-3.1,4.8-4.5c3.3-2.9,6.9-5.5,10.7-7.7s7.7-4.2,11.9-5.8
		c4.1-1.6,8.3-2.8,12.6-3.6c2.1-0.5,4.3-0.8,6.4-1.1c1.1-0.1,2.2-0.2,3.2-0.3c1.1-0.1,2.2-0.2,3.2-0.3c4.4-0.3,8.4-0.2,12.5-0.3
		l12.3-0.1c8.2,0,16.5,0.1,24.7,0.2l12.3,0.3c4.1,0.1,8.2,0.2,12.3,0.4c32.9,1.3,65.7,4.1,98.3,8.4c65.2,8.6,129.7,23.2,191.3,45.9
		c7.6,3,15.1,6.5,22.3,10.6c7.1,4.1,14,8.8,20,14.4c3,2.8,5.8,5.9,8.2,9.2s4.5,7,6,10.8l0.6,1.4l0.5,1.5c0.3,1,0.5,2,0.8,3
		c0.4,2,0.7,4.1,1,6.1c0.2,1,0.2,2,0.3,3.1l0.3,3.1c0.1,1,0.1,2,0.1,3.1l0.1,3.1c0.1,8.2-0.6,16.4-1.5,24.5
		c-1,8.1-2.3,16.2-3.6,24.3l-4.1,24.2C992.4,290.1,991.1,298.2,990.4,306.4z M982.6,305.2c0.5-12.8,1.5-25.4,4.3-38.3
		c4.2-19.4,8.8-38.8,9-58.7c0.2-15.5-0.9-29.6-13.6-40c-14.7-12.1-29.5-19.1-46.8-26.5c-20.7-8.9-42.2-15.8-64-21.4
		c-2-0.5-4-1-6-1.4l-6-1.4l-12-2.7c-32-6.8-64.4-11.7-96.9-15.2s-65.2-5.3-97.8-5.9c-4.1-0.1-8.2-0.1-12.3-0.1l-12.3-0.1
		c-8.2,0.1-16.3,0.2-24.5,0.3l-12.2,0.4c-4,0.1-8.3,0.2-12.1,0.5c-1,0-1.9,0.2-2.9,0.3c-1,0.1-1.9,0.2-2.9,0.4
		c-1.9,0.3-3.8,0.6-5.7,1.1c-3.8,0.8-7.4,1.9-11,3.3s-6.9,3.1-10.2,5.1c-3.2,2-6.3,4.3-9.1,6.8c-1.4,1.2-2.8,2.6-4.1,3.9
		c-1.3,1.4-2.6,2.8-3.8,4.3c-2.4,3-4.7,6.1-6.6,9.4c-8,13.2-12.8,28.5-15.8,44.1c-0.4,2-0.7,3.9-1,5.9l-1,6.1
		c-0.6,4.1-1.3,8.2-2,12.2c-0.7,4.1-1.5,8.1-2.2,12.2l-2.3,12.1c-3.1,16.1-6.3,32.1-9.1,48.2c-2.7,16-5,32.1-6.1,48.2l-0.3,6
		c-0.1,2-0.2,4-0.3,6l-0.1,6c-0.1,2,0,4.1-0.1,6.2c-0.1,8.3-0.4,16.5-0.5,24.6s0,16.1,0.6,24.1c0.6,7.9,1.8,15.7,3.9,23.1
		s5.2,14.4,9.6,20.3c1.1,1.5,2.3,2.9,3.6,4.1c0.6,0.6,1.2,1.3,1.9,1.9l2.1,1.7c0.7,0.6,1.5,1,2.2,1.5l1.1,0.7
		c0.4,0.3,0.7,0.5,1.2,0.7l2.4,1.2c0.4,0.2,0.8,0.4,1.2,0.5l1.3,0.5c1.7,0.7,3.5,1.2,5.3,1.7l2.8,0.6c0.5,0.1,0.9,0.2,1.4,0.3
		l1.4,0.2c3.8,0.7,7.7,0.9,11.6,1.1c7.9,0.3,16.1,0,24.5,0.1c16.6,0.3,33,1.3,49.3,2.4c16.4,1.1,32.7,2.2,49,3
		c16.5,0.8,32.7,1.3,49.1,1.9c58.4,1.8,114.4-1,172.6-6.2c15.7-1.4,32.3,0.6,47.4-4.8c30-10.7,46.6-44.8,50.2-74.1
		c2-16.1,3-33,3.6-49.1C982.1,317.9,982.3,311.5,982.6,305.2z"/>
</g>
<g>
	<path class="st2" d="M331.4,547.3c3.5,2.8,5.4,7.4,6.4,12.1c0.8,3.8,1,7.7,2.1,11.4c1.3,4.4,3.9,8.5,4.4,13c0.1,0.2,0,0.5-0.1,0.7
		c-0.2,0.2-0.5,0.3-0.8,0.3c-9.3,0-18.2-3.4-25.1-9.6c-5.1-4.5-19.5-24.4-4-22c2,0.3,4-1,5.3-2.6s2.2-3.5,3.7-4.9
		c0.3-0.4,0.7-0.6,1.2-0.8c0.6-0.2,1.2-0.2,1.8,0C328,545.2,329.8,546.1,331.4,547.3z"/>
	<path class="st3" d="M313.1,536.3c-0.4,2.2-1.9,4.1-4,5c-2.1,0.8-4.3,1.3-6.5,1.3c1.8,3,1.1,7.3,3.7,9.5c1.8,1.6,4.6,1.5,6.9,1
		c2.1-0.3,4-1.2,5.6-2.5c3.6-3,4-8.2,1.1-11.8c-1.5-1.8-3.7-2.9-6.1-3"/>
	<path class="st4" d="M216.3,421.6c-3.4-2.7-18.9-11.9-14.6-0.5c0.7,1.9,8.8,17.4,16,26c6.2,7.4,20.2,26,25.4,34
		c5,7.8,45.8,50.3,48.7,52.7c3.6,2.9,12.2,9.5,17.1,9.2c10.2-0.6-0.3-14.9-2.4-18c-6.2-9-12.6-17.9-19.3-26.6
		c-5.7-7.4-13-16.5-19.1-23.8c-6.7-7.9-10.3-14.3-17.8-21.4l-27.6-26C220.5,425.1,218.5,423.3,216.3,421.6z"/>
	<path d="M350.3,586.2c-1.8-4.2-2.5-8.7-3.4-13.2c-1.3-6.5-3.4-12.8-6.2-18.7c-2.5-4.8-6.1-9.4-11.3-11.5c-0.3-0.1-3.4-0.8-3.4-0.9
		c-1.2-4-4.1-7.3-8-8.8c-1.4-0.6-3.4,0.7-4.5-0.2c-0.9-0.9-1.6-2-2.1-3.2c-1.6-2.5-15-22.7-17.8-26.5c-7.6-10.1-15.4-20-23.6-29.7
		c-16.4-19.5-34.3-38-54.4-53.9c-3.2-2.3-6.5-4.3-10-6.2c-1.5-0.6-4.7-0.5-5.5,1.3c-1.7,3.8,11.6,26.3,15.4,31.3
		c9.1,12.4,17.6,25.3,27.8,36.9c11.4,13.5,21.3,28.3,34.1,40.6c7.3,7.1,13.9,14.7,23.4,19c0.1,0,0.1,0.1,0.2,0.1
		c0.1,0.1,0.1,0.2,0.1,0.3c0.3,3.5,2.7,7.4,4.8,10.3c-3.9,9.3,3.5,19.6,10.6,25.4c4.8,3.8,10.2,6.8,16.1,8.8c2.9,1,5.9,1.8,9,2.5
		c2.9,0.6,6,1.3,9,1c0.3,0,0.5-0.1,0.7-0.2c0.2-0.1,0.3-0.3,0.3-0.5C351.7,589.2,350.5,586.9,350.3,586.2z M294.3,532.5
		c-2.1-2-4.3-4-6.4-6c-7.1-6.4-13.8-13.2-20.2-20.4c-6.5-7.5-13.9-14.1-19.9-22c-5.8-7.7-11.5-14.2-17.4-21.8
		c-6.6-8.4-10.3-14.7-16.8-23.1c-1.8-2.3-14.4-20.8-10.7-22.7c1.8-0.9,4.7,1,6.1,1.9c4.6,2.8,8.6,6.6,12.7,10.1
		c7.8,6.6,15.3,13.7,22.4,21.1c5.9,6.1,11.4,12.7,17.1,19c8.4,9.4,16.4,19.1,24.1,29c9.3,11.7,18.2,24.1,25.2,37.1
		c1.1,2.1-1,6.2-3.6,6C301.9,540.3,297.6,535.7,294.3,532.5L294.3,532.5z M308.3,549.9c-0.8-1.4-0.7-3.4-2.1-4.6
		c2.2-0.1,4.4-0.8,6.2-2.1c0.4-0.3,3.7-4.5,3.3-4.6c3.2,0.3,5.2,4,4.4,7.1c-1.1,3.5-4.3,5.9-8,6.1
		C309.9,551.8,308.9,551,308.3,549.9L308.3,549.9z M324.1,575.8c-6.4-4.1-15.3-11.2-14.5-19.7c1.7,0.4,3.5,0.4,5.3-0.1
		c-0.1,0.8-0.1,1.6-0.1,2.4c0.1,1.8-0.1,3.2,0.6,4.9c0.7,1.6,1.7,3.1,2.9,4.3c1.4,1.2,3.1,2.2,4.9,2.9c0.7,0.3,1-0.7,0.6-1.1
		c-1.4-1.2-2.6-2.5-3.7-4c0-0.1-0.1-0.3-0.2-0.4l-0.2-0.2c-1.9-2.8-2.9-6.2-2.9-9.6c0.5-0.2,0.9-0.4,1.4-0.7c0.3-0.2,0.7-0.4,1-0.6
		c-0.3,0.2,2.3,4.6,2.6,5c1.2,1.8,2.6,3.3,4.2,4.6c1.5,1.1,2.9,2.4,4.4,3.4c0.7,0.5,1.3-0.4,0.9-1c-2.3-3.3-4.2-7.1-7.1-10
		c-0.4-0.4-3.2-3.4-3.7-3c0.5-0.4,1.1-0.9,1.6-1.4c4.1,0.1,6.3,3.6,8.4,6.7c0.4,0.5,1-0.1,0.9-0.5c-0.9-2.3-1.4-5.9-3.8-7.2
		c-0.8-0.4-3.1-1.4-3.9-0.5c1-0.9,1.7-2.1,2-3.4c3.6,0.6,6.3,4.2,7.9,7.1c2.8,5.2,4.1,11,5.3,16.7c0.8,4.2,2,8.4,3.6,12.4
		C336,581.7,329.8,579.3,324.1,575.8L324.1,575.8z"/>
	<path d="M511.1,387.2c-3.4-0.4-6.9,1.8-10,3c-0.5,0.2-1.1,0.4-1.6,0.6c2.3-3.2,3.7-6.8,5.9-10.8c0.3-0.6-0.2-1.2-0.9-1.1
		c-7,1.2-7.5,8.8-11.7,13.2c-1,0.1-1.9,0.8-2.2,1.8l-0.3,0.2c-8.8,4.8-19.5,7.4-28.9,11.1c-9.9,3.9-19.9,7.4-29.9,10.9
		c-5,1.7-10,3.3-15,5c-0.3,0-0.6-0.1-1-0.1c-6.6-0.4-14.4,2-20.8,3.2l-10.2,1.8h-0.4c-7.4,0.7-14.7,2.8-22,4.3
		c-12.3,2.5-25.2,21.2-34.6,28.9c-5.4,4.5-11,8.9-16.4,13.5c-4.6,3.9-8.4,8.8-12.8,13c-2.3,2.2-5,5.8-7.9,7.4c-1.6,0.9-5,0.2-7,0.4
		c-2.2,0.2-4.4,0.1-5.5,2.2c-0.5,0.8-0.3,1.8,0.3,2.4c2.1,1.5,3.9,0.8,6.3,0c0.5-0.2,1-0.3,1.5-0.5c-0.8,1.8-1.4,3.7-1.7,5.6
		c-0.4,2.4-0.8,5.3,1.2,7.1c0.7,0.6,1.8,0.5,2.4-0.2l0.1-0.1c1.2-1.9,0.5-4.1,0.7-6.2c0.2-1.9,0.7-3.8,1.4-5.5
		c0,2.3,0.8,4.2,1.5,6.3c0.4,1.3,1.1,4.4,3.3,3.5c2.4-1.1,0.2-4.6-0.5-6.1c-0.1-0.3-2.1-3.8-1.3-3.9c1.9-2.4,4-4.6,6.1-6.7
		c3.4-3.1,6.7-6.2,10-9.4c6.8-6.4,13.5-12.8,20.6-18.9c6-5.1,12.1-10.1,18.3-15.1c0.9-0.9,2-1.6,3.1-2.3
		c3.4,28.7-12.1,55.9-17.3,83.7c-3.9,20.9,21.7,18.9,35.4,19.3c2,0,4,0.1,6.1,0.1c2.2,17.2,7.6,34,7.3,51.4
		c-10.4-2-20.8-4.6-31.3-3.7c-0.3,0-0.6,0.1-0.8,0.3c-2.3-0.2-3.1,3.4-1.8,5.2c-0.2,0.1,2.2,2,2.6,2.3c1.5,0.9,3.4,2.3,5.1,2.5
		c6.3,0.6,12.5,2.2,18.8,2.1c3.1-0.1,6.2-0.6,9.1-1.5c1.2-0.3,2.5-0.2,3.3-1.6c0.9-1.7,0.2-4.5,0.1-6.3c-0.4-8.8-1.4-17.5-3.1-26.2
		c-1.5-8-3.4-16.2-4.5-24.5c9.3-0.1,18.5-1.1,27.6-2.9c0,1.3,0.1,2.7,0.2,4.2c0.5,17.9-4.6,35.2-2.9,53c0,0.2,0.1,0.4,0.1,0.7
		c-0.8,1.6,0,4.3,1.8,4.2c1.2,0.2,2.3,0.4,3.5,0.5c0.4,0.2,0.8,0.2,1.2,0.1h0.2c7,0.3,13.8-1.5,20.5-2.7c1.5-0.3,3-1.6,4.3-2.5
		c0.3-0.2,2.2-2,2.1-2.1c1-1.6,0.1-4.7-1.9-4.3c-0.2-0.1-0.5-0.2-0.8-0.2c-9.1-0.1-18,2.8-26.8,5.2c-1.6-16.8,3.2-33.5,3-50.4
		c0-2.2-0.1-4.4-0.1-6.7c9.8-2.2,19.2-6,27.9-11.1c11.5-6.9,14.5-13.5,10.3-26.6c-3.6-11.6-11.1-21.5-16.1-32.5
		c-2.4-5.3-4.8-10.5-6.8-15.9c-1.6-4.4-12.8-32.1-5.8-34.5c4.3-1.5,8.7-3,11.8-4c10.5-3.5,20.9-7.1,31.3-11c9-3.3,18.5-7,26.9-11.6
		c1.8,1.2,3.9,2.2,5.8,3.3s3.8,2.5,6,2.8s3.3-1.3,2.5-3c-0.9-2-3.4-3.6-5.3-4.8l-0.5-0.3c0.6-0.3,1.2-0.7,1.9-1c3.1-1.6,7.8-3,9.6-6
		c0.2-0.4,0-0.9-0.4-1.1C511.2,387.2,511.2,387.2,511.1,387.2z"/>
	<circle class="st5" cx="377.5" cy="356.9" r="58.6"/>
	<path class="st6" d="M284.6,351.5c2.5-0.5,4.9-1.3,7.2-2.5c2.1-1.3,3.6-4.1,2.5-6.4c2.7,0.3,5.4-0.8,7.1-2.9
		c1.6-2.1,2.2-4.8,1.6-7.4c5.4,0.6,5.1-2.2,7.7-5.6c3.1-4,8.3-3.7,12.1-6.9c1.5-1.3,3.2-3.1,3.4-5.3c0.3-2.5-1.5-8-2.3-10.6
		c-1.3-4.8-3.7-9.2-7.1-12.8c-2.6-2.6-5.8-4.5-9.4-5.4c-3.3-0.8-8.3,1.5-10.8,0.6s-5.2-5.3-8.1-6.6c-3.8-1.6-7.7-2.7-11.7-3.3
		c-2.9-0.6-6.2-1.1-8.8,0.4c-3.7,2.1-4.2,7.2-4.3,11.5c-7.2-2.1-15,0.1-20,5.7c-3.4,3.9-3.1,10-1.9,14.8c-0.5-1.9-8,1.2-8.6,1.4
		c-1,0.3-1.8,0.9-2.4,1.8c-1,1.8,0.6,3.9,1.7,5.6c0.3,0.4,0.5,0.8,0.4,1.3c-0.1,0.3-0.2,0.6-0.4,0.9c-1.2,1.5-2.8,2.7-3.7,4.3
		c-4.1,7.4,6.9,11.8,12.6,11.6c-0.8,4.1,0.2,8.5,3.7,11.1c5.2,3.9,11.8-2,14.9,1.7c3.2,3.9,3.7,9,10.9,6.6c4.5-1.5,7-5.8,8.1-10.2
		c1.7,2.6,1.2,5.6,4.7,6.5C284,351.5,284.3,351.5,284.6,351.5z"/>
	<path class="st6" d="M498.4,264.7c2.4,1.7,4.3,3.8,2.3,8c-2,4-5.7,4-5.5,9c0.1,3.1,0.7,6.6-0.4,9.6c-1.2,3.2-3.2,3.1-5.6,5.3
		c-2.3,2.2-1.8,2.7-2,5.9c-0.2,3.2-2.3,4.9-5.2,5.7c-3.5,1-5.7-0.3-8.9,1.4c-1.6,0.8-3,2.1-4.6,2.7c-1.1,0.5-2.2,0.7-3.6,0.4
		c-5-0.7-6.9-3-12-1.1c-3.1,1.2-5.3-1.1-8-2c-6.2-2-12.5,2.3-18.6,1.3c-3.2-0.5-9.5-1-11.8-3.5c-1.7-1.8-3.2-7.2-4-9.6
		c-1.6-4.5-2-9.4-1.3-14.1c0.7-3.5,2.3-6.8,4.7-9.5c2.2-2.5,7.5-3.5,9.1-5.6c3.9-5.3,1.9-13.3,7.2-18.3c3.9-3.6,10-3.8,15-2.1
		c2.1,0.7,3.8,3.3,5.8,3.1c1.7-0.2,3.1-3.1,4.5-4c1.5-1,3.1-1.7,4.8-2.2c3.2-1,6.7-1.2,10-0.5c4.9,1.2,8,6.2,9.7,10.6
		c1.3-1.7,3.3-2.7,5.4-2.7s4.1,1.1,5.3,2.8c1.3,1.9,1.7,4.4,3.3,6.1C495.1,262.7,496.9,263.6,498.4,264.7z"/>
	<path d="M327.5,311.4c3.9-9.5,1.4-22-7.8-27.6c-6.3-3.8-14.2-3.9-20.6-0.4c-1.8-2.6-4-4.9-6.5-6.9c-4.9-4.1-11.1-6.5-17.5-5.7
		c-8.4,0.9-14.7,7.8-14.9,15.3c-5.4-2.1-11.5-1.3-16.4,1.9c-6,4.2-8.4,11.5-7.1,18.4c-6.9,0.7-11.4,8.5-6.9,14.8
		c-3.8,3.1-4.7,8.5-2.1,12.6c2.8,4.1,7,4.5,10.7,2.9c-1,4.1,0.4,8.5,3.7,11.2c3.8,3.2,9.2,3.7,13.6,1.2c1.8,5.9,7,10.6,13.5,10.7
		c5.1,0,9.7-2.7,12.3-7c4,3.6,10.2,3.3,13.8-0.7c1.3-1.5,2.2-3.3,2.5-5.3c5-0.8,8.8-4.9,9.1-10c12.6,0.4,25.7-11.3,19.9-24.5
		C327.1,312.1,327.3,311.8,327.5,311.4z M320.3,313.7c-0.1,4.5-0.3,9.2-3.5,12.7c-4.4,4.8-12.1,0.3-15.5,5.6c-1.9,3-1.4,5.7-4.4,7.9
		c-2.1,1.5-3.6,0.5-4.2,3.7c-0.2,1.1-0.5,2.2-1.3,2.9c-3.2,3.1-6.8-0.7-7.2-4c-1-4.1-8-3.3-7.5,1c1.4,12.1-16.2,12.3-15.6,0
		c0.1-2.4-3.4-4-5-2c-6.6,8.3-17.4-1.1-11.6-9.3c1-1.3-1.1-2.9-2.3-1.8c-0.2,0.2-0.3,0.4-0.5,0.5c-2.1,2.2-5.4,2.7-8,1.1
		c-2.9-1.8-3.3-6.7,0.8-7.8c1.6-0.5,2.6-2.9,1.1-4c-3.7-2.9-0.9-9.8,4.2-7.1c1.5,0.8,3.4,0.3,4.2-1.3c0.5-0.9,0.5-2,0-3
		c-3-5.6-1.3-12.4,4.1-15.7c2.4-1.5,5.4-2.1,8.2-1.6c3,0.5,7.5,3.7,10.1,0.4c1.9-2.3,0.9-6.9,2.7-9.7c1.9-3,4.9-4.4,8.5-4.3
		c3.5,0.2,6.8,1.5,9.5,3.7c3.3,2.5,6.1,8.9,9.8,10.1c3.2,1,5.6-1.7,8.5-2.5c3.5-0.9,7.2-0.4,10.3,1.6c6.3,4,8,12.4,6.8,19.3
		c0,0.2-0.1,0.4,0,0.6C321.1,311.2,320.3,312.4,320.3,313.7z"/>
	<path d="M504.2,266.7c-1.4-3.7-4.5-6.4-8.3-7.2c0.1-2.8-1.1-5.6-3.2-7.5c-3-2.8-7.4-3.7-11.3-2.2c-1.8-4.2-5.5-7.3-9.9-8.4
		c-7.7-1.5-15.6,0.9-21,6.5c-4.5-4-10.8-5.2-16.5-3.2c-9,3.4-12.1,13.2-12.1,22.1c-15.8,4.1-18.5,23-11.7,36.7
		c0.1,0.3,0.3,0.5,0.5,0.6c0.2,7.2,7.7,10.9,14.1,8.1c5.6,3.4,12.6,3.5,18.4,0.4c3,4.8,9.4,6.3,14.2,3.4c6,3.8,14,2,17.8-4
		c0.1-0.1,0.1-0.2,0.2-0.3c6.9,1.3,13.5-3.3,14.8-10.2c0.1-0.7,0.2-1.5,0.2-2.2c7.7-3,10.5-11.6,7.6-18.7
		C503,278.1,506.3,272.4,504.2,266.7z M487.4,294.5c-0.3,0.2-0.5,0.3-0.8,0.5c-2.7,1.9-2.5,6-5.1,8.3c-2.6,2.2-6.1,3-9.5,2.7
		c-1.4,2.7-4.5,4.4-7.5,4.6c-2.5,0.2-4.7-1.3-7.2-0.9c-2.3,0.3-3.7,1.9-6.1,1.2c-2.5-0.7-4.1-3.6-6.4-4.7c-3.2-1.6-4.9,2-8.4,2.2
		c-4.1,0.3-8.2-2.3-11.7-3.4c-1.7-0.5-5-0.7-6.3-1.8c-1.9-1.6-0.7-5-4.6-4.7c-0.5,0-0.6,0.3-1.2,0.1c-0.5-5.3-1.5-11.4,0.3-16.6
		c1.6-4.5,5.6-8.4,10.3-8.8c2.5-0.2,4.9,0.6,6.1-2.2c0.5-1.3-0.5-4.2-0.5-5.6c0-2.4,0.3-4.7,1.1-7c1.3-3.5,3.9-6.7,7.4-7.9
		c5.6-1.9,8.1,3.5,13.4,3.6c4.2,0.1,5.4-3.2,8.6-5c2.3-1.3,5.1-1.3,7.7-1.2c5.4,0.2,7,2,8.7,6.7c0.5,1.5,2.1,2.7,3.7,2.8
		c4.1,0.2,5.4-5.4,9.8-1.8c3.1,2.6-1.7,6,1.3,8.6c2.7,2.3,8.2,0.9,7.7,6.6c-0.3,4.3-7.3,4.3-6.2,9.1c0.8,3.5,3,5,1.7,8.9
		C492.5,292.7,490.1,292.8,487.4,294.5z"/>
	<path class="st7" d="M378.6,297.6c10-3.3,23-1.3,31.6,4.9c4.8,3.4,9.1,7.4,12.9,11.8c0.5,0.6,1,1.2,1.3,1.9c1.1,2.6-1,5.1-3.1,6.1
		c-3.7,1.8-8.6,0.3-11.8-2.1c-0.2-0.1-0.4-0.3-0.6-0.3c-0.4,0-0.8,0.1-1.1,0.3c-4.9,2.6-11.4,0-15.3-3.5c-0.5-0.5-5.1-5.4-4.7-5.9
		c-0.2,0.3-0.4,0.6-0.7,0.8c-0.9,1.1-2.2,1.9-3.6,2.1c-1.5,0.2-2.9-0.7-3.3-2.1c0.8,3.7-1.1,7.4-4.4,9.1c-3.4,1.4-7.4,0.2-9.4-2.9
		c-0.9,4.1-4.7,6.8-8.8,6.3c-2.8-0.5-5.3-3.3-6.9-5.7c-1.3,2-3.7,3-6,2.6c1.9,0.4-1.8,7.1-2.2,7.9c-1.9,3.7-5.8,6.1-10,6
		c-0.4,2.2-1.5,4.3-3.3,5.7c-2.3,2.1-9.5,7.5-12.2,3.3c-2.8-4.5,3.5-13,5.4-16.7c2.4-4.7,5.6-9,9.4-12.7c3.2-3.2,7.8-3.9,10.9-7.1
		c1-1,1.7-2.4,2.6-3.5c2-2.3,4.7-4,7.7-4.8c3.3-1.1,6.7-1.6,10.1-1.6c3.6,0,8,1.8,11.5,1.3C375.9,298.5,377.3,298.1,378.6,297.6z"/>
	<path class="st8" d="M428,295.5c-1.9-2-6.1-5.4-9-4.9c-3,0.5-4.9,3.7-8,4.1c-1.6,0.2-3.3-1-4.6,0.5c-1,1.2-2.1,2.6-2.2,4.3
		c0.1,1.3,0.5,2.6,1.4,3.7c3.8,5.3,10,8.3,16.6,8c1.3,0,2.5-0.4,3.5-1.2c0.9-1,1.3-2.3,1-3.6c-0.2-1.2-0.7-2.4-1.3-3.5
		C429.2,302,430.6,298.3,428,295.5z"/>
	<path class="st8" d="M333.7,305.8c-1.2-0.3-2.5,0.1-3.2,1.1c-2.1,2.8-4.3-1-6.9-1.3c-6.2-0.6-9.2,7.4-12,11.6
		c-2.2,2.7-3.1,6.3-2.3,9.8c0,0.7,0.2,1.3,0.5,2c0.3,0.5,0.7,0.9,1.2,1.3c4.2,3.1,9-0.2,12.3-2.9c1.6-1.2,3.1-2.5,4.6-3.9
		C330.1,321.2,341.6,308,333.7,305.8z"/>
	<path d="M424.1,288.1c-2.9-1.3-7.3-1.2-9.9,0.8c-0.6,0.5-1,1-1.4,1.6c-3.5-1.6-9.1,0.3-10.9,3.8c-3.1,6.2,1.4,13.3,6.9,16.3
		c5.2,2.8,12.2,5.7,17.8,2.3c3.4-1.8,4.8-6,3.1-9.5C432.3,298.4,429.3,290.5,424.1,288.1z M423.8,305.3c0.5,0.6,0.7,1.4,0.6,2.2
		c-0.4,1.6-2.4,2.1-4.1,2c-3.1-0.5-6-1.7-8.4-3.6c-1.6-1.1-3.3-2.4-3.9-4.3s0.1-4.3,2-4.9c1-0.1,2.1-0.2,3.1-0.1
		c1.1-0.1,1.9-0.9,1.9-2c0.8-0.1,1.7-0.2,2.5-0.4c1.4-0.3,2.5-0.7,4-0.3c0.9,0.2,1.7,0.6,2.3,1.4c3.2,3.9,1.4,5.1-2.6,4.8
		c-0.2,0-0.5,0-0.6,0.1c-0.5,0.4-0.1,1.1,0.3,1.6C421.8,302.9,422.9,304.1,423.8,305.3z"/>
	<path d="M317.5,305.4c-3.6,3.7-7.1,7.8-8.7,12.8c-1.4,4.4-2.6,11,1.2,14.5c7,6.5,15.3-1.8,19.8-6.7c1.5-1.5,2.9-3.2,4.1-4.9
		c3-4.2,8-11.9,3.4-16.6c-2.3-2.3-5-1.6-7.5,0.3c-0.5-1.8-2-3.1-5.1-3.4S319.5,303.4,317.5,305.4z M313.6,328.3
		c-1.5-2.1-0.9-6.4-0.1-8.5c1.2-3.1,3.6-6,6-8.5c0.8-0.8,2.2-2.9,3.4-3.2c2.2-0.7,2.2,0.9,1.5,2.5c-0.7,1-1.3,2.1-1.8,3.2
		c-1,2.3,2.7,3.8,4.1,1.7c0.7-1.1,1.4-2.3,1.9-3.5c0.4-0.6,0.9-1.1,1.5-1.6c3.5-2.9,4.5,0.6,3.3,3.7c-0.3,0.8-0.7,1.5-1.1,2.1
		c-1.9,2.8-4.8,4.7-7.4,6.8s-6.9,9.3-10.8,5.8C314,328.6,313.8,328.4,313.6,328.3z"/>
	<path d="M405.7,331.6c-2,4-8.3,8.9-12.6,8.9L405.7,331.6z"/>
	<path d="M398.7,328.5c-0.6,4.5-4.6,9.5-8.7,11.5L398.7,328.5z"/>
	<path d="M394.2,327.9c1,4-1.6,9-5.1,11L394.2,327.9z"/>
	<path d="M397.1,340.5c0,3.3-3,6-6.7,5.9s-6.6-2.8-6.5-6.1s3-6,6.7-5.9S397.2,337.2,397.1,340.5z"/>
	<path d="M343.3,344c3.5,2.8,11.1,4.8,15.1,3.1L343.3,344z"/>
	<path d="M348.4,338.3c2.3,3.9,8,6.8,12.5,7L348.4,338.3z"/>
	<path d="M352.3,336c0.7,4.1,5.1,7.6,9.1,8L352.3,336z"/>
	<path d="M354.7,348.7c1.4,3,5.2,4.3,8.5,2.8s4.9-5.2,3.6-8.2s-5.2-4.3-8.5-2.8S353.3,345.7,354.7,348.7z"/>
	<path class="st9" d="M346.8,371.6c10,12.9,24,21.4,40.6,16c12.7-4.1,24.1-13.3,22.1-27.8"/>
	<path class="st10" d="M334.5,353.6c-2.4,2-4.9,4.2-6.1,7.1s-0.5,6.9,2.2,8.4c1.8,1,4.1,0.7,6.1,0.1c3.2-1,6.2-2.8,7.7-5.8
		s0.9-7.1-1.8-8.9c-3.7-2.5-8.5,0-12.2,2.5"/>
	<path class="st10" d="M404.2,344.8c-0.9,4.8,8.9,8.5,14.9,6.8c2.9-0.8,5.5-3.1,5.7-6.1c0.5-7.8-11.5-8.1-16.3-5.4
		C405.7,341.8,404.4,343.4,404.2,344.8z"/>
	<path class="st11" d="M399.1,536.5c-15.1,3.5-30.9,4.5-44.2,1.3c-4.2-1-8.8-3.1-10-6.9c-0.9-2.7,0.1-5.6,1-8.3
		c4.6-13.3,7.1-27.1,9.5-40.9c1.2-7.2,2.5-14.3,3.8-21.5c1.5-8.7-2.5-15.9,5.1-23.1c6.3-6,16.5-7.4,25.3-7.7
		c7.9-0.3,20.7-2.9,22.6,7.2c3.4,17.5,3.5,34.9,14.2,50c2.4,3.4,19.7,22.9,16.5,27C432.7,526.5,415.4,532.6,399.1,536.5z"/>
</g>
<g>
	<g class="st12">
		<path d="M537.4,249c-4.4-2.5-7.9-5.9-10.4-10.4c-2.5-4.4-3.7-9.5-3.7-15.2c0-1.9,0.6-3.4,1.8-4.6c1.2-1.2,2.7-1.8,4.5-1.8
			c1.9,0,3.4,0.6,4.6,1.8c1.2,1.2,1.8,2.7,1.8,4.6c0,5.2,1.5,9.5,4.6,12.8s7.1,5,12,5s8.9-1.7,12-5s4.7-7.6,4.7-12.8v-60.9
			c0-1.9,0.6-3.4,1.8-4.6c1.2-1.2,2.7-1.8,4.5-1.8c1.9,0,3.4,0.6,4.6,1.8c1.2,1.2,1.8,2.7,1.8,4.6v60.9c0,5.7-1.3,10.8-3.8,15.2
			s-6,7.9-10.4,10.4s-9.5,3.7-15.2,3.7C546.9,252.7,541.9,251.5,537.4,249z"/>
		<path d="M608,247.7c-5.1-2.9-9.1-6.9-12-12c-2.8-5.1-4.3-10.9-4.3-17.4c0-6.6,1.4-12.4,4.3-17.6c2.8-5.1,6.8-9.1,12-12
			c5.1-2.9,10.9-4.3,17.4-4.3c6.4,0,12.2,1.4,17.3,4.3c5.1,2.9,9.1,6.9,12,12s4.3,11,4.3,17.6c0,6.5-1.4,12.3-4.3,17.4
			c-2.8,5.1-6.8,9.1-11.9,12c-5.1,2.9-10.9,4.3-17.4,4.3C618.9,252,613.1,250.6,608,247.7z M636.6,238.1c3.3-2,5.9-4.7,7.7-8.1
			c1.8-3.5,2.7-7.4,2.7-11.8c0-4.4-0.9-8.3-2.7-11.8s-4.4-6.2-7.7-8.2s-7-2.9-11.2-2.9c-4.1,0-7.9,1-11.2,2.9
			c-3.3,2-5.9,4.7-7.7,8.2c-1.9,3.5-2.8,7.4-2.8,11.8c0,4.4,0.9,8.3,2.8,11.8c1.9,3.5,4.5,6.2,7.7,8.1s7,2.9,11.2,2.9
			S633.3,240.1,636.6,238.1z"/>
		<path d="M669.3,171.6c-1.6-1.6-2.4-3.5-2.4-5.7s0.8-4.1,2.4-5.7s3.5-2.4,5.7-2.4s4.1,0.8,5.7,2.4c1.6,1.6,2.4,3.5,2.4,5.7
			s-0.8,4.1-2.4,5.7c-1.6,1.6-3.5,2.4-5.7,2.4C672.8,173.9,670.9,173.1,669.3,171.6z M670.5,249.8c-1.2-1.2-1.8-2.7-1.8-4.5V191
			c0-1.9,0.6-3.4,1.8-4.5s2.7-1.7,4.5-1.7c1.9,0,3.4,0.6,4.5,1.7c1.1,1.1,1.7,2.6,1.7,4.5v54.3c0,1.8-0.6,3.3-1.7,4.5
			c-1.1,1.2-2.6,1.8-4.5,1.8C673.2,251.5,671.7,250.9,670.5,249.8z"/>
		<path d="M743.7,188.8c4.5,2.4,8,6,10.5,10.7s3.8,10.3,3.8,16.9v30c0,1.8-0.6,3.3-1.8,4.5s-2.7,1.8-4.5,1.8s-3.3-0.6-4.5-1.8
			s-1.8-2.7-1.8-4.5v-30c0-6.6-1.8-11.6-5.3-14.9c-3.5-3.4-8.2-5.1-14.1-5.1c-3.4,0-6.5,0.7-9.3,2.1c-2.8,1.4-5,3.3-6.6,5.6
			c-1.6,2.4-2.4,5-2.4,7.9v34.4c0,1.8-0.6,3.3-1.7,4.5c-1.1,1.2-2.6,1.8-4.5,1.8c-1.8,0-3.3-0.6-4.5-1.8s-1.8-2.7-1.8-4.5V192
			c0-1.9,0.6-3.4,1.8-4.5s2.7-1.7,4.5-1.7c1.9,0,3.4,0.6,4.5,1.7c1.1,1.1,1.7,2.6,1.7,4.5v1.3c2.6-2.6,5.7-4.6,9.3-6
			s7.4-2.1,11.5-2.1C734.2,185.2,739.2,186.4,743.7,188.8z"/>
		<path d="M874.9,186.4c1.1,1.1,1.7,2.6,1.7,4.5v54.4c0,1.8-0.6,3.3-1.7,4.5c-1.1,1.2-2.6,1.8-4.5,1.8c-1.8,0-3.3-0.6-4.5-1.8
			s-1.8-2.7-1.8-4.5V244c-2.6,2.6-5.7,4.6-9.3,6s-7.4,2.1-11.5,2.1c-5.6,0-10.7-1.2-15.1-3.7c-4.5-2.4-8-6-10.5-10.7
			s-3.8-10.3-3.8-16.9v-30c0-1.8,0.6-3.3,1.8-4.5s2.7-1.8,4.5-1.8s3.3,0.6,4.5,1.8s1.8,2.7,1.8,4.5v30c0,6.6,1.8,11.6,5.3,14.9
			c3.5,3.4,8.2,5.1,14.1,5.1c3.4,0,6.5-0.7,9.3-2.1c2.8-1.4,5-3.3,6.6-5.6c1.6-2.4,2.4-5,2.4-7.9v-34.4c0-1.9,0.6-3.4,1.8-4.5
			s2.7-1.7,4.5-1.7C872.2,184.7,873.7,185.2,874.9,186.4z"/>
		<path d="M900.2,249.5c-4.9-1.7-8.7-3.9-11.5-6.7c-1.1-1.1-1.6-2.3-1.6-3.8c0-2,0.8-3.5,2.4-4.8c1.5-1.1,3-1.7,4.3-1.7
			c1.6,0,3.2,0.7,4.6,2.2c1.5,1.7,3.9,3.2,7,4.5s6.4,1.9,9.9,1.9c4.6,0,8.2-0.8,10.8-2.3s3.8-3.6,3.8-6.2c0-2.5-1.3-4.6-3.8-6.3
			s-6.8-3.1-12.8-4.2c-15.6-3-23.4-9.4-23.4-19.3c0-4,1.2-7.4,3.5-10.1c2.4-2.8,5.4-4.8,9.3-6.2c3.8-1.4,7.9-2.1,12.2-2.1
			c5.3,0,10,0.9,14.2,2.6c4.2,1.7,7.5,4.1,9.9,7.1c1.1,1.3,1.6,2.6,1.6,3.9c0,1.4-0.7,2.6-2.1,3.8c-0.9,0.7-2,1-3.4,1
			c-2.1,0-4-0.8-5.7-2.3c-2-1.9-4.2-3.2-6.5-4s-5-1.2-8.3-1.2c-3.7,0-6.8,0.6-9.2,1.9c-2.4,1.3-3.6,3-3.6,5.3c0,1.6,0.4,3,1.2,4.1
			s2.4,2.1,4.6,3c2.3,0.9,5.6,1.9,9.9,2.7c8.9,1.8,15.1,4.3,18.8,7.4c3.7,3.2,5.6,7.3,5.6,12.3c0,3.7-1,7.1-3,10.2c-2,3-5,5.5-9,7.2
			c-3.9,1.8-8.7,2.6-14.2,2.6C910.3,252,905.1,251.2,900.2,249.5z"/>
	</g>
	<g>
		<g class="st12">
			<path d="M597.7,374.2c1,1.1,1.5,2.6,1.5,4.4s-0.7,3.3-2,4.4s-3.1,1.7-5.2,1.7h-2.2c-4,0-7.6-1-10.9-3.1c-3.3-2.1-5.9-4.9-7.7-8.5
				c-1.9-3.6-2.8-7.6-2.8-12.1v-30.1h-5.6c-1.7,0-3.1-0.5-4.1-1.5c-1.1-1-1.6-2.2-1.6-3.7c0-1.6,0.5-2.9,1.6-3.9s2.4-1.5,4.1-1.5
				h5.6v-17.6c0-1.8,0.6-3.3,1.7-4.4c1.1-1.1,2.6-1.7,4.4-1.7c1.8,0,3.3,0.6,4.4,1.7c1.1,1.1,1.7,2.6,1.7,4.4v17.6H591
				c1.7,0,3.1,0.5,4.1,1.5c1.1,1,1.6,2.3,1.6,3.9c0,1.5-0.5,2.7-1.6,3.7s-2.4,1.5-4.1,1.5h-10.4V361c0,3.3,0.9,6,2.7,8.2
				s4,3.3,6.6,3.3h4.1C595.4,372.5,596.6,373.1,597.7,374.2z"/>
		</g>
		<path d="M620.4,380.9c-5.1-2.9-9.1-6.9-12-12c-2.8-5.1-4.3-10.9-4.3-17.4c0-6.6,1.4-12.4,4.3-17.6c2.8-5.1,6.8-9.1,12-12
			c5.1-2.9,10.9-4.3,17.4-4.3c6.4,0,12.2,1.4,17.3,4.3s9.1,6.9,12,12s4.3,11,4.3,17.6c0,6.5-1.4,12.3-4.3,17.4
			c-2.8,5.1-6.8,9.1-11.9,12c-5.1,2.9-10.9,4.3-17.4,4.3C631.3,385.2,625.5,383.8,620.4,380.9z M649,371.3c3.3-2,5.9-4.7,7.7-8.1
			c1.8-3.5,2.7-7.4,2.7-11.8s-0.9-8.3-2.7-11.8s-4.4-6.2-7.7-8.2s-7-2.9-11.2-2.9c-4.1,0-7.9,1-11.2,2.9c-3.3,2-5.9,4.7-7.7,8.2
			c-1.9,3.5-2.8,7.4-2.8,11.8s0.9,8.3,2.8,11.8c1.9,3.5,4.5,6.2,7.7,8.1s7,2.9,11.2,2.9C642,374.2,645.7,373.3,649,371.3z"/>
		<path d="M744,291.2c1.1,1.1,1.7,2.6,1.7,4.5v55.6c0,6.3-1.5,12.1-4.5,17.3c-3,5.2-7,9.2-12.1,12.2s-10.8,4.5-17,4.5
			c-6.3,0-12-1.5-17.1-4.5c-5.2-3-9.2-7-12.1-12.2c-2.9-5.2-4.4-10.9-4.4-17.3c0-6.3,1.4-12.1,4.1-17.3c2.7-5.2,6.5-9.2,11.2-12.1
			s10.1-4.4,15.9-4.4c4.7,0,9.1,1,13.2,2.9c4.1,2,7.5,4.7,10.4,8.2v-32.9c0-1.9,0.6-3.4,1.8-4.5s2.7-1.7,4.5-1.7
			C741.4,289.4,742.9,290,744,291.2z M723.2,371.2c3.3-2,5.9-4.7,7.7-8.2c1.9-3.5,2.8-7.4,2.8-11.7c0-4.3-0.9-8.2-2.8-11.7
			c-1.9-3.5-4.5-6.2-7.7-8.2c-3.3-2-7-3-11-3c-4.1,0-7.7,1-11,3s-5.9,4.7-7.8,8.2c-1.9,3.5-2.9,7.3-2.9,11.7c0,4.3,1,8.2,2.9,11.7
			s4.5,6.2,7.8,8.2s7,3,11,3S719.9,373.2,723.2,371.2z"/>
		<g class="st12">
			<path d="M802.7,322c5.1,3,9.1,7,12.1,12.2s4.5,10.9,4.5,17.3v27.2c0,1.8-0.6,3.3-1.8,4.5s-2.7,1.8-4.5,1.8s-3.3-0.6-4.5-1.8
				c-1.2-1.2-1.8-2.7-1.8-4.5v-4.5c-2.8,3.5-6.3,6.2-10.4,8.2c-4.1,2-8.5,2.9-13.2,2.9c-5.9,0-11.2-1.5-15.9-4.4
				c-4.8-2.9-8.5-7-11.2-12.1c-2.7-5.2-4.1-10.9-4.1-17.3c0-6.3,1.5-12.1,4.4-17.3c2.9-5.2,7-9.2,12.1-12.2c5.2-3,10.9-4.5,17.1-4.5
				C791.9,317.5,797.6,319,802.7,322z M796.7,371.2c3.3-2,5.9-4.7,7.7-8.2c1.9-3.5,2.8-7.3,2.8-11.7c0-4.3-0.9-8.2-2.8-11.7
				c-1.9-3.5-4.5-6.2-7.7-8.2c-3.3-2-7-3-11-3c-4.1,0-7.7,1-11,3s-5.9,4.7-7.8,8.2c-1.9,3.5-2.9,7.4-2.9,11.7c0,4.3,1,8.2,2.9,11.7
				s4.5,6.2,7.8,8.2s7,3,11,3C789.8,374.2,793.4,373.2,796.7,371.2z"/>
		</g>
		<g class="st12">
			<path d="M885.5,323.4c0,0.8-0.2,1.8-0.7,2.9l-37.3,83.9c-1,2.5-2.6,3.8-4.8,3.8c-0.8,0-1.8-0.2-2.9-0.7c-2.4-1.1-3.7-2.6-3.7-4.8
				c0-1,0.2-2,0.7-2.9l12.2-27.5L821.5,326c-0.4-0.7-0.6-1.6-0.6-2.6c0-1.1,0.3-2,1-2.9s1.5-1.6,2.6-2.1c0.7-0.3,1.5-0.5,2.4-0.5
				c2.3,0,4,1.1,5.1,3.4l22.3,44.4l19.6-44.3c1.1-2.4,2.6-3.5,4.8-3.5c1.1,0,2,0.2,2.9,0.6C884.2,319.6,885.5,321.2,885.5,323.4z"/>
			<path d="M894.1,382.3c-1.7-1.6-2.5-3.6-2.5-6s0.8-4.4,2.5-6c1.7-1.7,3.6-2.5,5.9-2.5c2.3,0,4.2,0.8,5.9,2.5s2.5,3.7,2.5,6
				c0,2.4-0.8,4.4-2.5,6s-3.6,2.4-5.9,2.4C897.7,384.7,895.7,383.9,894.1,382.3z M895.6,360.3c-1.2-1.2-1.8-2.7-1.8-4.4v-60.1
				c0-1.8,0.6-3.3,1.8-4.5s2.7-1.8,4.5-1.8s3.3,0.6,4.5,1.8c1.2,1.2,1.8,2.7,1.8,4.5v60.1c0,1.7-0.6,3.2-1.9,4.4
				c-1.3,1.2-2.7,1.8-4.3,1.8C898.3,362.2,896.8,361.5,895.6,360.3z"/>
		</g>
	</g>
</g>
<g>
	
		<ellipse transform="matrix(0.7071 -0.7071 0.7071 0.7071 61.3712 864.3456)" class="st5" cx="1074" cy="358.1" rx="58.6" ry="58.6"/>
	<path d="M994.9,594c0.3-0.1,0.6-0.1,0.8-0.1c10.1,0.7,19.6,4,29.2,6.9c2.9-14.4-1.2-29.3,0.2-44c0.5-4.9,1-10.1,1.3-15.5
		c1.8,0.2,3.7,0.2,5.5-0.1c-0.5,3.4-1,6.8-1.5,9.9c-0.2,1.5-0.4,3.1-0.6,4.7c-1.8,15.5,2.6,31-0.5,46.3c0,0.2-0.1,0.4-0.2,0.6
		c0.8,1.5-0.3,3.8-2.3,3.5c-1.3,0.1-2.6,0.1-3.9,0.1c-0.4,0.1-0.9,0.1-1.3,0c-0.1,0-0.1,0-0.2-0.1c-7.7-0.3-15-2.5-22.4-4.2
		c-1.6-0.4-3.2-1.6-4.5-2.5c-0.3-0.2-2.3-1.9-2.1-2C991.5,596.1,992.7,593.5,994.9,594z"/>
	<path d="M1103.3,599.4c-0.6,0.7-1.3,1.4-2.1,2c-1.3,0.9-2.9,2.2-4.5,2.6c-7.3,1.7-14.7,4-22.4,4.4l-0.2,0.1c-0.4,0.1-0.9,0.1-1.3,0
		c-1.3,0-2.6,0-3.9-0.1c-2,0.3-3.1-2-2.3-3.5c-0.1-0.2-0.2-0.4-0.2-0.5c-3.3-15.3,0.9-30.8-1-46.3c-0.3-1.6-0.5-3.2-0.7-4.7
		c-0.5-3.1-1-6.4-1.6-9.8c1.8,0.2,3.7,0.2,5.5,0c0.4,5.3,1,10.6,1.5,15.5c1.6,14.6-2.4,29.5,0.7,44c9.6-3,19.1-6.3,29.1-7.2
		c0.3,0,0.6,0,0.8,0.1C1103.1,595.3,1104.3,597.9,1103.3,599.4z"/>
	<circle cx="1058.8" cy="336.2" r="5.7"/>
	<circle cx="1098.9" cy="349" r="5.7"/>
	<path class="st13" d="M1066.2,377.6c9.6,3.2,20.1,2.7,29.8,0c-1.9,0.5-6.5,8.3-8.4,10c-3.4,3-7.1,5.5-11.1,7.6
		c-7.3,3.8-13.3,5.3-19.9-1.1c-8-7.8-10.7-24.5-10.8-35.1C1050.8,367.6,1056.3,374.2,1066.2,377.6z"/>
	<path class="st14" d="M1049.5,286.2c3.7,2.4,6.8,5.7,9,9.6c-7.5,0.4-15,1.8-22.2,4.1c2.9,0.6,16.3,4.9,15,8.7s-2.5,7.6-3.8,11.4
		c1.2-3.7,19.6-8.5,22.8-9.8c0,5.4-2.2,10.6-6.1,14.4c5.3-5,12.4-5,17.6-9.8c1.7,2.8,12.7,15.4,9.1,19c2.5-2.6,13.3-10.1,13.4-13.5
		c2.8,5.7,6.2,11.2,10.1,16.3c-0.2-0.2,3.9-6.8,4.3-7.5c0.2-0.5,10.7,8.5,10.7,11.4c1.9-7.8-0.6-15.9-6.5-21.3
		c6.6-3.4,13.7-5.5,21.1-6.3c-5.2-2.9-11-4.8-16.9-5.5c-2.6-0.3-14.9,1.9-16.2,0.6c-3.8-3.6,6.1-17.8,10.4-17.5
		c-6.6-0.6-13.2,0.7-19.1,3.6c-0.8,0.4-10.7,7.9-10.9,6.8c-1-7.1-4.1-14.2-5.8-21.3c-1.7,4.9-3.2,10.1-5.5,14.7
		c-3.2-2.7-5.8-5.5-10-7.3C1064.7,285,1052.7,288.2,1049.5,286.2z"/>
	<path d="M1103.7,460.7c5,2.4,7.9,8,11.8,12c4.7,4.7,8.6,10.1,13.2,15c3.2,3.4,15.5,12.7,15.5,16.1c-0.4,2.5-1.1,5-2.2,7.3
		c-1.1,1.8-3.6,3.7-3.2,6c0.1,0.2,0.2,0.4,0.5,0.5c2.6,0.9,4.8-3.1,5.9-5c1.2-2.2,1.9-4.5,2.2-7c0.7,2,1.2,4.1,1.4,6.2
		c0.2,2.3-0.5,4.8,0.7,6.9c0.4,0.7,1.3,1,2.1,0.6c0.1-0.1,0.2-0.2,0.3-0.3c2-2,1.6-5.2,1.2-7.8c-0.3-2.1-0.9-4.2-1.7-6.2
		c0.5,0.2,1,0.4,1.5,0.6c2.3,0.8,4,1.7,6.1,0c4-3.3-12-5.5-13.4-6.4c-4.8-3.1-7.4-6.9-11.6-10.5c-5-4.3-23.8-26-27.3-32.6
		c0.1-3.5,3.2-5.6,2.6-8c-0.3-1.2-4.6-5.7-5.5-6.3c-6-4.1-11.8-8.9-18.7-11.4s-14-3.6-21.1-4.8c-6.4-1.1-13.4-1.8-19.2-5.3
		s-12.2-5.6-18.5-7.9c-3.2-1.1-11-5.5-13.3-0.8c-0.3,0.5-1,4-1.6,4.1c-2.3,0.1-7.6-2.4-9.7-3.2c-7.1-2.8-14.2-5.7-21.3-8.9
		c-9.2-4.1-19.6-6.9-28.2-12.2c-0.1,0-0.2-0.1-0.3-0.2c-0.2-1-1.1-1.8-2.1-1.9c-4.1-4.9-4.6-13.2-11.4-14.5c-0.4-0.1-0.9,0.2-1,0.6
		c0,0.2,0,0.4,0.1,0.6c2.2,4.4,3.6,8.4,5.8,11.9c-0.5-0.2-1.1-0.5-1.6-0.7c-3-1.4-6.4-3.8-9.8-3.3c-0.6,0.1-0.8,0.9-0.5,1.4
		c1.8,3.2,6.3,4.8,9.3,6.6c0.6,0.3,1.2,0.7,1.8,1.1l-0.5,0.4c-1.9,1.3-4.3,3-5.2,5.2c-0.6,1.1-0.2,2.5,0.9,3.1
		c0.5,0.3,1,0.3,1.5,0.2c2.1-0.3,4.1-1.9,5.8-3.1s3.8-2.3,5.6-3.6c8.1,5,17.4,9,26.2,12.7c10.1,4.2,20.2,8.2,30.5,12.1
		c0.4,0.2,2,0.7,2.5,0.9c-0.2,0.4-1,2.4-1.1,2.8c-0.8,1.7-1.1,3.6-1.1,5.5c-0.1,0.7,0,1.4,0.2,2.1c1.2,3.1,9.6,5.9,12.6,6.8
		c1.9,0.8,3.7,1.7,5.4,2.9c2.2,9.5-13.8,46.3-17.5,52.6c-1.4,2.4-1.3,5.4,0.2,7.8c0.8,1.2,5.7,2.4,5.7,2.4
		c1.7,16.1-12.3,35.3-8.8,42.9s40.8,14,43.7,6.2c0.9-2.4,0.7-5.2,1.1-7.7s1.4-4.3,1.1-6.9c0.4,3.5,0.6,6.9,0.9,10.4
		c0.4,4.3-0.8,11.2,4.3,13.3c2.6,1,5.5,0.6,8.2,0.1l8.9-1.6c13.4-2.4,14.8-9.5,11.5-21.3c-0.3-1-0.8-3.1-1.3-5.6
		c-1.1-5.3,1.3-13.4,2.6-15.6c3.7,0.6,7.9,2.9,8.7-2.3c0.1-1.5-0.1-2.9-0.5-4.3c-2.3-9.5-3.2-19.2-4-28.9c-0.5-6.8,0-20.5,0-20.5
		c3.3,1.8,6.9,5.2,10.2,5.8c1.7-2,1.8-4.6,3-6.8C1103.8,460.6,1103.5,460.6,1103.7,460.7z"/>
	<path class="st15" d="M1035.2,344.4c-3.2,16.2,8,10.5,11.3,2.7C1050.7,337.1,1036.8,336.2,1035.2,344.4z"/>
	<path class="st15" d="M1101.9,370.2c0.4,16.5,12.9,6,13,0.3C1115.2,358.7,1101.7,361.9,1101.9,370.2z"/>
	<path class="st16" d="M1032.3,455.3c-4.3,13.5-12,30-13.3,34.1c-5.8,17.6,32.8,15.3,42.2,16.9c9.1,1.5,17.8,4.3,26.8,6.2
		c0.3,0.1-1.9-5.6-2.1-6.2c-1.4-3.4-2.2-7.1-2.5-10.7c-0.2-4.4-0.9-9-0.6-13.5l1.6-28.3c4.6,1.4,9.1,3.4,13.3,5.9
		c-2.1-1.2,4.1-9.5,3.7-11.5c-0.6-3.1-5.3-5.4-7.7-6.8c-6.8-3.9-14.6-6.6-22.1-8.9c-9.1-2.7-18.9-3.2-27.7-7
		c-7.7-3.3-14.8-10.5-23.8-9.5c-3.4,0.4-8.2,9.1-6.3,12.2c0.1,0.1,0.2,0.3,0.3,0.4c4.7,5.5,16.5,3.8,20,8.7
		C1036.4,439.5,1035,446.8,1032.3,455.3z"/>
	<path class="st17" d="M1041.1,509.5c-7-0.9-13.9-2.3-20.1-5.4c-0.5-0.3-2.1,14.9-2.3,16c-2.3,12.5-10.8,25.2,7.7,27.3
		c4.9,0.6,14,1.9,17-3.2c1.5-2.5,1.8-6,3.2-8.6c1.5-3.1,3.7-5.7,6.5-7.8c1.4-1,3.3,7.6,3.4,8.2c0.4,3.2,0.7,6.4,1.4,9.6
		c1.2,5.9,1.4,9.8,8.9,8.2c4.3-0.9,10-1.6,13.2-4.9c4.8-4.8,0.4-10.4-0.7-15.8c-0.9-4.5,5.8-16.8-0.5-18.2
		C1066.3,512.4,1053.6,511.2,1041.1,509.5z"/>
</g>
<path class="st18" d="M1200,0H0v370.4c3.8,3.8,8.9,6,14.3,6c15.4,0.2,20.1-14.8,22.5-25C48.2,305,28.4,260,29,214.1
	c0.3-21-5.5-40.2,5.2-59.5c17.7-32.1,76.2-26.3,87.9,5.8c18.2,36.3,11.6,92,12.5,131.6c0.3,12.2,0.6,24.5,3.7,36.3
	c11.6,43.3,57.3,41,71.9,1.7c5.7-15.4,6.3-32.1,5.8-48.5c-0.9-29.9-7.8-58.2-10-87.9c-1.9-26-11.2-101.9,10-136.4
	c6.4-10.4,15.5-17,28.4-17.5c12.7-0.4,23.7,6.9,32.3,17.5c12.6,15.5,20.3,38,21.1,53.4c2.3,41.3-14.9,81.8-9.5,123.2
	c5.1,39.5,46.1,44.9,54.4,6.3c4.7-21.9-4.3-49.1-7.4-70.7c-6.7-47.1-9.5-102.5,48.3-112.1h571.8c5.4,0,10.7,0.2,16,0.6
	c126.3,8.2,226.1,112.9,228.6,240.6V0z"/>
</svg>
