<?xml version="1.0" encoding="utf-8"?>
<!-- Generator: Adobe Illustrator 23.0.1, SVG Export Plug-In . SVG Version: 6.00 Build 0)  -->
<svg version="1.1" id="Layer_1" xmlns="http://www.w3.org/2000/svg" xmlns:xlink="http://www.w3.org/1999/xlink" x="0px" y="0px"
	 viewBox="0 0 142 100" style="enable-background:new 0 0 142 100;" xml:space="preserve">
<style type="text/css">
	.st0{fill:none;}
</style>
<g>
	<circle class="st0" cx="22.4" cy="29.1" r="14.1"/>
	<circle class="st0" cx="118.5" cy="29.1" r="14.1"/>
	<circle class="st0" cx="70.5" cy="26.1" r="23.8"/>
	<path class="st0" d="M13.1,50.1c-1.3,0.2-2.6,0.5-3.7,1.2c-1.9,1.2-4.2,4-5,6.1c-2.1,5.1-4.5,18.7,4,19.7c3.5,0.4,6.4-0.5,9.9-0.1
		c3.3,0.4,4.4,0,5.4-3.4c1.8-5.6,4.7-10.9,8.6-15.3c1.6-1.8,5.5-4.1,6.3-6.1c-4.4-1.9-8.9-2.3-13.6-2.4
		C21.9,49.8,16.3,49.7,13.1,50.1z"/>
	<path class="st0" d="M103.1,53.8c-2-1.5,7.1-3.5,7.8-3.5c5.7-0.4,13.1-1.1,18.5,0.8c3.4,1.2,5.9,4.2,7.4,7.4
		c1.9,4.2,4,18.7-2.3,18.6c-4.5-0.1-10.3,1.4-14.7,0.2c-2.5-0.8-2.8-2.8-3.6-5c-1.2-3.3-2.4-6.8-4.6-9.7
		C109.6,59.7,107,56.7,103.1,53.8z"/>
	<path class="st0" d="M37.9,62.8c-4,3.8-5.7,9.3-7.2,14.6c-1.2,4.1-1.6,8.5-0.9,12.8c0.3,2.1,1.2,4.2,2.9,5.5
		c3.6,2.9,11.6,2.6,16,2.6c10.4-0.1,20.8-0.3,31.1-0.8c4-0.2,7.8,0.3,11.9,0.4c4.9,0.2,9.9,0.3,14.4-1.7c0.8-0.3,1.5-0.7,2.1-1.3
		c4.7-4,3.5-11.5,2.5-16.8c-1.3-6.6-2.2-12-8.1-16.2c-4.2-3-9.5-4.6-14.6-4.9c-5.4-0.3-11,2.2-16.5,2.5c-3.2,0.2-6.5,0-9.6-0.7
		c-2.5-0.6-4.8-2.3-7.3-2.5C49.2,56,41.7,59.2,37.9,62.8z"/>
</g>
<g>
	<g id="Layer_2_1_">
		<g id="Layer_1-2_1_">
			<path d="M101.4,100H39.7c-6.8,0-12.4-5.5-12.4-12.3v-6.3c0-4.7,1.3-9.5,3.6-13.4c2.3-4,5.7-7.4,9.8-9.8c4.1-2.3,8.7-3.6,13.4-3.6
				h2.2l0.4,0.2c8.7,4.2,19,4.2,27.6,0l0.5-0.2H87c4.7,0,9.3,1.2,13.4,3.6c4.1,2.3,7.4,5.7,9.8,9.8c2.3,4.1,3.6,8.7,3.6,13.4v6.1
				C113.8,94.4,108.2,100,101.4,100z M54,59c-3.9,0-7.8,1-11.2,3s-6.2,4.8-8.2,8.2c-1.9,3.3-3,7.3-3,11.2v6.3c0,4.4,3.6,8,8.1,8
				h61.7c4.5,0,8.1-3.5,8.1-8.1v-6.1c0-3.9-1-7.8-3-11.2c-2-3.4-4.8-6.2-8.2-8.2c-3.4-2-7.3-3-11.2-3h-1.3c-9.5,4.5-20.8,4.5-30.5,0
				H54V59z M132.1,79.5h-16l-0.3-1.9c-0.6-4.5-2.4-8.9-5-12.7c-2.6-3.7-5.9-6.8-10-9l-2.5-1.4l1.9-2c2.9-3,7-4.8,11.2-4.8l13.7,0.1
				c8.7,0.1,15.6,7.1,15.8,15.8v6.9C141.1,75.5,137,79.5,132.1,79.5z M119.8,75.2h12.3c2.6,0,4.7-2.1,4.7-4.7v-6.8
				c-0.1-6.3-5.2-11.4-11.5-11.5l-13.6-0.1c-2.1,0-4.2,0.6-5.9,1.7c3.5,2.3,6.4,5.3,8.8,8.7C117.1,66.3,118.9,70.7,119.8,75.2z
				 M25,79.5H9c-2.5,0-4.7-1-6.3-2.7C1,75.2,0,73,0,70.5v-6.8c0-4.2,1.7-8.3,4.7-11.2c2.9-3,7-4.7,11.2-4.7h13.7
				c4.2,0,8.2,1.7,11.1,4.8l2,2.1L40.1,56c-4,2.1-7.4,5.1-9.9,9c-2.6,3.8-4.4,8.2-5,12.8L25,79.5z M15.9,52.1c-3.1,0-6,1.2-8.1,3.4
				l-0.1,0.1c-2.2,2.1-3.4,5-3.4,8.1v6.8c0,0.9,0.2,2.2,1.3,3.2l0.1,0.1c1,1.1,2.3,1.3,3.2,1.3h12.3c0.9-4.5,2.7-8.9,5.4-12.7
				c2.3-3.5,5.3-6.4,8.7-8.7c-1.7-1.1-3.7-1.7-5.8-1.7H15.9V52.1z M70.5,52.2c-9.4,0-18-5-22.6-13c-4.7-8-4.7-18,0-26.2
				C55.1,0.6,71.1-3.7,83.6,3.5c4,2.2,7.3,5.6,9.6,9.6c4.7,8,4.7,18,0,26.1C88.5,47.2,79.9,52.2,70.5,52.2z M70.6,4.3
				c-7.5,0-14.9,3.9-18.8,10.9c-3.9,6.8-3.9,15.2,0,21.8c3.8,6.7,11,10.9,18.8,10.9s15-4.2,18.8-10.9c3.9-6.8,3.9-15.2,0-21.8
				c-1.9-3.3-4.7-6.1-8-8C78,5.3,74.2,4.3,70.6,4.3z M118.4,45.4c-4.2,0-8.2-1.7-11.1-4.7c-6.2-6.1-6.3-15.8-0.2-22l0.2-0.2
				c2.9-3,6.8-4.6,11-4.7c4.2,0,8.1,1.6,11.1,4.5l0.1,0.1c3,2.9,4.7,6.8,4.7,11c0.1,4.1-1.5,8.1-4.5,11.1l-0.2,0.2
				C126.6,43.7,122.7,45.4,118.4,45.4z M118.4,18L118.4,18c-3.1,0-5.9,1.2-8,3.4l-0.2,0.2c-2.1,2.2-3.3,5-3.2,8c0,3,1.3,5.8,3.4,7.9
				l0.1,0.1c2.1,2.2,5,3.4,8,3.4s5.9-1.2,8-3.4l0.3-0.3c4.4-4.5,4.3-11.5-0.2-15.9l-0.1-0.1C124.2,19.2,121.4,18,118.4,18z
				 M22.6,45.4c-4.2,0-8.2-1.7-11.1-4.7c-3-2.9-4.7-6.8-4.7-10.9c-0.1-4.1,1.5-8.1,4.5-11.1l0.2-0.2c2.9-3,7-4.7,11.2-4.7
				s8.2,1.7,11.1,4.7c6.2,6.1,6.3,15.8,0.2,22l-0.2,0.2C30.8,43.7,26.8,45.4,22.6,45.4z M22.8,18c-3.1,0-6,1.2-8.1,3.4l-0.3,0.3
				c-2.1,2.2-3.3,5-3.2,8c0,3,1.3,5.8,3.4,7.9l0.1,0.1c2.1,2.2,5,3.4,8,3.4s5.9-1.2,8.1-3.5l0.2-0.2c2.1-2.2,3.3-5,3.2-8
				s-1.3-5.8-3.4-7.9l-0.1-0.1C28.6,19.2,25.8,18,22.8,18z"/>
		</g>
	</g>
</g>
</svg>
