<?xml version="1.0" encoding="utf-8"?>
<!-- Generator: Adobe Illustrator 23.0.2, SVG Export Plug-In . SVG Version: 6.00 Build 0)  -->
<svg version="1.1" id="Layer_1" xmlns="http://www.w3.org/2000/svg" xmlns:xlink="http://www.w3.org/1999/xlink" x="0px" y="0px"
	 viewBox="0 0 190.2 190.2" style="enable-background:new 0 0 190.2 190.2;" xml:space="preserve">
<style type="text/css">
	.st0{fill:#EC008C;}
</style>
<path class="st0" d="M95.1,0L95.1,0C75,0,55.5,6.4,39.2,18.2l0,0C23,30,10.9,46.6,4.7,65.7l0,0c-6.2,19.1-6.2,39.7,0,58.8l0,0
	c6.2,19.1,18.3,35.7,34.5,47.6l0,0c16.2,11.8,35.8,18.2,55.9,18.2h0c20.1,0,39.7-6.4,55.9-18.2l0,0c16.2-11.8,28.3-28.5,34.5-47.6
	l0,0c6.2-19.1,6.2-39.7,0-58.8l0,0C179.4,46.6,167.3,30,151,18.2l0,0C134.8,6.4,115.2,0,95.1,0z"/>
<g>
	<g id="Layer_2_1_">
		<g id="Layer_1-2_1_">
			<path d="M127.6,150.1H59.8c-7.5,0-13.6-6.1-13.6-13.5v-6.9c0-5.2,1.4-10.5,4-14.7c2.5-4.4,6.3-8.1,10.8-10.8
				c4.5-2.5,9.6-4,14.7-4H78l0.4,0.2c9.6,4.6,20.9,4.6,30.4,0l0.6-0.2h2.4c5.2,0,10.2,1.3,14.7,4c4.5,2.5,8.1,6.3,10.8,10.8
				c2.5,4.5,4,9.6,4,14.7v6.7C141.3,144,135.1,150.1,127.6,150.1z M75.5,105c-4.3,0-8.6,1.1-12.3,3.3s-6.8,5.3-9,9
				c-2.1,3.6-3.3,8-3.3,12.3v6.9c0,4.8,4,8.8,8.9,8.8h67.9c5,0,8.9-3.9,8.9-8.9v-6.7c0-4.3-1.1-8.6-3.3-12.3s-5.3-6.8-9-9
				c-3.7-2.2-8-3.3-12.3-3.3h-1.4c-10.5,5-22.9,5-33.6,0h-1.4V105z M161.4,127.6h-17.6l-0.3-2.1c-0.7-5-2.6-9.8-5.5-14
				c-2.9-4.1-6.5-7.5-11-9.9l-2.8-1.5l2.1-2.2c3.2-3.3,7.7-5.3,12.3-5.3l15.1,0.1c9.6,0.1,17.2,7.8,17.4,17.4v7.6
				C171.3,123.2,166.8,127.6,161.4,127.6z M147.9,122.8h13.5c2.9,0,5.2-2.3,5.2-5.2v-7.5c-0.1-6.9-5.7-12.5-12.7-12.7l-15-0.1
				c-2.3,0-4.6,0.7-6.5,1.9c3.9,2.5,7,5.8,9.7,9.6C144.9,113,146.9,117.9,147.9,122.8z M43.6,127.6H26c-2.8,0-5.2-1.1-6.9-3
				c-1.9-1.8-3-4.2-3-6.9v-7.5c0-4.6,1.9-9.1,5.2-12.3c3.2-3.3,7.7-5.2,12.3-5.2h15.1c4.6,0,9,1.9,12.2,5.3l2.2,2.3l-2.9,1.4
				c-4.4,2.3-8.1,5.6-10.9,9.9c-2.9,4.2-4.8,9-5.5,14.1L43.6,127.6z M33.6,97.4c-3.4,0-6.6,1.3-8.9,3.7l-0.1,0.1
				c-2.4,2.3-3.7,5.5-3.7,8.9v7.5c0,1,0.2,2.4,1.4,3.5l0.1,0.1c1.1,1.2,2.5,1.4,3.5,1.4h13.5c1-5,3-9.8,5.9-14
				c2.5-3.9,5.8-7,9.6-9.6c-1.9-1.2-4.1-1.9-6.4-1.9h-15V97.4z M93.6,97.5c-10.3,0-19.8-5.5-24.9-14.3c-5.2-8.8-5.2-19.8,0-28.8
				C76.7,40.8,94.3,36,108,43.9c4.4,2.4,8,6.2,10.6,10.6c5.2,8.8,5.2,19.8,0,28.7C113.4,92,104,97.5,93.6,97.5z M93.7,44.8
				c-8.3,0-16.4,4.3-20.7,12c-4.3,7.5-4.3,16.7,0,24c4.2,7.4,12.1,12,20.7,12s16.5-4.6,20.7-12c4.3-7.5,4.3-16.7,0-24
				c-2.1-3.6-5.2-6.7-8.8-8.8C101.9,45.9,97.7,44.8,93.7,44.8z M146.3,90c-4.6,0-9-1.9-12.2-5.2c-6.8-6.7-6.9-17.4-0.2-24.2l0.2-0.2
				c3.2-3.3,7.5-5.1,12.1-5.2c4.6,0,8.9,1.8,12.2,5l0.1,0.1c3.3,3.2,5.2,7.5,5.2,12.1c0.1,4.5-1.7,8.9-5,12.2l-0.2,0.2
				C155.4,88.2,151.1,90,146.3,90z M146.3,59.9L146.3,59.9c-3.4,0-6.5,1.3-8.8,3.7l-0.2,0.2c-2.3,2.4-3.6,5.5-3.5,8.8
				c0,3.3,1.4,6.4,3.7,8.7l0.1,0.1c2.3,2.4,5.5,3.7,8.8,3.7s6.5-1.3,8.8-3.7l0.3-0.3c4.8-5,4.7-12.7-0.2-17.5l-0.1-0.1
				C152.7,61.2,149.6,59.9,146.3,59.9z M40.9,90c-4.6,0-9-1.9-12.2-5.2c-3.3-3.2-5.2-7.5-5.2-12c-0.1-4.5,1.7-8.9,5-12.2l0.2-0.2
				c3.2-3.3,7.7-5.2,12.3-5.2s9,1.9,12.2,5.2c6.8,6.7,6.9,17.4,0.2,24.2l-0.2,0.2C50,88.2,45.6,90,40.9,90z M41.2,59.9
				c-3.4,0-6.6,1.3-8.9,3.7L31.9,64c-2.3,2.4-3.6,5.5-3.5,8.8c0,3.3,1.4,6.4,3.7,8.7l0.1,0.1c2.3,2.4,5.5,3.7,8.8,3.7
				s6.5-1.3,8.9-3.9l0.2-0.2c2.3-2.4,3.6-5.5,3.5-8.8s-1.4-6.4-3.7-8.7l-0.1-0.1C47.5,61.2,44.5,59.9,41.2,59.9z"/>
		</g>
	</g>
</g>
</svg>
